<svg version="1.1" id="Layer_8" xmlns="http://www.w3.org/2000/svg" xmlns:xlink="http://www.w3.org/1999/xlink" x="0px" y="0px" height="80px" viewBox="0 0 425.905 158.174" enable-background="new 0 0 425.905 158.174" xml:space="preserve" style="fill: rgb(0, 112, 60);">
	<g>
		<path id="XMLID_2997_" d="M60.336,20.56c-1.66,34.438,0.352,69.044-4.028,103.327
			c-0.018,0.144,0.14,0.211,0.259,0.213c18.196,0.266,36.396,0.205,54.589-0.218c3.933-0.092,7.866-0.199,11.798-0.323
			c2.84-0.09,6.82,0.491,9.476-0.454c5.112-1.82,2.694-9.591,2.414-13.648c-1.274-18.451-2.549-36.903-3.823-55.354
			c-0.637-9.226-1.275-18.451-1.912-27.677c-0.369-5.35,0.621-10.116-5.689-10.248c-10.407-0.218-21.181,1.294-31.548,2.173
			c-10.504,0.891-20.992,1.958-31.464,3.169c-0.42,0.049-0.664,0.573-0.098,0.508c11.126-1.287,22.271-2.409,33.433-3.334
			c5.252-0.435,10.509-0.828,15.768-1.18c2.63-0.176,5.26-0.342,7.891-0.497c1.106-0.064,2.787-0.364,3.946-0.225
			c7.012,0.841,6.36,1.738,6.667,5.899c1.623,22.068,3.05,44.152,4.574,66.228c0.364,5.271,0.729,10.544,1.093,15.815
			c0.182,2.636,0.364,5.272,0.546,7.908c0.091,1.316,0.226,2.635,0.273,3.953c0.115,3.231-0.331,4.913-3.654,6.188
			c-2.145,0.822-6.42,0.225-8.769,0.297c-3.213,0.1-6.427,0.188-9.641,0.265c-5.523,0.133-11.046,0.233-16.57,0.301
			c-11.048,0.135-22.097,0.141-33.145,0.019c-0.85-0.01-3.319,0.261-3.899-0.049c-2.257-1.207-1.158-2.047-1.209-3.689
			c-0.078-2.511,0.577-5.252,0.804-7.758c0.528-5.824,0.898-11.662,1.164-17.504c1.125-24.717,0.388-49.477,1.58-74.192
			C61.179,20.101,60.351,20.251,60.336,20.56L60.336,20.56z" style="stroke-dasharray: 319.38px; stroke-dashoffset: 0px; stroke: rgb(0, 112, 60);"></path>
		<path id="XMLID_3002_" d="M81.418,19.139c0.227,2.656,0.292,5.327,0.196,7.991
			c4.353,0.364,8.726-0.127,13.066-0.618c4.715-0.533,9.431-1.066,14.146-1.6c0.243-0.027,0.51-0.067,0.667-0.254
			c0.139-0.164,0.154-0.396,0.16-0.612c0.056-2.023-0.076-4.053-0.393-6.052c-0.049-0.308-0.116-0.642-0.353-0.844
			c-0.276-0.236-0.684-0.214-1.046-0.178c-8.493,0.852-16.977,1.782-25.452,2.791c-0.366,0.044-0.777,0.114-0.984,0.419" style="stroke-dasharray: 319.38px; stroke-dashoffset: 0px; stroke: rgb(0, 112, 60);"></path>
		<path id="XMLID_3009_" d="M141.458,0.826c-2.429,18.929-4.006,37.955-4.638,57.03
			c-0.148,4.486-0.509,9.093-0.294,13.579c0.096,2.012,0.159,2.519,1.953,3.258c3.092,1.275,7.481,1.459,10.774,1.82
			c4.224,0.464,8.481,0.641,12.729,0.538c8.164-0.197,16.305-1.438,24.15-3.709c5.839-1.689,8.361-2.98,8.312-9.557
			c-0.134-18.207-4.16-36.539-6.862-54.493c-0.417-2.766-0.068-6.759-3.112-7.967c-3.014-1.196-7.959-0.661-11.144-0.823
			c-10.408-0.528-20.828-0.623-31.245-0.366c-0.441,0.011-0.654,0.548-0.091,0.534c10.348-0.255,20.697-0.155,31.036,0.369
			c4.443,0.226,11.051-0.787,13.064,4.021c1.47,3.511,1.306,8.674,1.877,12.467c1.454,9.659,3.044,19.311,4.279,29.001
			c0.651,5.111,1.17,10.246,1.328,15.399c0.146,4.826,0.827,7.289-4.981,10.135c-1.805,0.885-4.134,1.241-6.082,1.724
			c-9.576,2.372-19.52,3.218-29.36,2.517c-2.402-0.172-4.798-0.434-7.18-0.789c-1.681-0.251-5.667-0.283-7.005-1.324
			c-3.315-2.579-1.44-12.73-1.318-16.414c0.631-19.075,2.208-38.102,4.638-57.03C142.333,0.368,141.5,0.498,141.458,0.826
			L141.458,0.826z" style="stroke-dasharray: 319.38px; stroke-dashoffset: 0px; stroke: rgb(0, 112, 60);"></path>
		<path id="XMLID_3014_" d="M151.872,0.54c-0.662,1.388-1.023,2.917-1.051,4.454
			c-0.004,0.214,0.005,0.445,0.143,0.608c0.177,0.21,0.492,0.222,0.767,0.216c5.622-0.12,11.243-0.24,16.864-0.359
			c0.003-1.295,0.005-2.589,0.008-3.883c0.001-0.303-0.006-0.628-0.187-0.87c-0.259-0.349-0.759-0.384-1.193-0.386
			c-5.204-0.03-10.409,0.071-15.608,0.306" style="stroke-dasharray: 319.38px; stroke-dashoffset: 0px; stroke: rgb(0, 112, 60);"></path>
		<path id="XMLID_3021_" d="M212.953,4.248c-2.677,8.482-4.651,17.146-5.741,25.979
			c-0.544,4.406-0.88,8.84-1.004,13.279c-0.067,2.365-0.887,6.26,0.974,8.154c3.164,3.222,11.677,3.267,15.778,3.107
			c6.887-0.27,13.541-2.164,19.953-4.579c0.083-0.031,0.238-0.122,0.247-0.228c0.516-6.296-1.25-12.651-2.557-18.773
			c-1.406-6.585-2.999-13.131-4.769-19.628c-1.267-4.649-1.133-6.763-5.949-7.648c-5.634-1.037-11.348-1.043-17.023-0.396
			c-0.407,0.047-0.676,0.539-0.107,0.474c5.212-0.594,15.56-1.959,19.719,1.95c3.465,3.258,4.302,12.438,5.396,17.024
			c1.266,5.302,2.418,10.632,3.441,15.986c0.618,3.235,1.556,6.307,0.419,9.464c-0.946,2.63-2.112,2.541-4.642,3.325
			c-1.356,0.421-2.729,0.805-4.11,1.132c-6.147,1.455-12.541,1.987-18.76,0.656c-1.277-0.273-2.762-0.586-3.917-1.194
			c-2.642-1.393-3.139-4.077-3.311-7.022c-0.146-2.496,0.146-5.113,0.316-7.605c0.781-11.419,3.027-22.647,6.47-33.555
			C213.869,3.853,213.043,3.961,212.953,4.248L212.953,4.248z" style="stroke-dasharray: 319.38px; stroke-dashoffset: 0px; stroke: rgb(0, 112, 60);"></path>
		<path id="XMLID_3028_" d="M230.727,5.16c-4.842,15.927-6.657,32.397-5.401,48.995
			c0.028,0.378,0.852,0.181,0.821-0.22c-1.247-16.477,0.561-32.868,5.366-48.678C231.652,4.803,230.834,4.807,230.727,5.16
			L230.727,5.16z" style="stroke-dasharray: 319.38px; stroke-dashoffset: 0px; stroke: rgb(0, 112, 60);"></path>
		<path id="XMLID_3033_" d="M215.978,3.48c-0.499,1.101-0.795,2.293-0.869,3.498
			c-0.008,0.134-0.008,0.284,0.084,0.381c0.087,0.092,0.227,0.104,0.354,0.109c2.428,0.12,4.856,0.24,7.285,0.359
			c0.226,0.012,0.467,0.02,0.663-0.096c0.232-0.137,0.34-0.41,0.432-0.664c0.318-0.875,0.635-1.75,0.953-2.626
			c0.107-0.296,0.212-0.637,0.057-0.911c-0.179-0.317-0.604-0.375-0.968-0.395c-2.572-0.136-5.149-0.16-7.723-0.073
			c-0.248,0.008-0.566,0.313-0.335,0.403" style="stroke-dasharray: 319.38px; stroke-dashoffset: 0px; stroke: rgb(0, 112, 60);"></path>
		<path id="XMLID_3040_" d="M260.651,9.29c-1.88,4.877-2.34,10.003-2.581,15.194
			c-0.144,3.101-0.193,6.205-0.271,9.307c-0.041,1.627-0.931,5.846-0.173,7.197c1.183,2.111,5.644,2.54,7.992,2.791
			c4.457,0.475,11.147-0.64,15.125-2.513c2.423-1.142,1.773-3.16,1.563-5.677c-0.534-6.396-1.649-12.727-2.779-19.04
			c-0.909-5.081-1.073-6.736-6.295-8.209c-4.155-1.172-8.327-0.797-12.351,0.659c-0.487,0.176-0.345,0.761,0.155,0.58
			c4.264-1.542,9.896-2.211,14.043,0.127c3.569,2.012,3.505,6.319,4.132,9.906c0.664,3.793,1.299,7.593,1.773,11.414
			c0.221,1.783,0.799,3.94,0.56,5.702c0.676,2.171-0.294,3.646-2.908,4.428c-0.949,0.226-1.898,0.451-2.847,0.677
			c-4.249,1.01-11.052,2.903-15.129,0.17c-3.308-2.218-2.047-7.545-1.961-10.939c0.184-7.263,0.089-14.799,2.739-21.672
			C261.611,8.946,260.787,8.938,260.651,9.29L260.651,9.29z" style="stroke-dasharray: 319.38px; stroke-dashoffset: 0px; stroke: rgb(0, 112, 60);"></path>
		<path id="XMLID_3045_" d="M264.019,8.561c-0.374,1.052-0.635,2.144-0.776,3.251c-0.01,0.077-0.015,0.166,0.041,0.22
			c0.045,0.045,0.115,0.049,0.178,0.051c2.443,0.069,4.89,0.139,7.33-0.011c0.185-1.21,0.293-2.433,0.326-3.657
			c0.002-0.093,0.002-0.193-0.054-0.269c-0.064-0.086-0.18-0.11-0.286-0.127c-2.294-0.364-4.676-0.167-6.879,0.571
			c0.071,0.011,0.143,0.021,0.214,0.033" style="stroke-dasharray: 319.38px; stroke-dashoffset: 0px; stroke: rgb(0, 112, 60);"></path>
		<path id="XMLID_3052_" d="M276.953,11.226c-1.724,10.411-2.914,20.879-3.572,31.41
			c-0.01,0.151,0.805,0.046,0.821-0.22c0.657-10.506,1.845-20.939,3.564-31.323C277.804,10.863,276.99,11.005,276.953,11.226
			L276.953,11.226z" style="stroke-dasharray: 319.38px; stroke-dashoffset: 0px; stroke: rgb(0, 112, 60);"></path>
		<path id="XMLID_3059_" d="M304.298,13.828c-1.342,4.32-2.534,8.675-3.489,13.098
			c-0.478,2.211-2.933,8.738-1.562,10.805c1.011,1.522,5.07,1.439,6.506,1.504c3.294,0.149,6.537-0.619,9.562-1.91
			c1.8-0.77,2.083-0.689,2.736-2.19c0.722-1.659-0.084-5.504-0.168-7.317c-0.086-1.856-0.206-3.711-0.358-5.563
			c-0.241-2.93,0.075-6.09-2.677-7.767c-2.586-1.575-6.871-1.488-9.765-1.609c-0.42-0.017-0.828,0.609-0.275,0.632
			c2.105,0.088,4.605,0.045,6.622,0.736c5.837,2.002,5.068,5.142,5.406,9.969c0.171,2.435,0.284,4.872,0.34,7.312
			c0.088,3.835,0.045,4.432-4.268,5.999c-2.575,0.936-5.872,1.616-8.567,0.909c-4.323-1.133-4.133-4.189-3.458-7.787
			c1.061-5.652,2.5-11.213,4.207-16.704C305.233,13.477,304.415,13.453,304.298,13.828L304.298,13.828z" style="stroke-dasharray: 319.38px; stroke-dashoffset: 0px; stroke: rgb(0, 112, 60);"></path>
		<path id="XMLID_3066_" d="M313.574,15.284c-2.095,7.912-3.691,15.907-4.798,24.016
			c-0.012,0.089,0.788,0.025,0.821-0.221c1.104-8.085,2.698-16.056,4.787-23.942C314.426,14.977,313.627,15.08,313.574,15.284
			L313.574,15.284z" style="stroke-dasharray: 319.38px; stroke-dashoffset: 0px; stroke: rgb(0, 112, 60);"></path>
		<path id="XMLID_3073_" d="M337.858,18.917c-2.114,3.771-3.832,7.707-5.01,11.872
			c-0.508,1.793-2.172,5.08-0.324,6.385c0.866,0.61,3.505,0.288,4.563,0.354c2.512,0.157,5.031,0.376,7.545,0.471
			c0.776,0.029,1.933,0.252,2.59-0.364c1.703-1.598,0.847-6.856,0.852-8.893c0.008-2.769,0.876-7.916-1.89-9.631
			c-1.26-0.78-8.417-2.556-8.608,0.125c-0.011,0.162,0.802,0.055,0.822-0.22c0.052-0.73,3.248-0.415,3.638-0.348
			c1.562,0.269,3.44,0.454,4.355,1.756c1.025,1.459,0.777,3.85,0.825,5.557c0.065,2.355,0.338,5.123-0.076,7.451
			c-0.287,1.613-0.993,3.367-2.74,4.142c-0.855,0.38-2.87-0.179-3.773-0.235c-1.667-0.104-5.375,0.353-6.791-0.423
			c-2.177-1.191-0.666-4.516-0.173-6.255c1.179-4.165,2.897-8.101,5.011-11.872C338.758,18.637,337.984,18.693,337.858,18.917
			L337.858,18.917z" style="stroke-dasharray: 319.38px; stroke-dashoffset: 0px; stroke: rgb(0, 112, 60);"></path>
		<path id="XMLID_3080_" d="M344.575,19.004c-4.301-2.242-5.856,16.115-5.943,18.645
			c-0.005,0.138,0.813,0.03,0.821-0.22c0.036-1.055,2.486-19.111,4.349-18.141C344.017,19.4,344.688,19.063,344.575,19.004
			L344.575,19.004z" style="stroke-dasharray: 319.38px; stroke-dashoffset: 0px; stroke: rgb(0, 112, 60);"></path>
		<path id="XMLID_3087_" d="M361.537,23.261c-1.017,3.303-2.034,6.604-3.051,9.907c-0.438,1.421-1.6,3.827-0.2,5.107
			c1.244,1.139,4.225,0.518,5.674,0.512c1.094-0.006,3.184,0.367,4.167-0.467c0.998-0.847,0.623-2.582,0.575-3.707
			c-0.109-2.601,0.04-5.379-0.56-7.926c-0.691-2.938-3.046-5.236-6.091-3.84c-0.27,0.123-0.336,0.409,0.015,0.447
			c2.537,0.281,0.661,7.063,0.379,9.049c-0.18,1.267-1.479,5.166-0.691,6.18c0.153,0.197,0.576,0.063,0.714-0.082
			c0.038-0.039,0.075-0.078,0.112-0.117c0.056-0.058,0.13-0.18,0.045-0.253c-0.028-0.024-0.057-0.049-0.085-0.073
			c-0.238-0.205-1.009,0.119-0.759,0.335c0.614,0.529,1.121-3.556,1.16-3.819c0.168-1.129,0.331-2.259,0.487-3.391
			c0.364-2.639,0.692-5.282,0.996-7.93c0.018-0.151-0.139-0.196-0.258-0.209c-1.879-0.208,0.281-0.021,0.86,0.277
			c0.802,0.413,1.461,1.352,1.825,2.15c0.437,0.961,0.604,2.055,0.721,3.095c0.138,1.226,0.146,2.469,0.198,3.7
			c0.03,0.7,0.062,1.4,0.089,2.102c0.065,1.711,0.614,2.48-1.171,3.352c-1.328,0.648-3.808,1.045-5.339,0.63
			c-1.104-0.298-2.633-1.85-2.688-3.033c-0.029-0.645,0.46-1.564,0.649-2.179c1.017-3.302,2.034-6.604,3.05-9.907
			C362.46,22.852,361.63,22.958,361.537,23.261L361.537,23.261z" style="stroke-dasharray: 319.38px; stroke-dashoffset: 0px; stroke: rgb(0, 112, 60);"></path>
		<path id="XMLID_3094_" d="M382.331,25.581c-0.361,2.707-0.679,5.419-0.938,8.138
			c-0.098,1.035-0.909,3.575-0.011,4.45c0.974,0.949,4.17,0.387,5.404,0.402c0.991,0.013,2.231,0.123,2.954-0.705
			c0.891-1.021,0.063-2.084-0.474-3.068c-1.328-2.435-1.06-4.632-1.667-7.215c-0.5-2.131-2.922-3.883-4.818-2.132
			c-0.408,0.376,0.24,0.659,0.545,0.377c0.936,0.153,1.873,0.307,2.809,0.459c0.187,0.38,0.374,0.761,0.561,1.141
			c0.23,0.707,0.235,1.495,0.29,2.228c0.062,0.822,0.073,1.637,0.25,2.447c0.179,0.818,0.481,1.613,0.867,2.356
			c0.176,0.34,0.762,0.946,0.8,1.317c-0.275,0.731-0.549,1.464-0.824,2.195c-0.665,0.003-1.33-0.005-1.994-0.024
			c-1.079-0.021-3.093,0.314-3.799-0.507c-0.707-0.823-0.163-2.72-0.062-3.783c0.259-2.719,0.577-5.431,0.938-8.138
			C383.219,25.102,382.38,25.209,382.331,25.581L382.331,25.581z" style="stroke-dasharray: 319.38px; stroke-dashoffset: 0px; stroke: rgb(0, 112, 60);"></path>
		<path id="XMLID_3101_" d="M398.297,26.899c-0.347,2.224-0.694,4.447-1.042,6.671
			c-0.169,1.082-1.08,3.447-0.378,4.459c0.566,0.815,2.32,0.496,3.072,0.497c1.023,0.001,3.194,0.475,4.065-0.19
			c0.539-0.411,0.479-0.68,0.439-1.333c-0.128-2.146-1.252-4.63-1.824-6.71c-0.55-2.001-1.499-4.765-4.077-3.542
			c-0.505,0.239-0.058,0.733,0.375,0.527c2.511-1.191,3.443,5.304,3.792,6.59c0.17,0.626,1.138,2.782,0.912,3.355
			c-0.417,1.058-1.444,0.661-2.405,0.659c-1.094-0.001-3.088,0.346-3.657-1.028c-0.265-0.641,0.41-2.627,0.521-3.335
			c0.347-2.224,0.694-4.447,1.042-6.671C399.201,26.411,398.359,26.502,398.297,26.899L398.297,26.899z" style="stroke-dasharray: 319.38px; stroke-dashoffset: 0px; stroke: rgb(0, 112, 60);"></path>
		<path id="XMLID_3108_" d="M413.008,29.636c-0.401,1.608-0.802,3.218-1.203,4.827
			c-0.229,0.92-0.473,1.837-0.688,2.759c-0.037,0.158-0.346,0.9-0.185,1.171c0.248,0.416,0.513,0.334,0.969,0.369
			c1.476,0.114,3.219-0.354,4.695-0.518c0.065-0.008,0.555-0.135,0.478-0.298c-0.704-1.483-0.806-2.83-0.689-4.447
			c0.082-1.128,0.272-2.351-0.459-3.32c-0.791-1.049-2.043-1.231-3.119-0.585c-0.47,0.283,0.264,0.309,0.49,0.173
			c0.987-0.594,1.94,0.648,2.21,1.409c0.35,0.983,0.043,2.081,0.002,3.082c-0.059,1.415,0.133,2.622,0.743,3.909
			c0.159-0.1,0.318-0.198,0.478-0.298c-0.995,0.11-1.99,0.22-2.985,0.33c-0.521,0.058-1.657,0.221-1.984-0.412
			c-0.146-0.283,0.357-1.433,0.43-1.725c0.544-2.184,1.088-4.368,1.633-6.553C413.882,29.273,413.068,29.396,413.008,29.636
			L413.008,29.636z" style="stroke-dasharray: 319.38px; stroke-dashoffset: 0px; stroke: rgb(0, 112, 60);"></path>
		<path id="XMLID_3115_" d="M6.437,134.606c20.279,2.288,41.012,0.661,61.358,0.166
			c21.581-0.524,43.161-1.049,64.742-1.573c4.98-0.121,9.96-0.241,14.94-0.362c2.403-0.059,3.242,0.033,5.606,1.016
			c3.13,1.302,2.645,1.046,3.02,3.974c0.418,3.264,1.267,7.331,0.874,10.571c-0.456,3.751-1.666,3.872-5.204,4.343
			c-2.233,0.297-4.466,0.59-6.7,0.874c-5.425,0.69-10.856,1.334-16.3,1.854c-21.799,2.082-43.663,1.208-65.518,0.772
			c-11.809-0.236-23.617-0.472-35.426-0.707c-5.904-0.118-11.809-0.236-17.713-0.354c-2.784-0.056-2.879-0.003-5.357-1.884
			c-2.61-1.982-2.636-2.662-3.103-5.574c-0.201-1.253-0.383-2.519-0.51-3.779c-0.061-0.633-0.122-1.266-0.184-1.898
			c-0.924-3.819,0.969-6.154,5.682-7.004c0.266,0.184,1.005-0.193,0.641-0.443c-2.117-1.458-4.694-0.822-6.189,1.288
			c-1.616,2.281-1.044,5.697-0.772,8.277c0.3,2.844,0.197,8.035,2.407,10.303c1.481,1.519,4.253,1.188,6.102,1.24
			c4.591,0.13,9.185,0.183,13.777,0.274c9.185,0.184,18.369,0.367,27.554,0.551c17.748,0.354,35.526,1.031,53.278,0.842
			c18.122-0.193,36.047-2.444,53.982-4.858c0.142-0.02,0.46-0.116,0.458-0.311c-0.038-3.263-0.158-6.517-0.436-9.769
			c-0.201-2.354,0.16-7.109-1.344-9.087c-2.021-2.658-8.873-1.044-11.524-0.979c-15.272,0.371-30.545,0.742-45.817,1.113
			c-15.272,0.37-30.544,0.741-45.817,1.113c-15.393,0.373-30.87,1.199-46.208-0.531C6.366,134.021,5.883,134.544,6.437,134.606
			L6.437,134.606z" style="stroke-dasharray: 319.38px; stroke-dashoffset: 0px; stroke: rgb(0, 112, 60);"></path>
		<path id="XMLID_3122_" d="M146.272,130.835c27.399-28.684,60.147-49.247,95.684-66.399
			c37.35-18.027,77.219-24.646,118.428-25.407c21.635-0.399,43.265,0.533,64.872,1.517c0.177,0.008,0.934-0.315,0.533-0.334
			c-39.999-1.819-80.514-3.585-120.161,3.303c-39.008,6.775-75.964,24.052-109.165,45.312
			c-18.612,11.918-35.673,26.096-50.935,42.073C145.363,131.072,146.134,130.98,146.272,130.835L146.272,130.835z" style="stroke-dasharray: 319.38px; stroke-dashoffset: 0px; stroke: rgb(0, 112, 60);"></path>
		<path id="XMLID_3129_" d="M174.13,111.895c0.257,7.252,0.677,14.495,1.307,21.725
			c0.611,7.009,0.542,15.288,2.563,22.053c2.792,9.346,13.622-10.347,15.068-12.442c3.149-4.562,2.565-6.945,0.759-12.179
			c-2.167-6.279-3.851-13.112-6.683-19.121c-1.495-3.17-4.211-5.457-7.914-4.811C176.44,107.605,174.442,109.07,174.13,111.895
			c-0.047,0.428,0.791,0.322,0.833-0.059c5.258-4.158,8.862-4.418,10.812-0.777c0.346,0.77,0.693,1.54,1.04,2.311
			c0.738,1.835,1.307,3.752,1.953,5.621c1.211,3.509,2.422,7.018,3.633,10.526c0.659,1.911,1.51,3.842,1.976,5.81
			c0.736,3.108-0.362,4.996-1.999,7.65c-1.971,3.197-4.331,6.222-6.478,9.306c-0.853,1.226-4.45,7.565-6.984,3.681
			c-0.616-0.944-0.592-3.928-0.725-4.928c-0.516-3.909-0.975-7.826-1.375-11.748c-0.933-9.128-1.528-18.282-1.853-27.451
			C174.948,111.398,174.117,111.518,174.13,111.895L174.13,111.895z" style="stroke-dasharray: 319.38px; stroke-dashoffset: 0px; stroke: rgb(0, 112, 60);"></path>
		<path id="XMLID_3136_" d="M180.864,115.811c-1.604,3.802-1.375,9.313,0.757,12.918
			c1.105,1.868,3.215,1.816,3.826-0.289c0.666-2.295,0.473-5.102,0.078-7.438c-0.297-1.759-0.895-5.359-2.4-6.608
			c-2.207-1.83-2.594,1.718-2.939,3.173c-0.098,0.415,0.744,0.327,0.834-0.055c0.127-0.535,0.253-1.07,0.38-1.605
			c1.003-0.983,1.591-0.875,1.763,0.326c0.699,0.773,0.965,2.453,1.21,3.44c0.506,2.032,1.318,5.701,0.415,7.778
			c0.176,1.004-0.229,1.384-1.212,1.139c-1.018,0.427-1.548,0.031-1.591-1.187c-0.351-0.937-0.606-1.935-0.824-2.912
			c-0.651-2.927-0.691-5.766,0.493-8.57C181.841,115.478,181.015,115.454,180.864,115.811L180.864,115.811z" style="stroke-dasharray: 319.38px; stroke-dashoffset: 0px; stroke: rgb(0, 112, 60);"></path>
		<path id="XMLID_3143_" d="M157.436,142.43c6.516-6.755,12.485-13.953,17.887-21.629
			c0.208-0.296-0.612-0.223-0.763-0.009c-5.372,7.634-11.3,14.797-17.78,21.516C156.452,142.647,157.253,142.619,157.436,142.43
			L157.436,142.43z" style="stroke-dasharray: 319.38px; stroke-dashoffset: 0px; stroke: rgb(0, 112, 60);"></path>
		<path id="XMLID_3150_" d="M186.916,111.793c6.201-5.994,14.352-9.747,21.795-13.957
			c7.772-4.396,15.543-8.79,23.315-13.186c0.481-0.272-0.23-0.443-0.52-0.28c-8.327,4.709-16.654,9.418-24.98,14.128
			c-6.991,3.953-14.452,7.498-20.278,13.13C185.898,111.967,186.702,112,186.916,111.793L186.916,111.793z" style="stroke-dasharray: 319.38px; stroke-dashoffset: 0px; stroke: rgb(0, 112, 60);"></path>
		<path id="XMLID_3157_" d="M231.14,75.648c0.051,3,0.103,6,0.154,9c0.026,1.5,0.051,3,0.077,4.5
			c0.013,0.771,0.43,3.83,0.077,4.5c-1.216,2.313-7.362,1.412-9.534,1.416c-2.902,0.006-5.803-0.031-8.705-0.086
			c-0.167-0.003-0.927,0.312-0.537,0.318c4.32,0.081,8.64,0.111,12.96,0.053c1.435-0.02,4.283,0.515,5.647-0.285
			c1.763-1.032,0.956-3.604,0.925-5.386c-0.081-4.75-0.162-9.5-0.243-14.25C231.959,75.313,231.136,75.429,231.14,75.648
			L231.14,75.648z" style="stroke-dasharray: 319.38px; stroke-dashoffset: 0px; stroke: rgb(0, 112, 60);"></path>
		<path id="XMLID_3164_" d="M231.621,75.825c2.571-2.806,7.106-3.664,9.746,0.306
			c0.609,0.915,0.954,2.198,1.367,3.216c0.985,2.429,1.884,4.893,2.688,7.388c0.732,2.275,2.477,6.016,2.333,8.418
			c-0.242,4.062-6.832,5.902-9.791,6.779c-6.01,1.782-12.802,0.679-19.049,0.474c-6.032-0.198-12.064-0.396-18.096-0.594
			c-0.292-0.01-0.879,0.416-0.328,0.435c11.025,0.361,22.088,1.028,33.118,1.079c2.503,0.012,4.563-0.376,6.83-1.452
			c2.254-1.069,6.981-2.518,8.151-4.986c1.27-2.679-1.771-8.63-2.623-11.201c-1.243-3.755-2.413-8.571-4.752-11.794
			c-3.097-4.267-7.742-0.917-10.354,1.935C230.64,76.068,231.453,76.01,231.621,75.825L231.621,75.825z" style="stroke-dasharray: 319.38px; stroke-dashoffset: 0px; stroke: rgb(0, 112, 60);"></path>
		<path id="XMLID_3171_" d="M238.597,78.986c-0.252,1.762-0.399,7.794,2.739,6.882
			c0.093-0.027,0.381-0.097,0.378-0.231c-0.03-1.505-0.055-3.01-0.09-4.516c-0.022-0.93,0.095-2.329-0.84-2.896
			c-0.753-0.457-1.969-0.159-2.35,0.625c-0.054,0.109,0.708,0.06,0.809-0.148c0.589-1.211,1.425,0.816,1.489,1.172
			c0.103,0.568,0.064,1.176,0.076,1.751c0.028,1.411,0.057,2.821,0.084,4.232c0.126-0.077,0.252-0.154,0.378-0.231
			c-1.199,0.349-1.7-2.371-1.822-3.045c-0.23-1.272-0.213-2.537-0.031-3.814C239.431,78.681,238.632,78.74,238.597,78.986
			L238.597,78.986z" style="stroke-dasharray: 319.38px; stroke-dashoffset: 0px; stroke: rgb(0, 112, 60);"></path>
		<path id="XMLID_3178_" d="M243.502,78.162c15.267-8.026,30.995-15.074,47.146-21.126
			c0.534-0.2,0.052-0.52-0.335-0.375c-16.151,6.052-31.879,13.1-47.146,21.126C242.668,78.05,243.125,78.36,243.502,78.162
			L243.502,78.162z" style="stroke-dasharray: 319.38px; stroke-dashoffset: 0px; stroke: rgb(0, 112, 60);"></path>
		<path id="XMLID_3185_" d="M290.562,52.833c-0.571,2.024-0.985,4.062-1.116,6.164
			c-0.124,1.983,0.721,4.106-1.47,4.714c-2.088,0.578-5.226-0.033-7.399-0.047c-2.712-0.017-5.425-0.033-8.138-0.05
			c-0.312-0.002-0.872,0.466-0.318,0.47c5.918,0.036,11.837,0.073,17.756,0.109c0.181,0.002,0.597-0.092,0.57-0.345
			c-0.413-3.813-0.103-7.437,0.937-11.117C291.466,52.437,290.641,52.552,290.562,52.833L290.562,52.833z" style="stroke-dasharray: 319.38px; stroke-dashoffset: 0px; stroke: rgb(0, 112, 60);"></path>
		<path id="XMLID_3192_" d="M290.919,53.071c3.353-4.474,5.744,2.212,6.25,3.731c0.533,1.602,1.104,3.77,1.253,5.454
			c0.649,7.351-7.115,9.177-13.186,7.948c-6.651-1.346-13.362-2.305-20.115-2.968c-0.37-0.036-0.853,0.491-0.298,0.546
			c4.48,0.439,8.942,0.992,13.384,1.729c3.56,0.589,7.472,2.076,11.083,2.113c1.836,0.02,2.758-0.315,4.381-1.156
			c1.47-0.761,5.229-2.038,6.024-3.757c1.66-3.586-3.956-21.177-9.453-13.841C289.938,53.277,290.717,53.341,290.919,53.071
			L290.919,53.071z" style="stroke-dasharray: 319.38px; stroke-dashoffset: 0px; stroke: rgb(0, 112, 60);"></path>
		<path id="XMLID_3199_" d="M293.905,57.327c-0.635,0.917-0.812,2.107-0.364,3.147
			c0.319,0.741,0.931,1.198,1.735,0.954c0.992-0.302,0.767-1.502,0.775-2.346c0.01-1.004-0.308-2.133-1.511-2.093
			c-0.165,0.006-0.921,0.334-0.537,0.32c0.941-0.031,1.211,0.992,1.229,1.733c0.009,0.361-0.019,0.726-0.033,1.087
			c-0.007,0.189-0.006,0.382-0.022,0.571c-0.027,0.311,0.016,0.388-0.266,0.302c-0.541-0.164-0.756-1.306-0.788-1.769
			c-0.051-0.749,0.168-1.447,0.592-2.059C294.758,57.113,294.042,57.13,293.905,57.327L293.905,57.327z" style="stroke-dasharray: 319.38px; stroke-dashoffset: 0px; stroke: rgb(0, 112, 60);"></path>
		<path id="XMLID_3215_" d="M297.129,54.759c10.474-3.677,21.094-6.859,31.863-9.554
			c0.49-0.123,0.394-0.494-0.1-0.371c-10.841,2.713-21.533,5.924-32.078,9.626C296.271,54.65,296.771,54.885,297.129,54.759
			L297.129,54.759z" style="stroke-dasharray: 319.38px; stroke-dashoffset: 0px; stroke: rgb(0, 112, 60);"></path>
		<path id="XMLID_3261_" d="M331.742,41.918c-1.736,0.504-2.555,1.733-2.838,3.518
			c-0.135,0.854,0.167,2.104-0.847,2.572c-0.491,0.228-1.954-0.246-2.578-0.303c-1.75-0.156-3.506-0.224-5.26-0.294
			c-0.162-0.007-0.926,0.294-0.54,0.31c2.14,0.085,4.283,0.168,6.411,0.418c0.977,0.115,1.866,0.375,2.834,0.227
			c0.109-0.017,0.44-0.084,0.485-0.211c0.684-1.932-0.368-5.219,2.39-6.02C332.268,42,332.222,41.778,331.742,41.918L331.742,41.918z
			" style="stroke-dasharray: 319.38px; stroke-dashoffset: 0px; stroke: rgb(0, 112, 60);"></path>
		<path id="XMLID_3289_" d="M330.824,42.721c1.017,0.342,2.035,0.684,3.052,1.024
			c0.135,0.499,0.271,0.998,0.406,1.497c0.353,0.753,0.728,2.172,0.777,3.002c0.095,1.589,0.473,1.729-1.227,2.668
			c-1.636,0.903-3.346,1.02-5.195,0.758c-4.191-0.594-8.432-2.019-12.55-3.004c-0.188-0.045-0.9,0.26-0.676,0.313
			c4.553,1.09,9.548,3.003,14.207,3.371c1.746,0.138,5.09-0.732,6.107-1.999c1.094-1.361-0.148-5.348-1.027-6.826
			c-1.173-1.976-2.103-1.803-4.155-0.983C330.001,42.759,330.513,42.845,330.824,42.721L330.824,42.721z" style="stroke-dasharray: 319.38px; stroke-dashoffset: 0px; stroke: rgb(0, 112, 60);"></path>
		<path id="XMLID_3296_" d="M332.555,44.84c-0.596,0.676-0.635,3.067,0.777,2.695
			c0.638-0.168,0.796-0.873,0.864-1.444c0.083-0.711-0.201-1.365-0.947-1.51c-0.428-0.083-0.82,0.528-0.274,0.634
			c0.447,0.087,0.423,0.678,0.376,1.009c-0.023,0.163-0.075,0.32-0.101,0.481c-0.022,0.141,0.008,0.268-0.093,0.122
			c-0.295-0.422-0.229-1.349,0.095-1.715C333.598,44.72,332.82,44.541,332.555,44.84L332.555,44.84z" style="stroke-dasharray: 319.38px; stroke-dashoffset: 0px; stroke: rgb(0, 112, 60);"></path>
		<path id="XMLID_3303_" d="M334.855,44.149c11.978-2.152,24.055-3.138,36.222-2.976
			c0.472,0.007,0.627-0.6,0.071-0.607c-12.245-0.164-24.394,0.848-36.446,3.013C334.181,43.673,334.344,44.24,334.855,44.149
			L334.855,44.149z" style="stroke-dasharray: 319.38px; stroke-dashoffset: 0px; stroke: rgb(0, 112, 60);"></path>
		<path id="XMLID_3315_" d="M371.054,40.407c-0.125,1.075-0.25,2.149-0.375,3.225c-0.052,0.445-0.238,0.935,0.29,1.08
			c0.582,0.16,1.528-0.28,2.089-0.41c0.483-0.112,1.46-0.173,1.744-0.715c0.317-0.607-0.317-1.928-0.495-2.504
			c-0.211-0.683-0.488-1.372-1.139-1.748c-0.889-0.515-2.364-0.115-2.381,1.061c-0.005,0.354,0.819,0.189,0.823-0.097
			c-0.075-0.568,0.332-0.672,1.219-0.311c0.2,0.211,0.352,0.454,0.457,0.729c0.124,0.284,0.198,0.588,0.284,0.885
			c0.123,0.427,0.441,1.09,0.423,1.53c-0.029,0.709-0.518,0.612-1.051,0.735c-0.252,0.059-1.031,0.385-1.255,0.291
			c-0.301,0.022-0.37-0.122-0.206-0.434c0.022-0.189,0.044-0.379,0.066-0.568c0.11-0.949,0.22-1.897,0.33-2.846
			C371.916,39.969,371.087,40.114,371.054,40.407L371.054,40.407z" style="stroke-dasharray: 319.38px; stroke-dashoffset: 0px; stroke: rgb(0, 112, 60);"></path>
		<path id="XMLID_3322_" d="M373.77,41.12c8.302-0.348,16.78-1.188,25.079-0.633
			c8.374,0.561,16.575,1.167,24.987,1.077c0.175-0.002,0.928-0.34,0.533-0.336c-8.973,0.097-17.708-0.8-26.64-1.167
			c-7.835-0.321-15.777,0.399-23.603,0.728C373.904,40.799,373.23,41.143,373.77,41.12L373.77,41.12z" style="stroke-dasharray: 319.38px; stroke-dashoffset: 0px; stroke: rgb(0, 112, 60);"></path>
		<path id="XMLID_3329_" d="M11.436,134.02c16.252-11.745,31.766-24.492,47.449-36.978
			c0.174-0.139-0.585-0.068-0.745,0.059c-15.645,12.454-31.123,25.175-47.335,36.89C10.473,134.231,11.286,134.128,11.436,134.02
			L11.436,134.02z" style="stroke-dasharray: 319.38px; stroke-dashoffset: 0px; stroke: rgb(0, 112, 60);"></path>
		<path id="XMLID_3336_" d="M131.553,63.688c1.884-1.249,3.847-2.344,5.903-3.283
			c0.519-0.237,0.046-0.517-0.327-0.346c-2.117,0.968-4.147,2.091-6.088,3.378C130.58,63.743,131.287,63.864,131.553,63.688
			L131.553,63.688z" style="stroke-dasharray: 319.38px; stroke-dashoffset: 0px; stroke: rgb(0, 112, 60);"></path>
		<path id="XMLID_3343_" d="M193.063,45.268c4.293-1.553,8.679-2.655,13.2-3.3c0.464-0.065,0.618-0.716,0.063-0.637
			c-4.596,0.654-9.057,1.757-13.424,3.336C192.413,44.844,192.561,45.448,193.063,45.268L193.063,45.268z" style="stroke-dasharray: 319.38px; stroke-dashoffset: 0px; stroke: rgb(0, 112, 60);"></path>
		<path id="XMLID_3350_" d="M241.56,36.813c5.333-0.557,10.667-1.112,16-1.668c0.391-0.041,0.69-0.492,0.118-0.434
			c-5.333,0.557-10.667,1.112-16,1.668C241.287,36.42,240.988,36.872,241.56,36.813L241.56,36.813z" style="stroke-dasharray: 319.38px; stroke-dashoffset: 0px; stroke: rgb(0, 112, 60);"></path>
		<path id="XMLID_3357_" d="M282.216,34.073c5.691-0.957,11.374-1.275,17.134-0.95
			c0.214,0.012,0.948-0.367,0.518-0.392c-5.89-0.331-11.702-0.016-17.52,0.963C281.989,33.755,281.643,34.17,282.216,34.073
			L282.216,34.073z" style="stroke-dasharray: 319.38px; stroke-dashoffset: 0px; stroke: rgb(0, 112, 60);"></path>
		<path id="XMLID_3364_" d="M318.449,33.784c4.535-0.188,9.051-0.09,13.573,0.301c0.232,0.02,0.955-0.374,0.512-0.413
			c-4.582-0.395-9.16-0.502-13.755-0.313C318.501,33.371,317.901,33.807,318.449,33.784L318.449,33.784z" style="stroke-dasharray: 319.38px; stroke-dashoffset: 0px; stroke: rgb(0, 112, 60);"></path>
		<path id="XMLID_3371_" d="M347.682,34.675c3.703,0.123,7.399,0.087,11.099-0.106
			c0.224-0.012,0.893-0.365,0.354-0.337c-3.64,0.19-7.278,0.225-10.921,0.103C348.033,34.328,347.279,34.662,347.682,34.675
			L347.682,34.675z" style="stroke-dasharray: 319.38px; stroke-dashoffset: 0px; stroke: rgb(0, 112, 60);"></path>
		<path id="XMLID_3378_" d="M368.562,35.472c4.182-0.368,8.363-0.48,12.559-0.343c0.321,0.011,0.87-0.461,0.316-0.479
			c-4.266-0.14-8.515-0.021-12.766,0.353C368.261,35.038,367.993,35.521,368.562,35.472L368.562,35.472z" style="stroke-dasharray: 319.38px; stroke-dashoffset: 0px; stroke: rgb(0, 112, 60);"></path>
		<path id="XMLID_3385_" d="M388.812,35.745c2.768,0.257,5.535,0.513,8.302,0.77c0.403,0.038,0.838-0.546,0.284-0.597
			c-2.768-0.257-5.535-0.514-8.302-0.771C388.694,35.11,388.258,35.693,388.812,35.745L388.812,35.745z" style="stroke-dasharray: 319.38px; stroke-dashoffset: 0px; stroke: rgb(0, 112, 60);"></path>
		<path id="XMLID_3392_" d="M404.009,37.424c2.51-0.146,4.982,0.039,7.473,0.342c0.415,0.051,0.833-0.547,0.28-0.614
			c-2.564-0.313-5.103-0.498-7.685-0.349C403.606,36.83,403.45,37.456,404.009,37.424L404.009,37.424z" style="stroke-dasharray: 319.38px; stroke-dashoffset: 0px; stroke: rgb(0, 112, 60);"></path>
		<path id="XMLID_3399_" d="M416.815,37.735c2.44,0.263,4.88,0.526,7.32,0.789c0.403,0.044,0.838-0.537,0.284-0.597
			c-2.44-0.264-4.88-0.527-7.32-0.79C416.695,37.094,416.261,37.676,416.815,37.735L416.815,37.735z" style="stroke-dasharray: 319.38px; stroke-dashoffset: 0px; stroke: rgb(0, 112, 60);"></path>
		<path id="XMLID_3406_" d="M25.105,123.67c10.333-0.137,20.666-0.273,30.999-0.41
			c0.241-0.004,0.892-0.368,0.348-0.361c-10.333,0.137-20.666,0.274-30.999,0.411C25.211,123.313,24.561,123.677,25.105,123.67
			L25.105,123.67z" style="stroke-dasharray: 319.38px; stroke-dashoffset: 0px; stroke: rgb(0, 112, 60);"></path>
		<path id="XMLID_3413_" d="M135.789,121.754c6.236-0.058,12.447,0.221,18.652,0.837
			c0.33,0.032,0.867-0.431,0.314-0.485c-6.206-0.616-12.417-0.896-18.652-0.837C135.782,121.271,135.236,121.76,135.789,121.754
			L135.789,121.754z" style="stroke-dasharray: 319.38px; stroke-dashoffset: 0px; stroke: rgb(0, 112, 60);"></path>
		<path id="XMLID_3420_" d="M41.782,111.715c5.013,0.02,9.981,0.437,14.928,1.251c0.241,0.039,0.961-0.347,0.51-0.421
			c-5.012-0.825-10.032-1.244-15.111-1.265C41.821,111.279,41.231,111.713,41.782,111.715L41.782,111.715z" style="stroke-dasharray: 319.38px; stroke-dashoffset: 0px; stroke: rgb(0, 112, 60);"></path>
		<path id="XMLID_3427_" d="M135.117,109.091c10.996-0.157,21.961,0.282,32.909,1.326
			c0.246,0.023,0.958-0.388,0.507-0.431c-11.007-1.049-22.035-1.5-33.091-1.342C135.147,108.648,134.566,109.099,135.117,109.091
			L135.117,109.091z" style="stroke-dasharray: 319.38px; stroke-dashoffset: 0px; stroke: rgb(0, 112, 60);"></path>
		<path id="XMLID_3434_" d="M133.792,97.277c16.127,0.303,32.231,1.124,48.306,2.461
			c0.326,0.027,0.868-0.437,0.315-0.482c-16.074-1.337-32.179-2.157-48.306-2.461C133.785,96.789,133.238,97.267,133.792,97.277
			L133.792,97.277z" style="stroke-dasharray: 319.38px; stroke-dashoffset: 0px; stroke: rgb(0, 112, 60);"></path>
		<path id="XMLID_3441_" d="M133.348,87.485c20.806,0.265,41.589,1.224,62.331,2.878
			c0.174,0.014,0.934-0.297,0.535-0.328c-20.742-1.654-41.525-2.613-62.332-2.878C133.711,87.155,132.954,87.48,133.348,87.485
			L133.348,87.485z" style="stroke-dasharray: 319.38px; stroke-dashoffset: 0px; stroke: rgb(0, 112, 60);"></path>
		<path id="XMLID_3448_" d="M131.492,78.428c24.826,1.003,49.604,2.842,74.307,5.515
			c0.424,0.046,0.828-0.57,0.275-0.63c-24.702-2.673-49.48-4.512-74.307-5.516C131.348,77.78,130.939,78.405,131.492,78.428
			L131.492,78.428z" style="stroke-dasharray: 319.38px; stroke-dashoffset: 0px; stroke: rgb(0, 112, 60);"></path>
		<path id="XMLID_3455_" d="M192.371,70.83c9.464,0.937,18.873,2.229,28.239,3.881
			c0.205,0.037,0.918-0.293,0.67-0.337c-9.413-1.661-18.871-2.965-28.383-3.907C192.7,70.447,191.951,70.788,192.371,70.83
			L192.371,70.83z" style="stroke-dasharray: 319.38px; stroke-dashoffset: 0px; stroke: rgb(0, 112, 60);"></path>
		<path id="XMLID_3462_" d="M194.824,60.939c13.97,0.92,27.765,3.071,41.352,6.448
			c0.426,0.105,0.812-0.501,0.274-0.635c-13.586-3.377-27.381-5.528-41.351-6.448C194.674,60.276,194.271,60.902,194.824,60.939
			L194.824,60.939z" style="stroke-dasharray: 319.38px; stroke-dashoffset: 0px; stroke: rgb(0, 112, 60);"></path>
		<path id="XMLID_3469_" d="M193.47,53.841c17.828,0.683,35.44,3.304,52.692,7.856c0.352,0.093,0.97-0.42,0.475-0.551
			c-17.312-4.568-34.99-7.214-52.882-7.899C193.359,53.231,192.916,53.819,193.47,53.841L193.47,53.841z" style="stroke-dasharray: 319.38px; stroke-dashoffset: 0px; stroke: rgb(0, 112, 60);"></path>
		<path id="XMLID_3476_" d="M236.795,52.447c7.9,0.844,15.626,2.404,23.233,4.685c0.301,0.091,0.968-0.35,0.491-0.492
			c-7.672-2.301-15.458-3.865-23.419-4.716C236.745,51.887,236.242,52.388,236.795,52.447L236.795,52.447z" style="stroke-dasharray: 319.38px; stroke-dashoffset: 0px; stroke: rgb(0, 112, 60);"></path>
		<path id="XMLID_3483_" d="M242.799,46.461c9.859,1.323,19.604,3.188,29.256,5.594
			c0.319,0.08,0.971-0.393,0.485-0.514c-9.713-2.422-19.523-4.297-29.443-5.63C242.724,45.861,242.248,46.387,242.799,46.461
			L242.799,46.461z" style="stroke-dasharray: 319.38px; stroke-dashoffset: 0px; stroke: rgb(0, 112, 60);"></path>
		<path id="XMLID_3490_" d="M240.988,40.193c13.018,2.926,25.997,6.017,38.937,9.271
			c0.215,0.054,0.945-0.283,0.665-0.354c-12.939-3.255-25.918-6.345-38.937-9.271C241.438,39.791,240.712,40.132,240.988,40.193
			L240.988,40.193z" style="stroke-dasharray: 319.38px; stroke-dashoffset: 0px; stroke: rgb(0, 112, 60);"></path>
		<path id="XMLID_3497_" d="M277.471,42.971c5.695,0.386,11.195,1.552,16.556,3.501
			c0.304,0.11,0.962-0.327,0.489-0.499c-5.431-1.975-10.98-3.143-16.743-3.533C277.415,42.416,276.916,42.934,277.471,42.971
			L277.471,42.971z" style="stroke-dasharray: 319.38px; stroke-dashoffset: 0px; stroke: rgb(0, 112, 60);"></path>
		<path id="XMLID_3504_" d="M282.702,37.354c8.12,1.578,16.087,3.694,23.92,6.356
			c0.232,0.079,0.975-0.271,0.659-0.379c-7.886-2.681-15.892-4.809-24.068-6.398C282.971,36.886,282.25,37.266,282.702,37.354
			L282.702,37.354z" style="stroke-dasharray: 319.38px; stroke-dashoffset: 0px; stroke: rgb(0, 112, 60);"></path>
		<path id="XMLID_3511_" d="M309.406,39.66c2.864,0.76,5.728,1.521,8.592,2.28c0.321,0.085,0.971-0.387,0.484-0.516
			c-2.864-0.761-5.728-1.521-8.592-2.281C309.569,39.059,308.92,39.531,309.406,39.66L309.406,39.66z" style="stroke-dasharray: 319.38px; stroke-dashoffset: 0px; stroke: rgb(0, 112, 60);"></path>
		<path id="XMLID_3518_" d="M316.979,36.186c4.261,1.052,8.425,2.385,12.505,4.002
			c0.218,0.086,0.822-0.252,0.776-0.27c-4.113-1.631-8.305-2.972-12.601-4.031C317.48,35.843,316.776,36.136,316.979,36.186
			L316.979,36.186z" style="stroke-dasharray: 319.38px; stroke-dashoffset: 0px; stroke: rgb(0, 112, 60);"></path>
		<path id="XMLID_3525_" d="M325.206,34.385c3.703,1.581,7.406,3.162,11.11,4.742
			c0.217,0.094,0.842-0.245,0.775-0.273c-3.704-1.581-7.407-3.162-11.11-4.743C325.763,34.018,325.139,34.356,325.206,34.385
			L325.206,34.385z" style="stroke-dasharray: 319.38px; stroke-dashoffset: 0px; stroke: rgb(0, 112, 60);"></path>
		<path id="XMLID_3532_" d="M339.625,37.635c1.125,0.239,2.196,0.613,3.222,1.135c0.22,0.112,0.896-0.226,0.771-0.289
			c-1.058-0.538-2.162-0.935-3.323-1.182C340.092,37.256,339.375,37.581,339.625,37.635L339.625,37.635z" style="stroke-dasharray: 319.38px; stroke-dashoffset: 0px; stroke: rgb(0, 112, 60);"></path>
		<path id="XMLID_3539_" d="M346.966,35.918c2.115,0.478,4.085,1.281,5.931,2.417c0.199,0.122,0.885-0.213,0.774-0.28
			c-1.874-1.153-3.885-1.972-6.031-2.456C347.448,35.555,346.735,35.866,346.966,35.918L346.966,35.918z" style="stroke-dasharray: 319.38px; stroke-dashoffset: 0px; stroke: rgb(0, 112, 60);"></path>
		<path id="XMLID_3546_" d="M352.921,34.772c1.99,1.258,4.142,2.128,6.442,2.622c0.246,0.053,0.963-0.329,0.508-0.427
			c-2.257-0.484-4.343-1.346-6.292-2.578C353.367,34.255,352.605,34.572,352.921,34.772L352.921,34.772z" style="stroke-dasharray: 319.38px; stroke-dashoffset: 0px; stroke: rgb(0, 112, 60);"></path>
		<path id="XMLID_3553_" d="M367.954,36.085c1.547,0.795,3.093,1.591,4.64,2.386c0.265,0.136,1.01-0.237,0.647-0.424
			c-1.546-0.795-3.093-1.591-4.64-2.386C368.336,35.525,367.591,35.898,367.954,36.085L367.954,36.085z" style="stroke-dasharray: 319.38px; stroke-dashoffset: 0px; stroke: rgb(0, 112, 60);"></path>
		<path id="XMLID_3560_" d="M372.202,35.37c1.769,1.324,3.661,2.43,5.683,3.319c0.217,0.096,0.848-0.244,0.775-0.275
			c-2.022-0.891-3.914-1.995-5.683-3.319C372.8,34.963,372.095,35.291,372.202,35.37L372.202,35.37z" style="stroke-dasharray: 319.38px; stroke-dashoffset: 0px; stroke: rgb(0, 112, 60);"></path>
		<path id="XMLID_3567_" d="M376.885,35.176c1.735,1.087,3.537,2.045,5.408,2.876
			c0.244,0.108,0.994-0.247,0.653-0.398c-1.872-0.831-3.673-1.789-5.408-2.876C377.311,34.635,376.553,34.968,376.885,35.176
			L376.885,35.176z" style="stroke-dasharray: 319.38px; stroke-dashoffset: 0px; stroke: rgb(0, 112, 60);"></path>
		<path id="XMLID_3574_" d="M388.269,37.069c1.664,0.784,3.327,1.568,4.991,2.353c0.2,0.094,0.954-0.217,0.666-0.353
			c-1.664-0.784-3.328-1.568-4.991-2.353C388.734,36.622,387.98,36.934,388.269,37.069L388.269,37.069z" style="stroke-dasharray: 319.38px; stroke-dashoffset: 0px; stroke: rgb(0, 112, 60);"></path>
		<path id="XMLID_3581_" d="M392.067,36.119c2.087,1.047,4.174,2.095,6.262,3.143
			c0.364,0.183,0.939-0.348,0.466-0.585c-2.087-1.047-4.174-2.095-6.262-3.143C392.169,35.352,391.594,35.882,392.067,36.119
			L392.067,36.119z" style="stroke-dasharray: 319.38px; stroke-dashoffset: 0px; stroke: rgb(0, 112, 60);"></path>
		<path id="XMLID_3588_" d="M403.938,38.408c0.772,0.347,1.543,0.693,2.315,1.04c0.215,0.097,0.968-0.23,0.662-0.368
			c-0.771-0.347-1.543-0.693-2.315-1.039C404.385,37.944,403.632,38.271,403.938,38.408L403.938,38.408z" style="stroke-dasharray: 319.38px; stroke-dashoffset: 0px; stroke: rgb(0, 112, 60);"></path>
		<path id="XMLID_3595_" d="M406.621,38.051c1.004,0.434,2.009,0.867,3.014,1.3c0.229,0.099,0.98-0.242,0.658-0.381
			c-1.005-0.433-2.01-0.866-3.014-1.3C407.05,37.572,406.298,37.912,406.621,38.051L406.621,38.051z" style="stroke-dasharray: 319.38px; stroke-dashoffset: 0px; stroke: rgb(0, 112, 60);"></path>
		<path id="XMLID_3602_" d="M177.964,152.279c-4.342-1.66-8.828-2.311-13.459-2.449
			c-1.161-0.034-6.406-0.877-7.08,0.324c-0.182,0.326,0.635,0.233,0.762,0.007c0.016-0.028,0.033-0.058,0.049-0.087
			c0.025-0.046,0.056-0.118,0.001-0.161c-2.163-1.716,0.481-5.604-0.526-7.843c-0.123-0.272-0.928-0.016-0.821,0.221
			c0.755,1.679-0.294,4.012-0.19,5.821c-0.1-1.728-0.02,3.371,0.725,2.042c-0.182,0.326,0.635,0.233,0.762,0.007
			c0.316-0.563,7.119,0.144,8.153,0.21c3.798,0.244,7.404,0.934,10.966,2.295C177.545,152.757,178.292,152.404,177.964,152.279
			L177.964,152.279z" style="stroke-dasharray: 319.38px; stroke-dashoffset: 0px; stroke: rgb(0, 112, 60);"></path>
		<path id="XMLID_3609_" d="M167.8,130.947c2.57,0.032,5.088,0.353,7.583,0.978c0.331,0.083,0.971-0.405,0.481-0.527
			c-2.556-0.641-5.136-0.981-7.771-1.016C167.718,130.377,167.246,130.939,167.8,130.947L167.8,130.947z" style="stroke-dasharray: 319.38px; stroke-dashoffset: 0px; stroke: rgb(0, 112, 60);"></path>
		<path id="XMLID_3614_" d="M227.93,86.694c-1.37,0.805-2.739,1.608-4.108,2.412c-0.855,0.502-1.711,1.005-2.6,1.445
			c-0.94,0.466-1.916,0.859-2.849,1.34c-1.758,0.903-3.346,2.099-4.925,3.288c1.229,0.123,2.457-0.185,3.689-0.258
			c0.854-0.05,1.709,0.013,2.563,0.063c3.252,0.194,6.515,0.224,9.771,0.087c0.334-0.014,0.681-0.033,0.976-0.189
			c0.32-0.168,0.542-0.478,0.698-0.804c0.338-0.711,0.402-1.517,0.461-2.302c0.083-1.115,0.166-2.229,0.249-3.345
			c0.065-0.871,0.129-1.756-0.043-2.612c-0.052-0.254-0.158-0.542-0.406-0.619c-0.174-0.054-0.359,0.019-0.526,0.091
			c-1.281,0.556-2.508,1.235-3.658,2.027" style="stroke-dasharray: 319.38px; stroke-dashoffset: 0px; stroke: rgb(0, 112, 60);"></path>
		<path id="XMLID_3619_" d="M157.442,142.137c1.779,0.146,3.561,0.293,5.346,0.271
			c4.599-0.058,9.153-1.231,13.746-1.009c-0.376-2.776-0.588-5.574-0.634-8.375c-0.007-0.426-0.045-0.922-0.399-1.16
			c-0.139-0.094-0.308-0.131-0.472-0.164c-2.42-0.496-5.055-1.184-7.521-1.035c-0.265,0.017-0.388,0.549-0.625,0.668
			c-0.229,0.113-0.405,0.309-0.577,0.498c-1.125,1.248-2.25,2.497-3.375,3.745c-1.893,2.1-3.785,4.2-5.677,6.3
			c-0.159,0.177-0.328,0.38-0.315,0.617s0.339,0.435,0.495,0.256" style="stroke-dasharray: 319.38px; stroke-dashoffset: 0px; stroke: rgb(0, 112, 60);"></path>
		<path id="XMLID_3624_" d="M273.111,63.852c4.495,0.08,8.99,0.16,13.485,0.241c0.75,0.013,1.337-0.576,2.087-0.596
			c0.93-0.024,1.496-1.809,1.43-1.337c-0.043,0.31-0.52-3.391-0.411-5.021c-0.821,0.139-3.015,1.047-3.755,1.428
			c-4.259,2.192-7.665,3.563-12.292,4.805" style="stroke-dasharray: 319.38px; stroke-dashoffset: 0px; stroke: rgb(0, 112, 60);"></path>
		<path id="XMLID_3631_" d="M7.609,134.412c17.069-13.188,34.16-26.347,51.25-39.505
			c0.342-0.264-0.474-0.19-0.639-0.063c-17.091,13.158-34.182,26.317-51.25,39.505C6.629,134.613,7.444,134.54,7.609,134.412
			L7.609,134.412z" style="stroke-dasharray: 319.38px; stroke-dashoffset: 0px; stroke: rgb(0, 112, 60);"></path>
		<path id="XMLID_3638_" d="M131.796,61.503c1.724-0.856,3.51-1.521,5.376-1.996c0.498-0.127,0.38-0.573-0.119-0.446
			c-1.938,0.493-3.8,1.182-5.59,2.071C130.955,61.384,131.417,61.691,131.796,61.503L131.796,61.503z" style="stroke-dasharray: 319.38px; stroke-dashoffset: 0px; stroke: rgb(0, 112, 60);"></path>
		<path id="XMLID_3645_" d="M34.79,113.015c0.222-3.154,1.051-6.176,2.645-8.924c0.688-1.187,1.667-3.089,2.87-3.78
			c1.779-0.085,3.559-0.17,5.338-0.256c0.156,0.211,0.313,0.422,0.468,0.632c0.601,0.603,1.137,1.592,1.632,2.285
			c0.197,0.274,0.985-0.026,0.756-0.348c-1.103-1.545-2.175-3.865-4.198-4.332c-1.47-0.339-2.938,0.364-4.057,1.255
			c-3.95,3.142-5.939,8.676-6.282,13.544C33.934,113.485,34.766,113.352,34.79,113.015L34.79,113.015z" style="stroke-dasharray: 319.38px; stroke-dashoffset: 0px; stroke: rgb(0, 112, 60);"></path>
		<path id="XMLID_3660_" d="M108.794,60.701c-9.421,0-18.757,0-28.18,0c0-10.427,0-20.799,0-31.244
			c9.4,0,18.734,0,28.18,0C108.794,39.831,108.794,50.203,108.794,60.701z M102.893,35.333c-4.712-3.487-14.574-3.584-19.029-0.218
			c0.92,1.868,1.847,3.747,2.793,5.667c-0.361,0.294-0.679,0.547-0.992,0.808c-3.306,2.754-3.293,6.946-0.042,9.732
			c0.713,0.611,1.195,1.493,2.025,2.563c3.587,0,7.684,0,11.232,0c0.828-1.067,1.336-1.898,2.01-2.561
			c2.452-2.413,4.554-5.085,6.363-7.991c-0.058-0.144-0.117-0.288-0.175-0.432c-1.392,0.326-2.783,0.653-4.161,0.976
			c-0.844-0.943-1.809-2.02-2.797-3.124C101.023,38.988,101.938,37.198,102.893,35.333z M103.485,59.04
			c0.397-1.987,0.329-2.486-0.313-2.917c-0.042,0.438-0.082,0.852-0.131,1.36c-0.6-0.599-1.085-1.082-1.744-1.739
			c0,1.261,0,2.104,0,2.948c0.101,0.006,0.202,0.013,0.303,0.019c0.096-0.455,0.191-0.91,0.302-1.439
			C102.434,57.865,102.865,58.348,103.485,59.04z M98.907,59.017c0.207,0.002,0.414,0.005,0.621,0.007
			c0.398-0.546,1.025-1.049,1.141-1.649c0.178-0.931-0.528-1.386-1.436-1.398c-0.918-0.013-1.617,0.484-1.484,1.374
			C97.838,57.949,98.501,58.464,98.907,59.017z M106.193,57.947c-0.048,0.114-0.095,0.229-0.143,0.343
			c-0.367-0.142-0.836-0.193-1.065-0.455c-0.167-0.19-0.084-0.938,0.003-0.959c0.578-0.141,1.187-0.151,1.786-0.204
			c-0.496-0.408-1.169-0.719-1.692-0.554c-0.412,0.13-0.929,0.89-0.872,1.293c0.071,0.492,0.616,1.089,1.103,1.299
			c0.452,0.194,1.097-0.06,1.709-0.121c-0.042-0.501-0.075-0.896-0.114-1.357c-0.427,0.026-0.771,0.048-1.314,0.082
			C105.882,57.618,106.038,57.783,106.193,57.947z M82.196,58.851c0.526-0.512,0.822-0.827,1.146-1.109
			c0.386-0.337,0.797-0.646,1.197-0.968c-0.471-0.252-0.923-0.556-1.42-0.733c-0.264-0.095-0.605,0.028-0.923,0.055
			C82.196,57.009,82.196,57.835,82.196,58.851z M88.584,56.057c-0.16,0.017-0.321,0.033-0.481,0.051
			c-0.04,0.901-0.635,2.018,0.614,2.514c0.472,0.188,1.489-0.162,1.789-0.594c0.362-0.52,0.468-1.449-0.573-2.271
			c0,0.81,0.067,1.271-0.023,1.7c-0.061,0.287-0.344,0.527-0.528,0.788c-0.231-0.27-0.567-0.506-0.667-0.817
			C88.577,57.001,88.62,56.517,88.584,56.057z M93.776,56.594c-0.464-0.682-1.232-0.863-1.899-0.464
			c-0.431,0.259-0.923,1.178-0.767,1.483c0.267,0.522,0.981,0.928,1.59,1.111c0.282,0.086,0.756-0.468,1.409-0.912
			c-1.027,0.133-1.561,0.268-2.075,0.215c-0.11-0.012-0.149-0.705-0.222-1.085C92.425,56.833,93.037,56.725,93.776,56.594z
			M85.087,55.788c0,1.189,0,2.049,0,2.982c0.447-0.498,0.768-0.854,1.088-1.211c0.352,0.364,0.703,0.729,1.174,1.218
			c0-0.967,0-1.83,0-2.918C86.286,57.43,86.028,57.429,85.087,55.788z M97.511,58.654c-0.001-0.098-0.002-0.195-0.003-0.294
			c-0.455-0.08-0.91-0.16-1.355-0.238c-0.114-0.725-0.221-1.4-0.327-2.076c-0.11,0.019-0.219,0.037-0.329,0.056
			c0,0.861,0,1.722,0,2.68C96.253,58.733,96.882,58.693,97.511,58.654z" style="stroke-dasharray: 319.38px; stroke-dashoffset: 0px; stroke: rgb(0, 112, 60);"></path>
		<path id="XMLID_3675_" d="M103.55,66.209c0.074,0.453,0.228,0.912,0.198,1.358
			c-0.026,0.408-0.139,0.997-0.416,1.156c-0.353,0.203-0.994,0.209-1.349,0.011c-0.283-0.159-0.394-0.741-0.453-1.153
			c-0.063-0.441-0.1-0.963,0.079-1.342c0.213-0.45,0.625-1.023,1.033-1.098c0.354-0.065,0.821,0.491,1.238,0.773
			C103.771,66.013,103.661,66.11,103.55,66.209z" style="stroke-dasharray: 319.38px; stroke-dashoffset: 0px; stroke: rgb(0, 112, 60);"></path>
		<path id="XMLID_3680_" d="M100.408,65.33c-0.191,0.34-0.382,0.681-0.589,1.048c0.247,0.146,0.621,0.237,0.67,0.418
			c0.15,0.551,0.389,1.242,0.175,1.67c-0.149,0.299-1.185,0.514-1.465,0.299c-0.368-0.283-0.647-1.125-0.489-1.549
			c0.289-0.774,0.926-1.418,1.418-2.116C100.222,65.177,100.315,65.253,100.408,65.33z" style="stroke-dasharray: 319.38px; stroke-dashoffset: 0px; stroke: rgb(0, 112, 60);"></path>
		<path id="XMLID_3685_" d="M85.695,65.196c0.619,0,1.226,0,1.788,0c-0.466,0.309-0.928,0.614-1.391,0.921
			c0.458,0.239,0.916,0.479,1.55,0.813c-0.556,0.082-0.969,0.143-1.487,0.219c-0.021,0.364-0.044,0.752-0.073,1.232
			c0.539,0.066,1.006,0.124,1.474,0.181c0.004,0.102,0.009,0.203,0.014,0.304c-0.581,0.037-1.162,0.074-1.875,0.119
			C85.695,67.679,85.695,66.479,85.695,65.196z" style="stroke-dasharray: 319.38px; stroke-dashoffset: 0px; stroke: rgb(0, 112, 60);"></path>
		<path id="XMLID_3690_" d="M111.26,66.106c-0.984,0.831-4.571,0.821-5.484,0
			C107.633,66.106,109.342,66.106,111.26,66.106z" style="stroke-dasharray: 319.38px; stroke-dashoffset: 0px; stroke: rgb(0, 112, 60);"></path>
		<path id="XMLID_3695_" d="M78.256,66.063c1.877,0,3.574,0,5.339,0C82.951,66.943,79.143,66.984,78.256,66.063z" style="stroke-dasharray: 319.38px; stroke-dashoffset: 0px; stroke: rgb(0, 112, 60);"></path>
		<path id="XMLID_3702_" d="M96.231,68.737c0.184-0.347,0.368-0.693,0.579-1.089c-0.268-0.172-0.688-0.292-0.747-0.51
			c-0.14-0.513-0.332-1.254-0.083-1.563c0.263-0.325,1.146-0.492,1.514-0.288c0.347,0.192,0.646,1.067,0.491,1.447
			c-0.332,0.814-0.972,1.504-1.485,2.244C96.411,68.898,96.321,68.818,96.231,68.737z M97.984,66.327
			c-0.508-0.402-0.813-0.824-1.065-0.795c-0.276,0.032-0.632,0.452-0.704,0.76c-0.042,0.185,0.388,0.667,0.62,0.677
			C97.131,66.981,97.441,66.652,97.984,66.327z" style="stroke-dasharray: 319.38px; stroke-dashoffset: 0px; stroke: rgb(0, 112, 60);"></path>
		<path id="XMLID_3709_" d="M93.604,65.224c0.706,0.196,0.935,1.884,0.247,3.809
			C93.758,67.599,93.682,66.423,93.604,65.224z" style="stroke-dasharray: 319.38px; stroke-dashoffset: 0px; stroke: rgb(0, 112, 60);"></path>
		<path id="XMLID_3714_" d="M88.926,67.066c0.206,0.536,0.405,1.053,0.604,1.569c-0.403,0.11-0.807,0.222-1.209,0.332
			c-0.032-0.143-0.064-0.285-0.097-0.428c0.288-0.051,0.577-0.101,0.834-0.146c-0.282-0.53-0.535-1.007-0.788-1.483
			c0.307-0.142,0.613-0.284,0.92-0.427c0.05,0.109,0.1,0.217,0.15,0.325C89.158,66.923,88.977,67.035,88.926,67.066z" style="stroke-dasharray: 319.38px; stroke-dashoffset: 0px; stroke: rgb(0, 112, 60);"></path>
		<path id="XMLID_3719_" d="M90.674,65.761c0,1.009,0,2.017,0,3.024c-0.149,0-0.299,0-0.448,0
			c0-1.008,0-2.016,0-3.024C90.375,65.761,90.525,65.761,90.674,65.761z" style="stroke-dasharray: 319.38px; stroke-dashoffset: 0px; stroke: rgb(0, 112, 60);"></path>
		<path id="XMLID_3729_" d="M168.838,27.303c-5.449-0.364-10.798-0.722-16.147-1.086
			c-0.173-0.012-0.342-0.101-0.571-0.171c0-6.33,0-12.643,0-19.133c5.574,0.228,11.093,0.452,16.718,0.683
			C168.838,14.157,168.838,20.638,168.838,27.303z M165.104,24.944c-0.13,1.403,1.371,0.054,1.605,0.927
			c0.017,0.063,0.603,0.04,0.876-0.067c0.105-0.041,0.074-0.43,0.105-0.66c-0.176,0.057-0.349,0.124-0.528,0.165
			c-0.169,0.039-0.344,0.049-0.517,0.071c0.017-0.234-0.046-0.607,0.067-0.673c0.226-0.129,0.549-0.09,0.833-0.119
			c-0.903-0.309-1.784-0.479-2.468,0.393c-0.286-0.563-1.97-1.258-2.416-0.928c-0.239,0.177-0.499,0.645-0.419,0.856
			c0.121,0.323,0.574,0.793,0.807,0.752C163.755,25.538,164.422,25.199,165.104,24.944z M156.277,22.267
			c2.085,0.134,4.449,0.286,6.563,0.422c0.59-0.709,1.034-1.245,1.479-1.779c1.236-1.479,2.473-2.958,3.709-4.437
			c-0.106-0.139-0.212-0.276-0.318-0.415c-0.78,0.13-1.56,0.26-2.385,0.397c-0.498-0.589-1.054-1.245-1.66-1.961
			c0.539-1.076,1.085-2.168,1.62-3.235c-2.665-2.415-8.516-2.758-11.265-0.679c0.387,0.859,0.737,1.755,1.187,2.597
			c0.339,0.635,0.243,0.995-0.295,1.506c-1.801,1.712-1.772,3.897-0.069,5.711C155.319,20.898,155.694,21.498,156.277,22.267z
			M152.985,24.819c0.677-0.197,1.362-1.239,1.799,0.357c0.387-1.282,0.83-0.458,1.335,0.042c0-0.676,0-1.101,0-1.252
			c-1.124-0.237-2.088-0.44-3.135-0.661C152.985,23.898,152.985,24.302,152.985,24.819z M159.722,25.341
			c0.003-0.064,0.007-0.129,0.01-0.192c-0.351-0.197-0.702-0.394-1.053-0.59c0.324-0.218,0.647-0.436,1.215-0.818
			c-0.905,0.055-1.581,0.095-2.223,0.133c-0.117,0.355-0.23,0.701-0.456,1.388c-0.273-0.735-0.41-1.104-0.602-1.619
			c-0.222,1.626-0.1,1.727,1.287,1.372c0.188-0.048,0.426,0.137,0.648,0.175C158.937,25.256,159.331,25.292,159.722,25.341z" style="stroke-dasharray: 319.38px; stroke-dashoffset: 0px; stroke: rgb(0, 112, 60);"></path>
		<path id="XMLID_3741_" d="M213.829,18.475c0.371-3.456,0.727-6.775,1.106-10.313
			c3.176,0.29,6.292,0.575,9.583,0.877c-0.323,3.663-0.642,7.278-0.979,11.099C220.291,19.582,217.156,19.045,213.829,18.475z
			M220.739,14.612c-0.19-0.403-0.39-0.825-0.62-1.313c-0.596,0.543-1.018,0.927-1.44,1.312c-0.059-0.079-0.117-0.157-0.176-0.236
			c0.113-0.389,0.227-0.776,0.34-1.165c-0.138-0.055-0.276-0.11-0.415-0.166c-0.207,0.511-0.414,1.021-0.721,1.777
			C218.844,14.743,219.66,14.687,220.739,14.612z" style="stroke-dasharray: 319.38px; stroke-dashoffset: 0px; stroke: rgb(0, 112, 60);"></path>
		<path id="XMLID_3748_" d="M270.736,18.165c0.023,0.456,0.076,0.914,0.064,1.369
			c-0.041,1.648-0.625,2.033-2.204,1.792c-1.437-0.22-2.905-0.247-4.361-0.313c-1.324-0.061-1.712-0.449-1.616-1.765
			c0.13-1.777,0.3-3.553,0.392-5.333c0.051-0.986,0.543-1.429,1.469-1.394c1.871,0.071,3.742,0.167,5.611,0.291
			c0.844,0.057,1.18,0.536,1.045,1.403c-0.203,1.306-0.342,2.622-0.509,3.934C270.664,18.155,270.7,18.16,270.736,18.165z" style="stroke-dasharray: 319.38px; stroke-dashoffset: 0px; stroke: rgb(0, 112, 60);"></path>
		<path id="XMLID_3753_" d="M309.2,17.724c-0.321,1.242-0.521,2.37-0.928,3.417c-0.168,0.432-0.759,0.723-1.202,1.013
			c-0.16,0.104-0.446,0.024-0.674,0.019c-1.114-0.031-2.619,0.305-2.953-1.02c-0.243-0.965,0.407-2.16,0.69-3.245
			c0.037-0.14,0.246-0.311,0.396-0.334C306.089,17.326,307.646,17.214,309.2,17.724z" style="stroke-dasharray: 319.38px; stroke-dashoffset: 0px; stroke: rgb(0, 112, 60);"></path>
		<path id="XMLID_3763_" d="M102.075,35.596c-0.923,1.81-1.853,3.633-2.693,5.279
			c1.208,1.387,2.332,2.679,3.476,3.993c0.894-0.406,1.971-0.896,3.048-1.387c0.088,0.136,0.177,0.272,0.265,0.408
			c-1.777,2.697-3.749,5.231-6.206,7.385c-0.514,0.45-0.868,1.084-1.296,1.634c0.088,0.11,0.177,0.221,0.266,0.331
			c-3.726,0-7.451,0-10.915,0c-0.493-0.713-0.78-1.462-1.325-1.864c-3.93-2.904-3.926-7.004,0.069-9.855
			c0.185-0.132,0.375-0.255,0.695-0.472c-0.938-1.906-1.876-3.811-2.807-5.702C88.999,32.441,98.16,32.574,102.075,35.596z
			M92.209,38.7c0.797,0.379,2.182-0.833,2.57,0.949c0.016,0.073,0.228,0.121,0.356,0.15c1.188,0.272,2.377,0.539,3.642,0.823
			c0.785-1.589,1.568-3.174,2.421-4.901c-5.272-2.226-10.369-2.282-15.645-0.005c0.879,1.765,1.686,3.384,2.584,5.188
			C89.334,39.819,91.254,40.549,92.209,38.7z M98.237,48.011c0.811,0.27,1.284,0.15,1.33-0.863c0.08-1.759-0.832-3.679-1.881-3.779
			c-1.062-0.102-2.38,1.926-2.369,3.592c0.006,0.905,0.254,1.439,1.289,1.068c-0.249-1.561,0.04-1.796,1.913-1.458
			C98.427,47.04,98.336,47.508,98.237,48.011z M95.021,48.071c0.047-0.131,0.095-0.261,0.142-0.392
			c-0.385-0.135-0.768-0.272-1.154-0.402c-0.454-0.153-0.91-0.3-1.365-0.449c0.332-0.315,0.659-0.636,0.996-0.945
			c0.244-0.224,0.502-0.433,1.062-0.911c-0.967,0-1.473,0-1.979,0c-0.033-0.145-0.065-0.288-0.099-0.433
			c0.804-0.239,1.608-0.479,2.412-0.718c-0.034-0.146-0.067-0.293-0.1-0.44c-0.761,0-1.525-0.04-2.281,0.023
			c-0.25,0.021-0.657,0.281-0.687,0.478c-0.205,1.374-0.329,2.759-0.484,4.189C92.86,48.071,93.94,48.071,95.021,48.071z
			M89.81,44.472c0.694-0.197,1.09-0.31,1.485-0.421c-0.375-0.23-0.726-0.583-1.129-0.661c-0.573-0.111-1.185-0.029-1.78-0.014
			c-0.857,0.022-1.212,0.46-1.109,1.332c0.51-0.19,0.957-0.356,1.453-0.541c-0.11,4.019-0.11,4.019,1.08,3.79
			C89.81,46.741,89.81,45.536,89.81,44.472z" style="stroke-dasharray: 319.38px; stroke-dashoffset: 0px; stroke: rgb(0, 112, 60);"></path>
		<path id="XMLID_3773_" d="M99.116,58.635c-0.324-0.636-0.686-1.019-0.63-1.326c0.057-0.311,0.527-0.545,0.816-0.813
			c0.25,0.315,0.689,0.627,0.696,0.947C100.004,57.749,99.562,58.066,99.116,58.635z" style="stroke-dasharray: 319.38px; stroke-dashoffset: 0px; stroke: rgb(0, 112, 60);"></path>
		<path id="XMLID_3782_" d="M156.046,14.162c-0.534-1.184-1.037-2.297-1.53-3.389
			c2.592-1.794,7.618-1.503,10.257,0.588c-0.526,1.068-1.064,2.16-1.575,3.196c0.707,0.87,1.365,1.678,2.079,2.556
			c0.515-0.188,1.118-0.408,1.721-0.629c0.093,0.121,0.187,0.242,0.28,0.364c-1.116,1.281-2.354,2.478-3.321,3.864
			c-1.476,2.119-3.498,1.259-5.423,1.343c-2.565,0.111-3.412-1.813-4.338-3.491C153.44,17.197,154.099,15.975,156.046,14.162z
			M156.527,14.228c0.842-0.385,1.571-0.787,2.348-1.045c0.391-0.13,0.917-0.115,1.296,0.041c0.844,0.347,1.634,0.823,2.556,1.305
			c0.566-1.14,1.038-2.091,1.5-3.021c-2.512-1.701-7.024-1.877-9.16-0.387C155.52,12.084,155.979,13.063,156.527,14.228z
			M160.405,16.301c-0.046-0.172-0.092-0.344-0.138-0.516c-0.509,0.185-1.371,0.268-1.458,0.572c-0.208,0.73-0.319,2.082,0.01,2.251
			c0.709,0.364,1.727,0.213,2.602,0.121c0.293-0.03,0.539-0.521,0.806-0.801c0.21,0.362,0.42,0.725,0.682,1.176
			c0.727-0.885,0.355-1.681-0.039-2.419c-0.146-0.273-0.765-0.614-0.801-0.576c-0.589,0.622-1.12,1.3-1.853,2.197
			c-0.118-0.018-0.593-0.086-1.42-0.205c0.656-0.484,0.982-0.725,1.354-1c-0.362-0.159-0.604-0.266-1.18-0.52
			C159.695,16.44,160.05,16.37,160.405,16.301z M156.915,18.683c0.201-0.031,0.402-0.062,0.603-0.093
			c-0.025-0.932-0.62-2.052,0.95-2.454c-0.08-0.113-0.16-0.226-0.24-0.339c-0.732,0.038-1.465,0.076-2.198,0.113
			c0,0.137,0,0.272-0.001,0.408c0.274,0.052,0.548,0.103,0.706,0.132C156.801,17.273,156.858,17.979,156.915,18.683z" style="stroke-dasharray: 319.38px; stroke-dashoffset: 0px; stroke: rgb(0, 112, 60);"></path>
		<path id="XMLID_3791_" d="M86.362,35.998c4.713-1.832,9.277-1.784,14.022-0.003
			c-0.673,1.367-1.288,2.617-1.921,3.904c-0.922-0.217-1.759-0.414-2.597-0.609c-0.133-0.031-0.358-0.022-0.388-0.094
			c-0.875-2.148-2.682-0.529-3.947-1.144c-0.35,1.897-2.088,1.177-3.101,2.071C87.721,38.709,87.076,37.423,86.362,35.998z" style="stroke-dasharray: 319.38px; stroke-dashoffset: 0px; stroke: rgb(0, 112, 60);"></path>
		<path id="XMLID_3796_" d="M162.529,14.141c-1.936-1.66-3.83-1.994-5.783-0.359
			c-0.468-0.965-0.821-1.696-1.292-2.669c2.815-0.923,5.427-0.778,8.259,0.362C163.348,12.296,163.017,13.042,162.529,14.141z" style="stroke-dasharray: 319.38px; stroke-dashoffset: 0px; stroke: rgb(0, 112, 60);"></path>
		<path id="XMLID_3803_" d="M183.563,4.202c-2.629,11.315-4.461,22.787-5.346,34.373
			c-0.804,10.532-1.489,21.475,1.715,31.681c0.074,0.236,0.892,0.006,0.821-0.22c-3.371-10.737-2.508-22.401-1.57-33.462
			c0.93-10.951,2.708-21.794,5.195-32.496C184.435,3.836,183.62,3.963,183.563,4.202L183.563,4.202z" style="stroke-dasharray: 319.38px; stroke-dashoffset: 0px; stroke: rgb(0, 112, 60);"></path>
		<path id="XMLID_5429_" d="M61.395,134.797c-4.292,0.538-8.457,2.06-12.084,4.414
			c-0.761,0.494-1.561,1.117-1.709,2.013c-0.285,1.714,1.84,2.722,3.54,3.082c25.016,5.292,51.306,0.35,76.391,5.306
			c3.464,0.686,7.355,1.931,8.745,5.177c-21.421,3.142-43.19,2.604-64.833,2.058c-20.756-0.522-41.513-1.045-62.269-1.567
			c-1.413-0.036-2.891-0.089-4.119-0.788c-2.218-1.264-2.851-4.114-3.264-6.634c-0.382-2.329-0.764-4.659-1.146-6.988
			c-0.156-0.954-0.31-1.954,0-2.87c0.775-2.292,3.899-3.127,6.317-3.181C25.012,134.416,43.347,135.199,61.395,134.797" style="stroke-dasharray: 319.38px; stroke-dashoffset: 0px; stroke: rgb(0, 112, 60);"></path>
	</g>
</svg>