<svg version="1.1" id="Layer_10" xmlns="http://www.w3.org/2000/svg" xmlns:xlink="http://www.w3.org/1999/xlink" x="0px" y="0px" height="120px" viewBox="0 0 168.468 245.063" enable-background="new 0 0 168.468 245.063" xml:space="preserve" style="fill: rgb(0, 112, 60);">
	<g>
		<path id="XMLID_4997_" d="M148.584,93.252c1.669,0.102,3.133,0.155,4.59,0.285
			c3.455,0.311,6.954,0.411,10.347,1.061c3.012,0.576,3.417,1.515,2.684,4.021c-0.388,1.323-0.529,2.72-0.794,4.143
			c-0.562,0.071-1.098,0.141-1.822,0.233c-0.209,2.388-0.415,4.805-0.633,7.22c-0.688,7.643-1.432,15.28-2.054,22.929
			c-0.379,4.661-0.544,9.339-0.861,14.006c-0.171,2.508-0.454,5.008-0.698,7.511c-0.313,3.218-0.61,6.438-0.963,9.653
			c-0.628,5.715-1.307,11.425-1.938,17.14c-0.601,5.433-1.219,10.863-1.729,16.305c-0.261,2.782-0.242,5.59-0.458,8.378
			c-0.348,4.492-0.72,8.984-1.208,13.463c-0.335,3.065-1.444,4.341-4.42,4.732c-4.784,0.63-9.594,1.119-14.408,1.433
			c-2.046,0.134-4.133-0.309-6.197-0.525c-1.44-0.151-2.146,0.507-2.085,1.974c0.079,1.894-0.508,3.421-1.808,4.949
			c-3.435,4.038-8.112,5.75-12.827,7.485c-2.998,1.104-5.917,2.554-9.007,3.247c-8.42,1.89-16.984,2.276-25.617,2.148
			c-5.564-0.082-10.756-1.893-16.164-2.606c-3.641-0.48-7.141-1.389-10.313-3.31c-1.897-1.148-3.802-2.288-5.648-3.514
			c-0.439-0.292-0.74-0.878-0.968-1.389c-0.497-1.114-0.977-2.247-1.326-3.413c-0.225-0.747-0.204-1.568-0.289-2.317
			c-2.651,0-5.241,0.017-7.83-0.004c-5.729-0.046-11.414-0.367-16.855-2.445c-3.612-1.38-5.856-3.79-6.055-7.783
			c-0.107-2.156-0.127-4.315-0.196-6.474c-0.457-14.264-0.574-28.54-1.768-42.776c-0.801-9.559-1.325-19.143-2.236-28.69
			c-0.599-6.275-1.712-12.501-2.496-18.762c-0.262-2.095-0.147-4.235-0.328-6.344c-0.202-2.347-0.557-4.681-0.82-7.023
			c-0.074-0.667-0.319-1.023-1.038-1.207c-2.277-0.583-2.404-0.808-2.331-3.127c0.028-0.919-0.04-1.858,0.132-2.75
			c0.095-0.491,0.526-1.213,0.926-1.304c3.932-0.89,7.86-1.861,11.844-2.435c5.765-0.829,11.573-1.346,17.362-1.999
			c0.114-0.013,0.225-0.059,0.449-0.118c-0.309-2.494-0.612-4.986-0.926-7.478c-0.447-3.563-0.938-7.123-1.325-10.693
			c-0.082-0.756-0.295-1.139-1.021-1.349c-0.89-0.256-1.378-0.622-1.247-1.856c0.152-1.426-0.224-2.943-0.555-4.379
			c-0.57-2.475,0.759-4.309,3.451-5.008c8.347-2.165,16.774-4.016,25.163-6.021c0.449-0.107,0.976-0.43,1.211-0.81
			c1.172-1.896,2.261-3.846,3.375-5.779c0.438-0.759,0.793-1.581,1.326-2.265c0.299-0.384,0.866-0.712,1.348-0.771
			c1.627-0.196,3.775,0.532,4.573,3.015c0.093,0.289-0.033,0.696-0.165,1.002c-0.564,1.311-1.169,2.604-1.866,4.139
			c2.259-0.154,4.265-0.304,6.272-0.426c5.387-0.329,10.771-0.691,16.162-0.952c3.473-0.167,6.953-0.226,10.43-0.239
			c1.875-0.008,3.756,0.117,5.621,0.308c1.085,0.11,1.521-0.305,1.909-1.271c3.193-7.935,6.334-15.893,9.714-23.748
			c3.19-7.417,6.601-14.739,10.711-21.715c1.317-2.234,2.422-4.595,3.591-6.914c0.977-1.936,2.897-2.589,4.792-1.55
			c1.428,0.782,2.423,2.021,2.862,3.529c0.21,0.724-0.077,1.688-0.386,2.443c-0.48,1.176-1.217,2.243-1.765,3.395
			c-2.301,4.835-4.685,9.634-6.813,14.544c-1.457,3.361-2.539,6.886-3.801,10.333c-0.286,0.782-0.627,1.544-0.938,2.317
			c-0.786,1.958-1.597,3.907-2.348,5.879c-1.65,4.334-3.27,8.679-4.898,13.02c-0.11,0.295-0.191,0.602-0.345,1.088
			c1.367,0.3,2.682,0.556,3.979,0.88c3.872,0.969,7.729,1.998,11.611,2.93c1.269,0.304,2.588,0.441,3.894,0.54
			c0.731,0.055,1,0.347,1.396,0.974c1.049,1.659-0.195,3.184-0.059,4.793c0.143,1.676,0.105,3.51-1.595,4.767
			c-0.394,0.29-0.331,1.268-0.383,1.937c-0.45,5.774-0.866,11.552-1.323,17.325c-0.08,1.02,0.391,1.462,1.306,1.385
			c2.226-0.187,4.451-0.405,6.661-0.72c0.415-0.059,0.86-0.557,1.119-0.962c5.853-9.162,11.669-18.348,17.523-27.509
			c1.355-2.122,2.807-4.185,4.248-6.25c0.782-1.121,3.049-1.222,3.998-0.227c0.027,0.029,0.052,0.061,0.078,0.091
			c1.402,1.569,1.502,1.982,0.533,3.837c-2.071,3.967-4.004,8.024-6.341,11.831c-3.364,5.48-7.064,10.754-10.56,16.155
			C150.052,90.17,149.407,91.677,148.584,93.252z M44.642,72.569c1.381-0.548,2.762-1.096,4.143-1.644
			c-2.417,0.096-4.771,0.373-6.563,2.207c-0.235,0.24-0.306,0.642-0.453,0.969c-0.423,0.086-0.959,0.038-1.252,0.281
			c-2.15,1.787-4.229,3.66-6.381,5.446c-1.027,0.853-1.214,1.868-1.024,3.098c1.244,8.095,2.371,16.208,3.725,24.284
			c1.664,9.927,3.565,19.813,5.255,29.736c0.731,4.29,1.246,8.619,1.762,12.942c0.777,6.507,1.412,13.03,2.228,19.531
			c0.3,2.391,0.938,4.739,1.441,7.199c1.629-0.851,3.104-1.621,4.579-2.391c0.082,0.145,0.163,0.29,0.244,0.436
			c-3.434,2.164-6.868,4.328-10.302,6.492c-0.117-0.146-0.233-0.292-0.351-0.438c0.703-0.553,1.462-1.05,2.087-1.681
			c0.364-0.367,0.775-0.983,0.718-1.429c-0.499-3.801-0.744-7.687-1.756-11.356c-1.451-5.261-1.859-10.603-2.296-15.974
			c-0.327-4.021-0.599-8.05-1.075-12.054c-0.669-5.633-1.427-11.257-2.292-16.863c-0.893-5.782-1.959-11.538-2.949-17.306
			c-0.132,0.021-0.264,0.04-0.395,0.061c0.877,9.65,1.755,19.301,2.632,28.951c0.075-0.008,0.149-0.017,0.224-0.024
			c0.067-0.419,0.135-0.837,0.202-1.256c0.107,0.017,0.215,0.033,0.322,0.05c0,0.474-0.009,0.947,0.001,1.422
			c0.079,3.918,0.088,7.84,0.257,11.755c0.458,10.627,0.942,21.253,1.523,31.874c0.101,1.85,0.664,3.686,1.121,5.501
			c0.4,1.585,1.067,3.108,1.411,4.703c0.731,3.396,1.346,6.818,1.98,10.235c1.695,9.112,3.394,18.225,5.04,27.346
			c0.216,1.198,0.717,1.944,1.883,2.322c0.973,0.316,1.903,0.765,2.852,1.154c-0.046,0.112-0.093,0.225-0.139,0.337
			c-1.262-0.412-2.523-0.825-3.826-1.251c-0.15,1.214,0.267,1.899,1.436,2.128c0.937,0.184,1.854,0.462,2.779,0.698
			c-0.029,0.133-0.06,0.267-0.09,0.4c-1.191-0.189-2.383-0.378-3.71-0.588c0.136,0.606,0.308,1.095,0.343,1.593
			c0.089,1.248,0.779,1.905,1.921,2.282c1.289,0.425,2.549,0.942,3.815,1.435c0.319,0.124,0.617,0.303,0.925,0.456
			c-0.056,0.125-0.112,0.249-0.169,0.373c-1.915-0.663-3.83-1.327-5.918-2.051c0.213,0.674,0.354,1.127,0.5,1.579
			c0.56,1.745,1.604,2.884,3.525,3.214c3.463,0.596,6.916,1.262,10.354,1.986c4.398,0.926,8.837,1.335,13.326,1.454
			c5.981,0.158,11.884-0.477,17.793-1.296c3.261-0.451,6.465-0.959,9.551-2.17c3.242-1.271,6.417-2.627,9.394-4.479
			c1.257-0.782,1.783-1.576,1.468-3.044c-1.671,0.776-3.327,1.546-4.983,2.315c-0.074-0.158-0.148-0.317-0.222-0.476
			c0.32-0.187,0.633-0.39,0.964-0.557c0.998-0.507,1.973-1.08,3.014-1.478c1.584-0.605,1.814-1.801,1.669-3.354
			c-2.923,1.599-5.781,3.163-8.64,4.727c-0.094-0.147-0.188-0.295-0.283-0.442c0.349-0.259,0.674-0.56,1.049-0.768
			c2.343-1.3,4.684-2.604,7.054-3.85c0.816-0.43,1.146-1.028,1.147-1.91c0.002-1.68,0.029-3.359,0.059-5.039
			c0.005-0.267,0.077-0.532,0.118-0.799c0.089,0.014,0.179,0.025,0.268,0.039c0,2.159,0,4.319,0,6.479
			c0.147,0.037,0.294,0.074,0.441,0.112c0.257-0.68,0.515-1.357,0.774-2.041c0.16,0.317,0.31,0.611,0.548,1.082
			c1.772-1.441,3.462-2.776,5.094-4.178c0.325-0.279,0.546-0.798,0.613-1.237c0.266-1.737,0.479-3.485,0.656-5.234
			c0.104-1.038,0.106-2.086,0.163-3.318c-1.922,1.204-3.608,2.261-5.295,3.317c-0.063-0.09-0.125-0.181-0.188-0.271
			c0.828-0.713,1.656-1.427,2.484-2.14c-0.075-0.074-0.15-0.148-0.225-0.222c-1.857,1.188-3.715,2.378-5.572,3.566
			c-0.115-0.139-0.23-0.278-0.346-0.417c0.232-0.125,0.481-0.226,0.694-0.378c1.561-1.116,3.118-2.237,4.668-3.368
			c0.899-0.656,0.936-0.791,0.661-1.938c-1.906,1.153-3.82,2.311-5.735,3.469c-0.07-0.112-0.141-0.225-0.211-0.338
			c0.309-0.229,0.61-0.47,0.927-0.687c1.484-1.018,3.011-1.979,4.438-3.07c0.441-0.337,0.789-0.992,0.878-1.551
			c0.195-1.22,0.2-2.47,0.276-3.708c0.016-0.26,0.002-0.522,0.002-0.875c-0.631,0.297-1.152,0.541-1.673,0.786
			c0.682-1.344,2.517-1.991,1.662-3.981c-0.559,0.432-1.064,0.885-1.632,1.241c-0.429,0.269-0.935,0.413-1.406,0.612
			c0.289-0.397,0.552-0.816,0.874-1.185c0.206-0.235,0.482-0.426,0.759-0.583c1.515-0.862,1.994-2.161,2.033-3.882
			c0.147-6.354,0.389-12.708,0.66-19.059c0.198-4.633,0.467-9.263,0.762-13.89c0.595-9.334,1.308-18.661,1.828-27.999
			c0.557-9.978,1.07-19.96,1.375-29.948c0.291-9.552,0.292-19.113,0.409-28.67c0.005-0.379-0.111-0.76-0.172-1.14
			c-1.059,2.324-1.834,4.628-2.687,6.904c-0.271,0.726-0.187,1.262,0.268,1.871c0.516,0.689,0.913,1.467,1.361,2.206
			c-0.103,0.065-0.205,0.131-0.308,0.196c-0.645-0.733-1.289-1.467-1.995-2.27c-0.402,0.806-0.757,1.517-1.111,2.227
			c-0.121-0.006-0.242-0.012-0.362-0.019c0.856-1.974,1.211-3.825-1.024-5.073c-1.761,3.868-3.521,7.733-5.281,11.6
			c-0.121-0.048-0.243-0.097-0.364-0.145c0.191-0.589,0.344-1.193,0.58-1.763c1.302-3.139,2.566-6.295,3.969-9.389
			c0.471-1.039,0.3-1.692-0.488-2.385c-1.275-1.122-2.513-2.285-3.767-3.431c2.319,0.206,3.45,2.215,5.223,3.524
			c1.005-2.534,1.981-4.934,2.88-7.362c0.086-0.231-0.229-0.79-0.502-0.947c-2.286-1.313-4.576-2.437-7.372-2.519
			c-4.067-0.118-8.125-0.951-12.184-0.928c-11.309,0.065-22.633-0.619-33.927,0.537c-3.336,0.342-6.704,0.385-10.036,0.752
			C55.909,69.211,50.226,70.693,44.642,72.569z M154.051,196.029c-0.102-0.084-0.202-0.169-0.304-0.253
			c-1.156,0.369-1.848,1.742-3.587,1.698c1.196-0.854,2.171-1.424,2.982-2.172c0.505-0.466,1-1.166,1.093-1.818
			c0.542-3.836,1.002-7.684,1.419-11.535c0.882-8.135,1.7-16.277,2.585-24.411c0.319-2.936,0.882-5.848,1.11-8.788
			c0.446-5.738,0.729-11.488,1.096-17.232c0.072-1.133,0.216-2.26,0.327-3.39c-3.823,7.277-7.941,14.296-13.101,20.658
			c0.123-0.523,0.379-0.965,0.663-1.388c4.467-6.643,8.591-13.486,12.056-20.709c0.421-0.878,0.671-1.877,0.802-2.846
			c0.235-1.741,0.317-3.502,0.469-5.254c0.428-4.977,0.826-9.957,1.302-14.929c0.187-1.955,0.265-1.979-1.633-2.151
			c-4.252-0.388-8.5-0.863-12.762-1.083c-4.668-0.241-9.349-0.256-14.024-0.323c-1.812-0.026-2.4,0.627-2.452,2.393
			c-0.048,1.599-0.135,3.196-0.211,4.794c-0.381,7.983-0.851,15.965-1.122,23.953c-0.257,7.549-0.251,15.107-0.463,22.658
			c-0.282,10.066-0.657,20.13-1.004,30.194c-0.174,5.073-0.189,10.163-0.628,15.215c-0.27,3.096,0.742,5.553,2.482,7.875
			c0.74,0.988,1.622,1.87,2.437,2.804c0.262,0.3,0.512,0.61,0.767,0.917c-2.862-1.293-4.404-3.745-5.814-6.316
			c-0.122,0.016-0.244,0.032-0.366,0.048c-0.227,3.254-0.452,6.508-0.689,9.919c1.889-0.859,1.006-2.976,2.266-4.125
			c-0.094,1.162-0.177,2.193-0.26,3.225c0.053-0.01,0.104-0.02,0.157-0.028c-0.236,0.637-0.473,1.273-0.709,1.911
			c0.098,0.049,0.195,0.098,0.294,0.146c0.469-0.265,0.938-0.529,1.709-0.966c-0.165,1.329-0.293,2.36-0.429,3.45
			c0.44-0.083,0.793-0.15,1.146-0.217c-0.237,0.41-0.558,0.634-0.86,0.88c-0.713,0.58-0.938,2.904-0.27,3.202
			c0.904,0.402,1.861,0.891,2.816,0.939c2.95,0.15,5.911,0.14,8.866,0.121c0.615-0.004,1.311-0.18,1.827-0.502
			c2.197-1.373,4.358-2.806,6.491-4.277c0.512-0.353,0.863-0.938,1.288-1.418c-0.056-0.049-0.111-0.099-0.167-0.148
			c-0.928,0.588-1.854,1.176-2.781,1.764c-0.065-0.116-0.132-0.232-0.197-0.35c0.615-0.493,1.271-0.945,1.833-1.493
			c0.539-0.524,1.542-0.732,1.433-1.896c-0.772,0.534-1.46,1.009-2.147,1.484c-0.088-0.121-0.176-0.242-0.264-0.363
			c0.496-0.442,1.004-0.873,1.486-1.331c0.473-0.448,0.919-0.924,1.377-1.389c-1.301-0.133-2.063,1.475-3.357,0.41
			c-0.39,0.033-0.779,0.068-1.169,0.103c1.249-1.073,2.529-1.928,3.785-2.815c0.313-0.221,0.744-0.522,0.788-0.834
			c0.173-1.232,0.213-2.483,0.311-3.843c-0.682,0.444-1.224,0.798-1.766,1.151c0.42-1.17,1.978-1.36,2.029-2.928
			c-0.604,0.374-1.076,0.666-1.549,0.958c-0.056-0.073-0.11-0.146-0.166-0.218c0.674-0.698,1.348-1.396,2.021-2.095
			c-0.102-0.101-0.203-0.201-0.305-0.302c-0.518,0.373-1.035,0.747-1.553,1.12c-0.075-0.08-0.15-0.16-0.226-0.241
			c0.745-1.165,2.828-1.583,2.122-3.545c-0.363,0.083-0.746,0.172-1.354,0.312c0.694-1.005,1.982-1.385,1.553-2.809
			c-0.691,0.511-1.338,0.987-1.983,1.464c-0.092-0.118-0.185-0.236-0.277-0.354C152.21,197.816,153.131,196.923,154.051,196.029z
			M6.679,104.847c0,0.478-0.021,0.753,0.003,1.024c0.497,5.691,1.053,11.378,1.486,17.074c0.445,5.856,0.925,11.718,1.097,17.585
			c0.111,3.784,0.512,7.453,1.494,11.12c2.928,10.919,4.821,22.122,9.067,32.676c0.128,0.316,0.115,0.688,0.169,1.034
			c-4.887-10.651-7.518-21.928-10.106-33.229c0.034,1.578,0.3,3.116,0.39,4.664c0.234,4.03,0.379,8.065,0.58,12.099
			c0.446,8.985,0.879,17.972,1.371,26.954c0.271,4.946,0.636,9.888,1.006,14.828c0.031,0.413,0.419,0.799,0.642,1.197
			c0.132-0.056,0.265-0.111,0.396-0.167c0-1.977,0-3.953,0-5.929c0.329,1.589,0.566,3.184,0.502,4.767
			c-0.057,1.373,0.423,2.035,1.725,2.354c1.043,0.254,2.036,0.712,3.052,1.079c-0.053,0.162-0.105,0.324-0.158,0.486
			c-1.461-0.411-2.922-0.821-4.717-1.326c0.238,0.742,0.347,1.324,0.639,1.792c0.063,0.102,0.787-0.21,1.26-0.347
			c0.129,1.542,1.948,0.653,2.907,1.729c-1.045-0.049-1.815-0.085-2.682-0.126c0,1.808-0.043,3.561,0.043,5.307
			c0.014,0.293,0.587,0.558,1.138,1.044c0.084-1.659,0.146-2.886,0.209-4.112c0.14-0.002,0.279-0.004,0.419-0.006
			c0.118,1.362,0.236,2.725,0.354,4.087c0.126-0.014,0.253-0.027,0.379-0.04c0.083-1.154,0.166-2.308,0.249-3.462
			c0.399,0.109,0.524,0.19,0.53,0.281c0.055,0.756,0.15,1.517,0.112,2.27c-0.048,0.922,0.239,1.372,1.229,1.453
			c5.291,0.431,10.577,0.909,15.865,1.371c1.304-0.879,2.607-1.758,3.905-2.645c0.009-0.006-0.063-0.131-0.116-0.235
			c-1.806,0.759-3.229,2.342-5.303,2.533c0.918-0.696,1.908-1.256,2.887-1.834c2.394-1.411,2.392-1.414,2.435-2.259
			c-1.608,0.669-2.813,2.111-4.618,2.319c1.123-0.9,2.277-1.747,3.525-2.419c1.191-0.641,1.292-1.436,0.715-2.545
			c-1.537,0.66-2.58,2.16-4.317,2.36c1.104-0.983,2.262-1.875,3.483-2.667c0.861-0.558,0.959-1.176,0.455-2.05
			c-1.151,0.65-2.273,1.284-3.395,1.918c-0.078-0.142-0.157-0.282-0.236-0.424c1.023-0.651,2.074-1.266,3.055-1.976
			c0.296-0.215,0.399-0.695,0.591-1.054c-0.104-0.064-0.207-0.129-0.31-0.192c-0.867,0.474-1.733,0.947-2.6,1.422
			c0.357-1.576,2.381-1.451,2.755-3.229c-0.845,0.425-1.47,0.738-2.095,1.052c-0.052-0.09-0.104-0.18-0.156-0.27
			c0.727-0.652,1.453-1.305,2.18-1.957c-0.085-0.095-0.17-0.189-0.254-0.284c-0.572,0.228-1.144,0.454-1.715,0.681
			c-0.049-0.096-0.097-0.191-0.145-0.287c0.65-0.514,1.302-1.026,1.952-1.54c-0.055-0.066-0.109-0.132-0.164-0.198
			c-0.548,0.073-1.096,0.146-1.644,0.22c1.615-1.175,1.615-1.175,1.258-1.981c-0.713,0.332-1.426,0.664-2.139,0.996
			c-0.068-0.128-0.136-0.257-0.203-0.385c0.457-0.272,0.938-0.513,1.362-0.827c0.406-0.301,0.755-0.679,1.129-1.023
			c-0.081-0.084-0.162-0.168-0.243-0.252c-1.218,0.346-2.1,1.625-3.565,1.336c0.835-0.677,1.732-1.213,2.666-1.678
			c0.729-0.362,0.908-0.86,0.776-1.647c-0.197-1.181-0.332-2.38-0.385-3.575c-0.35-7.988-0.747-15.961-1.878-23.9
			c-0.563-3.958-0.398-8.031-0.416-12.053c-0.038-8.522-0.544-17.018-1.076-25.521c-0.552-8.823-1.228-17.618-2.682-26.347
			c-0.459-2.752-0.697-5.54-1.051-8.429C23.374,102.931,15.103,104.085,6.679,104.847z M99.176,59.673
			c-0.005-0.114-0.01-0.229-0.015-0.343c-6.783,0.396-13.577,0.659-20.345,1.232c-5.532,0.468-11.05,1.19-16.54,2.021
			c-3.946,0.597-7.824,1.628-11.756,2.336c-6.645,1.196-13.313,2.259-19.958,3.443c-3.147,0.561-3.136,0.629-3.012,3.892
			c0.001,0.04,0.004,0.081,0.001,0.12c-0.059,0.867,0.352,1.003,1.116,0.809c3.324-0.844,6.634-1.766,9.991-2.447
			c5.952-1.208,11.903-2.495,17.913-3.323c7.476-1.031,14.998-1.809,22.524-2.361c6.054-0.444,12.178-0.861,18.207-0.421
			c5.379,0.394,10.703-0.077,16.048,0.081c0.319,0.01,0.812-0.329,0.943-0.629c0.3-0.684,0.489-1.436,0.589-2.177
			c0.035-0.263-0.276-0.785-0.507-0.835c-2.339-0.508-4.677-1.143-7.049-1.345C104.629,59.496,101.895,59.673,99.176,59.673z
			M45.667,177.829c0.919-1.155,0.947-2.221,0.737-3.483c-0.853-5.119-1.654-10.249-2.322-15.395
			c-1.237-9.544-2.169-19.132-3.602-28.646c-1.313-8.72-3.178-17.355-4.688-26.048c-1.065-6.137-1.949-12.306-2.905-18.462
			c-0.186-1.199-0.328-2.406-0.49-3.609c-0.149-0.003-0.298-0.006-0.447-0.009c-0.037,0.496-0.166,1.006-0.1,1.488
			c0.686,4.986,1.28,9.99,2.137,14.948c1.325,7.672,2.991,15.287,4.219,22.974c1.141,7.136,1.943,14.328,2.804,21.506
			c0.536,4.481,0.782,9,1.38,13.472c0.71,5.304,1.665,10.575,2.499,15.863C45.164,174.174,45.395,175.926,45.667,177.829z
			M134.751,98.045c5.17,0,10.195-0.014,15.22,0.009c1.28,0.006,2.603,0.232,2.944-1.546c0.044-0.227,0.422-0.369,0.56-0.602
			c0.244-0.409,0.423-0.857,0.729-1.501c-6.37-0.29-12.435-0.679-18.387-0.293C135.451,95.462,135.141,96.608,134.751,98.045z
			M125.456,196.218c0.151,0.057,0.303,0.114,0.454,0.171c0.338-0.687,0.931-1.358,0.975-2.063
			c0.668-10.689,1.406-21.377,1.831-32.077c0.35-8.784,0.308-17.584,0.439-26.377c-0.023,0.002-0.048,0.004-0.071,0.007
			C127.875,155.991,126.665,176.104,125.456,196.218z M47.875,225.629c-0.013-0.272-0.001-0.43-0.029-0.578
			c-1.223-6.387-2.464-12.77-3.671-19.159c-0.992-5.253-1.928-10.517-2.922-15.77c-0.393-2.078-0.877-4.14-1.319-6.208
			c-0.156,0.027-0.313,0.056-0.469,0.083c0.071,1.35,0.031,2.716,0.234,4.044c1.128,7.379,2.276,14.754,3.497,22.117
			c0.719,4.331,1.596,8.636,2.378,12.956C45.804,224.382,46.491,225.192,47.875,225.629z M113.712,52.82
			c0.092,0.047,0.184,0.093,0.274,0.14c0.794-1.643,1.695-3.244,2.363-4.937c2.038-5.162,3.94-10.378,5.984-15.537
			c1.792-4.525,3.57-9.063,5.603-13.482c1.966-4.275,4.444-8.313,5.832-12.856c0.268-0.878,0.274-1.513-0.527-1.957
			c-3.4,8.069-6.896,16.063-10.145,24.154C119.841,36.452,116.83,44.657,113.712,52.82z M100.907,58.356
			c0.012,0.033,0.022,0.066,0.034,0.1c-0.856-0.04-1.712-0.083-2.567-0.118c-16.838-0.69-33.418,0.811-48.139,5.526
			c7.167-1.101,15.758-2.715,24.421-3.666C83.369,59.241,92.154,58.943,100.907,58.356z M124.835,188.303
			c2.466-24.698,3.183-49.487,4.117-74.265C127.58,138.793,126.207,163.548,124.835,188.303z M5.847,105.603
			c-0.17-0.041-0.339-0.081-0.509-0.122c-0.117,0.431-0.361,0.87-0.333,1.292c0.166,2.465,0.359,4.93,0.609,7.388
			c0.678,6.672,1.396,13.34,2.082,20.011c0.235,2.286,0.42,4.577,0.628,6.865C8.533,129.142,6.78,117.404,5.847,105.603z
			M148.018,91.606c2.394-3.624,4.896-7.505,7.492-11.32c3.552-5.219,6.553-10.566,6.734-12.224
			C157.151,75.827,151.395,83.162,148.018,91.606z M126.76,71.639c-0.903,2.266-1.766,4.447-2.643,6.621
			c-0.696,1.729-0.442,2.479,1.295,3.561c0.755-2.243,1.419-4.502,2.283-6.682C128.257,73.72,127.921,72.695,126.76,71.639z
			M23.069,97.445c-3.132,0.402-5.96,0.791-8.795,1.116c-0.832,0.095-1.44,0.413-1.798,1.159c-0.139,0.29-0.208,0.613-0.31,0.922
			c0.327,0.046,0.666,0.173,0.979,0.125c2.168-0.33,4.319-0.794,6.497-1.016C21.088,99.604,22.108,99.016,23.069,97.445z
			M74.659,66.583c8.578,0,18.081,0,27.583,0C99.939,65.228,79.184,65.561,74.659,66.583z M69.067,242.875
			c4.11,1.631,25.972,0.934,29.741-1.075c-4.873,0.47-9.909,1.195-14.966,1.374C78.764,243.354,73.665,242.989,69.067,242.875z
			M119.325,228.516c1.615-1.234,3.074-2.374,4.561-3.477c1.135-0.841,0.943-1.988,1.005-3.29c-1.647,1.262-3.031,2.479-4.571,3.45
			C119.032,226.011,119.056,227.027,119.325,228.516z M32.863,79.615c0.104,0.03,0.207,0.062,0.311,0.092
			c3.1-2.577,6.198-5.154,9.298-7.73c-0.029-0.096-0.059-0.191-0.089-0.286c-0.962,0.364-2.083,0.526-2.856,1.133
			c-2.034,1.595-3.948,3.351-5.839,5.119C33.263,78.34,33.13,79.049,32.863,79.615z M38.151,225.607
			c-0.026-0.064-0.053-0.129-0.08-0.193c-0.476,0.093-0.965,0.303-1.424,0.251c-0.661-0.075-1.291-0.449-1.95-0.507
			c-2.503-0.217-5.017-0.313-7.518-0.539c-2.123-0.191-4.235-0.501-6.353-0.758c0.584,0.334,1.197,0.475,1.817,0.578
			c3.028,0.502,6.047,1.087,9.092,1.453c1.827,0.221,3.697,0.111,5.547,0.103C37.573,225.994,37.862,225.742,38.151,225.607z
			M130.027,116.234c0.104,0.004,0.21,0.007,0.314,0.01c0.151-2.541,0.317-5.081,0.451-7.623c0.134-2.552,0.281-5.105,0.341-7.66
			c0.058-2.506,0.013-5.014,0.013-7.521c-0.079-0.001-0.157-0.002-0.235-0.004C130.616,101.035,130.322,108.635,130.027,116.234z
			M46.625,64.704c-0.03-0.17-0.061-0.339-0.091-0.509c-5.345,0.895-10.764,1.382-16.018,2.781c0.028,0.161,0.058,0.322,0.087,0.482
			C35.944,66.541,41.284,65.622,46.625,64.704z M119.132,231.673c1.595-1.351,3.009-2.606,4.49-3.778
			c0.787-0.623,0.945-1.34,0.77-2.354c-1.397,1.045-2.637,2.109-4.011,2.956C119.232,229.204,118.773,230.059,119.132,231.673z
			M20.56,100.154c-0.261-0.014-0.416-0.049-0.563-0.026c-2.682,0.415-5.366,0.816-8.039,1.281c-0.332,0.058-0.604,0.46-0.904,0.703
			c0.049,0.099,0.098,0.198,0.146,0.297c2.367-0.25,4.732-0.538,7.104-0.731C19.315,101.596,20.055,101.245,20.56,100.154z
			M116.259,64.216c-0.118-0.023-0.236-0.048-0.354-0.071c0.113-0.711,0.267-1.419,0.316-2.134c0.017-0.241-0.23-0.502-0.357-0.753
			c-0.154,0.221-0.428,0.435-0.439,0.663c-0.043,0.775,0.083,1.562-0.702,2.11c-0.134,0.094-0.043,0.507-0.056,0.77
			c3.389,0.286,3.107,0.61,3.976-2.949c-1.609-0.787-1.806-0.693-2.07,0.935C116.495,63.268,116.365,63.74,116.259,64.216z
			M42.287,63.732c3.933-0.329,7.884-0.456,11.58-2.045C49.984,62.269,45.923,61.775,42.287,63.732z M15.224,215.597
			c-0.143,0.101-0.284,0.2-0.426,0.3c0.499,1.847-0.806,4.011,1.131,5.623c0.167-1.707,0.208-3.4,0.128-5.088
			C16.043,216.141,15.514,215.875,15.224,215.597z M106.801,239.646c0.036,0.092,0.073,0.185,0.109,0.277
			c2.986-1.263,5.981-2.507,8.946-3.819c0.27-0.119,0.348-0.673,0.628-1.263C113.015,236.563,109.908,238.104,106.801,239.646z
			M123.998,230.187c-0.059-0.091-0.118-0.183-0.178-0.273c-0.141,0.028-0.311,0.017-0.419,0.093
			c-1.409,0.979-2.84,1.934-4.191,2.986c-0.322,0.251-0.378,0.843-0.556,1.277c0.104,0.068,0.207,0.137,0.311,0.205
			C120.972,233.434,122.599,231.944,123.998,230.187z M153.392,98.255c0.797-0.145,1.701-0.04,2.011-0.419
			c0.681-0.835,1.062-1.915,1.577-2.92C155.688,94.535,154.511,95.639,153.392,98.255z M161.099,98.587
			c1.117,0,1.955,0.048,2.78-0.028c0.243-0.022,0.595-0.361,0.651-0.611c0.116-0.505,0.33-1.173-0.529-1.314
			c-0.667-0.11-1.42-0.839-1.94,0.268C161.827,97.396,161.52,97.856,161.099,98.587z M38.492,72.72
			c-1.855-0.119-5.523,3.084-5.299,4.71C34.984,75.838,36.714,74.3,38.492,72.72z M131.328,63.45
			c-0.052,1.158-0.129,1.913-0.093,2.661c0.012,0.229,0.294,0.544,0.525,0.637c0.252,0.103,0.844,0.029,0.853-0.03
			c0.117-0.817,0.265-1.659,0.159-2.463C132.737,63.987,132.007,63.811,131.328,63.45z M161.193,95.838
			c-0.994-0.437-2.05,0.631-2.578,2.504C160.291,98.828,160.37,98.753,161.193,95.838z M48.435,232.929
			c0.352,2.78,1.113,4.073,2.296,3.989C49.797,233.362,49.797,233.362,48.435,232.929z M64.502,52.783
			c-0.15-0.064-0.301-0.129-0.451-0.193c-0.841,1.481-1.682,2.962-2.522,4.443c0.071,0.089,0.144,0.178,0.215,0.267
			c0.362-0.136,0.932-0.173,1.051-0.424C63.426,55.541,63.944,54.153,64.502,52.783z M8.367,102.629
			c2.124-0.163,2.457-2.183,3.581-3.394C10.046,99.607,9.454,101.377,8.367,102.629z M126.582,200.108
			c-1.989,0.836-1.499,2.38-1.629,3.829C126.904,203.205,126.288,201.585,126.582,200.108z M14.147,219.97
			c0.469-2.594,0.208-4.466-0.656-4.723C13.208,217.965,13.415,219.456,14.147,219.97z M43.126,221.961
			c-0.2-1.941-0.401-3.884-0.603-5.825C41.712,216.966,42.155,221.011,43.126,221.961z M47.415,229.024
			c0.484,1.362,0.035,2.971,1.868,3.409C49.373,230.409,48.903,229.45,47.415,229.024z M121.256,62.51
			c0,0.814-0.056,1.446,0.03,2.058c0.029,0.212,0.393,0.493,0.632,0.524c0.212,0.027,0.597-0.197,0.673-0.398
			c0.202-0.533,0.277-1.113,0.414-1.723C122.396,62.811,121.947,62.692,121.256,62.51z M76.653,57.549
			c0.009-0.073,0.019-0.146,0.027-0.219c-1.151,0.066-2.306,0.1-3.452,0.21c-1.19,0.114-2.375,0.29-3.558,0.466
			c-1.09,0.163-2.174,0.362-3.26,0.546c0.01,0.063,0.02,0.124,0.03,0.187C69.845,58.342,73.249,57.945,76.653,57.549z
			M156.342,98.146c1.591,0.267,2.718-1.454,2.126-3.37C157.708,95.98,157.042,97.036,156.342,98.146z M2.294,103.815
			c0.954-0.668,1.876-1.314,2.798-1.96C1.828,101.873,1.764,101.924,2.294,103.815z M124.072,209.872
			c2.143-1.167,2.28-1.386,1.87-2.969C124.94,207.645,123.798,208.238,124.072,209.872z M124.772,65.533
			c0.08-0.089,0.16-0.177,0.24-0.266c-0.42-0.671,0.313-1.894-0.97-2.028c-0.285-0.03-0.699,1.172-1.145,1.97
			C123.79,65.362,124.281,65.447,124.772,65.533z M126.719,196.612c-1.383,0.77-1.664,1.801-1.378,3.118
			C126.933,199.218,126.646,197.936,126.719,196.612z M130.274,84.815c-0.027-0.009-0.053-0.018-0.079-0.025c0,2.722,0,5.443,0,8.165
			c0.026,0,0.052,0,0.079,0C130.274,90.242,130.274,87.528,130.274,84.815z M120.386,66.39c-0.387-0.896-2.741-1.147-4.827-0.527
			C117.104,66.031,118.651,66.2,120.386,66.39z M120.142,64.89c-0.199-1.025-0.364-1.877-0.529-2.728
			c-0.104-0.001-0.207-0.001-0.31-0.002c-0.277,0.871-0.554,1.742-0.867,2.729C119.063,64.89,119.518,64.89,120.142,64.89z
			M46.574,225.838c0.514,1.129,0.348,2.504,1.975,2.665C48.571,227.15,48.109,226.229,46.574,225.838z M126.232,204.151
			c-1.528,0.929-1.765,1.355-1.542,2.722C125.811,206.352,126.47,205.572,126.232,204.151z M45.626,230.253
			c-0.279-1.512-0.406-2.759-1.463-3.639C44.454,227.798,43.875,229.296,45.626,230.253z M59.755,59.681
			c-0.018-0.093-0.035-0.185-0.053-0.277c-2.21,0.389-4.42,0.777-6.63,1.165c0.026,0.139,0.053,0.278,0.078,0.417
			C55.353,60.551,57.554,60.115,59.755,59.681z M117.056,232.81c1.493-0.569,1.363-1.628,1.318-2.742
			C116.809,230.46,117.049,231.6,117.056,232.81z M117.283,229.588c1.341-0.588,1.512-1.056,1.165-2.961
			C117.074,227.228,117.518,228.451,117.283,229.588z M127.379,62.806c0.144,1.168,0.272,2.21,0.401,3.251
			C128.824,63.828,128.706,62.955,127.379,62.806z M129.554,63.423c0.307,1.021,0.592,1.969,0.942,3.138
			C131.21,63.518,130.936,63.088,129.554,63.423z M6.135,125.481c0.126-0.014,0.253-0.027,0.379-0.041
			c-0.282-2.307-0.563-4.612-0.846-6.918c-0.073,0.008-0.146,0.017-0.22,0.025C5.677,120.859,5.905,123.17,6.135,125.481z
			M164.237,62.457c0.105,0.053,0.211,0.105,0.315,0.158c0.412-1.609,2.021-2.599,2.285-4.284c-0.147-0.078-0.296-0.156-0.443-0.235
			C165.676,59.55,164.956,61.004,164.237,62.457z M129.351,63.978c-0.115,0.017-0.231,0.033-0.347,0.05
			c-0.073,0.575-0.177,1.148-0.211,1.727c-0.056,0.949,0.215,1.071,1.239,0.526C129.808,65.522,129.579,64.75,129.351,63.978z
			M127.101,218.24c0.156,0.048,0.313,0.096,0.469,0.144c0.26-1.046,0.521-2.091,0.854-3.431
			C126.745,215.87,127.427,217.217,127.101,218.24z M111.378,56.032c0.17,0.05,0.341,0.101,0.511,0.15
			c0.45-1.44,0.901-2.881,1.352-4.322c-0.101-0.032-0.201-0.063-0.302-0.096C112.419,53.187,111.898,54.609,111.378,56.032z
			M133.171,97.944c0.129,0.053,0.258,0.105,0.386,0.159c0.812-0.969,1.171-2.123,1.324-3.362c-0.111-0.046-0.222-0.092-0.333-0.138
			C134.089,95.718,133.63,96.831,133.171,97.944z M31.481,76.497c0.152,0.062,0.306,0.123,0.459,0.185
			c0.251-0.702,0.502-1.404,0.85-2.375C31.245,74.775,31.43,75.665,31.481,76.497z M132.537,69.08
			c0.312-1.243-0.235-1.659-1.297-1.679C131.011,68.354,131.141,68.524,132.537,69.08z M9.613,160.229
			c0.09-0.015,0.179-0.029,0.268-0.043c-0.211-2.048-0.423-4.095-0.634-6.143c-0.051,0.005-0.102,0.01-0.153,0.015
			C9.268,156.115,9.44,158.172,9.613,160.229z M130.085,217.574c-0.208-0.115-0.416-0.23-0.624-0.346
			c-0.37,0.652-0.741,1.305-1.111,1.957c0.199,0.114,0.398,0.229,0.598,0.344C129.326,218.878,129.706,218.227,130.085,217.574z
			M99.366,56.396c0.002-0.041,0.004-0.083,0.007-0.125c-1.276,0-2.553,0-3.829,0c-0.001,0.042-0.002,0.084-0.003,0.125
			C96.815,56.396,98.091,56.396,99.366,56.396z M6.816,100.689c-0.711,0.8-1.235,1.391-1.859,2.093
			C6.269,102.929,6.759,102.388,6.816,100.689z M133.17,63.887c0.06,1.325,0.104,2.326,0.148,3.327
			C134.067,65.936,134.044,64.698,133.17,63.887z M125.048,67.194c-0.191-1.155-0.785-1.379-2.062-0.66
			C123.64,66.743,124.293,66.952,125.048,67.194z M126.762,65.922c0.154-0.019,0.309-0.038,0.464-0.057
			c-0.058-0.91-0.115-1.819-0.173-2.729c-0.116,0.011-0.232,0.022-0.35,0.034C126.819,64.081,126.034,65.055,126.762,65.922z
			M123.741,211.293c0.118,0.127,0.235,0.255,0.353,0.382c0.574-0.63,1.841-0.556,1.604-2.024
			C125.045,210.197,124.394,210.745,123.741,211.293z M39.088,224.45c1.949-0.026,2.446-0.442,2.014-1.436
			C40.521,223.429,39.951,223.835,39.088,224.45z M14.2,214.486c0.014-0.804,0.479-1.65-0.793-1.99
			C13.491,213.253,12.965,214.121,14.2,214.486z M31.338,78.875c0.205,0.059,0.411,0.117,0.616,0.176
			c0.161-0.639,0.321-1.277,0.482-1.916c-0.19-0.052-0.381-0.104-0.571-0.156C31.689,77.611,31.514,78.243,31.338,78.875z
			M128.695,67.414c-0.041,0.123-0.082,0.245-0.124,0.367c0.513,0.162,1.025,0.324,1.754,0.555
			C130.03,66.879,129.342,67.206,128.695,67.414z M129.237,221.576c0.09-0.065,0.179-0.131,0.269-0.197c0-0.487,0-0.976,0-1.881
			c-0.521,0.609-0.905,0.926-1.069,1.332C128.387,220.95,128.953,221.32,129.237,221.576z M116.689,235.193
			c1.45-0.243,1.458-0.257,1.177-1.656C117.381,234.221,117.035,234.707,116.689,235.193z M125.585,63.536
			c-0.138,0.044-0.274,0.087-0.412,0.13c0.121,0.628,0.242,1.256,0.363,1.884c0.133-0.027,0.266-0.055,0.398-0.081
			C125.64,64.857,126.625,64.007,125.585,63.536z" style="stroke-dasharray: 319.38px; stroke-dashoffset: 0px; stroke: rgb(0, 112, 60);"></path>
		<path id="XMLID_5193_" d="M113.223,139.22c-9.505-1.469-18.7-2.042-27.939-2.042c-9.232,0-18.421,0.6-27.503,1.994
			c-0.101-0.187-0.182-0.266-0.168-0.322c0.534-2.236,0.07-4.468,0.074-6.696c0.003-1.442,0.905-3.089,1.862-4.274
			c1.347-1.667,2.374-3.289,2.035-5.57c2.415-0.36,4.108-1.371,3.924-4.318c0.899,0,1.79,0.143,2.614-0.029
			c1.712-0.357,3.42-0.788,5.074-1.351c8.075-2.748,16.146-2.805,24.198,0.01c2.471,0.864,4.939,1.572,7.729,1.407
			c-0.183,2.766,1.401,3.938,3.964,4.267c-0.375,2.36,0.749,4.028,2.17,5.717c1.757,2.086,2.542,4.513,1.235,7.227
			c-0.12,0.251,0.045,0.651,0.108,0.977C112.781,137.131,112.979,138.045,113.223,139.22z M81.113,132.778
			c-0.02,0.056-0.038,0.11-0.058,0.166c0.59,0.156,1.171,0.382,1.771,0.458c4.356,0.551,9.703-2.989,10.802-7.249
			c0.27-1.046,0.232-2.223,0.094-3.308c-0.145-1.123-0.822-2.006-2.052-2.217c-1.696-0.292-3.249,0.179-4.694,1.031
			c-0.605,0.356-0.653,0.872,0.061,1.129c0.815,0.294,1.676,0.509,2.534,0.624c0.951,0.127,1.481,0.551,1.472,1.527
			c-0.036,3.484-2.72,6.775-6.182,7.466C83.636,132.649,82.364,132.661,81.113,132.778z M82.705,123.591
			c-1.786,0.145-3.571,0.376-5.358,0.391c-0.752,0.007-1.508-0.443-2.262-0.686c0.58-0.55,1.074-1.266,1.756-1.621
			c2.99-1.561,6.197-1.963,9.54-1.624c1.423,0.145,2.87,0.109,4.303,0.066c0.314-0.01,0.75-0.345,0.878-0.639
			c0.085-0.196-0.203-0.749-0.449-0.859c-0.813-0.361-1.67-0.786-2.531-0.842c-3.921-0.255-7.554,1.043-11.176,2.302
			c-1.086,0.377-2.15,0.861-3.154,1.424c-0.873,0.488-1.476,1.235-1.185,2.372c0.293,1.142,1.225,1.304,2.156,1.318
			C77.845,125.236,80.321,124.518,82.705,123.591z M98.149,130.629c-1.778,0.694-3.325,1.294-4.869,1.902
			c-5.813,2.289-11.745,3.568-17.996,2.119c-1.32-0.307-2.632-0.649-4.154-1.027C76.319,137.751,92.441,135.962,98.149,130.629z
			M75.368,126.637c1.024,3.578,5.955,5.961,9.272,4.356c-3.343-0.041-5.079-1.664-5.227-4.805
			C78.024,126.343,76.737,126.485,75.368,126.637z M94.809,125.785c0.061,0.097,0.122,0.192,0.183,0.289
			c0.776-0.576,1.625-1.077,2.313-1.745c1.035-1.006,0.975-2.381-0.083-3.664c-0.829-1.005-1.771-0.329-2.605-0.005
			c-0.327,0.128-0.49,0.676-0.729,1.032c0.385,0.23,0.761,0.478,1.156,0.688c0.387,0.206,1.002,0.28,1.14,0.584
			c0.171,0.376,0.087,1.003-0.127,1.388C95.756,124.894,95.234,125.313,94.809,125.785z M77.788,131.871
			c-1.525-1.21-2.392-2.84-3.056-4.632c-0.104-0.28-0.602-0.415-0.917-0.617c-0.104,0.375-0.406,0.852-0.276,1.11
			C74.468,129.58,75.771,131.089,77.788,131.871z" style="stroke-dasharray: 319.38px; stroke-dashoffset: 0px; stroke: rgb(0, 112, 60);"></path>
		<path id="XMLID_5203_" d="M121.396,140.832c-3.073,3.205-4.026,6.752-3.114,10.861
			c-21.927-3.912-43.784-3.918-65.785-0.004c0.856-4.009-0.021-7.651-3.155-10.854C73.444,137.357,97.267,137.361,121.396,140.832z
			M61.211,148.285c1.358-0.158,2.433-0.283,3.507-0.408c-1.403-0.731-0.836-1.911-0.988-2.957c0.845-0.096,1.579-0.18,2.426-0.275
			c-0.128,1.115,0.846,2.213-0.446,3.149c1.086-0.132,2.173-0.264,3.546-0.43c-1.559-0.756-2.069-4.771-0.981-6.095
			c-1.123,0.127-2.163,0.245-3.204,0.362c1.318,0.544,0.785,1.6,0.901,2.533c-0.827,0.092-1.559,0.173-2.568,0.284
			c0.139-1.014,0.249-1.826,0.366-2.679c-0.763,0.087-1.824,0.209-3.077,0.353C62.128,142.992,62.535,147.125,61.211,148.285z
			M96.764,147.102c2.052,0.026,3.59-1.306,3.644-3.158c0.053-1.83-1.642-3.332-3.781-3.351c-1.968-0.018-3.57,1.444-3.572,3.259
			C93.053,145.695,94.626,147.073,96.764,147.102z M101.376,141.158c1.398,0.887,0.523,2.064,0.473,3.072
			c-0.051,1.026,0.268,2.317-1.327,2.993c1.042,0.09,1.77,0.152,2.691,0.231c-1.172-0.826-1.304-3.031-0.424-4.681
			c1.221,1.814,2.426,3.606,3.63,5.397c0.119-0.036,0.239-0.072,0.358-0.107c0.063-0.371,0.142-0.739,0.184-1.111
			c0.128-1.152,0.18-2.316,0.387-3.454c0.108-0.598,0.479-1.148,0.735-1.731c-0.509-0.051-1.228-0.123-2.28-0.229
			c1.835,1.131,0.645,2.407,0.769,3.554c-0.666-0.734-1.3-1.466-1.699-2.308C104.169,141.305,102.996,140.986,101.376,141.158z
			M54.097,143.09c1.395,0.733,2.012,4.614,1.107,6.107c1.11-0.178,2.163-0.347,3.216-0.515c-1.3-0.586-1.046-1.606-1.072-2.587
			c0.337,0,0.572,0.003,0.809,0c1.446-0.02,2.321-0.804,2.273-2.035c-0.044-1.13-0.85-1.712-2.335-1.563
			C56.829,142.626,55.573,142.866,54.097,143.09z M112.622,145.607c-0.107,0.11-0.215,0.222-0.322,0.332
			c1.572,0.203,1.102,1.105,0.911,1.844c-0.066,0.255-0.582,0.652-0.659,0.604c-0.606-0.373-1.384-0.723-1.677-1.3
			c-0.578-1.134-0.325-2.362,0.392-3.411c0.846-1.236,2.304-1.215,3.146,0.013c0.15,0.219,0.182,0.519,0.268,0.781
			c0.205-0.166,0.41-0.331,0.616-0.497c-0.234-0.411-0.37-1.028-0.721-1.195c-1.454-0.694-2.958-0.651-4.356,0.201
			c-1.918,1.17-1.978,3.734-0.12,5.001c1.173,0.799,2.5,1.105,3.88,0.762c0.372-0.093,0.705-0.588,0.927-0.973
			c0.298-0.517,0.471-1.105,0.727-1.736C114.722,145.904,113.672,145.756,112.622,145.607z M69.323,141.174
			c0.257,0.62,0.553,1.094,0.641,1.603c0.137,0.782,0.09,1.594,0.192,2.384c0.228,1.755,1.127,2.337,3.173,2.111
			c1.792-0.198,2.438-0.938,2.317-2.647c-0.05-0.716-0.151-1.437-0.113-2.149c0.029-0.561,0.235-1.111,0.38-1.738
			c-0.546,0.033-1.245,0.076-1.853,0.113c0.354,0.487,0.804,0.834,0.86,1.236c0.156,1.102,0.288,2.246,0.142,3.334
			c-0.066,0.498-0.744,1.142-1.264,1.283c-0.478,0.131-1.295-0.162-1.644-0.553c-0.708-0.795-0.555-4.249,0.108-5.153
			C71.192,141.062,70.174,141.123,69.323,141.174z M82.923,141.838c0.197-0.968-0.176-1.483-1.014-1.43
			c-1.019,0.064-2.081,0.154-3.024,0.503c-1.393,0.515-2.055,1.774-1.92,3.124c0.123,1.233,1.055,2.396,2.421,2.643
			c0.95,0.171,1.988,0.127,2.939-0.061c1.018-0.201,1.076-0.513,0.732-1.605c-1.358,1.58-2.212,1.852-3.225,1.026
			c-1.13-0.921-1.367-3.185-0.459-4.384C80.235,140.517,81.164,140.545,82.923,141.838z M90.277,140.544c-0.904,0-1.948,0-3.112,0
			c1.217,0.89,1.138,4.97-0.123,6.128c1.822,0,3.518,0,5.297,0c0.072-0.451,0.15-0.931,0.228-1.411
			c-0.126-0.086-0.253-0.173-0.379-0.259c-0.212,0.324-0.354,0.781-0.654,0.938c-0.42,0.222-0.987,0.353-1.433,0.255
			c-0.212-0.047-0.384-0.708-0.405-1.1c-0.052-0.914-0.065-1.84,0.03-2.747C89.787,141.762,90.068,141.199,90.277,140.544z" style="stroke-dasharray: 319.38px; stroke-dashoffset: 0px; stroke: rgb(0, 112, 60);"></path>
		<path id="XMLID_5214_" d="M105.631,150.453c-0.257,0.907-0.481,1.701-0.729,2.576
			c-0.897,0.082-1.905,0.076-2.866,0.283c-1.59,0.344-3.269,0.59-4.699,1.301c-2.559,1.273-5.209,2.021-8.025,2.174
			c-3.991,0.219-7.99,0.337-11.923-0.61c-0.812-0.195-1.656-0.399-2.374-0.8c-2.864-1.599-5.943-2.27-9.221-2.282
			c-0.247-0.86-0.482-1.683-0.754-2.631C78.559,149.421,92.063,149.428,105.631,150.453z M94.016,154.243c0-0.315,0-0.62,0-0.924
			c0.092-0.034,0.183-0.067,0.274-0.101c0.188,0.327,0.376,0.654,0.563,0.982c0.108-0.014,0.217-0.027,0.325-0.041
			c-0.054-0.751-0.106-1.502-0.16-2.252c-0.1,0.008-0.199,0.016-0.299,0.024c-0.063,0.233-0.125,0.466-0.188,0.699
			c-0.24-0.219-0.48-0.438-0.719-0.656C93.306,152.957,93.371,153.823,94.016,154.243z M80.395,154.571
			c0.234-0.467,0.426-0.679,0.432-0.896c0.018-0.572,0.158-1.12-0.854-1.151c-1.558-0.047-0.822,1.04-1.097,1.69
			c1.471,0.211,0.176-1.229,1.184-1.433C80.144,153.232,80.229,153.69,80.395,154.571z M89.702,154.459
			c0.909-0.653,1.276-1.281,0.903-2.081c-0.116-0.249-0.649-0.468-0.945-0.42c-0.282,0.045-0.624,0.424-0.71,0.722
			c-0.055,0.189,0.31,0.5,0.661,1.009c-0.088-0.79-0.132-1.184-0.202-1.812C90.644,152.686,90.012,153.44,89.702,154.459z
			M87.979,154.223c0-0.782,0-1.521,0-2.393c-0.309,0.123-0.674,0.191-0.681,0.285c-0.049,0.696-0.026,1.396-0.026,2.107
			C87.559,154.223,87.786,154.223,87.979,154.223z M83.77,153.365c0.599-0.103,0.963-0.165,1.327-0.228
			c0.003-0.097,0.006-0.193,0.009-0.289c-0.377,0-0.754,0-1.131,0c-0.128-0.093-0.255-0.185-0.382-0.277
			c-0.052,0.403-0.268,0.896-0.11,1.188c0.17,0.315,0.688,0.442,1.055,0.651c0.042-0.071,0.084-0.143,0.126-0.214
			C84.43,153.979,84.196,153.762,83.77,153.365z M76.721,154.191c0.936-1.473-0.796-1.369-1.063-2.077
			c-0.126,0.086-0.251,0.172-0.376,0.257C75.725,152.932,76.168,153.492,76.721,154.191z" style="stroke-dasharray: 319.38px; stroke-dashoffset: 0px; stroke: rgb(0, 112, 60);"></path>
		<path id="XMLID_5223_" d="M59.557,121.131c3.594-0.822,4.166-1.439,4.278-4.482
			c1.444-0.146,2.938-0.126,4.337-0.478c2.548-0.641,5.009-1.632,7.562-2.249c7.848-1.897,15.611-1.605,23.21,1.256
			c2.532,0.954,5.132,1.445,7.547,1.355c0.465,1.2,0.627,2.459,1.331,3.207c0.725,0.77,1.977,1.042,3.216,1.637
			c0,0.095,0.012,0.479-0.002,0.861c-0.06,1.603,0.461,2.966,1.589,4.121c1.46,1.496,2.566,3.257,2.677,5.355
			c0.066,1.262-0.599,2.55-0.606,3.828c-0.008,1.237,0.406,2.477,0.625,3.717c0.012,0.063-0.063,0.141-0.136,0.294
			c-0.51-0.085-1.043-0.174-1.432-0.239c-0.278-1.24-0.541-2.353-0.77-3.473c-0.044-0.216-0.01-0.481,0.076-0.686
			c1.212-2.864,0.35-5.402-1.51-7.557c-1.451-1.682-2.392-3.371-1.926-5.479c-1.125-0.475-2.361-0.672-3.071-1.39
			c-0.685-0.691-0.825-1.921-1.281-3.112c-0.85-0.057-2.154,0.039-3.361-0.261c-2.705-0.671-5.328-1.688-8.044-2.298
			c-7.176-1.612-14.278-1.347-21.22,1.271c-2.188,0.825-4.425,1.36-6.786,1.229c-0.268-0.015-0.538,0.04-0.798,0.063
			c-0.146,3.173-0.396,3.446-3.925,4.293c0,0.295-0.019,0.606,0.003,0.916c0.113,1.606-0.393,2.94-1.516,4.131
			c-1.639,1.737-3.006,3.864-2.44,6.235c0.507,2.127-0.018,4.025-0.17,6.092c-0.482,0.094-0.982,0.191-1.646,0.321
			c0-0.645-0.168-1.29,0.031-1.79c0.619-1.554,0.288-3.004-0.009-4.566c-0.455-2.393,0.534-4.528,2.123-6.253
			C59.073,125.308,59.996,123.5,59.557,121.131z" style="stroke-dasharray: 319.38px; stroke-dashoffset: 0px; stroke: rgb(0, 112, 60);"></path>
		<path id="XMLID_5225_" d="M108.166,150.737c-0.592,1.231-1.173,2.438-1.854,3.853
			c-1.087,0.104-2.562,0.143-3.993,0.413c-1.322,0.249-2.701,0.553-3.874,1.174c-3.307,1.751-6.826,2.518-10.505,2.462
			c-3.507-0.054-7.019-0.259-10.51-0.585c-1.274-0.119-2.583-0.62-3.729-1.226c-2.831-1.494-5.818-2.166-8.99-2.158
			c-0.232,0.001-0.466-0.035-0.799-0.063c0.066-1.558-0.386-2.871-1.829-3.721c2.419-0.687,2.824-0.334,3.127,2.566
			c1.507,0.167,3.036,0.205,4.499,0.536c1.463,0.332,2.922,0.828,4.271,1.48c2.582,1.248,5.318,1.731,8.121,1.848
			c3.754,0.155,7.521,0.247,11.216-0.656c0.887-0.217,1.808-0.448,2.598-0.883c2.881-1.584,5.961-2.231,9.216-2.204
			c0.11,0.001,0.222-0.06,0.322-0.089C105.779,150.516,105.995,150.321,108.166,150.737z" style="stroke-dasharray: 319.38px; stroke-dashoffset: 0px; stroke: rgb(0, 112, 60);"></path>
		<path id="XMLID_5227_" d="M90.545,162.662c1.746,1.023,0.435,2.407,0.995,3.402
			c-0.634,0.064-1.295,0.275-1.89,0.154c-0.687-0.139-1.563-0.406-1.897-0.918c-0.332-0.508-0.114-1.39-0.088-2.105
			c0.006-0.165,0.267-0.307,0.325-0.486c0.545-1.661,0.539-1.663,2.599-1.385c0.029,0.116,0.06,0.233,0.09,0.35
			c-0.632,0.102-1.265,0.202-2.136,0.342c0.742,0.949,1.421,1.816,2.1,2.685c0.086-0.039,0.171-0.077,0.257-0.116
			C90.799,164.036,90.697,163.488,90.545,162.662z M90.031,165.69c0.072-0.134,0.145-0.268,0.217-0.401
			c-0.53-0.703-1.06-1.406-1.59-2.109c-0.146,0.032-0.292,0.063-0.438,0.095c0.045,0.596-0.111,1.341,0.19,1.744
			C88.712,165.421,89.472,165.48,90.031,165.69z" style="stroke-dasharray: 319.38px; stroke-dashoffset: 0px; stroke: rgb(0, 112, 60);"></path>
		<path id="XMLID_5231_" d="M80.851,163.794c-0.789,0.445-1.571,0.888-2.386,1.348
			c1.081,1.324,1.598-0.298,2.385-0.554c-0.063,1.044-0.486,1.561-1.35,1.645c-0.954,0.094-1.655-0.322-1.932-1.244
			c-0.275-0.919,0.058-1.656,0.926-2.092C79.375,162.454,80.1,162.724,80.851,163.794z" style="stroke-dasharray: 319.38px; stroke-dashoffset: 0px; stroke: rgb(0, 112, 60);"></path>
		<path id="XMLID_5233_" d="M84.85,164.496c0.032,1.197-0.595,1.619-1.427,1.727
			c-0.938,0.121-1.656-0.306-1.898-1.257c-0.229-0.908,0.037-1.681,0.948-2.081c1.007-0.442,1.748-0.072,2.383,0.923
			c-0.883,0.454-1.695,0.871-2.485,1.278C83.077,165.893,83.129,165.885,84.85,164.496z" style="stroke-dasharray: 319.38px; stroke-dashoffset: 0px; stroke: rgb(0, 112, 60);"></path>
		<path id="XMLID_5235_" d="M99.353,163.267c-0.438,0.199-1.069,0.289-1.263,0.628
			c-0.192,0.339-0.067,0.987,0.136,1.39c0.223,0.441,0.363,0.377,2.381-0.672c0.082,0.967-0.486,1.381-1.236,1.591
			c-0.883,0.247-1.8-0.288-2.074-1.174c-0.287-0.93,0.012-1.68,0.871-2.108c0.971-0.485,1.759-0.181,2.448,0.858
			c-0.803,0.447-1.547,0.861-2.292,1.275c-0.081-0.126-0.163-0.253-0.245-0.38c0.473-0.335,0.945-0.67,1.418-1.005
			C99.448,163.536,99.4,163.401,99.353,163.267z" style="stroke-dasharray: 319.38px; stroke-dashoffset: 0px; stroke: rgb(0, 112, 60);"></path>
		<path id="XMLID_5237_" d="M103.719,165.933c-0.456,0.086-0.953,0.331-1.361,0.228
			c-1.013-0.256-1.327-1.064-1.188-2.041c0.143-1.005,0.842-1.428,1.771-1.401c0.943,0.026,1.582,0.515,1.629,1.536
			c0.028,0.626,0.005,1.254,0.005,1.881c-0.139,0.025-0.277,0.05-0.416,0.075c-0.075-0.377-0.159-0.752-0.224-1.13
			c-0.079-0.462,0.005-1.057-0.256-1.351c-0.236-0.268-0.897-0.374-1.266-0.245c-0.305,0.105-0.654,0.679-0.619,1.006
			c0.041,0.381,0.418,0.81,0.767,1.043c0.23,0.155,0.667,0.002,1.012-0.014C103.621,165.657,103.67,165.795,103.719,165.933z" style="stroke-dasharray: 319.38px; stroke-dashoffset: 0px; stroke: rgb(0, 112, 60);"></path>
		<path id="XMLID_5239_" d="M71.298,166.252c-0.961-0.032-1.737-0.842-1.722-1.797
			c0.015-0.946,0.831-1.753,1.775-1.755c1.003-0.002,1.817,0.858,1.769,1.867C73.074,165.531,72.261,166.283,71.298,166.252z
			M71.653,163.19c-0.183-0.004-0.365-0.007-0.547-0.011c-0.282,0.437-0.83,0.909-0.775,1.298c0.059,0.418,0.683,0.756,1.06,1.128
			c0.346-0.358,0.94-0.697,0.971-1.081C72.396,164.102,71.911,163.637,71.653,163.19z" style="stroke-dasharray: 319.38px; stroke-dashoffset: 0px; stroke: rgb(0, 112, 60);"></path>
		<path id="XMLID_5243_" d="M69.297,161.542c-1.338,0.425-2.739,0.756-2.437,2.585c0.15,0.902,0.501,1.13,2.323,1.588
			c-0.44,0.576-1.024,0.628-1.87,0.166c-1.017-0.555-1.485-1.855-1.082-3.002C66.648,161.691,67.811,161.1,69.297,161.542z" style="stroke-dasharray: 319.38px; stroke-dashoffset: 0px; stroke: rgb(0, 112, 60);"></path>
		<path id="XMLID_5245_" d="M96.95,161.678c-0.35,0.1-0.699,0.199-1.234,0.352c0,1.331,0,2.724,0,4.116
			c-0.171,0.013-0.341,0.026-0.511,0.04c-0.054-0.66-0.13-1.32-0.155-1.981c-0.027-0.711-0.007-1.425-0.007-2.126
			c-0.465-0.174-0.854-0.319-1.242-0.465c0.022-0.094,0.045-0.187,0.066-0.279c1.006,0,2.012,0,3.018,0
			C96.906,161.448,96.929,161.563,96.95,161.678z" style="stroke-dasharray: 319.38px; stroke-dashoffset: 0px; stroke: rgb(0, 112, 60);"></path>
		<path id="XMLID_5247_" d="M74.083,162.527c0.436,0.13,0.615,0.169,0.783,0.238c0.163,0.067,0.313,0.166,0.701,0.378
			c-0.533,0.16-0.835,0.251-1.27,0.381c0,0.842,0,1.733,0,2.769c-0.289-0.158-0.523-0.226-0.524-0.297
			c-0.022-1.305-0.119-2.62,0.02-3.909c0.087-0.804,0.812-0.971,1.757-0.74C75.041,161.756,74.648,162.072,74.083,162.527z" style="stroke-dasharray: 319.38px; stroke-dashoffset: 0px; stroke: rgb(0, 112, 60);"></path>
		<path id="XMLID_5249_" d="M77.551,161.457c-0.536,0.348-0.928,0.602-1.521,0.986
			c0.581,0.244,0.909,0.382,1.512,0.635c-0.567,0.221-0.884,0.344-1.316,0.513c0,0.832,0,1.692,0,2.553
			c-0.073,0.019-0.146,0.037-0.219,0.056c-0.105-0.168-0.297-0.333-0.301-0.504c-0.028-1.078-0.06-2.159-0.003-3.234
			C75.757,161.415,76.254,161.138,77.551,161.457z" style="stroke-dasharray: 319.38px; stroke-dashoffset: 0px; stroke: rgb(0, 112, 60);"></path>
		<path id="XMLID_5251_" d="M98.691,143.879c-0.086,1.686-0.833,2.883-1.87,2.871
			c-1.044-0.012-1.913-1.202-1.937-2.778c-0.009-0.586,0.022-1.263,0.305-1.737c0.308-0.519,0.941-1.194,1.409-1.176
			c0.563,0.021,1.223,0.609,1.611,1.125C98.539,142.621,98.543,143.305,98.691,143.879z" style="stroke-dasharray: 319.38px; stroke-dashoffset: 0px; stroke: rgb(0, 112, 60);"></path>
		<path id="XMLID_5253_" d="M59.228,144.357c-0.703,0.587-1.105,0.922-1.507,1.258
			c-0.231-0.332-0.468-0.66-0.691-0.997c-0.039-0.06-0.026-0.154-0.036-0.233c-0.07-0.555-0.429-1.37,0.52-1.327
			C58,143.08,58.457,143.745,59.228,144.357z" style="stroke-dasharray: 319.38px; stroke-dashoffset: 0px; stroke: rgb(0, 112, 60);"></path>
	</g>
</svg>