<svg version="1.1" id="Layer_9" xmlns="http://www.w3.org/2000/svg" xmlns:xlink="http://www.w3.org/1999/xlink" x="0px" y="0px" height="100px" viewBox="0 0 220.038 242.736" enable-background="new 0 0 220.038 242.736" xml:space="preserve" style="fill: rgb(0, 112, 60);">
	<g>
		<rect id="XMLID_3807_" x="76.079" y="58.021" width="0.709" height="30.438"></rect>
		<polygon id="XMLID_3808_" points="31.412,32.773 0.354,55.756 0.354,67.604 31.412,46.771 	"></polygon>
		<path id="XMLID_3809_" d="M0.354,67.959c-0.058,0-0.114-0.015-0.167-0.042C0.072,67.855,0,67.735,0,67.604V55.756
			c0-0.112,0.053-0.218,0.143-0.284L31.2,32.488c0.108-0.08,0.253-0.091,0.37-0.031c0.12,0.06,0.195,0.183,0.195,0.316v13.997
			c0,0.118-0.059,0.229-0.157,0.295L0.552,67.898C0.492,67.938,0.424,67.959,0.354,67.959z M0.709,55.935v11.005l30.348-20.357
			V33.477L0.709,55.935z" style="stroke-dasharray: 319.38px; stroke-dashoffset: 0px; stroke: rgb(0, 112, 60);"></path>
		<polygon id="XMLID_3810_" points="0.354,88.271 31.412,70.521 31.412,81.604 0.354,98.354 	"></polygon>
		<path id="XMLID_3811_" d="M0.354,98.709c-0.062,0-0.126-0.018-0.182-0.051C0.065,98.595,0,98.479,0,98.354V88.271
			c0-0.127,0.068-0.244,0.178-0.308l31.057-17.75c0.11-0.063,0.244-0.063,0.354,0.001s0.177,0.181,0.177,0.307v11.084
			c0,0.13-0.071,0.25-0.187,0.312L0.522,98.666C0.47,98.694,0.412,98.709,0.354,98.709z M0.709,88.477v9.284l30.348-16.368V71.132
			L0.709,88.477z" style="stroke-dasharray: 319.38px; stroke-dashoffset: 0px; stroke: rgb(0, 112, 60);"></path>
		<polygon id="XMLID_3812_" points="0.354,121.854 31.412,108.188 31.412,118.688 0.354,130.688 	"></polygon>
		<path id="XMLID_3813_" d="M0.354,131.042c-0.07,0-0.141-0.021-0.2-0.063C0.058,130.914,0,130.805,0,130.688v-8.834
			c0-0.141,0.083-0.268,0.211-0.324l31.057-13.666c0.109-0.048,0.235-0.037,0.336,0.027c0.101,0.065,0.161,0.177,0.161,0.297v10.5
			c0,0.146-0.09,0.277-0.227,0.33l-31.057,12C0.44,131.034,0.397,131.042,0.354,131.042z M0.709,122.085v8.086l30.348-11.727v-9.714
			L0.709,122.085z" style="stroke-dasharray: 319.38px; stroke-dashoffset: 0px; stroke: rgb(0, 112, 60);"></path>
		<polygon id="XMLID_3814_" points="0.354,154.354 31.412,146.104 31.412,156.354 0.354,163.604 	"></polygon>
		<path id="XMLID_3815_" d="M0.354,163.958c-0.079,0-0.157-0.026-0.221-0.077C0.05,163.813,0,163.712,0,163.604v-9.25
			c0-0.161,0.108-0.301,0.263-0.343l31.057-8.25c0.108-0.027,0.221-0.005,0.307,0.062c0.087,0.067,0.139,0.171,0.139,0.281v10.25
			c0,0.165-0.113,0.308-0.274,0.345l-31.057,7.25C0.408,163.955,0.381,163.958,0.354,163.958z M0.709,154.626v8.531l30.348-7.085
			v-9.508L0.709,154.626z" style="stroke-dasharray: 319.38px; stroke-dashoffset: 0px; stroke: rgb(0, 112, 60);"></path>
		<path id="XMLID_3816_" d="M31.412,183.595V32.304l5.291,1.513l10.417-8.71v14.521l-9.583,6.99v23.567l9.583-5.793
			v12.584l-10.333,5.917v24.781l6.976-2.637v12.232l-6.935,2.62v25.581l6.935-2.318v8.889l4.357,0.854v1.705l-11.729,2.458v26.099
			L31.412,183.595z M32.121,33.243v149.578l3.561-0.313v-26.026l11.729-2.458v-0.545l-4.357-0.854v-8.488l-6.935,2.318V119.4
			l6.935-2.62v-10.717l-6.976,2.637V82.482l10.333-5.917V65.649l-9.583,5.793V46.258l9.583-6.99V26.623l-9.542,7.978L32.121,33.243z" style="stroke-dasharray: 319.38px; stroke-dashoffset: 0px; stroke: rgb(0, 112, 60);"></path>
		<path id="XMLID_3817_" d="M43.408,152.688c-0.08,0-0.158-0.027-0.222-0.078c-0.084-0.067-0.133-0.169-0.133-0.276
			l0.003-50.438c0-0.141,0.083-0.268,0.212-0.324l30.563-13.438c0.11-0.047,0.235-0.037,0.336,0.027
			c0.1,0.065,0.161,0.178,0.161,0.297v13.813c0,0.147-0.091,0.278-0.228,0.331l-20.96,8.037v27.81l20.741-5.582
			c0.105-0.029,0.22-0.007,0.308,0.061c0.087,0.067,0.139,0.171,0.139,0.281v12.25c0,0.166-0.116,0.31-0.277,0.346l-30.565,6.876
			C43.46,152.686,43.435,152.688,43.408,152.688z M43.766,102.127l-0.003,49.764l29.856-6.716V133.67l-20.741,5.582
			c-0.104,0.031-0.22,0.007-0.308-0.061c-0.087-0.067-0.139-0.171-0.139-0.281v-28.515c0-0.146,0.091-0.278,0.228-0.331l20.96-8.037
			V89.001L43.766,102.127z" style="stroke-dasharray: 319.38px; stroke-dashoffset: 0px; stroke: rgb(0, 112, 60);"></path>
		<path id="XMLID_3818_" d="M73.974,88.458h62.625v56.063l-62.625,0.938v-12.25h45.292c0,0,0.416-31.938,0-31.938
			c-0.417,0-45.292,1-45.292,1V88.458z" style="stroke-dasharray: 319.38px; stroke-dashoffset: 0px; stroke: rgb(0, 112, 60);"></path>
		<path id="XMLID_3819_" d="M73.974,145.813c-0.093,0-0.182-0.037-0.249-0.103c-0.067-0.066-0.105-0.157-0.105-0.252
			v-12.25c0-0.195,0.159-0.354,0.354-0.354h44.943c0.151-11.722,0.283-28.92,0.066-31.224c-3.824,0.077-44.571,0.985-45.001,0.995
			c-0.102,0.019-0.188-0.034-0.256-0.101c-0.067-0.067-0.106-0.158-0.106-0.254V88.458c0-0.195,0.159-0.354,0.354-0.354h62.625
			c0.195,0,0.354,0.159,0.354,0.354v56.063c0,0.193-0.155,0.352-0.35,0.354l-62.625,0.938
			C73.979,145.813,73.976,145.813,73.974,145.813z M74.329,133.563v11.536l61.916-0.927V88.813H74.329v13.096
			c4.562-0.102,44.536-0.992,44.938-0.992c0.095,0,0.193,0.042,0.26,0.109c0.14,0.142,0.508,0.515,0.095,32.188
			c-0.003,0.193-0.16,0.35-0.354,0.35H74.329z" style="stroke-dasharray: 319.38px; stroke-dashoffset: 0px; stroke: rgb(0, 112, 60);"></path>
		<path id="XMLID_3820_" d="M46.766,100.761c-0.068,0-0.137-0.02-0.195-0.059c-0.1-0.065-0.159-0.177-0.159-0.296
			V21.854c0-0.114,0.055-0.221,0.146-0.287l29.667-21.5c0.107-0.077,0.25-0.088,0.369-0.028c0.118,0.061,0.193,0.182,0.193,0.315
			v15.5c0,0.111-0.053,0.216-0.141,0.282l-4.277,3.228v26.662l3.902-1.988c0.11-0.056,0.241-0.051,0.347,0.014
			c0.104,0.064,0.169,0.18,0.169,0.303v13.666c0,0.131-0.071,0.25-0.187,0.313L48.167,73.649v26.312c0,0.142-0.085,0.271-0.216,0.326
			l-1.047,0.445C46.86,100.752,46.813,100.761,46.766,100.761z M47.12,22.035V99.87l0.338-0.144V73.438
			c0-0.13,0.071-0.25,0.186-0.312L76.079,57.81V44.933l-3.902,1.987c-0.111,0.055-0.242,0.05-0.347-0.014
			c-0.104-0.064-0.169-0.179-0.169-0.302V19.188c0-0.111,0.053-0.216,0.141-0.282l4.277-3.228V1.049L47.12,22.035z" style="stroke-dasharray: 319.38px; stroke-dashoffset: 0px; stroke: rgb(0, 112, 60);"></path>
		<path id="XMLID_3821_" d="M2.183,188.292c-0.195,0-0.354-0.159-0.354-0.354V67.604c0-0.119,0.06-0.23,0.159-0.296
			l27.142-17.953c0.161-0.108,0.383-0.063,0.491,0.101c0.107,0.163,0.063,0.383-0.101,0.49L2.537,67.795v120.143
			C2.537,188.133,2.378,188.292,2.183,188.292z" style="stroke-dasharray: 319.38px; stroke-dashoffset: 0px; stroke: rgb(0, 112, 60);"></path>
		<path id="XMLID_3822_" d="M73.099,39.125c-0.104,0-0.208-0.046-0.278-0.135c-0.121-0.154-0.095-0.377,0.06-0.498
			l3.334-2.625c0.06-0.047,0.133-0.073,0.209-0.075l70.666-1.875c0.042-0.008,0.07,0.003,0.104,0.012l13.219,3.627V16.952
			l-12.939-3.825l-51.76,2.327l-6.252,4.112c-0.084,0.056-0.19,0.072-0.285,0.047l-12.833-3.417
			c-0.155-0.041-0.264-0.182-0.264-0.342v-15.5c0-0.111,0.053-0.216,0.141-0.283c0.089-0.066,0.203-0.089,0.312-0.058l24.25,6.916
			c0.188,0.054,0.297,0.25,0.243,0.438c-0.055,0.188-0.246,0.296-0.438,0.243L76.788,0.824v14.758l12.416,3.306l6.201-4.079
			c0.053-0.035,0.114-0.056,0.179-0.059l51.917-2.333c0.04-0.002,0.078,0.003,0.116,0.014l13.25,3.917
			c0.15,0.045,0.254,0.183,0.254,0.34v21.333c0,0.11-0.052,0.215-0.14,0.282s-0.199,0.089-0.309,0.06l-13.616-3.736L76.56,36.497
			l-3.243,2.552C73.253,39.101,73.176,39.125,73.099,39.125z" style="stroke-dasharray: 319.38px; stroke-dashoffset: 0px; stroke: rgb(0, 112, 60);"></path>
		<path id="XMLID_3823_" d="M215.849,26.219c-0.195,0-0.354-0.158-0.354-0.354v-5.418L170.716,6.153l-9.786,5.099
			c-0.084,0.044-0.18,0.052-0.269,0.024l-13.69-4.231L95.549,9.537l-6.335,4.277c-0.161,0.108-0.383,0.067-0.492-0.096
			c-0.109-0.162-0.066-0.382,0.096-0.491l6.417-4.333c0.054-0.037,0.116-0.058,0.181-0.061l51.583-2.5
			c0.043-0.001,0.082,0.003,0.122,0.016l13.611,4.207l9.787-5.101c0.084-0.042,0.182-0.052,0.271-0.022l45.166,14.417
			c0.147,0.047,0.247,0.183,0.247,0.337v5.677C216.204,26.061,216.044,26.219,215.849,26.219z" style="stroke-dasharray: 319.38px; stroke-dashoffset: 0px; stroke: rgb(0, 112, 60);"></path>
		<path id="XMLID_3824_" d="M95.432,9.188" style="stroke-dasharray: 319.38px; stroke-dashoffset: 0px; stroke: rgb(0, 112, 60);"></path>
		<path id="XMLID_3825_" d="M136.599,88.813h-16.375c-0.194,0-0.352-0.156-0.354-0.35l-0.37-31.451l-43.056,1.363
			c-0.071,0.014-0.189-0.033-0.257-0.1c-0.069-0.067-0.108-0.159-0.108-0.255V44.354c0-0.19,0.15-0.347,0.34-0.354l70.666-2.833
			c0.091-0.002,0.191,0.031,0.26,0.099c0.07,0.066,0.109,0.158,0.109,0.255v13.625c0,0.187-0.144,0.341-0.329,0.354l-10.171,0.727
			v32.232C136.954,88.654,136.794,88.813,136.599,88.813z M120.575,88.104h15.67V55.896c0-0.186,0.144-0.34,0.329-0.354l10.171-0.727
			V41.89l-69.957,2.805v12.961l43.051-1.363c0.075-0.016,0.187,0.031,0.256,0.098c0.068,0.066,0.108,0.157,0.109,0.252
			L120.575,88.104z" style="stroke-dasharray: 319.38px; stroke-dashoffset: 0px; stroke: rgb(0, 112, 60);"></path>
		<path id="XMLID_3826_" d="M87.345,44.271c-0.092,0-0.18-0.036-0.245-0.1c-0.07-0.066-0.109-0.158-0.109-0.255
			V24.771c0-0.11,0.052-0.215,0.141-0.282s0.205-0.088,0.31-0.059l59.754,16.75c0.168,0.047,0.276,0.209,0.256,0.382
			c-0.02,0.174-0.163,0.307-0.337,0.313L87.36,44.271C87.355,44.271,87.35,44.271,87.345,44.271z M87.7,25.238v18.31l57.145-2.291
			L87.7,25.238z" style="stroke-dasharray: 319.38px; stroke-dashoffset: 0px; stroke: rgb(0, 112, 60);"></path>
		<polygon id="XMLID_3828_" points="93.099,20.003 97.682,16.836 147.099,14.419 158.849,18.003 158.849,37.311
			147.099,34.086 	"></polygon>
		<rect id="XMLID_3827_" x="54.244" y="69.782" width="0.709" height="27.194"></rect>
		<rect id="XMLID_3838_" x="61.244" y="66.011" width="0.709" height="27.889"></rect>
		<rect id="XMLID_3839_" x="68.828" y="61.926" width="0.709" height="28.64"></rect>
		<rect id="XMLID_3840_" x="61.244" y="150.408" width="0.709" height="29.448"></rect>
		<rect id="XMLID_3841_" x="68.828" y="148.702" width="0.709" height="30.219"></rect>
		<rect id="XMLID_3842_" x="91.162" y="57.543" width="0.709" height="32.438"></rect>
		<rect id="XMLID_3843_" x="105.162" y="57.1" width="0.709" height="32.882"></rect>
		<polygon id="XMLID_3844_" points="0.354,188.208 26.516,184.817 26.516,199.834 0.354,200.979 	"></polygon>
		<path id="XMLID_3845_" d="M0.354,201.333c-0.091,0-0.179-0.035-0.245-0.099C0.04,201.168,0,201.075,0,200.979
			v-12.771c0-0.178,0.132-0.328,0.308-0.352l26.161-3.391c0.109-0.012,0.204,0.019,0.281,0.085c0.076,0.067,0.12,0.165,0.12,0.267
			v15.017c0,0.189-0.149,0.346-0.339,0.354L0.37,201.332C0.365,201.333,0.359,201.333,0.354,201.333z M0.709,188.52v12.089
			l25.452-1.113v-14.274L0.709,188.52z" style="stroke-dasharray: 319.38px; stroke-dashoffset: 0px; stroke: rgb(0, 112, 60);"></path>
		<path id="XMLID_3846_" d="M6.577,187.756c-0.195,0-0.354-0.159-0.354-0.354V64.697c0-0.196,0.159-0.354,0.354-0.354
			s0.354,0.158,0.354,0.354v122.704C6.932,187.597,6.772,187.756,6.577,187.756z" style="stroke-dasharray: 319.38px; stroke-dashoffset: 0px; stroke: rgb(0, 112, 60);"></path>
		<path id="XMLID_3847_" d="M11.32,186.742c-0.195,0-0.354-0.159-0.354-0.354V61.561c0-0.196,0.16-0.354,0.354-0.354
			c0.195,0,0.354,0.158,0.354,0.354v124.827C11.675,186.583,11.516,186.742,11.32,186.742z" style="stroke-dasharray: 319.38px; stroke-dashoffset: 0px; stroke: rgb(0, 112, 60);"></path>
		<path id="XMLID_3848_" d="M16.439,186.213c-0.195,0-0.354-0.159-0.354-0.354V58.174
			c0-0.195,0.159-0.354,0.354-0.354s0.354,0.159,0.354,0.354v127.685C16.794,186.054,16.635,186.213,16.439,186.213z" style="stroke-dasharray: 319.38px; stroke-dashoffset: 0px; stroke: rgb(0, 112, 60);"></path>
		<path id="XMLID_3849_" d="M21.574,185.667c-0.195,0-0.354-0.159-0.354-0.354V54.777
			c0-0.195,0.159-0.354,0.354-0.354s0.354,0.159,0.354,0.354v130.535C21.929,185.508,21.77,185.667,21.574,185.667z" style="stroke-dasharray: 319.38px; stroke-dashoffset: 0px; stroke: rgb(0, 112, 60);"></path>
		<path id="XMLID_3850_" d="M26.516,184.542c-0.195,0-0.354-0.159-0.354-0.354V51.509
			c0-0.195,0.159-0.354,0.354-0.354s0.354,0.159,0.354,0.354v132.679C26.87,184.383,26.711,184.542,26.516,184.542z" style="stroke-dasharray: 319.38px; stroke-dashoffset: 0px; stroke: rgb(0, 112, 60);"></path>
		<path id="XMLID_3851_" d="M26.516,201.042c-0.09,0-0.176-0.034-0.241-0.096c-0.072-0.066-0.113-0.16-0.113-0.259
			v-16.5c0-0.179,0.134-0.33,0.312-0.352l46.583-5.75l93.71-0.003l6.773-1.162l46.163,2.496c0.188,0.01,0.335,0.165,0.335,0.354
			v18.833c0,0.096-0.039,0.188-0.108,0.255c-0.068,0.066-0.168,0.096-0.258,0.1l-46.084-1.5l-6.804,0.333l-93.685,0.001
			l-46.559,3.249C26.532,201.042,26.523,201.042,26.516,201.042z M26.87,184.501v15.807l46.204-3.224l93.692-0.001l6.815-0.333
			l45.747,1.487v-18.131l-45.749-2.482l-6.754,1.163l-93.727,0.005L26.87,184.501z" style="stroke-dasharray: 319.38px; stroke-dashoffset: 0px; stroke: rgb(0, 112, 60);"></path>
		<path id="XMLID_3852_" d="M119.933,178.792c-0.195,0-0.354-0.159-0.354-0.354v-30.646H75.683l-27.846,5.742
			c-0.044,0.009-0.093,0.011-0.14,0.001l-4.357-0.854c-0.191-0.037-0.317-0.224-0.279-0.416c0.037-0.192,0.218-0.321,0.416-0.279
			l4.287,0.84l27.848-5.735l44.321-0.008c0.195,0,0.354,0.159,0.354,0.354v31C120.288,178.633,120.128,178.792,119.933,178.792z" style="stroke-dasharray: 319.38px; stroke-dashoffset: 0px; stroke: rgb(0, 112, 60);"></path>
		<path id="XMLID_3853_" d="M38.641,70.228h-0.709V46.9l0.149-0.106c3.078-2.178,8.081-5.762,8.404-6.108l0.226,0.21
			h0.409c0,0.238,0,0.369-8.479,6.371V70.228z" style="stroke-dasharray: 319.38px; stroke-dashoffset: 0px; stroke: rgb(0, 112, 60);"></path>
		<polygon id="XMLID_3854_" points="37.891,107.77 37.182,107.77 37.182,83.13 46.587,77.652 46.944,78.265
			37.891,83.537 	"></polygon>
		<polygon id="XMLID_3855_" points="37.891,145.555 37.182,145.555 37.182,120.149 43.286,117.876 43.534,118.54
			37.891,120.642 	"></polygon>
		<path id="XMLID_3856_" d="M47.766,181.919c-0.086,0-0.17-0.031-0.234-0.089c-0.076-0.067-0.12-0.164-0.12-0.266
			v-28.377c0-0.172,0.124-0.319,0.293-0.349l6.833-1.204c0.104-0.021,0.209,0.01,0.289,0.077s0.127,0.167,0.127,0.271v28.737
			c0,0.179-0.134,0.33-0.312,0.352l-6.833,0.844C47.795,181.918,47.78,181.919,47.766,181.919z M48.12,153.484v27.68l6.124-0.757
			v-28.002L48.12,153.484z" style="stroke-dasharray: 319.38px; stroke-dashoffset: 0px; stroke: rgb(0, 112, 60);"></path>

			<rect id="XMLID_3857_" x="73.521" y="146.093" transform="matrix(0.6536 0.7568 -0.7568 0.6536 136.758 -5.9037)" width="2.615" height="0.709"></rect>
		<path id="XMLID_3858_" d="M56.099,138.374c-0.195,0-0.354-0.159-0.354-0.354v-26.832
			c0-0.148,0.093-0.281,0.232-0.333l20.75-7.583c0.11-0.04,0.229-0.023,0.325,0.042c0.095,0.066,0.151,0.175,0.151,0.291v29.604
			c0,0.195-0.159,0.354-0.354,0.354s-0.354-0.159-0.354-0.354v-29.097l-20.042,7.324v26.584
			C56.453,138.215,56.294,138.374,56.099,138.374z" style="stroke-dasharray: 319.38px; stroke-dashoffset: 0px; stroke: rgb(0, 112, 60);"></path>
		<rect id="XMLID_3859_" x="42.026" y="80.428" width="1" height="25.456"></rect>
		<rect id="XMLID_3860_" x="42.026" y="43.917" width="1" height="23.667"></rect>
		<rect id="XMLID_3861_" x="42.026" y="118.594" width="1" height="25.457"></rect>
		<rect id="XMLID_3862_" x="75.329" y="147.438" width="0.709" height="31"></rect>
		<rect id="XMLID_3863_" x="90.829" y="147.438" width="0.709" height="31"></rect>
		<rect id="XMLID_3864_" x="104.932" y="147.438" width="0.709" height="31"></rect>
		<polygon id="XMLID_3865_" points="173.599,177.271 173.599,197.104 166.766,197.438 166.766,178.438 	"></polygon>
		<path id="XMLID_3866_" d="M162.204,178.792h-25.959V55.565l10.885-0.777l0.055,0.014l15.02,3.691V178.792z
			M136.954,178.083h24.541V59.049l-14.426-3.546l-10.115,0.723V178.083z" style="stroke-dasharray: 319.38px; stroke-dashoffset: 0px; stroke: rgb(0, 112, 60);"></path>
		<polygon id="XMLID_3994_" points="161.783,73.119 147.033,70.286 136.616,70.792 136.583,70.084 147.083,69.584
			161.916,72.423 	"></polygon>
		<polygon id="XMLID_4019_" points="161.783,91.747 147.033,88.913 136.616,89.419 136.583,88.711 147.083,88.211
			161.916,91.051 	"></polygon>
		<polygon id="XMLID_4023_" points="161.783,102.739 147.033,99.905 136.616,100.411 136.583,99.703 147.083,99.203
			161.916,102.043 	"></polygon>
		<polygon id="XMLID_4027_" points="161.783,147.024 147.033,144.191 136.616,144.697 136.583,143.99 147.083,143.49
			161.916,146.329 	"></polygon>
		<polygon id="XMLID_4031_" points="161.783,149.858 147.033,147.024 136.616,147.53 136.583,146.823
			147.083,146.323 161.916,149.163 	"></polygon>
		<polygon id="XMLID_4035_" points="161.783,136.548 147.033,133.714 136.616,134.22 136.583,133.513
			147.083,133.013 161.916,135.853 	"></polygon>
		<polygon id="XMLID_4039_" points="161.783,116.771 147.033,113.938 136.616,114.443 136.583,113.736
			147.083,113.236 161.916,116.075 	"></polygon>
		<polygon id="XMLID_4043_" points="161.783,121.848 147.033,119.014 136.616,119.52 136.583,118.813
			147.083,118.313 161.916,121.152 	"></polygon>
		<rect id="XMLID_4047_" x="146.745" y="55.146" width="0.709" height="123.292"></rect>
		<polygon id="XMLID_4051_" points="147.099,69.938 147.099,55.146 161.849,58.771 161.849,72.771 	"></polygon>
		<polygon id="XMLID_4055_" points="137.54,89.021 137.54,100.013 147.099,99.558 147.099,88.565 	"></polygon>
		<polygon id="XMLID_4059_" points="137.54,119.122 137.54,133.822 147.099,133.367 147.099,118.667 	"></polygon>
		<polygon id="XMLID_4063_" points="147.099,99.558 147.099,113.59 161.849,116.424 161.849,102.391 	"></polygon>
		<polygon id="XMLID_4067_" points="147.099,146.678 147.099,178.438 161.849,178.438 161.849,149.511 	"></polygon>
		<polygon id="XMLID_4071_" points="148.045,118.849 148.045,133.549 161.849,136.2 161.849,121.5 	"></polygon>
		<path id="XMLID_4075_" d="M160.766,55.334c-0.195,0-0.354-0.159-0.354-0.354v-9.438l-13.406-3.679
			c-0.188-0.052-0.3-0.247-0.248-0.436s0.247-0.299,0.436-0.248l13.667,3.75c0.154,0.043,0.261,0.183,0.261,0.342v9.709
			C161.121,55.175,160.961,55.334,160.766,55.334z" style="stroke-dasharray: 319.38px; stroke-dashoffset: 0px; stroke: rgb(0, 112, 60);"></path>
		<path id="XMLID_4198_" d="M169.099,40.792c-0.195,0-0.354-0.158-0.354-0.354v-23l-4.431-1.583
			c-0.134-0.048-0.227-0.171-0.234-0.313c-0.009-0.142,0.069-0.275,0.196-0.338l6.916-3.417c0.082-0.04,0.175-0.048,0.262-0.021
			l44.5,13.761c0.146,0.045,0.248,0.18,0.25,0.333c0.002,0.154-0.095,0.291-0.24,0.341l-8.743,2.969
			c-0.186,0.061-0.387-0.036-0.45-0.222c-0.063-0.186,0.037-0.387,0.222-0.449l7.709-2.618l-43.321-13.396l-6.04,2.983l3.879,1.387
			c0.141,0.05,0.235,0.184,0.235,0.333v23.25C169.454,40.634,169.294,40.792,169.099,40.792z" style="stroke-dasharray: 319.38px; stroke-dashoffset: 0px; stroke: rgb(0, 112, 60);"></path>
		<path id="XMLID_4209_" d="M164.433,88.709c-0.195,0-0.354-0.159-0.354-0.354V57.438c0-0.146,0.09-0.277,0.226-0.33
			l7.5-2.917c0.068-0.025,0.14-0.03,0.211-0.015l43.479,10.365V53.626l-43.529-11.729l-7.383,3.445
			c-0.108,0.051-0.238,0.043-0.34-0.022c-0.103-0.064-0.164-0.178-0.164-0.299V18.188c0-0.195,0.159-0.354,0.354-0.354
			s0.354,0.159,0.354,0.354v26.277l6.996-3.266c0.075-0.035,0.16-0.041,0.241-0.021l43.916,11.833
			c0.155,0.042,0.263,0.183,0.263,0.343v11.635c0,0.108-0.05,0.211-0.135,0.278s-0.194,0.093-0.302,0.066l-43.809-10.443
			l-7.171,2.789v30.675C164.788,88.55,164.628,88.709,164.433,88.709z" style="stroke-dasharray: 319.38px; stroke-dashoffset: 0px; stroke: rgb(0, 112, 60);"></path>
		<path id="XMLID_4222_" d="M171.933,55c-0.195,0-0.354-0.159-0.354-0.354V41.521c0-0.195,0.159-0.354,0.354-0.354
			s0.354,0.159,0.354,0.354v13.125C172.288,54.841,172.128,55,171.933,55z" style="stroke-dasharray: 319.38px; stroke-dashoffset: 0px; stroke: rgb(0, 112, 60);"></path>
		<polygon id="XMLID_4257_" points="170.224,21.208 198.845,29.73 173.599,40.896 170.224,40.438 	"></polygon>
		<path id="XMLID_4261_" d="M218.092,149.697c-0.013,0-0.024-0.001-0.037-0.002l-46.696-4.918l-9.454,1.51
			c-0.104,0.015-0.207-0.014-0.285-0.08c-0.079-0.067-0.125-0.166-0.125-0.27V89.354c0-0.152,0.098-0.288,0.242-0.336l9.5-3.167
			c0.058-0.02,0.12-0.022,0.178-0.012l46.667,8.833c0.168,0.031,0.289,0.178,0.289,0.348l0.076,54.321
			c0,0.101-0.043,0.197-0.117,0.264C218.264,149.665,218.179,149.697,218.092,149.697z M171.349,144.065
			c0.013,0,0.024,0.001,0.037,0.002l46.352,4.882l-0.075-53.635l-46.289-8.762l-9.17,3.057v55.913l9.09-1.452
			C171.312,144.067,171.331,144.065,171.349,144.065z" style="stroke-dasharray: 319.38px; stroke-dashoffset: 0px; stroke: rgb(0, 112, 60);"></path>
		<polygon id="XMLID_4267_" points="52.787,110.396 56.099,111.188 76.849,103.604 73.974,102.271 	"></polygon>
		<path id="XMLID_4270_" d="M56.099,111.542c-0.027,0-0.056-0.003-0.082-0.01l-3.313-0.792
			c-0.151-0.036-0.262-0.166-0.271-0.321c-0.011-0.155,0.082-0.299,0.227-0.354l21.188-8.125c0.089-0.034,0.188-0.031,0.276,0.01
			l2.875,1.334c0.13,0.06,0.211,0.192,0.205,0.336c-0.007,0.144-0.099,0.269-0.232,0.318l-20.75,7.583
			C56.181,111.534,56.14,111.542,56.099,111.542z M53.98,110.316l2.097,0.502l19.846-7.253l-1.962-0.91L53.98,110.316z" style="stroke-dasharray: 319.38px; stroke-dashoffset: 0px; stroke: rgb(0, 112, 60);"></path>
		<polygon id="XMLID_4276_" points="76.849,103.604 119.399,103.604 119.266,101.271 73.974,102.271 	"></polygon>
		<path id="XMLID_4279_" d="M119.4,103.959H76.849c-0.052,0-0.103-0.012-0.149-0.033l-2.875-1.334
			c-0.149-0.069-0.231-0.232-0.197-0.394c0.033-0.161,0.174-0.278,0.339-0.281l45.292-1c0.16-0.035,0.351,0.143,0.361,0.333
			l0.134,2.334c0.006,0.098-0.029,0.192-0.096,0.264C119.59,103.918,119.498,103.959,119.4,103.959z M76.927,103.25h42.098
			l-0.093-1.617l-43.425,0.959L76.927,103.25z" style="stroke-dasharray: 319.38px; stroke-dashoffset: 0px; stroke: rgb(0, 112, 60);"></path>
		<path id="XMLID_4285_" d="M207.099,48.604c-0.148,0-0.286-0.094-0.336-0.242c-0.063-0.186,0.038-0.386,0.224-0.448
			l5.549-1.855l-41.15-10.994l-5.298,2.564c-0.175,0.084-0.388,0.012-0.474-0.165c-0.085-0.176-0.011-0.388,0.165-0.473l5.416-2.622
			c0.076-0.038,0.163-0.048,0.246-0.023l42.417,11.333c0.15,0.04,0.258,0.175,0.263,0.331s-0.094,0.298-0.242,0.347l-6.667,2.229
			C207.174,48.599,207.136,48.604,207.099,48.604z" style="stroke-dasharray: 319.38px; stroke-dashoffset: 0px; stroke: rgb(0, 112, 60);"></path>
		<path id="XMLID_4289_" d="M199.099,47.75c-0.031,0-0.063-0.004-0.093-0.013l-22.393-6.094
			c-0.145-0.039-0.248-0.165-0.261-0.313c-0.012-0.148,0.071-0.289,0.207-0.351l21.893-9.969c0.109-0.049,0.233-0.04,0.334,0.021
			c0.101,0.063,0.163,0.172,0.167,0.29l0.5,16.063c0.003,0.112-0.047,0.22-0.135,0.289C199.255,47.724,199.178,47.75,199.099,47.75z
			M177.747,41.218l20.983,5.71l-0.469-15.052L177.747,41.218z" style="stroke-dasharray: 319.38px; stroke-dashoffset: 0px; stroke: rgb(0, 112, 60);"></path>
		<path id="XMLID_4295_" d="M207.106,51.353c-0.031,0-0.062-0.004-0.092-0.012l-3.173-0.855
			c-0.155-0.042-0.263-0.182-0.263-0.342V27.854c0-0.112,0.054-0.219,0.145-0.285c0.09-0.066,0.207-0.087,0.314-0.054l3.173,0.979
			c0.148,0.045,0.25,0.183,0.25,0.338v22.165c0,0.11-0.052,0.215-0.139,0.281C207.259,51.327,207.183,51.353,207.106,51.353z
			M204.288,49.872l2.464,0.664V29.095l-2.464-0.761V49.872z" style="stroke-dasharray: 319.38px; stroke-dashoffset: 0px; stroke: rgb(0, 112, 60);"></path>
		<path id="XMLID_4301_" d="M174.572,40.792c-0.136,0-0.266-0.079-0.324-0.211c-0.079-0.18,0.002-0.389,0.182-0.468
			l27.666-12.203l-31.978-10.052c-0.187-0.059-0.29-0.257-0.231-0.444c0.06-0.187,0.261-0.291,0.444-0.231l32.875,10.334
			c0.141,0.044,0.239,0.171,0.247,0.318c0.009,0.146-0.075,0.284-0.211,0.344l-28.527,12.583
			C174.668,40.782,174.62,40.792,174.572,40.792z" style="stroke-dasharray: 319.38px; stroke-dashoffset: 0px; stroke: rgb(0, 112, 60);"></path>
		<path id="XMLID_4305_" d="M215.849,94.875c-0.195,0-0.354-0.158-0.354-0.354V64.989
			c0-0.195,0.159-0.354,0.354-0.354s0.354,0.159,0.354,0.354v29.531C216.204,94.717,216.044,94.875,215.849,94.875z" style="stroke-dasharray: 319.38px; stroke-dashoffset: 0px; stroke: rgb(0, 112, 60);"></path>
		<path id="XMLID_4309_" d="M165.933,88.348c-0.195,0-0.354-0.159-0.354-0.354v-29.91c0-0.148,0.093-0.28,0.231-0.332
			l5.416-2c0.064-0.023,0.135-0.028,0.203-0.013l43.375,10.063c0.19,0.044,0.31,0.234,0.265,0.425
			c-0.043,0.19-0.229,0.312-0.425,0.266l-43.271-10.039l-5.085,1.878v29.663C166.288,88.188,166.128,88.348,165.933,88.348z" style="stroke-dasharray: 319.38px; stroke-dashoffset: 0px; stroke: rgb(0, 112, 60);"></path>
		<path id="XMLID_4313_" d="M205.295,92.945c-0.195,0-0.354-0.159-0.354-0.354V63.958
			c0-0.195,0.159-0.354,0.354-0.354s0.354,0.159,0.354,0.354v28.633C205.65,92.786,205.491,92.945,205.295,92.945z" style="stroke-dasharray: 319.38px; stroke-dashoffset: 0px; stroke: rgb(0, 112, 60);"></path>
		<path id="XMLID_4317_" d="M194.636,90.965c-0.195,0-0.354-0.159-0.354-0.354V61.485
			c0-0.195,0.159-0.354,0.354-0.354s0.354,0.159,0.354,0.354V90.61C194.991,90.806,194.832,90.965,194.636,90.965z" style="stroke-dasharray: 319.38px; stroke-dashoffset: 0px; stroke: rgb(0, 112, 60);"></path>
		<path id="XMLID_4321_" d="M183.52,88.846c-0.195,0-0.354-0.158-0.354-0.354V58.907c0-0.196,0.159-0.354,0.354-0.354
			s0.354,0.158,0.354,0.354v29.584C183.875,88.688,183.715,88.846,183.52,88.846z" style="stroke-dasharray: 319.38px; stroke-dashoffset: 0px; stroke: rgb(0, 112, 60);"></path>
		<polygon id="XMLID_4325_" points="171.349,84.959 171.349,56.083 165.932,58.083 165.932,87.021 	"></polygon>
		<polygon id="XMLID_4329_" points="171.349,86.188 171.349,144.42 161.849,145.938 161.849,89.354 	"></polygon>
		<path id="XMLID_4332_" d="M161.849,146.292c-0.084,0-0.165-0.03-0.229-0.085c-0.079-0.067-0.125-0.166-0.125-0.27
			V89.354c0-0.152,0.098-0.288,0.242-0.336l9.5-3.167c0.108-0.035,0.228-0.019,0.319,0.049c0.093,0.066,0.147,0.174,0.147,0.287
			v58.232c0,0.174-0.127,0.322-0.299,0.35l-9.5,1.518C161.886,146.29,161.868,146.292,161.849,146.292z M162.204,89.609v55.913
			l8.791-1.404V86.68L162.204,89.609z" style="stroke-dasharray: 319.38px; stroke-dashoffset: 0px; stroke: rgb(0, 112, 60);"></path>
		<path id="XMLID_4338_" d="M196.849,134.708c-0.014,0-0.027-0.001-0.041-0.003l-22.083-2.583
			c-0.179-0.021-0.313-0.172-0.313-0.352V98.938c0-0.105,0.047-0.205,0.128-0.272s0.188-0.093,0.291-0.076l22.083,4.083
			c0.168,0.031,0.29,0.178,0.29,0.349v31.333c0,0.102-0.043,0.197-0.119,0.265C197.019,134.676,196.935,134.708,196.849,134.708z
			M175.121,131.455l21.374,2.5v-30.64l-21.374-3.952V131.455z" style="stroke-dasharray: 319.38px; stroke-dashoffset: 0px; stroke: rgb(0, 112, 60);"></path>
		<path id="XMLID_4344_" d="M194.636,134.449c-0.014,0-0.027-0.001-0.041-0.003l-19.87-2.324
			c-0.179-0.021-0.313-0.172-0.313-0.352v-30.313c0-0.104,0.046-0.203,0.126-0.271s0.185-0.097,0.289-0.078l19.87,3.438
			c0.17,0.029,0.294,0.177,0.294,0.349v29.199c0,0.102-0.043,0.197-0.119,0.265C194.806,134.417,194.722,134.449,194.636,134.449z
			M175.121,131.455l19.161,2.241v-28.503l-19.161-3.314V131.455z" style="stroke-dasharray: 319.38px; stroke-dashoffset: 0px; stroke: rgb(0, 112, 60);"></path>
		<path id="XMLID_4350_" d="M194.636,105.25c-0.101,0-0.2-0.043-0.271-0.125c-0.126-0.149-0.107-0.373,0.041-0.5
			l2.213-1.875c0.151-0.125,0.373-0.107,0.5,0.042c0.126,0.149,0.107,0.373-0.041,0.499l-2.213,1.875
			C194.798,105.223,194.717,105.25,194.636,105.25z" style="stroke-dasharray: 319.38px; stroke-dashoffset: 0px; stroke: rgb(0, 112, 60);"></path>
		<path id="XMLID_4354_" d="M209.266,93.719c-0.021,0-0.044-0.002-0.065-0.006l-37.827-7.16l-5.328,1.776
			c-0.107,0.036-0.228,0.018-0.319-0.049c-0.093-0.066-0.147-0.174-0.147-0.287v-29.91c0-0.107,0.05-0.21,0.134-0.277
			c0.085-0.066,0.195-0.094,0.301-0.067l43.333,10.021c0.16,0.037,0.274,0.181,0.274,0.346v25.26c0,0.105-0.047,0.206-0.129,0.273
			C209.428,93.69,209.348,93.719,209.266,93.719z M171.349,85.833c0.022,0,0.044,0.003,0.065,0.007l37.497,7.097V68.386
			l-42.624-9.856v28.972l4.949-1.649C171.273,85.84,171.311,85.833,171.349,85.833z" style="stroke-dasharray: 319.38px; stroke-dashoffset: 0px; stroke: rgb(0, 112, 60);"></path>
		<path id="XMLID_4360_" d="M214.724,94.752c-0.195,0-0.354-0.158-0.354-0.354V66.649l-4.983,1.788
			c-0.185,0.066-0.387-0.029-0.454-0.214c-0.065-0.184,0.03-0.387,0.214-0.453l5.458-1.958c0.108-0.04,0.229-0.023,0.324,0.044
			c0.094,0.065,0.15,0.174,0.15,0.289v28.252C215.079,94.594,214.919,94.752,214.724,94.752z" style="stroke-dasharray: 319.38px; stroke-dashoffset: 0px; stroke: rgb(0, 112, 60);"></path>
		<path id="XMLID_4364_" d="M48.786,60.625c-0.061,0-0.121-0.016-0.176-0.047c-0.11-0.063-0.179-0.181-0.179-0.308
			v-25.25c0-0.116,0.057-0.225,0.152-0.291L68.98,20.542c0.109-0.075,0.25-0.083,0.366-0.022c0.117,0.061,0.19,0.182,0.19,0.313
			v27.438c0,0.126-0.066,0.242-0.175,0.306l-20.396,12C48.91,60.608,48.849,60.625,48.786,60.625z M49.141,35.206v24.445
			l19.688-11.583V21.512L49.141,35.206z" style="stroke-dasharray: 319.38px; stroke-dashoffset: 0px; stroke: rgb(0, 112, 60);"></path>
		<polygon id="XMLID_4370_" points="69.183,23.333 50.412,36.208 50.412,59.314 48.787,60.271 48.787,35.021
			69.183,20.833 	"></polygon>
		<path id="XMLID_4374_" d="M56.016,56.372c-0.195,0-0.354-0.158-0.354-0.354V32.365c0-0.196,0.159-0.354,0.354-0.354
			s0.354,0.158,0.354,0.354v23.652C56.37,56.214,56.211,56.372,56.016,56.372z" style="stroke-dasharray: 319.38px; stroke-dashoffset: 0px; stroke: rgb(0, 112, 60);"></path>
		<path id="XMLID_4378_" d="M63.007,52.259c-0.195,0-0.354-0.159-0.354-0.354V27.569c0-0.196,0.159-0.354,0.354-0.354
			s0.354,0.158,0.354,0.354v24.335C63.361,52.1,63.202,52.259,63.007,52.259z" style="stroke-dasharray: 319.38px; stroke-dashoffset: 0px; stroke: rgb(0, 112, 60);"></path>
		<path id="XMLID_4382_" d="M216.574,179.956c-0.007,0-0.013,0-0.02-0.001l-8.966-0.486
			c-0.188-0.01-0.335-0.165-0.335-0.354v-30.877c0-0.101,0.043-0.196,0.117-0.264s0.174-0.1,0.274-0.089l8.966,0.944
			c0.181,0.02,0.317,0.171,0.317,0.353v30.419c0,0.098-0.04,0.19-0.11,0.257C216.751,179.921,216.665,179.956,216.574,179.956z
			M207.962,178.779l8.257,0.448v-29.726l-8.257-0.87V178.779z" style="stroke-dasharray: 319.38px; stroke-dashoffset: 0px; stroke: rgb(0, 112, 60);"></path>
		<path id="XMLID_4388_" d="M196.415,178.863c-0.007,0-0.013,0-0.02-0.001l-10.997-0.597
			c-0.187-0.01-0.333-0.163-0.335-0.35l-0.328-32.045c-0.001-0.102,0.041-0.198,0.116-0.266c0.075-0.068,0.174-0.099,0.275-0.091
			l11.325,1.192c0.181,0.02,0.317,0.171,0.317,0.353v31.449c0,0.098-0.04,0.19-0.11,0.257
			C196.592,178.828,196.505,178.863,196.415,178.863z M185.768,177.576l10.292,0.559v-30.756l-10.612-1.118L185.768,177.576z" style="stroke-dasharray: 319.38px; stroke-dashoffset: 0px; stroke: rgb(0, 112, 60);"></path>
		<path id="XMLID_4394_" d="M166.766,178.792c-0.083,0-0.164-0.029-0.229-0.084c-0.08-0.067-0.126-0.166-0.126-0.271
			v-33.285c0-0.174,0.127-0.322,0.299-0.35l4.583-0.732c0.031-0.005,0.062-0.005,0.093-0.003l2.25,0.236
			c0.181,0.02,0.317,0.171,0.317,0.353v32.614c0,0.173-0.125,0.32-0.295,0.35l-6.833,1.167
			C166.806,178.79,166.786,178.792,166.766,178.792z M167.121,145.454v32.563l6.124-1.046v-31.996l-1.886-0.198L167.121,145.454z" style="stroke-dasharray: 319.38px; stroke-dashoffset: 0px; stroke: rgb(0, 112, 60);"></path>
		<path id="XMLID_4400_" d="M36.766,44.271c-0.195,0-0.354-0.159-0.354-0.354v-9.709c0-0.195,0.159-0.354,0.354-0.354
			s0.354,0.159,0.354,0.354v9.709C37.12,44.112,36.961,44.271,36.766,44.271z" style="stroke-dasharray: 319.38px; stroke-dashoffset: 0px; stroke: rgb(0, 112, 60);"></path>
		<path id="XMLID_4404_" d="M82.599,240.125l-71.316-7.502c-0.181-0.02-0.317-0.171-0.317-0.353v-31.771
			c0-0.189,0.149-0.346,0.339-0.354L26.5,199.48c0.089-0.021,0.19,0.031,0.26,0.098c0.069,0.066,0.109,0.159,0.109,0.256v0.474
			l46.204-3.224l93.692-0.001l6.815-0.333l37.282,1.212c0.19,0.007,0.343,0.163,0.343,0.354v40.329c0,0.192-0.153,0.35-0.346,0.354
			l-44.086,1.125H82.599z M11.675,231.951l70.961,7.467l84.13-0.002l43.731-1.116v-39.641l-36.91-1.201l-6.804,0.333l-93.685,0.001
			l-46.559,3.249c-0.101,0.013-0.194-0.027-0.266-0.095c-0.072-0.066-0.113-0.16-0.113-0.259v-0.483l-14.486,0.634V231.951z" style="stroke-dasharray: 319.38px; stroke-dashoffset: 0px; stroke: rgb(0, 112, 60);"></path>
		<path id="XMLID_4410_" d="M73.099,197.792c-0.195,0-0.354-0.159-0.354-0.354v-19c0-0.195,0.159-0.354,0.354-0.354
			s0.354,0.159,0.354,0.354v19C73.453,197.633,73.294,197.792,73.099,197.792z" style="stroke-dasharray: 319.38px; stroke-dashoffset: 0px; stroke: rgb(0, 112, 60);"></path>
		<path id="XMLID_4414_" d="M15.351,233.049c-0.013,0-0.024-0.001-0.037-0.002l-4.03-0.424
			c-0.181-0.02-0.317-0.171-0.317-0.353v-31.771c0-0.189,0.149-0.346,0.339-0.354l4.433-0.194c0.098-0.019,0.192,0.032,0.263,0.099
			c0.069,0.068,0.108,0.162,0.107,0.26l-0.402,32.39c-0.001,0.1-0.045,0.193-0.119,0.26
			C15.521,233.017,15.437,233.049,15.351,233.049z M11.675,231.951l3.326,0.351l0.393-31.627l-3.719,0.163V231.951z" style="stroke-dasharray: 319.38px; stroke-dashoffset: 0px; stroke: rgb(0, 112, 60);"></path>
		<path id="XMLID_4420_" d="M41.936,235.847c-0.013,0-0.024-0.001-0.037-0.002l-4.529-0.477
			c-0.183-0.02-0.32-0.176-0.317-0.359l0.694-35.137c0.004-0.184,0.146-0.334,0.33-0.347l4.413-0.308
			c0.098-0.016,0.196,0.028,0.269,0.097c0.071,0.068,0.111,0.163,0.11,0.263l-0.578,35.921c-0.002,0.1-0.045,0.193-0.119,0.26
			C42.105,235.815,42.021,235.847,41.936,235.847z M37.767,234.697l3.821,0.402l0.565-35.148l-3.705,0.259L37.767,234.697z" style="stroke-dasharray: 319.38px; stroke-dashoffset: 0px; stroke: rgb(0, 112, 60);"></path>
		<path id="XMLID_4426_" d="M37.915,209.625H15.642c-0.195,0-0.354-0.159-0.354-0.354s0.159-0.354,0.354-0.354h22.273
			c0.195,0,0.354,0.159,0.354,0.354S38.11,209.625,37.915,209.625z" style="stroke-dasharray: 319.38px; stroke-dashoffset: 0px; stroke: rgb(0, 112, 60);"></path>
		<path id="XMLID_4430_" d="M37.713,219.874c-0.004,0-0.007,0-0.011,0l-22.19-0.686
			c-0.195-0.007-0.35-0.17-0.344-0.365c0.006-0.196,0.153-0.339,0.365-0.344l22.19,0.686c0.196,0.007,0.35,0.17,0.344,0.365
			C38.062,219.723,37.903,219.874,37.713,219.874z" style="stroke-dasharray: 319.38px; stroke-dashoffset: 0px; stroke: rgb(0, 112, 60);"></path>
		<path id="XMLID_4434_" d="M22.085,233.758c-0.001,0-0.004,0-0.006,0c-0.195-0.003-0.352-0.164-0.349-0.36
			l0.516-33.398c0.003-0.193,0.161-0.349,0.354-0.349c0.002,0,0.004,0,0.006,0c0.195,0.003,0.352,0.164,0.349,0.36l-0.516,33.398
			C22.437,233.603,22.278,233.758,22.085,233.758z" style="stroke-dasharray: 319.38px; stroke-dashoffset: 0px; stroke: rgb(0, 112, 60);"></path>
		<path id="XMLID_4438_" d="M27.597,234.338c-0.001,0-0.002,0-0.003,0c-0.195-0.002-0.353-0.161-0.352-0.357
			l0.262-33.39c0.002-0.194,0.16-0.352,0.354-0.352c0.001,0,0.002,0,0.003,0c0.195,0.002,0.353,0.161,0.352,0.357l-0.262,33.39
			C27.949,234.181,27.792,234.338,27.597,234.338z" style="stroke-dasharray: 319.38px; stroke-dashoffset: 0px; stroke: rgb(0, 112, 60);"></path>
		<path id="XMLID_4442_" d="M50.006,236.695c-0.195,0-0.354-0.159-0.354-0.354v-37.292
			c0-0.195,0.159-0.354,0.354-0.354s0.354,0.159,0.354,0.354v37.292C50.36,236.536,50.201,236.695,50.006,236.695z" style="stroke-dasharray: 319.38px; stroke-dashoffset: 0px; stroke: rgb(0, 112, 60);"></path>
		<path id="XMLID_4446_" d="M55.543,237.278c0,0-0.003,0-0.004,0c-0.196-0.003-0.353-0.163-0.351-0.358l0.469-38.294
			c0.003-0.194,0.161-0.351,0.354-0.351c0.001,0,0.003,0,0.004,0c0.196,0.003,0.353,0.163,0.351,0.358l-0.469,38.294
			C55.895,237.122,55.736,237.278,55.543,237.278z" style="stroke-dasharray: 319.38px; stroke-dashoffset: 0px; stroke: rgb(0, 112, 60);"></path>
		<path id="XMLID_4450_" d="M55.882,209.625H42.357c-0.195,0-0.354-0.159-0.354-0.354s0.159-0.354,0.354-0.354h13.524
			c0.195,0,0.354,0.159,0.354,0.354S56.077,209.625,55.882,209.625z" style="stroke-dasharray: 319.38px; stroke-dashoffset: 0px; stroke: rgb(0, 112, 60);"></path>
		<path id="XMLID_4454_" d="M55.748,220.543c-0.006,0-0.012,0-0.018-0.001l-13.556-0.669
			c-0.195-0.009-0.346-0.176-0.336-0.371c0.009-0.195,0.183-0.357,0.371-0.336l13.556,0.669c0.195,0.009,0.346,0.176,0.336,0.371
			C56.093,220.396,55.936,220.543,55.748,220.543z" style="stroke-dasharray: 319.38px; stroke-dashoffset: 0px; stroke: rgb(0, 112, 60);"></path>
		<polygon id="XMLID_4458_" points="60.845,198.293 60.845,237.482 64.458,237.862 64.458,198.04 	"></polygon>
		<path id="XMLID_4461_" d="M64.458,238.216c-0.013,0-0.025-0.001-0.038-0.002l-3.613-0.38
			c-0.181-0.02-0.317-0.171-0.317-0.353v-39.189c0-0.187,0.145-0.341,0.33-0.354l3.613-0.252c0.098-0.015,0.194,0.027,0.266,0.095
			c0.072,0.066,0.113,0.16,0.113,0.259v39.821c0,0.101-0.043,0.196-0.117,0.264C64.63,238.184,64.545,238.216,64.458,238.216z
			M61.199,237.162l2.904,0.306V198.42l-2.904,0.202V237.162z" style="stroke-dasharray: 319.38px; stroke-dashoffset: 0px; stroke: rgb(0, 112, 60);"></path>
		<polygon id="XMLID_4467_" points="15.753,200.305 18.164,200.199 18.164,232.991 15.351,232.695 	"></polygon>
		<path id="XMLID_4470_" d="M18.164,233.346c-0.013,0-0.024-0.001-0.037-0.002l-2.813-0.297
			c-0.182-0.02-0.319-0.174-0.317-0.357l0.402-32.39c0.003-0.188,0.151-0.341,0.339-0.349l2.411-0.105
			c0.096-0.022,0.19,0.03,0.261,0.098c0.069,0.066,0.109,0.159,0.109,0.256v32.792c0,0.101-0.043,0.196-0.117,0.264
			C18.336,233.313,18.251,233.346,18.164,233.346z M15.709,232.376l2.101,0.222v-32.028l-1.706,0.074L15.709,232.376z" style="stroke-dasharray: 319.38px; stroke-dashoffset: 0px; stroke: rgb(0, 112, 60);"></path>
		<polygon id="XMLID_4476_" points="42.514,199.571 45.223,199.383 44.586,235.771 41.936,235.492 	"></polygon>
		<path id="XMLID_4479_" d="M44.586,236.125c-0.013,0-0.024-0.001-0.037-0.002l-2.65-0.278
			c-0.183-0.02-0.32-0.175-0.317-0.358l0.578-35.921c0.003-0.184,0.146-0.335,0.33-0.348l2.709-0.189
			c0.095-0.012,0.196,0.028,0.269,0.097s0.112,0.164,0.11,0.263l-0.637,36.389c-0.002,0.1-0.045,0.193-0.12,0.26
			C44.756,236.094,44.672,236.125,44.586,236.125z M42.295,235.174l1.943,0.204l0.623-35.615l-1.999,0.14L42.295,235.174z" style="stroke-dasharray: 319.38px; stroke-dashoffset: 0px; stroke: rgb(0, 112, 60);"></path>
		<path id="XMLID_4485_" d="M82.599,240.125c-0.013,0-0.024-0.001-0.037-0.002l-4.511-0.475
			c-0.18-0.019-0.315-0.17-0.317-0.35l-0.322-41.858c-0.001-0.095,0.036-0.186,0.103-0.253c0.067-0.066,0.157-0.104,0.252-0.104
			h4.833c0.195,0,0.354,0.159,0.354,0.354v42.333c0,0.101-0.043,0.196-0.117,0.264C82.771,240.093,82.686,240.125,82.599,240.125z
			M78.44,238.977l3.805,0.4v-41.585h-4.121L78.44,238.977z" style="stroke-dasharray: 319.38px; stroke-dashoffset: 0px; stroke: rgb(0, 112, 60);"></path>
		<path id="XMLID_4491_" d="M92.683,240.125H82.599c-0.195,0-0.354-0.159-0.354-0.354v-42.333
			c0-0.195,0.159-0.354,0.354-0.354h10.084c0.195,0,0.354,0.159,0.354,0.354v42.333C93.038,239.966,92.878,240.125,92.683,240.125z
			M82.954,239.416h9.375v-41.624h-9.375V239.416z" style="stroke-dasharray: 319.38px; stroke-dashoffset: 0px; stroke: rgb(0, 112, 60);"></path>
		<path id="XMLID_4497_" d="M166.766,240.125h-33.5c-0.195,0-0.354-0.159-0.354-0.354v-42.333
			c0-0.195,0.159-0.354,0.354-0.354h33.5c0.195,0,0.354,0.159,0.354,0.354v42.333C167.121,239.966,166.961,240.125,166.766,240.125z
			M133.621,239.416h32.791v-41.624h-32.791V239.416z" style="stroke-dasharray: 319.38px; stroke-dashoffset: 0px; stroke: rgb(0, 112, 60);"></path>
		<polygon id="XMLID_4503_" points="166.766,197.438 173.599,197.104 174.849,197.104 174.849,239.564
			170.182,239.771 166.766,239.771 	"></polygon>
		<path id="XMLID_4507_" d="M204.909,239.143c-0.093,0-0.182-0.036-0.247-0.101c-0.068-0.067-0.107-0.158-0.107-0.254
			v-40.665c0-0.096,0.039-0.188,0.108-0.255c0.068-0.066,0.157-0.099,0.258-0.1l5.943,0.193c0.19,0.007,0.343,0.163,0.343,0.354
			v40.329c0,0.192-0.153,0.35-0.346,0.354l-5.943,0.143C204.915,239.143,204.912,239.143,204.909,239.143z M205.263,198.489v39.936
			l5.234-0.125v-39.641L205.263,198.489z" style="stroke-dasharray: 319.38px; stroke-dashoffset: 0px; stroke: rgb(0, 112, 60);"></path>
		<path id="XMLID_4513_" d="M195.428,239.394c-0.195,0-0.354-0.159-0.354-0.354v-41.225
			c0-0.195,0.159-0.354,0.354-0.354s0.354,0.159,0.354,0.354v41.225C195.783,239.234,195.624,239.394,195.428,239.394z" style="stroke-dasharray: 319.38px; stroke-dashoffset: 0px; stroke: rgb(0, 112, 60);"></path>
		<path id="XMLID_4517_" d="M184.516,239.646c-0.195,0-0.354-0.159-0.354-0.354v-41.854
			c0-0.195,0.159-0.354,0.354-0.354s0.354,0.159,0.354,0.354v41.854C184.871,239.487,184.711,239.646,184.516,239.646z" style="stroke-dasharray: 319.38px; stroke-dashoffset: 0px; stroke: rgb(0, 112, 60);"></path>
		<path id="XMLID_4521_" d="M204.909,208.708c-0.002,0-0.004,0-0.007,0l-32.226-0.583
			c-0.195-0.004-0.351-0.165-0.348-0.361c0.004-0.193,0.162-0.348,0.354-0.348c0.002,0,0.004,0,0.007,0l32.226,0.583
			c0.195,0.004,0.351,0.165,0.348,0.361C205.259,208.554,205.101,208.708,204.909,208.708z" style="stroke-dasharray: 319.38px; stroke-dashoffset: 0px; stroke: rgb(0, 112, 60);"></path>
		<path id="XMLID_4525_" d="M204.909,224.542h-31.31c-0.195,0-0.354-0.159-0.354-0.354s0.159-0.354,0.354-0.354h31.31
			c0.195,0,0.354,0.159,0.354,0.354S205.104,224.542,204.909,224.542z" style="stroke-dasharray: 319.38px; stroke-dashoffset: 0px; stroke: rgb(0, 112, 60);"></path>
		<path id="XMLID_4529_" d="M32.867,234.893c-0.013,0-0.024-0.001-0.037-0.002l-21.547-2.268
			c-0.194-0.021-0.336-0.195-0.315-0.39c0.021-0.193,0.185-0.329,0.39-0.315l21.161,2.228L33,200.205
			c0.002-0.196,0.144-0.327,0.359-0.35c0.196,0.003,0.353,0.164,0.35,0.359l-0.487,34.328c-0.002,0.1-0.045,0.194-0.119,0.26
			C33.037,234.861,32.953,234.893,32.867,234.893z" style="stroke-dasharray: 319.38px; stroke-dashoffset: 0px; stroke: rgb(0, 112, 60);"></path>
		<path id="XMLID_4533_" d="M81.608,242.736c-0.1,0-0.198-0.006-0.297-0.016L7.552,234.96
			c-1.557-0.164-2.686-1.559-2.522-3.116c0.164-1.558,1.57-2.688,3.116-2.522l73.608,7.745l95.308-0.214l37.189-0.949
			c0.024,0,0.049-0.001,0.073-0.001c1.532,0,2.793,1.223,2.833,2.763c0.04,1.565-1.196,2.866-2.762,2.906l-37.255,0.95l-95.526,0.215
			C81.612,242.736,81.61,242.736,81.608,242.736z" style="stroke-dasharray: 319.38px; stroke-dashoffset: 0px; stroke: rgb(0, 112, 60);"></path>
		<rect id="XMLID_4537_" x="134.537" y="198.521" width="31.125" height="37.5"></rect>
		<path id="XMLID_4541_" d="M212.766,151.25c-0.012,0-0.022-0.001-0.034-0.002l-50.917-4.958
			c-0.178-0.018-0.314-0.163-0.32-0.342c-0.005-0.178,0.123-0.332,0.299-0.36l9.5-1.518c0.031-0.005,0.062-0.005,0.093-0.003
			l45.225,4.763c0.159,0.017,0.287,0.139,0.313,0.297c0.025,0.157-0.059,0.313-0.204,0.379l-3.808,1.713
			C212.866,151.239,212.816,151.25,212.766,151.25z M164.629,145.853l48.077,4.682l2.525-1.137l-43.873-4.62L164.629,145.853z" style="stroke-dasharray: 319.38px; stroke-dashoffset: 0px; stroke: rgb(0, 112, 60);"></path>
		<path id="XMLID_4547_" d="M212.766,179.75c-0.195,0-0.354-0.159-0.354-0.354v-28.5c0-0.195,0.159-0.354,0.354-0.354
			s0.354,0.159,0.354,0.354v28.5C213.121,179.591,212.961,179.75,212.766,179.75z" style="stroke-dasharray: 319.38px; stroke-dashoffset: 0px; stroke: rgb(0, 112, 60);"></path>
		<path id="XMLID_4551_" d="M3.433,188.174c-0.195,0-0.354-0.159-0.354-0.354V68.709l-2.816-0.763
			c-0.188-0.051-0.301-0.246-0.249-0.435s0.243-0.304,0.435-0.249l3.078,0.833c0.154,0.042,0.262,0.182,0.262,0.342v119.382
			C3.787,188.015,3.628,188.174,3.433,188.174z" style="stroke-dasharray: 319.38px; stroke-dashoffset: 0px; stroke: rgb(0, 112, 60);"></path>
		<path id="XMLID_4555_" d="M3.433,68.438" style="stroke-dasharray: 319.38px; stroke-dashoffset: 0px; stroke: rgb(0, 112, 60);"></path>
		<polygon id="XMLID_4559_" points="47.813,99.961 47.813,73.438 76.432,58.021 79.931,57.91 49.433,74.104
			49.433,99.252 	"></polygon>
		<path id="XMLID_4563_" d="M76.433,44.709c-0.195,0-0.354-0.159-0.354-0.354V20.833c0-0.195,0.159-0.354,0.354-0.354
			s0.354,0.159,0.354,0.354v23.521C76.788,44.55,76.628,44.709,76.433,44.709z" style="stroke-dasharray: 319.38px; stroke-dashoffset: 0px; stroke: rgb(0, 112, 60);"></path>
		<path id="XMLID_4568_" d="M95.407,184.689c-0.646-0.629-0.414-1.599-0.414-1.599
			c-1.655-0.09-1.293-1.405-1.293-1.405c-0.227-0.022-1.042,0.159-2.539-0.431c-1.707-0.698-3.749-0.728-4.114-0.727
			c-0.366-0.001-2.408,0.028-4.114,0.727c-1.496,0.59-2.313,0.408-2.539,0.431c0,0,0.362,1.315-1.292,1.405
			c0,0,0.231,0.97-0.415,1.599c-0.588,0.573-1.293,1.82-0.628,2.892c0,0-0.783,1.088,0.385,2.585c0.885,1.042,0.635,1.45,0.613,1.904
			c0,0,1.541,0.045,1.382,1.405c0,0,1.609-0.112,2.856,0.59c1.216,0.686,2.991,0.659,3.752,0.657
			c0.761,0.002,2.536,0.028,3.751-0.657c1.247-0.702,2.857-0.59,2.857-0.59c-0.158-1.36,1.383-1.405,1.383-1.405
			c-0.022-0.454-0.271-0.862,0.612-1.904c1.168-1.497,0.386-2.585,0.386-2.585C96.699,186.51,95.995,185.263,95.407,184.689" style="stroke-dasharray: 319.38px; stroke-dashoffset: 0px; stroke: rgb(0, 112, 60);"></path>
		<path id="XMLID_4572_" d="M87.26,194.313l-0.214-0.001l-0.214,0.001c-0.95,0-2.328-0.065-3.318-0.623
			c-0.875-0.494-1.961-0.547-2.387-0.547c-0.147,0-0.233,0.006-0.235,0.006l-0.086,0.006l0.01-0.085
			c0.038-0.328-0.031-0.598-0.208-0.801c-0.35-0.406-1.005-0.43-1.012-0.43l-0.073-0.002l0.004-0.073
			c0.003-0.07,0.013-0.139,0.021-0.209c0.047-0.355,0.096-0.724-0.576-1.516c-0.987-1.267-0.511-2.249-0.389-2.457
			c-0.631-1.077,0.126-2.264,0.621-2.745c0.566-0.551,0.368-1.413,0.366-1.422l-0.021-0.083l0.086-0.005
			c0.484-0.027,0.824-0.171,1.009-0.428c0.25-0.348,0.132-0.788,0.131-0.792l-0.022-0.082l0.084-0.008
			c0.041-0.005,0.101-0.003,0.182,0.001c0.069,0.003,0.155,0.007,0.258,0.007c0.592,0,1.217-0.132,1.909-0.405
			c1.582-0.648,3.479-0.682,3.843-0.682h0.035c0.363,0,2.261,0.033,3.845,0.682c0.691,0.273,1.315,0.405,1.908,0.405
			c0.103,0,0.188-0.004,0.258-0.007c0.081-0.004,0.14-0.006,0.181-0.001l0.084,0.008l-0.021,0.081
			c-0.002,0.005-0.118,0.448,0.131,0.794c0.185,0.257,0.523,0.399,1.008,0.427l0.085,0.005l-0.02,0.083
			c-0.002,0.009-0.198,0.872,0.366,1.422c0.495,0.481,1.253,1.668,0.621,2.745c0.122,0.208,0.6,1.19-0.387,2.454
			c-0.674,0.795-0.625,1.163-0.578,1.519c0.009,0.07,0.019,0.139,0.021,0.209l0.004,0.072l-0.072,0.003
			c-0.007,0-0.664,0.024-1.013,0.43c-0.176,0.204-0.246,0.473-0.208,0.801l0.01,0.085l-0.086-0.006c-0.001,0-0.088-0.006-0.234-0.006
			c-0.427,0-1.513,0.053-2.388,0.547C89.587,194.248,88.21,194.313,87.26,194.313 M87.046,194.17h0.214c0.595,0,2.175,0,3.248-0.604
			c0.904-0.51,2.021-0.564,2.458-0.564c0.065,0,0.12,0.001,0.161,0.002c-0.022-0.332,0.062-0.61,0.249-0.827
			c0.321-0.371,0.847-0.455,1.042-0.475c-0.005-0.042-0.01-0.084-0.016-0.127c-0.049-0.368-0.104-0.787,0.608-1.627
			c1.042-1.335,0.363-2.313,0.355-2.322l-0.027-0.038l0.024-0.041c0.626-1.011-0.103-2.146-0.575-2.605
			c-0.523-0.509-0.461-1.232-0.421-1.476c-0.487-0.041-0.835-0.202-1.036-0.481c-0.219-0.305-0.196-0.661-0.17-0.824
			c-0.024,0.001-0.051,0.002-0.081,0.003c-0.071,0.004-0.159,0.007-0.264,0.007c-0.61,0-1.252-0.136-1.962-0.415
			c-1.56-0.64-3.432-0.672-3.791-0.672h-0.035c-0.359,0-2.23,0.032-3.789,0.672c-0.711,0.279-1.353,0.415-1.963,0.415
			c-0.105,0-0.193-0.003-0.265-0.007c-0.029-0.001-0.057-0.002-0.08-0.003c0.026,0.163,0.049,0.52-0.171,0.824
			c-0.2,0.279-0.549,0.44-1.035,0.481c0.039,0.243,0.102,0.967-0.422,1.476c-0.473,0.46-1.2,1.596-0.576,2.605l0.025,0.04
			l-0.028,0.039c-0.028,0.04-0.682,0.992,0.358,2.324c0.71,0.838,0.655,1.257,0.606,1.625c-0.006,0.043-0.011,0.085-0.016,0.127
			c0.195,0.02,0.722,0.104,1.042,0.475c0.188,0.218,0.271,0.495,0.249,0.827c0.041-0.001,0.096-0.002,0.162-0.002
			c0.437,0,1.552,0.055,2.456,0.564c1.073,0.604,2.654,0.604,3.249,0.604H87.046z" style="stroke-dasharray: 319.38px; stroke-dashoffset: 0px; stroke: rgb(0, 112, 60);"></path>
		<path id="XMLID_4578_" d="M77.037,191.671c0,0.329-0.049,0.646-0.138,0.947c2.637-0.555,6.216-0.896,10.158-0.896
			c3.943,0,7.522,0.341,10.16,0.896c-0.09-0.302-0.139-0.618-0.139-0.947c0-0.958,0.408-1.825,1.065-2.45
			c-2.692-0.68-6.66-1.109-11.087-1.109c-4.425,0-8.394,0.43-11.085,1.109C76.628,189.846,77.037,190.713,77.037,191.671" style="stroke-dasharray: 319.38px; stroke-dashoffset: 0px; stroke: rgb(0, 112, 60);"></path>
		<path id="XMLID_4582_" d="M87.057,191.936c3.863,0,7.409,0.256,10.187,0.681c-2.556-0.585-6.174-0.95-10.187-0.95
			c-4.011,0-7.629,0.365-10.186,0.95C79.649,192.191,83.195,191.936,87.057,191.936" style="stroke-dasharray: 319.38px; stroke-dashoffset: 0px; stroke: rgb(0, 112, 60);"></path>
		<path id="XMLID_4586_" d="M87.057,188.401c4.197,0,8.049,0.31,11.065,0.824c-2.776-0.709-6.707-1.151-11.065-1.151
			c-4.357,0-8.288,0.442-11.064,1.151C79.01,188.711,82.862,188.401,87.057,188.401" style="stroke-dasharray: 319.38px; stroke-dashoffset: 0px; stroke: rgb(0, 112, 60);"></path>
		<path id="XMLID_4590_" d="M78.399,190.888l0.056,0.38c0.006,0.037,0.012,0.068,0.018,0.094
			c0.009,0.042,0.015,0.069,0.019,0.081c0.009,0.021,0.028,0.04,0.056,0.057c0.017,0.011,0.064,0.018,0.144,0.022
			c0.06,0.003,0.093,0.021,0.1,0.053c0.008,0.039-0.013,0.063-0.063,0.072l-0.479,0.059l-0.443,0.078
			c-0.047,0.01-0.076-0.007-0.086-0.049c-0.003-0.02,0.002-0.037,0.018-0.051c0.015-0.014,0.033-0.021,0.057-0.025
			c0.114-0.029,0.171-0.084,0.169-0.165c0.001-0.022-0.002-0.052-0.007-0.089l-0.18-1.199c-0.012-0.085-0.029-0.14-0.053-0.166
			c-0.028-0.033-0.081-0.048-0.159-0.045c-0.004,0.001-0.033,0-0.086-0.002c-0.014-0.005-0.021-0.017-0.024-0.037
			c-0.007-0.042,0.014-0.067,0.062-0.074c0.002,0,0.039-0.005,0.112-0.014c0.029-0.005,0.063-0.008,0.1-0.012
			c0.031-0.005,0.095-0.012,0.191-0.022c0.041-0.004,0.098-0.013,0.171-0.025c0.088-0.018,0.146-0.028,0.173-0.032
			c0.035-0.005,0.089-0.015,0.161-0.027s0.126-0.021,0.161-0.026c0.126-0.02,0.218-0.025,0.273-0.02
			c0.07,0.002,0.141,0.019,0.213,0.049c0.178,0.077,0.279,0.208,0.307,0.392c0.015,0.098,0.003,0.195-0.035,0.295
			c-0.037,0.098-0.096,0.182-0.174,0.249s-0.185,0.112-0.318,0.134l-0.062,0.01c-0.021,0.003-0.046,0.003-0.075,0
			c-0.03-0.002-0.061-0.006-0.091-0.01c-0.002,0.001-0.025-0.002-0.07-0.008c-0.064-0.007-0.105-0.009-0.124-0.006
			c-0.019,0.002-0.03,0.018-0.034,0.045L78.399,190.888z M78.351,190.569c0.009,0.061,0.021,0.096,0.034,0.104
			c0.039,0.021,0.098,0.026,0.174,0.015c0.161-0.024,0.258-0.112,0.288-0.263c0.013-0.066,0.015-0.134,0.004-0.202
			c-0.016-0.11-0.063-0.201-0.142-0.271c-0.078-0.07-0.173-0.098-0.285-0.083c-0.064,0.008-0.107,0.032-0.127,0.075
			c-0.021,0.042-0.025,0.096-0.016,0.162L78.351,190.569z" style="stroke-dasharray: 319.38px; stroke-dashoffset: 0px; stroke: rgb(0, 112, 60);"></path>
		<path id="XMLID_4596_" d="M81.143,190.455c-0.004-0.032-0.007-0.052-0.01-0.058
			c-0.008-0.014-0.024-0.019-0.049-0.016l-0.672,0.073c-0.019,0.002-0.03,0.006-0.034,0.013c-0.005,0.007-0.008,0.029-0.011,0.066
			c0.001,0.008,0.003,0.022,0.005,0.043l0.047,0.427c0.003,0.029,0.006,0.049,0.007,0.062c0.004,0.039,0.016,0.082,0.032,0.129
			c0.012,0.04,0.073,0.065,0.186,0.075c0.062,0,0.094,0.018,0.098,0.055c0.005,0.038-0.017,0.062-0.064,0.068l-0.482,0.041
			l-0.445,0.062c-0.048,0.007-0.076-0.011-0.085-0.053c-0.002-0.021,0.005-0.037,0.02-0.051c0.016-0.013,0.035-0.021,0.058-0.022
			c0.115-0.025,0.174-0.078,0.176-0.158c0.002-0.023,0-0.053-0.004-0.09l-0.132-1.205c-0.009-0.082-0.026-0.138-0.051-0.169
			s-0.075-0.048-0.153-0.05c-0.036,0-0.062-0.002-0.077-0.007c-0.015-0.005-0.026-0.019-0.033-0.043
			c-0.002-0.024,0.003-0.04,0.014-0.05c0.012-0.008,0.029-0.014,0.053-0.016c0.019-0.002,0.104-0.01,0.256-0.022l0.229-0.019
			c0.026-0.003,0.065-0.009,0.116-0.016c0.051-0.008,0.088-0.014,0.11-0.016c0.023-0.003,0.06-0.008,0.109-0.016
			c0.05-0.007,0.087-0.012,0.112-0.015c0.046-0.006,0.071,0.011,0.077,0.047c0.005,0.02,0.002,0.033-0.008,0.04
			c-0.011,0.008-0.021,0.014-0.03,0.02c-0.044,0.011-0.103,0.034-0.177,0.07c-0.035,0.031-0.045,0.118-0.029,0.262l0.032,0.293
			c0.005,0.049,0.01,0.076,0.016,0.082c0.008,0.014,0.032,0.021,0.075,0.021c0.009,0,0.019-0.002,0.031-0.003l0.563-0.062
			c0.044-0.005,0.072-0.011,0.083-0.019s0.015-0.028,0.011-0.063l-0.044-0.393c-0.012-0.108-0.037-0.172-0.077-0.193
			c-0.022-0.012-0.059-0.02-0.109-0.023c-0.05-0.004-0.083-0.008-0.1-0.014c-0.016-0.006-0.025-0.018-0.027-0.039
			c-0.005-0.04,0.018-0.063,0.065-0.065l0.485-0.041l0.448-0.062c0.054-0.008,0.083,0.009,0.088,0.049
			c-0.002,0.025-0.03,0.049-0.087,0.072c-0.054,0.014-0.089,0.024-0.107,0.033c-0.037,0.021-0.06,0.047-0.066,0.081
			c-0.001,0.009-0.003,0.027-0.004,0.058c0,0.03,0,0.057,0.003,0.081l0.008,0.067l0.119,1.084c0.003,0.028,0.005,0.049,0.006,0.061
			c0.007,0.065,0.026,0.118,0.056,0.158c0.021,0.024,0.073,0.04,0.157,0.047c0.071-0.001,0.108,0.019,0.113,0.059
			c0.003,0.027-0.005,0.043-0.021,0.048c-0.018,0.005-0.046,0.012-0.085,0.02l-0.444,0.036l-0.451,0.063
			c-0.053,0.008-0.08-0.01-0.085-0.053c-0.003-0.025,0.024-0.052,0.083-0.077c0.04-0.017,0.082-0.033,0.124-0.05
			c0.024-0.02,0.04-0.042,0.045-0.065c0.005-0.024,0.004-0.065-0.003-0.122L81.143,190.455z" style="stroke-dasharray: 319.38px; stroke-dashoffset: 0px; stroke: rgb(0, 112, 60);"></path>
		<path id="XMLID_4600_" d="M82.306,189.637c-0.006-0.08-0.021-0.131-0.046-0.154
			c-0.025-0.031-0.077-0.049-0.154-0.054c-0.027-0.002-0.051-0.006-0.07-0.012c-0.02-0.007-0.029-0.021-0.031-0.043
			c-0.003-0.038,0.021-0.06,0.071-0.063c0.136-0.01,0.218-0.013,0.248-0.011c0.068-0.005,0.147-0.008,0.235-0.011
			c0.033,0,0.144-0.011,0.332-0.032c0.024-0.001,0.063-0.005,0.118-0.011c0.05-0.006,0.076,0.012,0.079,0.053
			c0.002,0.026-0.025,0.049-0.08,0.067c-0.107,0.021-0.167,0.059-0.177,0.11s-0.014,0.1-0.011,0.143
			c0.001,0.012,0.003,0.032,0.005,0.062l0.05,0.713c0.003,0.049,0.006,0.082,0.007,0.098c0.008,0.117,0.026,0.221,0.056,0.311
			c0.029,0.091,0.093,0.158,0.188,0.203c0.085,0.039,0.181,0.055,0.287,0.048c0.121-0.009,0.227-0.043,0.317-0.103
			c0.104-0.067,0.164-0.154,0.18-0.263c0.009-0.056,0.009-0.145,0-0.268l-0.054-0.777c-0.006-0.082-0.011-0.133-0.015-0.153
			c-0.012-0.061-0.035-0.104-0.068-0.131s-0.078-0.038-0.135-0.036h-0.06c-0.017,0.002-0.033-0.001-0.048-0.008
			c-0.007-0.006-0.013-0.021-0.02-0.045c-0.001-0.024,0.006-0.041,0.021-0.049c0.016-0.009,0.044-0.015,0.086-0.018l0.561-0.039
			c0.046-0.003,0.07,0.015,0.073,0.054c0.003,0.038-0.03,0.062-0.1,0.068c-0.085,0.01-0.134,0.057-0.145,0.14
			c-0.006,0.039-0.006,0.101,0.001,0.185l0.06,0.86c0.016,0.223-0.029,0.384-0.134,0.483c-0.146,0.14-0.355,0.219-0.628,0.237
			c-0.475,0.033-0.763-0.075-0.864-0.324c-0.041-0.1-0.064-0.205-0.072-0.315L82.306,189.637z" style="stroke-dasharray: 319.38px; stroke-dashoffset: 0px; stroke: rgb(0, 112, 60);"></path>
		<path id="XMLID_4604_" d="M86.337,189.423c0,0.011,0.003,0.027,0.008,0.052c0.001,0.037-0.02,0.056-0.062,0.058
			c-0.025,0.001-0.063-0.024-0.112-0.076l-0.053-0.075c-0.058-0.082-0.135-0.14-0.232-0.174c-0.053-0.019-0.115-0.027-0.188-0.024
			c-0.135,0.004-0.255,0.048-0.36,0.132c-0.099,0.078-0.175,0.182-0.229,0.308c-0.057,0.133-0.081,0.285-0.076,0.454
			c0.002,0.066,0.008,0.121,0.018,0.166c0.019,0.163,0.078,0.313,0.182,0.451c0.134,0.181,0.308,0.267,0.524,0.26
			c0.222-0.007,0.395-0.146,0.521-0.419l0.036-0.054c0.008-0.011,0.021-0.016,0.04-0.017c0.042-0.002,0.063,0.024,0.065,0.077
			l0.001,0.041l-0.002,0.132c0.001,0.019-0.001,0.043-0.004,0.073c-0.001,0.019-0.006,0.035-0.014,0.05
			c-0.011,0.022-0.036,0.048-0.077,0.073c-0.162,0.102-0.362,0.156-0.601,0.164c-0.499,0.016-0.86-0.135-1.087-0.453
			c-0.035-0.051-0.066-0.104-0.094-0.163c-0.049-0.111-0.075-0.223-0.079-0.336c-0.007-0.204,0.048-0.387,0.164-0.549
			c0.108-0.155,0.262-0.276,0.46-0.366s0.409-0.138,0.633-0.145c0.18-0.006,0.338,0.009,0.474,0.046
			c0.042,0.011,0.068,0.021,0.078,0.032c0.009,0.011,0.02,0.041,0.029,0.09L86.337,189.423z" style="stroke-dasharray: 319.38px; stroke-dashoffset: 0px; stroke: rgb(0, 112, 60);"></path>
		<path id="XMLID_4608_" d="M88.375,190.61c-0.003,0.129,0.026,0.216,0.086,0.26c0.041,0.021,0.095,0.032,0.159,0.033
			c0.107,0.002,0.19-0.014,0.25-0.048c0.063-0.027,0.118-0.072,0.165-0.135l0.104-0.137c0.023-0.032,0.049-0.048,0.076-0.047
			c0.038,0,0.057,0.024,0.056,0.071c-0.001,0.033-0.01,0.097-0.026,0.189l-0.031,0.182c-0.001,0.038-0.017,0.059-0.048,0.061
			l-1.523-0.028c-0.048-0.002-0.074-0.022-0.077-0.063c0-0.021,0.009-0.036,0.025-0.047c0.017-0.012,0.037-0.017,0.06-0.017
			c0.118-0.01,0.183-0.055,0.194-0.135c0.005-0.021,0.008-0.051,0.008-0.088l0.023-1.213c0.001-0.082-0.008-0.14-0.028-0.174
			s-0.069-0.057-0.146-0.069c-0.036-0.005-0.061-0.01-0.075-0.017c-0.015-0.006-0.023-0.021-0.027-0.047
			c0-0.024,0.007-0.04,0.02-0.047s0.03-0.01,0.054-0.01c0.019,0,0.104,0.004,0.257,0.012l0.23,0.01c0.026,0.001,0.066,0,0.117-0.001
			s0.089-0.001,0.111-0.001c0.023,0,0.061,0,0.11-0.001c0.051-0.001,0.088-0.001,0.113-0.001c0.046,0.001,0.069,0.02,0.071,0.057
			c0.001,0.021-0.003,0.034-0.014,0.04s-0.021,0.011-0.032,0.015c-0.043,0.005-0.104,0.021-0.18,0.049
			c-0.038,0.025-0.059,0.111-0.061,0.257L88.375,190.61z" style="stroke-dasharray: 319.38px; stroke-dashoffset: 0px; stroke: rgb(0, 112, 60);"></path>
		<path id="XMLID_4612_" d="M89.425,190.081c0.013-0.208,0.084-0.392,0.215-0.55c0.124-0.15,0.288-0.264,0.492-0.338
			c0.137-0.049,0.287-0.069,0.45-0.06c0.226,0.013,0.43,0.074,0.612,0.184c0.194,0.117,0.333,0.272,0.416,0.467
			c0.056,0.128,0.079,0.267,0.071,0.416c-0.011,0.18-0.064,0.342-0.162,0.485c-0.099,0.145-0.228,0.258-0.39,0.341
			c-0.182,0.092-0.385,0.131-0.608,0.118c-0.349-0.021-0.625-0.137-0.829-0.35c-0.098-0.102-0.168-0.214-0.212-0.337
			C89.437,190.336,89.418,190.211,89.425,190.081 M89.976,190.024c-0.012,0.169,0.008,0.333,0.057,0.492
			c0.045,0.14,0.107,0.254,0.188,0.343c0.096,0.108,0.21,0.166,0.343,0.174c0.215,0.013,0.377-0.112,0.486-0.375
			c0.049-0.117,0.078-0.255,0.088-0.41c0.014-0.241-0.025-0.458-0.117-0.652c-0.106-0.226-0.262-0.346-0.464-0.359
			c-0.22-0.017-0.384,0.111-0.494,0.384C90.016,189.738,89.988,189.873,89.976,190.024" style="stroke-dasharray: 319.38px; stroke-dashoffset: 0px; stroke: rgb(0, 112, 60);"></path>
		<path id="XMLID_4618_" d="M93.602,190.638l0.079-0.745c0.012-0.112,0.009-0.191-0.011-0.237
			s-0.069-0.08-0.149-0.101l-0.062-0.01c-0.035-0.006-0.053-0.025-0.054-0.058c0.004-0.043,0.045-0.061,0.122-0.053l0.553,0.059
			c0.059,0.007,0.086,0.028,0.082,0.064c-0.004,0.037-0.043,0.055-0.116,0.053l-0.019-0.002c-0.061-0.006-0.105,0.008-0.134,0.041
			c-0.029,0.034-0.047,0.084-0.055,0.149c-0.002,0.02-0.004,0.045-0.007,0.072l-0.16,1.503c-0.004,0.034-0.012,0.058-0.024,0.068
			s-0.035,0.015-0.068,0.011c-0.033-0.003-0.061-0.014-0.082-0.033c-0.013-0.016-0.022-0.029-0.03-0.04
			c-0.018-0.024-0.031-0.046-0.04-0.063l-1.075-1.639l-0.107,1.014c-0.012,0.105-0.018,0.169-0.018,0.189
			c0,0.082,0.015,0.143,0.043,0.179c0.028,0.037,0.075,0.06,0.141,0.065c0.084,0.01,0.126,0.033,0.121,0.072
			c-0.005,0.047-0.037,0.066-0.098,0.058l-0.292-0.044l-0.301-0.02c-0.055-0.003-0.08-0.029-0.078-0.076
			c0.001-0.026,0.013-0.041,0.037-0.045c0.015-0.005,0.05-0.004,0.104,0.002c0.071,0.007,0.121-0.032,0.151-0.12
			c0.016-0.042,0.028-0.113,0.039-0.215l0.117-1.105c0.007-0.067,0.005-0.116-0.007-0.146c-0.016-0.045-0.053-0.073-0.111-0.083
			l-0.046-0.009c-0.031-0.007-0.048-0.013-0.052-0.018c-0.012-0.009-0.018-0.026-0.017-0.051c0.004-0.037,0.04-0.052,0.108-0.044
			l0.557,0.059c0.061,0.007,0.095,0.013,0.104,0.019c0.009,0.007,0.033,0.04,0.073,0.102L93.602,190.638z" style="stroke-dasharray: 319.38px; stroke-dashoffset: 0px; stroke: rgb(0, 112, 60);"></path>
		<path id="XMLID_4622_" d="M96.184,191.108l-0.038,0.401c-0.003,0.03-0.041,0.064-0.115,0.103
			c-0.06,0.032-0.154,0.056-0.282,0.069c-0.129,0.014-0.266,0.009-0.41-0.014c-0.213-0.033-0.402-0.098-0.567-0.192
			c-0.19-0.109-0.329-0.246-0.417-0.412c-0.087-0.167-0.115-0.35-0.083-0.55c0.024-0.157,0.082-0.295,0.173-0.411
			c0.136-0.173,0.32-0.296,0.555-0.369c0.219-0.069,0.444-0.085,0.679-0.048c0.033,0.005,0.061,0.011,0.083,0.016
			c0.063,0.013,0.139,0.035,0.225,0.066l0.103,0.038c0.068,0.025,0.111,0.051,0.131,0.077c0.001,0.004,0.003,0.025,0.006,0.063
			l-0.003,0.099c0,0.027,0,0.059,0.001,0.096c0.001,0.03,0.002,0.049,0.001,0.057c-0.008,0.047-0.035,0.066-0.083,0.059
			c-0.026-0.004-0.066-0.052-0.117-0.143c-0.063-0.114-0.103-0.18-0.118-0.196c-0.047-0.053-0.134-0.089-0.26-0.109
			c-0.141-0.022-0.267-0.004-0.378,0.056c-0.229,0.121-0.37,0.353-0.425,0.694c-0.015,0.095-0.019,0.195-0.012,0.3
			s0.028,0.204,0.064,0.299c0.081,0.223,0.242,0.352,0.481,0.391c0.102,0.016,0.173,0.006,0.215-0.029
			c0.025-0.03,0.047-0.098,0.063-0.201l0.02-0.124c0.015-0.093,0.022-0.148,0.023-0.167c0.003-0.072-0.013-0.121-0.045-0.147
			c-0.033-0.026-0.087-0.045-0.162-0.057c-0.058-0.009-0.084-0.035-0.08-0.078c0.006-0.049,0.053-0.066,0.14-0.052l0.849,0.121
			c0.052,0.009,0.074,0.033,0.068,0.073c-0.006,0.034-0.042,0.054-0.11,0.061c-0.067,0.006-0.109,0.017-0.128,0.034
			C96.211,190.997,96.197,191.04,96.184,191.108" style="stroke-dasharray: 319.38px; stroke-dashoffset: 0px; stroke: rgb(0, 112, 60);"></path>
		<path id="XMLID_4626_" d="M83.953,193.194c0-0.006-0.001-0.009-0.003-0.01c0.006-0.036,0.015-0.055,0.028-0.055
			c0.011,0,0.019,0.005,0.023,0.014s0.011,0.023,0.017,0.041c0.011,0.035,0.017,0.053,0.017,0.053
			c0.009,0.02,0.019,0.035,0.031,0.047c0.024,0.028,0.066,0.042,0.124,0.042c0.043,0,0.079-0.009,0.109-0.029
			c0.034-0.023,0.052-0.056,0.052-0.096c0-0.045-0.021-0.079-0.064-0.104c-0.021-0.012-0.048-0.024-0.08-0.037l-0.065-0.027
			c-0.051-0.021-0.095-0.05-0.132-0.084c-0.03-0.029-0.045-0.066-0.045-0.114c0-0.047,0.016-0.09,0.047-0.128
			c0.029-0.035,0.066-0.063,0.114-0.081c0.048-0.02,0.097-0.029,0.147-0.029c0.063,0,0.114,0.011,0.155,0.03
			c0.012,0.004,0.018,0.017,0.018,0.037v0.106c0,0.023-0.008,0.035-0.022,0.035c-0.016,0-0.027-0.011-0.033-0.032
			c-0.024-0.085-0.069-0.128-0.134-0.128c-0.035,0-0.065,0.009-0.093,0.026c-0.029,0.021-0.044,0.047-0.044,0.08
			c0,0.036,0.021,0.064,0.061,0.085c0.005,0.003,0.042,0.017,0.112,0.04c0.07,0.024,0.121,0.051,0.15,0.08
			c0.039,0.038,0.059,0.09,0.059,0.154c0,0.097-0.049,0.172-0.145,0.224c-0.047,0.025-0.103,0.038-0.167,0.038
			c-0.028,0-0.063-0.004-0.103-0.012c-0.043-0.008-0.076-0.018-0.1-0.028c-0.013-0.006-0.021-0.014-0.028-0.024
			c-0.003-0.006-0.005-0.012-0.007-0.016c-0.001-0.004-0.001-0.012-0.003-0.021l0.003-0.012V193.194z" style="stroke-dasharray: 319.38px; stroke-dashoffset: 0px; stroke: rgb(0, 112, 60);"></path>
		<path id="XMLID_4630_" d="M84.686,192.997c0-0.021-0.004-0.036-0.01-0.045c-0.004-0.006-0.01-0.011-0.016-0.013
			c-0.008-0.004-0.017-0.005-0.028-0.005c-0.003,0-0.005,0.001-0.007,0.002c-0.006,0-0.013-0.003-0.021-0.006
			c-0.003-0.001-0.006-0.007-0.007-0.017c0-0.011,0.017-0.021,0.051-0.028c0.029-0.006,0.057-0.016,0.083-0.029
			c0.007-0.004,0.025-0.019,0.056-0.042c0.024-0.019,0.043-0.028,0.056-0.029c0.007,0,0.012,0.004,0.016,0.01
			c0.002,0.012,0.004,0.023,0.004,0.034v0.379c0,0.012-0.001,0.024-0.003,0.034c0,0.011,0,0.018,0.001,0.023
			c0.001,0.015,0.005,0.025,0.012,0.033c0.005,0.002,0.013,0.004,0.022,0.005l0.037,0.007c0.008,0,0.015,0.003,0.02,0.008
			c0.003,0.003,0.005,0.008,0.008,0.015c0,0.016-0.012,0.023-0.037,0.023h-0.296c-0.025,0-0.038-0.008-0.038-0.023
			c0-0.01,0.003-0.017,0.01-0.02c0.004-0.001,0.01-0.003,0.018-0.006c0.006,0,0.012,0,0.016-0.001c0.009,0,0.014,0,0.018-0.001
			c0.016,0,0.025-0.006,0.028-0.017c0.006-0.014,0.01-0.046,0.01-0.095V192.997z M84.667,192.652c0-0.027,0.012-0.049,0.033-0.066
			c0.02-0.015,0.044-0.023,0.071-0.023c0.028-0.001,0.052,0.007,0.073,0.023c0.021,0.016,0.031,0.038,0.031,0.066
			c0,0.029-0.01,0.053-0.03,0.07c-0.021,0.017-0.046,0.026-0.076,0.027c-0.029,0-0.054-0.009-0.073-0.026
			C84.676,192.705,84.667,192.682,84.667,192.652" style="stroke-dasharray: 319.38px; stroke-dashoffset: 0px; stroke: rgb(0, 112, 60);"></path>
		<path id="XMLID_4636_" d="M85.666,192.994v0.09v0.097v0.061c0,0.021,0.001,0.031,0.002,0.034
			c0.003,0.009,0.009,0.018,0.018,0.024c0.01,0.003,0.025,0.007,0.047,0.011c0.007,0,0.013,0.002,0.019,0.007
			c0.006,0.006,0.009,0.012,0.009,0.018c0,0.015-0.013,0.021-0.037,0.021h-0.28c-0.023,0-0.036-0.007-0.037-0.021
			c0-0.011,0.008-0.019,0.024-0.024c0.025-0.01,0.039-0.016,0.039-0.016c0.009-0.007,0.015-0.015,0.017-0.024
			c0-0.004,0.001-0.018,0.002-0.04v-0.065v-0.146c0-0.096-0.033-0.145-0.1-0.145c-0.035,0-0.064,0.011-0.089,0.032
			c-0.012,0.01-0.019,0.019-0.021,0.029c-0.003,0.01-0.006,0.025-0.009,0.047v0.247c0,0.018,0.002,0.033,0.006,0.045
			c0.004,0.013,0.022,0.024,0.055,0.035c0.015,0.002,0.022,0.011,0.022,0.024c0,0.015-0.009,0.021-0.027,0.021h-0.287
			c-0.024,0-0.037-0.007-0.037-0.021c0-0.013,0.009-0.021,0.028-0.024c0.025-0.005,0.042-0.011,0.049-0.016
			c0.008-0.006,0.013-0.016,0.015-0.028c0.002-0.02,0.003-0.043,0.003-0.072v-0.197c0-0.021-0.003-0.035-0.009-0.045
			c-0.005-0.01-0.02-0.016-0.041-0.018c-0.009,0-0.016,0-0.02-0.001c-0.013-0.001-0.019-0.006-0.019-0.017
			c0-0.009,0.005-0.015,0.014-0.019c0.002-0.002,0.008-0.004,0.017-0.008c0.006-0.001,0.013-0.003,0.021-0.005
			c0.021-0.005,0.048-0.015,0.079-0.028c0.031-0.015,0.055-0.031,0.072-0.05c0.012-0.015,0.026-0.022,0.043-0.022
			c0.012,0,0.017,0.015,0.017,0.044v0.051c0.03-0.019,0.065-0.04,0.104-0.063c0.027-0.012,0.058-0.019,0.091-0.019
			c0.057,0,0.107,0.017,0.151,0.049c0.021,0.016,0.033,0.034,0.04,0.055C85.662,192.926,85.666,192.957,85.666,192.994" style="stroke-dasharray: 319.38px; stroke-dashoffset: 0px; stroke: rgb(0, 112, 60);"></path>
		<path id="XMLID_4640_" d="M85.986,193.041c-0.001,0.042,0.009,0.082,0.027,0.119c0.02,0.037,0.046,0.067,0.08,0.09
			c0.033,0.023,0.07,0.034,0.109,0.034c0.037,0,0.072-0.011,0.108-0.031c0.013-0.007,0.021-0.011,0.027-0.013
			c0.007,0,0.011,0.005,0.013,0.014c0,0.034-0.039,0.064-0.117,0.093c-0.035,0.013-0.073,0.02-0.116,0.02
			c-0.119,0-0.209-0.042-0.271-0.126c-0.029-0.042-0.045-0.095-0.046-0.158c-0.001-0.045,0.01-0.086,0.033-0.123
			c0.031-0.051,0.078-0.091,0.142-0.12c0.06-0.027,0.121-0.041,0.186-0.041c0.057,0,0.104,0.012,0.146,0.034
			c0.01,0.003,0.019,0.009,0.026,0.018c0.005,0.007,0.007,0.018,0.007,0.033c0,0.021-0.003,0.043-0.009,0.063
			c-0.01,0.027-0.023,0.042-0.04,0.042c-0.013,0.001-0.026-0.005-0.039-0.017c-0.003-0.004-0.008-0.012-0.015-0.021
			c-0.012-0.021-0.032-0.052-0.06-0.09c-0.011-0.012-0.026-0.019-0.046-0.019c-0.052,0-0.093,0.032-0.124,0.098
			C85.995,192.971,85.987,193.004,85.986,193.041" style="stroke-dasharray: 319.38px; stroke-dashoffset: 0px; stroke: rgb(0, 112, 60);"></path>
		<path id="XMLID_4644_" d="M86.641,193.025c-0.012,0-0.02,0.002-0.022,0.006c-0.004,0.004-0.005,0.012-0.005,0.023
			c-0.001,0.039,0.008,0.076,0.025,0.111s0.042,0.063,0.072,0.084c0.03,0.021,0.066,0.031,0.106,0.031
			c0.039,0,0.079-0.013,0.12-0.041c0.017-0.01,0.028-0.016,0.036-0.018c0.004,0,0.008,0.002,0.013,0.004
			c0.004,0.004,0.006,0.008,0.006,0.012c0,0.02-0.021,0.041-0.062,0.066c-0.03,0.019-0.059,0.033-0.086,0.042
			c-0.037,0.013-0.074,0.02-0.111,0.02c-0.053,0-0.102-0.012-0.149-0.036c-0.047-0.023-0.085-0.057-0.115-0.1
			c-0.029-0.043-0.044-0.096-0.045-0.156c-0.001-0.077,0.03-0.143,0.093-0.196s0.139-0.08,0.228-0.08
			c0.038,0,0.076,0.008,0.115,0.023s0.071,0.036,0.097,0.061c0.026,0.028,0.04,0.061,0.041,0.098c0,0.019-0.004,0.03-0.011,0.037
			c-0.008,0.007-0.024,0.009-0.052,0.009H86.641z M86.625,192.963c0,0.007,0.003,0.012,0.008,0.015
			c0.006,0.003,0.017,0.005,0.032,0.005c0.027,0,0.047-0.001,0.059-0.002l0.051-0.003c0.015-0.001,0.029-0.007,0.042-0.017
			c0.012-0.01,0.017-0.025,0.017-0.047c0-0.022-0.007-0.041-0.021-0.055c-0.015-0.013-0.033-0.02-0.057-0.02
			c-0.034,0-0.064,0.012-0.091,0.035C86.637,192.899,86.625,192.929,86.625,192.963" style="stroke-dasharray: 319.38px; stroke-dashoffset: 0px; stroke: rgb(0, 112, 60);"></path>
		<path id="XMLID_4650_" d="M87.674,192.757c0-0.029-0.009-0.044-0.025-0.044c-0.005,0-0.026,0.006-0.064,0.018
			c-0.029,0.01-0.052,0.015-0.069,0.017c-0.018,0-0.027-0.007-0.029-0.021c0-0.016,0.017-0.028,0.049-0.037
			c0.015-0.004,0.024-0.007,0.031-0.009c0.104-0.022,0.188-0.05,0.25-0.082c0.01-0.005,0.017-0.007,0.02-0.007
			c0.015,0,0.022,0.018,0.022,0.054v0.542v0.026c0,0.021,0.002,0.042,0.006,0.062c0.003,0.008,0.01,0.016,0.021,0.021
			c0.012,0.005,0.028,0.008,0.051,0.008c0.022,0.001,0.038,0.003,0.048,0.006c0.009,0.003,0.013,0.011,0.013,0.022
			c0,0.019-0.015,0.027-0.044,0.026l-0.096-0.005c-0.029,0-0.072-0.002-0.129-0.005l-0.084,0.005l-0.084,0.005
			c-0.025,0.001-0.039-0.008-0.04-0.026c0-0.013,0.007-0.021,0.021-0.024c0.004,0,0.016-0.001,0.035-0.001
			c0.033,0,0.058-0.004,0.071-0.013c0.02-0.012,0.028-0.031,0.028-0.063V192.757z" style="stroke-dasharray: 319.38px; stroke-dashoffset: 0px; stroke: rgb(0, 112, 60);"></path>
		<path id="XMLID_4655_" d="M88.388,192.643c-0.034,0-0.061,0.018-0.079,0.052c-0.014,0.027-0.021,0.06-0.021,0.097
			c0,0.038,0.006,0.076,0.02,0.114c0.03,0.086,0.073,0.13,0.128,0.131l0.026-0.003l0.018-0.002c0.011,0,0.016,0.005,0.017,0.015
			c0,0.019-0.02,0.033-0.059,0.043c-0.028,0.007-0.056,0.01-0.082,0.01c-0.062,0-0.113-0.022-0.156-0.067
			c-0.043-0.047-0.064-0.1-0.064-0.161c0-0.071,0.027-0.136,0.081-0.19c0.054-0.056,0.12-0.083,0.2-0.083
			c0.091,0,0.165,0.033,0.223,0.099c0.055,0.062,0.081,0.138,0.081,0.229c0,0.082-0.021,0.161-0.063,0.236
			c-0.04,0.069-0.096,0.13-0.166,0.182c-0.042,0.031-0.092,0.061-0.147,0.09c-0.071,0.035-0.126,0.055-0.162,0.055
			c-0.005,0-0.01-0.003-0.015-0.008c-0.004-0.002-0.006-0.008-0.008-0.016c0-0.011,0.015-0.021,0.042-0.03
			c0.122-0.042,0.22-0.129,0.292-0.26c0.038-0.07,0.058-0.149,0.058-0.238c0-0.042-0.007-0.085-0.021-0.13
			c-0.015-0.047-0.033-0.086-0.058-0.116C88.449,192.658,88.42,192.643,88.388,192.643" style="stroke-dasharray: 319.38px; stroke-dashoffset: 0px; stroke: rgb(0, 112, 60);"></path>
		<path id="XMLID_4659_" d="M89.173,193.324c0.063,0,0.095-0.053,0.095-0.157c0-0.093-0.022-0.165-0.066-0.22
			c-0.02-0.023-0.042-0.035-0.065-0.035c-0.014,0-0.029,0.004-0.049,0.014c-0.005,0.004-0.012,0.007-0.019,0.009
			c-0.004,0-0.007-0.002-0.01-0.005c-0.002-0.002-0.004-0.007-0.006-0.014c0-0.012,0.012-0.024,0.034-0.038
			c0.037-0.022,0.075-0.033,0.116-0.033c0.043,0,0.082,0.012,0.116,0.034c0.035,0.023,0.062,0.055,0.08,0.093
			s0.028,0.081,0.028,0.127c0,0.08-0.029,0.146-0.087,0.196c-0.058,0.053-0.126,0.078-0.205,0.078c-0.058,0-0.109-0.016-0.155-0.046
			c-0.072-0.049-0.118-0.12-0.139-0.211c-0.006-0.027-0.01-0.058-0.01-0.091c-0.001-0.092,0.023-0.178,0.071-0.257
			c0.058-0.092,0.136-0.166,0.237-0.224c0.028-0.017,0.058-0.031,0.088-0.043c0.061-0.024,0.107-0.037,0.141-0.037
			c0.019,0,0.028,0.008,0.028,0.021c0,0.007-0.021,0.017-0.063,0.032c-0.026,0.01-0.052,0.019-0.077,0.029
			c-0.025,0.01-0.052,0.026-0.08,0.052c-0.006,0.004-0.02,0.018-0.042,0.04c-0.009,0.011-0.022,0.028-0.04,0.052
			c-0.059,0.084-0.089,0.183-0.089,0.297c-0.001,0.052,0.006,0.103,0.021,0.153c0.017,0.059,0.04,0.105,0.069,0.139
			C89.125,193.31,89.15,193.324,89.173,193.324" style="stroke-dasharray: 319.38px; stroke-dashoffset: 0px; stroke: rgb(0, 112, 60);"></path>
		<path id="XMLID_4663_" d="M89.952,192.912c0,0.014,0.012,0.025,0.036,0.034c0.032,0.011,0.052,0.019,0.057,0.023
			c0.054,0.046,0.08,0.101,0.081,0.166c0.001,0.044-0.014,0.086-0.045,0.124c-0.027,0.033-0.062,0.06-0.105,0.08
			c-0.048,0.022-0.102,0.033-0.162,0.033c-0.053,0-0.101-0.008-0.146-0.022c-0.098-0.033-0.147-0.091-0.148-0.172
			c-0.001-0.035,0.006-0.064,0.022-0.087c0.009-0.014,0.017-0.022,0.022-0.029c0.02-0.017,0.049-0.032,0.087-0.047
			c0.021-0.009,0.031-0.015,0.032-0.019c-0.002-0.002-0.004-0.004-0.006-0.004c-0.006-0.005-0.012-0.01-0.02-0.013
			c-0.007-0.004-0.023-0.015-0.049-0.032c-0.041-0.038-0.062-0.085-0.062-0.138c0-0.084,0.043-0.146,0.13-0.185
			c0.045-0.02,0.096-0.029,0.154-0.029c0.109,0,0.186,0.029,0.229,0.089c0.02,0.026,0.028,0.054,0.028,0.083
			c0,0.063-0.037,0.105-0.11,0.13C89.96,192.903,89.952,192.908,89.952,192.912 M89.744,193.023c-0.021,0-0.039,0.021-0.057,0.063
			c-0.008,0.021-0.012,0.045-0.013,0.075c-0.002,0.061,0.02,0.106,0.065,0.14c0.021,0.017,0.05,0.025,0.085,0.025
			c0.032,0,0.063-0.013,0.093-0.036c0.029-0.024,0.044-0.053,0.044-0.085c0-0.012-0.002-0.021-0.004-0.028
			c-0.004-0.024-0.018-0.049-0.044-0.072c-0.015-0.013-0.042-0.029-0.082-0.05C89.789,193.034,89.759,193.023,89.744,193.023
			M89.897,192.889c0.012,0,0.026-0.019,0.043-0.055c0.007-0.016,0.01-0.032,0.01-0.048c0-0.041-0.012-0.076-0.035-0.104
			c-0.023-0.029-0.056-0.044-0.095-0.045c-0.031,0-0.06,0.009-0.083,0.028s-0.036,0.046-0.037,0.077c0,0.028,0.013,0.054,0.04,0.075
			c0.01,0.008,0.027,0.019,0.052,0.03c0.015,0.007,0.037,0.016,0.065,0.029C89.878,192.885,89.891,192.889,89.897,192.889" style="stroke-dasharray: 319.38px; stroke-dashoffset: 0px; stroke: rgb(0, 112, 60);"></path>
		<path id="XMLID_4670_" fill-rule="evenodd" clip-rule="evenodd" d="M83.781,184.989
			c-0.064-0.164-0.08-0.232-0.26-0.193c-0.179,0.04-0.15,0.307-0.15,0.307c0.751,1.442,1.755,1.473,1.755,1.473
			C84.168,186.297,83.845,185.153,83.781,184.989" style="stroke-dasharray: 319.38px; stroke-dashoffset: 0px; stroke: rgb(0, 112, 60);"></path>
		<path id="XMLID_4674_" fill-rule="evenodd" clip-rule="evenodd" d="M87.925,183.099
			c-0.398,0.157-0.744,0.363-0.358,0.538c0.386,0.174,0.56,0.195,0.761,0.187c0.2-0.009,0.556,0.078,0.466,0.593
			c-0.09,0.514-0.44,2.557-3.214,2.245c0,0,0.907,0.709,2.429-0.143c1.522-0.85,1.753-2.044,1.664-2.648c0,0-0.027-0.854-0.767-0.927
			C88.906,182.943,88.471,182.884,87.925,183.099" style="stroke-dasharray: 319.38px; stroke-dashoffset: 0px; stroke: rgb(0, 112, 60);"></path>
		<path id="XMLID_4678_" fill-rule="evenodd" clip-rule="evenodd" d="M86.803,183.746
			c-3.578,0.695-3.447-0.104-1.895-0.682c1.552-0.578,2.582-0.172,3.513-0.221c0.93-0.049,0.444-0.478,0.444-0.478
			c-0.502-0.45-0.864-0.252-1.422-0.284c-0.558-0.033-2.471,0.551-2.868,0.722c-0.396,0.17-1.629,0.486-1.266,1.289
			C83.672,184.894,86.803,183.746,86.803,183.746" style="stroke-dasharray: 319.38px; stroke-dashoffset: 0px; stroke: rgb(0, 112, 60);"></path>
		<path id="XMLID_4682_" fill-rule="evenodd" clip-rule="evenodd" d="M90.11,183.486
			c0.19-0.053,0.523,0.338,0.266,0.62c-0.256,0.283-0.446,0.515-0.719,0.682c0,0,1.507-0.591,1.28-1.292
			c-0.226-0.701-0.383-0.689-0.537-0.668c0,0-0.832,0.099-0.728,0.445C89.778,183.619,89.919,183.541,90.11,183.486" style="stroke-dasharray: 319.38px; stroke-dashoffset: 0px; stroke: rgb(0, 112, 60);"></path>
		<path id="XMLID_4686_" fill-rule="evenodd" clip-rule="evenodd" d="M89.537,186.623
			c-0.529,0.295-1.453,0.508-1.851,0.607c-0.397,0.099-0.987,0.117-1.683,0.248c-0.949,0.18-2.791-0.358-2.884-0.384
			c-0.194-0.052-0.456-0.187-0.43-0.095c0.034,0.116,0.38,0.229,0.38,0.229c0.231,0.128,1.111,0.255,1.476,0.33
			s0.508,0.139,0.992,0.104c0.483-0.035,0.692,0.122,2.149-0.101c1.456-0.224,1.837-0.664,2.699-1.091
			c0.861-0.426,1.057-0.802,1.057-0.802C90.814,186.309,90.066,186.329,89.537,186.623" style="stroke-dasharray: 319.38px; stroke-dashoffset: 0px; stroke: rgb(0, 112, 60);"></path>
		<path id="XMLID_4690_" fill-rule="evenodd" clip-rule="evenodd" d="M84.16,184.792c0,0,0.351,0.028,0.741-0.063
			c0.192-0.045,0.378-0.178,0.344,0.012c-0.02,0.104-0.003,0.423,0.207,0.781c0.183,0.311,0.3,0.391,0.61,0.516
			c0.491,0.198,0.681,0.052,0.824,0.132c0,0-0.396,0.305-1.344,0.058c-0.946-0.247-1.337-0.694-1.571-1.349
			C83.971,184.878,83.902,184.724,84.16,184.792" style="stroke-dasharray: 319.38px; stroke-dashoffset: 0px; stroke: rgb(0, 112, 60);"></path>
		<polygon id="XMLID_4694_" points="164.696,146.215 164.696,178.438 161.849,178.438 161.849,145.938 	"></polygon>
	</g>
</svg>