<svg version="1.1" id="Layer_5" xmlns="http://www.w3.org/2000/svg" xmlns:xlink="http://www.w3.org/1999/xlink" x="0px" y="0px" height="100px" viewBox="0 0 283.457 228.354" enable-background="new 0 0 283.457 228.354" xml:space="preserve" style="fill: rgb(0, 112, 60);">
			<g>
				<path id="XMLID_801_" d="M276.537,134.405c1.661,0.599,2.943,1.888,3.564,3.536
					c0.075,0.198,0.885-0.055,0.822-0.221c-0.648-1.719-1.988-3.017-3.713-3.638C277.025,134.016,276.291,134.316,276.537,134.405
					L276.537,134.405z" style="stroke-dasharray: 249.763px; stroke-dashoffset: 0px; stroke: rgb(0, 112, 60);"></path>
				<path id="XMLID_806_" d="M127.958,35.336c-11.033,0.1-22.616-3.4-33.311-5.9c-3.319-0.776-6.627-1.601-9.916-2.496
					c-2.003-0.546-5.537-0.874-7.208-2.095c-2.479-1.811,1.605-3.628,3.431-5.029c2.277-1.75,4.555-3.498,6.832-5.248
					c4.302-3.304,8.603-6.607,12.904-9.911c2.604-2,4.5-4.7,7.629-1.894c1.843,1.654,3.2,4.436,4.588,6.478
					c5.788,8.521,10.865,17.479,15.317,26.766c0.166,0.346,0.943,0.033,0.75-0.37c-3.307-6.896-6.941-13.621-10.986-20.113
					c-2.177-3.494-4.459-6.922-6.848-10.273c-0.837-1.174-2.693-4.936-4.264-5.205c-1.101-0.188-1.304,0.269-2.184,0.714
					c-3.502,1.772-6.768,5.197-9.868,7.579c-6.832,5.247-13.664,10.494-20.496,15.741c-0.173,0.133-0.203,0.409,0.042,0.488
					c8.679,2.79,17.509,4.996,26.413,6.935c8.841,1.924,18.013,4.547,27.108,4.465C128.371,35.962,128.515,35.331,127.958,35.336
					L127.958,35.336z" style="stroke-dasharray: 249.763px; stroke-dashoffset: 0px; stroke: rgb(0, 112, 60);"></path>
				<path id="XMLID_809_" d="M80.842,25.8c4.424-4.327,8.892-8.607,13.405-12.842c0.333-0.313-0.474-0.261-0.648-0.097
					c-4.514,4.233-8.981,8.515-13.405,12.842C79.865,26.024,80.67,25.969,80.842,25.8L80.842,25.8z" style="stroke-dasharray: 249.763px; stroke-dashoffset: 0px; stroke: rgb(0, 112, 60);"></path>
				<path id="XMLID_812_" d="M84.53,26.605c1.741-1.416,3.411-2.911,5.011-4.485c0.152-0.15-0.603-0.058-0.739,0.077
					c-1.6,1.574-3.27,3.069-5.011,4.485C83.638,26.808,84.381,26.728,84.53,26.605L84.53,26.605z" style="stroke-dasharray: 249.763px; stroke-dashoffset: 0px; stroke: rgb(0, 112, 60);"></path>
				<path id="XMLID_815_" d="M106.331,45.83c-7.626-2.206-16.657-6.742-24.638-3.42
					c-6.695,2.787-10.066,10.575-13.524,16.414c-0.209,0.353,0.619,0.301,0.772,0.043c3.39-5.726,7.266-14.981,14.507-16.562
					c7.744-1.689,15.144,1.91,22.389,4.007C106.129,46.396,106.805,45.968,106.331,45.83L106.331,45.83z" style="stroke-dasharray: 249.763px; stroke-dashoffset: 0px; stroke: rgb(0, 112, 60);"></path>
				<path id="XMLID_821_" d="M111.955,47.964c0.989-8.471-17.02,3.928-17.549,4.211
					c-6.64,3.563-15.142,8.994-22.923,8.201c-4.957-0.504-9.272-1.371-14.329-0.736c-10.209,1.281-20.596,5.159-29.909,9.425
					c-8.932,4.09-18.063,9.666-24,17.688c-2.412,3.26-4.333,7.34-2.543,11.345c1.845,4.126,6.651,6.39,9.82,9.315
					c9.53,8.798,18.025,19,26.905,28.454c2.546,2.711,4.862,6.692,8.984,6.313c3.905-0.359,7.954-2.364,11.415-4.089
					c4.762-2.371,9.187-5.354,13.532-8.404c3.927-2.756,8.135-5.258,9.327-10.232c1.306-5.445-0.355-11.67-0.769-17.128
					c-0.564-7.456-0.61-14.946-0.146-22.408c0.233-3.749,0.042-9.206,1.49-12.684c1.504-3.61,6.003-5.951,9.158-7.992
					c6.736-4.356,13.855-8.012,21.267-11.068c0.538-0.223,0.032-0.334-0.287-0.201c-8.598,3.546-16.816,7.884-24.487,13.153
					c-2.444,1.679-5.374,3.325-6.462,6.249c-1.641,4.41-1.378,10.086-1.61,14.71c-0.278,5.519-0.276,11.05,0.008,16.569
					c0.285,5.527,1.411,11.103,1.409,16.632c-0.003,6.548-2.928,9.65-8.092,13.347c-4.732,3.389-9.581,6.765-14.815,9.337
					c-3.924,1.928-10.686,5.329-14.563,2.456c-1.917-1.422-3.632-3.826-5.265-5.564c-4.288-4.565-8.576-9.131-12.864-13.696
					c-3.521-3.748-7-7.538-10.564-11.244c-3.14-3.265-6.992-5.629-10.158-8.808c-9.319-9.357,5.364-20.997,12.754-25.896
					c8.891-5.894,19.154-9.76,29.333-12.788c8.577-2.551,15.965-2.997,24.787-1.729c2.811,0.404,5.103,0.094,7.773-0.837
					c5.047-1.758,9.963-4.26,14.692-6.721c1.907-0.992,3.793-2.025,5.66-3.093c1.792-1.024,12.936-8.192,12.196-1.868
					C111.12,48.298,111.925,48.22,111.955,47.964L111.955,47.964z" style="stroke-dasharray: 249.763px; stroke-dashoffset: 0px; stroke: rgb(0, 112, 60);"></path>
				<path id="XMLID_828_" d="M59.654,59.72c3.429-2.245,6.239-5.074,8.852-8.212c3.043-3.654,11.222-16.962,16.956-9.71
					c0.17,0.215,0.961-0.068,0.764-0.318c-2.845-3.598-6.515-3.025-9.677-0.3c-6.459,5.567-10.098,13.524-17.402,18.306
					C58.684,59.789,59.396,59.889,59.654,59.72L59.654,59.72z" style="stroke-dasharray: 249.763px; stroke-dashoffset: 0px; stroke: rgb(0, 112, 60);"></path>
				<path id="XMLID_831_" d="M86.255,41.528c-0.197-3.919,5.571-3.192,7.628-2.716c1.853,0.43,3.578,1.344,5.164,2.366
					c2.371,1.529,4.329,3.584,6.714,5.104c0.25,0.16,0.999-0.197,0.646-0.422c-4.873-3.107-8.454-7.524-14.612-7.863
					c-2.715-0.148-6.538,0.25-6.361,3.752C85.448,42.047,86.271,41.872,86.255,41.528L86.255,41.528z" style="stroke-dasharray: 249.763px; stroke-dashoffset: 0px; stroke: rgb(0, 112, 60);"></path>
				<path id="XMLID_834_" d="M86.713,28.278c0.303,3.576,1.274,6.904,2.986,10.061c0.13,0.239,0.917-0.044,0.821-0.221
					c-1.712-3.156-2.684-6.483-2.986-10.06C87.517,27.85,86.69,28.011,86.713,28.278L86.713,28.278z" style="stroke-dasharray: 249.763px; stroke-dashoffset: 0px; stroke: rgb(0, 112, 60);"></path>
				<path id="XMLID_837_" d="M113.687,34.921c-0.378,1.558-0.567,3.082-0.583,4.687
					c-0.018,1.841-0.025,1.21-1.142,1.498c-1.77,0.457-2.794,2.875-3.776,4.246c-0.228,0.317,0.601,0.271,0.77,0.036
					c0.779-1.088,1.914-3.451,3.343-3.692c0.431-0.073,0.565,0.185,0.972,0.006c0.64-0.28,0.619-0.763,0.688-1.398
					c0.202-1.887,0.096-3.589,0.554-5.475C114.59,34.502,113.76,34.62,113.687,34.921L113.687,34.921z" style="stroke-dasharray: 249.763px; stroke-dashoffset: 0px; stroke: rgb(0, 112, 60);"></path>
				<path id="XMLID_840_" d="M106.699,32.685c-2.604-0.222-2.768,3.646-2.627,5.505c0.136,1.786,1.718,3.267,3.29,1.821
					c-0.249-0.016-0.498-0.03-0.747-0.045c-0.342,1.203-0.881,2.055-1.818,2.886c-0.365,0.323,0.441,0.379,0.67,0.177
					c0.997-0.884,1.61-1.867,1.974-3.149c0.104-0.365-0.638-0.146-0.748-0.045c-1.907,1.753-1.747-3.479-1.741-3.542
					c0.074-0.677,0.298-3.188,1.442-3.09C106.743,33.231,107.254,32.732,106.699,32.685L106.699,32.685z" style="stroke-dasharray: 249.763px; stroke-dashoffset: 0px; stroke: rgb(0, 112, 60);"></path>
				<path id="XMLID_843_" d="M111.374,48.358c8.32,2.655,9.525,12.615,9.082,20.082
					c-0.439,7.395-1.329,14.638-1.241,22.069c0.005,0.407,0.833,0.268,0.829-0.073c-0.108-9.11,1.935-18.377,1.286-27.429
					c-0.457-6.376-2.931-13.086-9.474-15.175C111.528,47.729,110.889,48.203,111.374,48.358L111.374,48.358z" style="stroke-dasharray: 249.763px; stroke-dashoffset: 0px; stroke: rgb(0, 112, 60);"></path>
				<path id="XMLID_846_" d="M106.537,56.407c-1.283,5.961-1.089,11.618-0.674,17.668
					c0.427,6.227-0.795,12.729,0.668,18.854c0.806,3.374,2.748,7.758,6.562,8.523c2.995,0.602,6.09-1.05,8.625-2.377
					c0.34-0.179-0.478-0.085-0.625-0.008c-14.03,7.346-14.551-9.046-14.305-17.68c0.244-8.525-1.265-16.667,0.558-25.131
					C107.38,56.099,106.579,56.213,106.537,56.407L106.537,56.407z" style="stroke-dasharray: 249.763px; stroke-dashoffset: 0px; stroke: rgb(0, 112, 60);"></path>
				<path id="XMLID_849_" d="M105.889,74.754c-5.974,12.54-14.476,23.358-25.163,32.218
					c-0.429,0.355,0.235,0.593,0.536,0.344c10.789-8.943,19.378-19.827,25.407-32.486C106.863,74.423,106.035,74.445,105.889,74.754
					L105.889,74.754z" style="stroke-dasharray: 249.763px; stroke-dashoffset: 0px; stroke: rgb(0, 112, 60);"></path>
				<path id="XMLID_852_" d="M106.036,79.083c-1.58,6.865-7.255,13.766-11.147,19.542
					c-4.321,6.412-8.956,12.594-13.841,18.586c-0.211,0.26,0.603,0.188,0.759-0.004c5.261-6.453,10.23-13.129,14.831-20.069
					c3.623-5.465,8.724-11.681,10.216-18.17C106.917,78.696,106.096,78.823,106.036,79.083L106.036,79.083z" style="stroke-dasharray: 249.763px; stroke-dashoffset: 0px; stroke: rgb(0, 112, 60);"></path>
				<path id="XMLID_855_" d="M1.068,91.64c3.109,7.438,12.536,5.825,18.893,4.482
					c10.439-2.205,20.052-7.074,29.498-11.868c4.891-2.481,9.779-4.97,14.669-7.455c3.211-1.632,7.087-3.112,9.613-5.808
					c3.635-3.877,3.312-11.448-3.295-10.91c-0.431,0.035-0.659,0.568-0.094,0.522c4.235-0.345,5.176,2.856,4.724,5.765
					c-0.445,2.864-1.881,4.619-4.226,6.24c-2.668,1.846-5.808,3.146-8.695,4.613c-5.698,2.896-11.382,5.82-17.1,8.677
					c-5.931,2.964-11.949,5.812-18.266,7.863c-6.928,2.251-21.162,6.601-24.899-2.343C1.755,91.097,0.942,91.338,1.068,91.64
					L1.068,91.64z" style="stroke-dasharray: 249.763px; stroke-dashoffset: 0px; stroke: rgb(0, 112, 60);"></path>
				<path id="XMLID_858_" d="M2.276,100.718c16.505,7.522,35.477-4.689,50.258-11.168
					c7.935-3.477,18.982-6.288,24.677-13.313c4.39-5.414,3.979-14.854-4.172-16.025c-0.197-0.027-0.898,0.292-0.674,0.324
					c8.909,1.28,8.107,11.787,3.121,16.857c-5.497,5.588-14.604,8.172-21.663,11.265c-6.959,3.05-13.891,6.177-20.887,9.143
					c-9.543,4.045-19.937,7.17-29.888,2.635C2.829,100.335,2.178,100.673,2.276,100.718L2.276,100.718z" style="stroke-dasharray: 249.763px; stroke-dashoffset: 0px; stroke: rgb(0, 112, 60);"></path>
				<path id="XMLID_861_" d="M6.588,95.853c-1.521-12.68,14.227-18.017,23.294-22.84
					c6.737-3.585,13.606-6.83,21.106-8.458c7.629-1.656,18.52-3.296,23.208,4.597c0.116,0.195,0.883-0.116,0.821-0.22
					c-7.049-11.866-28.065-4.372-37.613-0.028c-7.769,3.534-15.637,7.652-22.881,12.159c-5.548,3.451-9.584,8.117-8.757,15.01
					C5.784,96.22,6.612,96.061,6.588,95.853L6.588,95.853z" style="stroke-dasharray: 249.763px; stroke-dashoffset: 0px; stroke: rgb(0, 112, 60);"></path>
				<path id="XMLID_864_" d="M32.082,113.051c9.897-3.683,19.638-7.766,29.171-12.312
					c6.849-3.267,14.779-6.315,18.853-13.12c0.094-0.157-0.681-0.102-0.816,0.124C74.81,95.227,64.972,98.634,57.4,102.145
					c-8.396,3.892-16.95,7.417-25.623,10.645C31.235,112.99,31.737,113.179,32.082,113.051L32.082,113.051z" style="stroke-dasharray: 249.763px; stroke-dashoffset: 0px; stroke: rgb(0, 112, 60);"></path>
				<path id="XMLID_867_" d="M27.813,124.431c7.228-0.65,12.945-3.437,19.516-6.149
					c0.519-0.214,0.061-0.673-0.367-0.496c-6.456,2.666-11.977,5.393-19.078,6.032C27.418,123.859,27.253,124.48,27.813,124.431
					L27.813,124.431z" style="stroke-dasharray: 249.763px; stroke-dashoffset: 0px; stroke: rgb(0, 112, 60);"></path>
				<path id="XMLID_870_" d="M80.355,113.436c-3.063,5.312-9.044,8.406-13.977,11.732
					c-0.353,0.238,0.468,0.18,0.639,0.063c5.025-3.388,11.029-6.51,14.152-11.926C81.254,113.16,80.483,113.214,80.355,113.436
					L80.355,113.436z" style="stroke-dasharray: 249.763px; stroke-dashoffset: 0px; stroke: rgb(0, 112, 60);"></path>
				<path id="XMLID_873_" d="M14.303,96.823c0.729,2.882,1.543,4.807,4.322,5.889c1.583,0.616,2.802-0.103,4.514,1.28
					c2.124,1.715,3.856,4.906,5.507,7.077c7.542,9.92,15.084,19.839,22.625,29.759c0.222,0.291,1.005-0.027,0.753-0.359
					c-6.946-9.137-13.893-18.272-20.839-27.409c-1.559-2.05-3.106-4.108-4.677-6.148c-1.025-1.332-2.306-3.833-3.796-4.58
					c-0.401-0.201-0.771-0.468-1.163-0.638c-0.627-0.27-2.031,0.098-3.003-0.286c-2.396-0.945-2.796-2.331-3.422-4.805
					C15.029,96.229,14.207,96.447,14.303,96.823L14.303,96.823z" style="stroke-dasharray: 249.763px; stroke-dashoffset: 0px; stroke: rgb(0, 112, 60);"></path>
				<path id="XMLID_876_" d="M34.438,91.274c1.217,3.156,2.156,3.316,4.844,4.383c2.777,1.102,4.227,5.998,5.562,8.735
					c5.134,10.521,10.144,21.101,15.046,31.73c0.109,0.238,0.909-0.029,0.821-0.22c-6.36-13.791-12.912-27.49-19.655-41.099
					c-0.101-0.202-0.519-0.037-0.655,0.025c-2.994,1.37-4.37-1.778-5.141-3.775C35.168,90.817,34.357,91.067,34.438,91.274
					L34.438,91.274z" style="stroke-dasharray: 249.763px; stroke-dashoffset: 0px; stroke: rgb(0, 112, 60);"></path>
				<path id="XMLID_879_" d="M52.244,82.79c1.669,3.234,0.663,6.27,2.14,9.536c1.804,3.992,3.534,8.005,5.118,12.091
					c3.396,8.757,6.278,17.7,9.162,26.635c0.088,0.274,0.906,0.044,0.821-0.22c-2.884-8.935-5.767-17.879-9.162-26.636
					c-1.55-3.998-3.86-8.005-5.118-12.09c-1.026-3.334-0.38-6.127-2.14-9.536C52.926,82.301,52.129,82.569,52.244,82.79L52.244,82.79z" style="stroke-dasharray: 249.763px; stroke-dashoffset: 0px; stroke: rgb(0, 112, 60);"></path>
				<path id="XMLID_884_" d="M68.149,74.901c0.935,3.157,0.797,4.03-0.348,7.686c-0.101,0.321-0.657,0.584-0.709,0.969
					c-0.493,3.625,1.516,8.054,2.365,11.553c2.407,9.912,5.604,19.962,6.538,30.144c0.033,0.362,0.857,0.167,0.822-0.22
					c-0.936-10.182-4.132-20.232-6.539-30.145c-0.585-2.411-1.601-5.057-1.826-7.523c-0.268-2.924-0.243-1.467,0.782-4.919
					c0.811-2.729,0.565-4.959-0.265-7.764C68.862,74.314,68.042,74.537,68.149,74.901L68.149,74.901z" style="stroke-dasharray: 249.763px; stroke-dashoffset: 0px; stroke: rgb(0, 112, 60);"></path>
				<path id="XMLID_889_" d="M222.079,102.563c-5.882-9.487-12.07-18.775-18.389-27.978
					c-3.069-4.47-6.153-8.929-9.26-13.373c-2.523-3.61-5.13-7.945-9.001-10.293c-5.841-3.544-12.982,1.425-17.947,4.524
					c-8.133,5.078-15.226,11.593-22.982,17.194c-6.411,4.63-13.839,7.969-19.729,13.298c-1.535,1.391-5.017,4.468-5.35,6.752
					c-0.459,3.155,3.377,8.473,5.191,10.713c11.018,13.6,30.943,18.127,47.519,16.919c11.531-0.841,23.118-2.749,34.233-5.971
					c4.135-1.198,17.877-5.578,15.748-11.719c-0.124-0.358-0.942-0.13-0.821,0.22c0.829,2.394-2.511,5.022-4.116,6.189
					c-2.009,1.46-4.314,2.468-6.624,3.34c-3.67,1.386-7.499,2.338-11.313,3.234c-8.882,2.088-17.928,3.467-27.027,4.13
					c-16.123,1.176-35.336-3.22-46.356-16.128c-2.206-2.584-4.922-6.21-5.273-9.659c-0.408-4.01,4.767-7.884,7.59-10.001
					c5.37-4.026,11.424-7.035,16.868-10.966c5.778-4.173,11.177-8.844,16.924-13.058c3.033-2.223,6.161-4.341,9.467-6.141
					c3.364-1.831,4.674-2.163,8.869-2.283c4.983-0.143,3.383-0.767,5.809,0.815c1.298,0.846,2.413,2.37,3.408,3.563
					c5.941,7.122,10.905,15.339,16.122,23.003c5.384,7.908,10.646,15.896,15.688,24.028
					C221.511,103.217,222.298,102.916,222.079,102.563z" style="stroke-dasharray: 249.763px; stroke-dashoffset: 0px; stroke: rgb(0, 112, 60);"></path>
				<path id="XMLID_892_" d="M106.159,89.709c-1.346,4.813-1.69,9.615-0.685,14.541c0.514,2.51,1.345,4.932,2.086,7.38
					c0.496,1.638,2.591,6.49,1.847,8.229c-0.867,2.026-6.009,1.059-8.204,1.662c-4.939,1.358-7.049,4.281-13.421,4.1
					c-3.296-0.094-6.194-1.227-8.429-3.625c-0.142-0.152-0.901,0.144-0.774,0.28c3.092,3.317,7.407,4.104,11.776,3.485
					c1.731-0.244,3.441-0.699,5.065-1.346c4.635-1.844,9.074-3.329,14.197-2.812c0.141,0.014,0.686-0.072,0.677-0.278
					c-0.205-5.202-2.072-9.851-3.402-14.816c-1.521-5.679-1.513-11.257,0.077-16.943C107.017,89.397,106.218,89.5,106.159,89.709
					L106.159,89.709z" style="stroke-dasharray: 249.763px; stroke-dashoffset: 0px; stroke: rgb(0, 112, 60);"></path>
				<path id="XMLID_896_" d="M106.142,121.769c-0.767,12.662-4.5,25-3.758,37.756c0.011,0.192,0.837,0.042,0.821-0.221
					c-0.742-12.75,2.991-25.099,3.758-37.756C106.973,121.382,106.158,121.494,106.142,121.769L106.142,121.769z" style="stroke-dasharray: 249.763px; stroke-dashoffset: 0px; stroke: rgb(0, 112, 60);"></path>
				<path id="XMLID_900_" d="M58.099,137.707c0.12,3.944,0.239,7.888,0.359,11.832c0.012,0.388,0.836,0.231,0.826-0.083
					c-0.119-3.944-0.239-7.889-0.358-11.833C58.913,137.235,58.089,137.392,58.099,137.707L58.099,137.707z" style="stroke-dasharray: 249.763px; stroke-dashoffset: 0px; stroke: rgb(0, 112, 60);"></path>
				<path id="XMLID_904_" d="M71.495,131.094c-1.05,7.703-1.81,15.429-2.281,23.188
					c-0.007,0.118,0.807,0.024,0.821-0.22c0.473-7.76,1.232-15.485,2.281-23.188C72.33,130.775,71.529,130.843,71.495,131.094
					L71.495,131.094z" style="stroke-dasharray: 249.763px; stroke-dashoffset: 0px; stroke: rgb(0, 112, 60);"></path>
				<path id="XMLID_907_" d="M59.003,148.918c1.59-6.232,5.941-11.705,11.654-14.659
					c0.265-0.137,0.538-0.272,0.744-0.486c0.289-0.3,0.414-0.715,0.593-1.091c0.835-1.755,2.846-2.629,4.76-2.967
					c3.36-0.592,6.798,0.016,10.2,0.278s7.041,0.117,9.893-1.756c0.982-0.645,1.833-1.473,2.804-2.135
					c1.906-1.301,4.268-1.922,6.567-1.729c0.116-1.015,0.232-2.029,0.35-3.045c-3.236,0.067-6.349,1.178-9.389,2.287
					c-3.04,1.11-5.996,2.056-9.23,2.177c-3.234,0.122-6.832-0.752-8.801-3.32c-5.345,6.059-10.772,9.052-14.137,11.285
					c-0.278,0.157-6,3.486-6.164,3.762c-0.186,0.31-0.084,0.815-0.067,1.176C58.941,142.157,58.841,145.457,59.003,148.918" style="stroke-dasharray: 249.763px; stroke-dashoffset: 0px; stroke: rgb(0, 112, 60);"></path>
				<path id="XMLID_910_" d="M106.97,56.435c-3.084,7.078-4.472,14.792-5.081,22.489
					c-0.099,1.247-0.169,2.549,0.319,3.7c1.087-2.015,2.175-4.028,3.262-6.042c0.245-0.453,0.492-0.913,0.607-1.415
					c0.106-0.465,0.096-0.947,0.086-1.424c-0.106-5.051-0.08-10.104,0.079-15.154" style="stroke-dasharray: 249.763px; stroke-dashoffset: 0px; stroke: rgb(0, 112, 60);"></path>
				<path id="XMLID_914_" d="M103.326,86.759c0.291,0,0.879-0.438,0.328-0.438
					C103.363,86.321,102.775,86.759,103.326,86.759L103.326,86.759z" style="stroke-dasharray: 249.763px; stroke-dashoffset: 0px; stroke: rgb(0, 112, 60);"></path>
				<path id="XMLID_917_" d="M103.523,86.468c0.401,2.231,1.063,4.415,1.971,6.492
					c1.442-3.816,0.375-8.072,0.589-12.147c-0.376,2.095-2.105,3.688-2.812,5.695" style="stroke-dasharray: 249.763px; stroke-dashoffset: 0px; stroke: rgb(0, 112, 60);"></path>
				<path id="XMLID_920_" d="M87.307,28.172c0.29,3.291,1.271,6.52,2.858,9.416c0.076,0.141,0.159,0.284,0.289,0.376
					c0.181,0.127,0.416,0.133,0.637,0.139c4.092,0.119,7.83,2.355,10.977,4.973c0.395,0.328,0.83,0.682,1.344,0.683
					s0.953-0.353,1.322-0.71c0.825-0.799,1.54-1.712,2.118-2.703c-0.833,0.1-1.619-0.524-1.969-1.287
					c-0.349-0.763-0.352-1.633-0.32-2.472c0.029-0.752,0.084-1.517,0.344-2.223c0.261-0.707,0.755-1.358,1.449-1.65
					c-2.795-1.032-5.678-1.828-8.606-2.379c-2.44-0.459-4.925-0.749-7.287-1.517c-1.062-0.344-2.14-0.79-3.25-0.682" style="stroke-dasharray: 249.763px; stroke-dashoffset: 0px; stroke: rgb(0, 112, 60);"></path>
				<path id="XMLID_923_" d="M14.988,96.36c-1.244-0.336-2.383-1.057-3.219-2.037c1.113-0.238,2.226-0.476,3.339-0.713
					c-0.732-1.424-1.237-2.964-1.489-4.545c1.418,0.646,2.691,1.609,3.701,2.796c-0.09-0.829-0.009-1.676,0.236-2.473
					c0.577,0.9,1.374,1.659,2.302,2.191c-0.058-0.915-0.257-1.821-0.589-2.677c1.079,0.362,2.158,0.724,3.237,1.086
					c-0.862-1.192-1.726-2.384-2.588-3.575c1.672-0.14,3.374,0.097,4.944,0.687c-0.143-1.39,0.453-2.834,1.533-3.72
					c0.538,1.064,1.076,2.128,1.614,3.192c0.063-1.034,0.127-2.067,0.189-3.102c0.694,0.447,1.388,0.895,2.082,1.343
					c-0.295-0.767-0.589-1.532-0.884-2.299c0.982-0.028,1.968,0.073,2.924,0.301c-1.06-1.288-2.119-2.575-3.178-3.862
					c1.161,0.077,2.306,0.399,3.336,0.94c-0.058-0.855-0.115-1.712-0.174-2.568c-0.037-0.555,0.04-1.279,0.579-1.415
					c0.429-0.108,0.817,0.261,1.105,0.596c0.714,0.827,1.427,1.654,2.14,2.48c0.124-1.033,0.535-2.031,1.176-2.853
					c0.531,0.683,0.918,1.477,1.127,2.316c0.2-0.912,0.4-1.825,0.602-2.737c0.634,1.063,1.604,1.919,2.737,2.416
					c-0.08-0.959-0.161-1.918-0.241-2.877c0.944,1.221,2.308,2.113,3.805,2.49c-0.012-0.82-0.182-1.637-0.499-2.393
					c0.156,0.833,0.462,1.639,0.897,2.365c0.12-1.074,0.24-2.148,0.359-3.223c0.268,0.948,0.534,1.897,0.802,2.847
					c0.075-1.12,0.395-2.223,0.931-3.209c0.438,0.627,0.877,1.254,1.316,1.881c0.44-1.341,0.678-2.747,0.702-4.158
					c0.356,0.641,0.834,1.214,1.397,1.682c-0.312-1.491-0.751-2.955-1.312-4.372c1.55-0.498,3.37-0.009,4.461,1.2
					c-0.423-0.758,0.104-1.899,0.97-1.958c0.866-0.058,1.513,1.188,0.896,1.799c0.585-0.668,1.232-1.281,1.932-1.829
					c0.314,0.604,0.629,1.209,0.943,1.813c0.176-1.22,0.779-2.375,1.682-3.215c0.271,0.78,0.541,1.561,0.812,2.342
					c0.507-1.121,1.371-2.076,2.435-2.693c0.36,0.965,0.512,2.008,0.44,3.035c0.581-0.77,1.334-1.409,2.188-1.857
					c0.145-0.075,0.312-0.148,0.469-0.099c0.251,0.08,0.309,0.404,0.322,0.668c0.045,0.845,0.09,1.69,0.134,2.536
					c0.86-0.613,1.72-1.226,2.579-1.838c-0.093,1.339-0.494,2.654-1.164,3.817c1.952-0.083,3.468-1.658,4.761-3.122
					c0.247-0.28,0.51-0.598,0.506-0.973c-0.003-0.314-0.196-0.593-0.393-0.84c-2.32-2.925-6.023-4.512-9.732-4.943
					s-7.459,0.18-11.105,0.986c-3.702,0.819-7.368,1.845-10.884,3.266c-1.971,0.797-3.891,1.716-5.808,2.635
					c-8.188,3.921-16.422,7.869-23.823,13.125c-1.872,1.329-3.74,2.801-4.83,4.821c-1.127,2.086-1.306,4.536-1.462,6.901
					c-0.025,0.382-0.042,0.796,0.175,1.11c0.225,0.326,0.638,0.454,1.022,0.55c2.402,0.592,4.924,0.698,7.368,0.311" style="stroke-dasharray: 249.763px; stroke-dashoffset: 0px; stroke: rgb(0, 112, 60);"></path>
				<path id="XMLID_930_" d="M3.771,101.61c2.413,1.847,4.826,3.693,7.239,5.54c1.048,0.802,2.107,1.61,3.311,2.152
					c2.024,0.911,4.324,1.007,6.537,0.823c6.532-0.539,12.64-3.326,18.593-6.072c2.624-1.209,5.247-2.419,7.871-3.629
					c2.788-1.286,5.578-2.573,8.296-4.004c3.54-1.863,6.989-3.985,10.816-5.149c2.377-0.723,4.925-1.089,7.006-2.446
					c1.898-1.238,3.209-3.178,4.467-5.064c0.422-0.632,0.849-1.274,1.087-1.995c0.232-0.706,0.275-1.459,0.315-2.201
					c0.169-3.073,0.338-6.146,0.507-9.219c-1.363,5.633-5.907,10.024-10.971,12.844c-5.063,2.819-10.718,4.357-16.147,6.384
					c-7.117,2.657-13.885,6.174-20.945,8.979c-7.06,2.807-14.564,4.917-22.153,4.56c-2.173-0.103-4.491-0.479-6.069-1.976" style="stroke-dasharray: 249.763px; stroke-dashoffset: 0px; stroke: rgb(0, 112, 60);"></path>
				<path id="XMLID_935_" d="M85.523,41.855c-3.239,1.621-5.686,4.588-7.126,7.912
					c-1.439,3.323-1.938,6.991-1.957,10.613c-2.819,0.868-5.911-0.992-8.763-0.236c0.341-1.992,1.755-3.599,2.979-5.206
					c1.078-1.416,2.048-2.915,2.896-4.479c0.683-1.257,1.294-2.566,2.172-3.695c2.284-2.939,6.046-4.278,9.668-5.138" style="stroke-dasharray: 249.763px; stroke-dashoffset: 0px; stroke: rgb(0, 112, 60);"></path>
				<path id="XMLID_940_" d="M82.816,64.579c-0.748,2.42-0.78,4.995-0.776,7.527c0.014,8.449,0.356,16.895,0.699,25.338
					c0.083,2.05,0.176,4.148,0.948,6.05c0.151,0.372,0.331,0.782,0.191,1.159c-0.14,0.375-0.54,0.57-0.893,0.76
					c-1.085,0.584-2.016,1.451-2.673,2.492c-1.116-5.151-1.165-10.467-1.209-15.738c-0.013-1.52-0.025-3.038-0.038-4.558
					c-0.012-1.375-0.023-2.75,0.001-4.124c0.102-5.711,0.827-11.416,2.268-16.943c0.198-0.758,0.584-1.663,1.366-1.711" style="stroke-dasharray: 249.763px; stroke-dashoffset: 0px; stroke: rgb(0, 112, 60);"></path>
				<path id="XMLID_948_" d="M155.444,119.889c2.347,3.57,2.367,7.198,7.646,6.533
					c5.962-0.752,12.262-4.58,17.779-6.828c0.521-0.212,0.062-0.671-0.367-0.497c-3.693,1.506-7.388,3.011-11.081,4.516
					c-3.617,1.474-9.291,3.486-11.572-0.56c-0.667-1.184-0.899-2.38-1.654-3.529C155.986,119.207,155.205,119.525,155.444,119.889
					L155.444,119.889z" style="stroke-dasharray: 249.763px; stroke-dashoffset: 0px; stroke: rgb(0, 112, 60);"></path>
				<path id="XMLID_956_" d="M163.411,126.29c0.575,4.996,2.834,8.548,8.171,6.866
					c7.679-2.421,10.278-11.671,17.626-14.777c0.53-0.225,0.04-0.429-0.31-0.28c-3.054,1.291-5.296,3.26-7.47,5.741
					c-1.378,1.572-2.616,3.27-4.068,4.777c-2.817,2.927-10.254,6.646-12.508,0.904c-0.42-1.069-0.491-2.329-0.62-3.451
					C164.206,125.841,163.379,126.015,163.411,126.29L163.411,126.29z" style="stroke-dasharray: 249.763px; stroke-dashoffset: 0px; stroke: rgb(0, 112, 60);"></path>
				<path id="XMLID_964_" d="M156.734,122.508c-2.491,10.248-2.087,20.546,1.219,30.573
					c0.078,0.239,0.854,0.031,0.821-0.22c-1.204-9.264-1.413-18.519,2.272-27.275c0.086-0.206-0.715-0.12-0.816,0.122
					c-1.811,4.302-2.789,8.721-3.049,13.383c-0.099,1.76-0.096,3.523-0.032,5.284c0.068,1.927,1.052,5.166,0.579,6.979
					c0.763-2.925-1.57-9.054-1.781-12.755c-0.314-5.493,0.309-10.885,1.604-16.214C157.611,122.138,156.795,122.262,156.734,122.508
					L156.734,122.508z" style="stroke-dasharray: 249.763px; stroke-dashoffset: 0px; stroke: rgb(0, 112, 60);"></path>
				<path id="XMLID_968_" d="M156.852,122.132c-5.548,2.641-6.818,8.284-7.901,13.882
					c-0.81,4.186-1.451,8.405-1.934,12.642c-0.116,1.024-0.658,9.004-0.217,8.812c0.763-0.332-2.184-1.976-3.021-2.072
					c-3.604-0.416-7.845,2.313-11.402,2.559c-2.555,0.178-9.087-1.896-9.531,2.279c-0.025,0.246,0.791,0.087,0.814-0.131
					c0.265-2.494,9.866-1.84,11.938-2.23c4.154-0.785,8.44-3.266,11.467,1.052c0.108,0.154,0.863-0.06,0.796-0.257
					c-1.935-5.624,0.269-13.399,1.252-19.188c1.056-6.214,1.762-14.118,8.225-17.194C157.828,122.05,157.071,122.028,156.852,122.132
					L156.852,122.132z" style="stroke-dasharray: 249.763px; stroke-dashoffset: 0px; stroke: rgb(0, 112, 60);"></path>
				<path id="XMLID_975_" d="M123.897,159.516c1.6-2.146,3.809,5.446,3.903,5.823c0.499,1.992,0.824,4.028,0.972,6.076
					c0.135,1.867,0.837,6.225-0.279,7.634c0.082,1.313-0.633,1.635-2.145,0.965c-0.356-1.026-0.644-2.073-0.859-3.138
					c-0.055-0.229-0.879-0.021-0.821,0.22c0.387,1.622,0.845,3.101,1.445,4.657c0.032,0.085,0.166,0.093,0.241,0.087
					c5.351-0.43,3.354-11.13,2.747-14.462c-0.281-1.545-2.582-12.366-5.958-7.838C122.955,159.793,123.76,159.699,123.897,159.516
					L123.897,159.516z" style="stroke-dasharray: 249.763px; stroke-dashoffset: 0px; stroke: rgb(0, 112, 60);"></path>
				<path id="XMLID_982_" d="M126.266,181.13c8.814,0.792,16.546-3.435,25.283-3.088
					c3.396,0.135,7.898,1.081,8.837-3.275c0.047-0.219-0.765-0.091-0.813,0.133c-0.366,1.7-5.918,2.661-7.499,2.776
					c-0.599,0.044-1.278-0.055-1.878-0.056c-1.842-0.004-3.676,0.113-5.488,0.445c-6.165,1.129-11.449,3.279-17.918,2.699
					C126.591,180.747,125.844,181.093,126.266,181.13L126.266,181.13z" style="stroke-dasharray: 249.763px; stroke-dashoffset: 0px; stroke: rgb(0, 112, 60);"></path>
				<path id="XMLID_990_" d="M127.167,166.321c-1.516-3.402-4.028-8.408-8.285-8.801
					c-3.044-0.28-3.569,2.017-4.511,4.507c-0.512,1.357-2.333,4.169-1.355,5.497c0.617,0.84,2.083,0.851,2.989,0.658
					c3.101-0.657,3.79-4.031,4.105-6.727c0.01-0.081-0.794-0.017-0.821,0.221c-0.154,1.313-0.199,3.008-0.979,4.15
					c-0.341,0.876-1.059,1.289-2.153,1.238c-1.5,1.182-2.348,0.835-2.545-1.038c-0.042-0.875,0.903-2.391,1.22-3.229
					c0.376-0.996,0.64-2.342,1.219-3.229c3.67-5.618,9.047,4.17,10.295,6.972C126.427,166.726,127.224,166.449,127.167,166.321
					L127.167,166.321z" style="stroke-dasharray: 249.763px; stroke-dashoffset: 0px; stroke: rgb(0, 112, 60);"></path>
				<path id="XMLID_996_" d="M113.99,164.166c-1.725-0.502-3.959-1.919-5.267-0.188
					c-1.467,1.943-2.153,6.49,0.803,7.395c3.383,1.036,13.421-2.331,10.059-7.136c-0.136-0.194-0.933,0.069-0.768,0.305
					c2.98,4.26-6.798,8.61-9.669,5.891c-1.21-1.146-0.873-3.153-0.455-4.579c0.752-2.567,2.649-1.9,4.635-1.322
					C113.551,164.596,114.287,164.252,113.99,164.166L113.99,164.166z" style="stroke-dasharray: 249.763px; stroke-dashoffset: 0px; stroke: rgb(0, 112, 60);"></path>
				<path id="XMLID_1000_" d="M109.78,171.341c-0.417,3.788,4.255,3.232,6.479,2.307
					c2.516-1.047,6.821-3.934,4.503-7.095c-0.155-0.212-0.949,0.062-0.764,0.314c3.843,5.241-10.02,9.989-9.399,4.364
					C110.634,170.923,109.81,171.077,109.78,171.341L109.78,171.341z" style="stroke-dasharray: 249.763px; stroke-dashoffset: 0px; stroke: rgb(0, 112, 60);"></path>
				<path id="XMLID_1004_" d="M112.437,174.535c0.954,3.208,4.864,1.947,6.926,0.76
					c1.686-0.972,5.723-5.216,2.277-6.563c-0.197-0.077-0.94,0.233-0.669,0.34c2.203,0.861,0.623,3.821-0.416,4.849
					c-1.81,1.79-6.328,3.651-7.297,0.394C113.194,174.101,112.375,174.327,112.437,174.535L112.437,174.535z" style="stroke-dasharray: 249.763px; stroke-dashoffset: 0px; stroke: rgb(0, 112, 60);"></path>
				<path id="XMLID_1008_" d="M115.396,176.563c1.521,3.091,5.619,1.393,7.517-0.336
					c1.235-1.126,2.237-2.766,2.074-4.496c-0.129-1.364-1.012-1.915-2.238-1.6c-0.477,0.122-0.418,0.369,0.065,0.245
					c1.206-0.311,1.396,1.565,1.321,2.312c-0.085,0.839-0.373,1.593-0.833,2.3c-1.427,2.192-5.532,4.51-7.085,1.354
					C116.121,176.147,115.333,176.435,115.396,176.563L115.396,176.563z" style="stroke-dasharray: 249.763px; stroke-dashoffset: 0px; stroke: rgb(0, 112, 60);"></path>
				<path id="XMLID_1012_" d="M126.281,166.019c0.473,2.532,1.55,10.145-3.077,9.678
					c-0.408-0.041-0.835,0.55-0.281,0.605c5.507,0.557,4.859-6.862,4.18-10.503C127.03,165.413,126.207,165.623,126.281,166.019
					L126.281,166.019z" style="stroke-dasharray: 249.763px; stroke-dashoffset: 0px; stroke: rgb(0, 112, 60);"></path>
				<path id="XMLID_1015_" d="M123.311,160.426c0.15-0.358,0.309-0.728,0.591-0.995
					c0.282-0.267,0.726-0.405,1.069-0.223c0.256,0.137,1.301,0.501,1.428,0.764c1.74,3.599,2.072,7.355,2.748,11.296
					c0.466,2.716,0.653,5.585-0.33,8.158c-0.153,0.4-0.342,0.802-0.657,1.092c-0.314,0.29-0.783,0.449-1.184,0.296
					c-0.504-0.193-1.053-0.694-1.211-1.21c-0.282-0.919-0.898-2.607-1.168-3.529c-0.055-0.186,0.485-0.275,0.512-0.467
					c0.038-0.279,0.313,0.084,0.494-0.133c1.112-1.332,1.757-3.048,1.798-4.782c0.049-2.115-0.762-4.144-1.559-6.103
					c-0.355-0.874-0.715-1.756-1.256-2.529c-0.268-0.383-0.58-0.74-0.773-1.165c-0.194-0.426-0.251-0.95-0.001-1.345" style="stroke-dasharray: 249.763px; stroke-dashoffset: 0px; stroke: rgb(0, 112, 60);"></path>
				<path id="XMLID_1019_" d="M123.077,93.068c6.811,16.223,29.651,22.144,45.428,22.292
					c17.421,0.164,39.345-3.354,50.965-17.617c0.323-0.397-0.459-0.488-0.681-0.217c-11.658,14.311-34.393,17.818-51.902,17.231
					c-15.024-0.504-36.533-6.534-42.988-21.909C123.753,92.502,122.939,92.739,123.077,93.068L123.077,93.068z" style="stroke-dasharray: 249.763px; stroke-dashoffset: 0px; stroke: rgb(0, 112, 60);"></path>
				<path id="XMLID_1023_" d="M125.001,89.03c1.389,4.242,3.995,7.813,7.619,10.426
					c0.208,0.149,0.942-0.175,0.768-0.301c-3.595-2.591-6.187-6.131-7.565-10.346C125.744,88.571,124.928,88.805,125.001,89.03
					L125.001,89.03z" style="stroke-dasharray: 249.763px; stroke-dashoffset: 0px; stroke: rgb(0, 112, 60);"></path>
				<path id="XMLID_1027_" d="M114.779,162.196c-0.725-2.406-1.538-5.412,0.641-7.332
					c1.657-1.461,4.245-2.236,6.238-3.161c-0.198-0.067-0.397-0.136-0.596-0.204c-0.216,3.152-2.591,3.875-4.583,5.766
					c-1.368,1.297-2.204,2.929-2.653,4.743c-0.097,0.39,0.743,0.291,0.831-0.065c0.37-1.491,0.99-2.818,2.038-3.967
					c0.932-1.021,2.141-1.538,3.18-2.4c1.278-1.061,1.907-2.51,2.019-4.142c0.021-0.309-0.41-0.291-0.597-0.204
					c-2.249,1.043-5.627,1.94-7.184,4.025c-1.58,2.117-0.847,4.863-0.156,7.161C114.068,162.787,114.89,162.564,114.779,162.196
					L114.779,162.196z" style="stroke-dasharray: 249.763px; stroke-dashoffset: 0px; stroke: rgb(0, 112, 60);"></path>
				<path id="XMLID_1031_" d="M114.561,162.165c-1.132-1.907-2.584-3.96-5.075-3.673
					c-2.59,0.298-4.044,2.855-6.445,3.568c-0.007,0.003-0.513,0.199-0.351,0.274c1.62,0.746,3.307,1.198,5.1,1.217
					c2.191,0.022,4.068-0.875,6.21-1.133c0.219-0.026,0.887-0.404,0.353-0.34c-1.849,0.223-3.564,1.02-5.434,1.117
					c-1.144,0.06-2.354-0.078-3.46-0.382c-0.601-0.155-1.175-0.38-1.723-0.674c0.069-0.019,0.138-0.043,0.202-0.074
					c0.059-0.213,2.503-1.65,2.857-1.919c3.281-2.497,5.258-0.603,6.944,2.237C113.861,162.592,114.632,162.285,114.561,162.165
					L114.561,162.165z" style="stroke-dasharray: 249.763px; stroke-dashoffset: 0px; stroke: rgb(0, 112, 60);"></path>
				<path id="XMLID_1035_" d="M113.8,160.521c-0.816-1.987-1.983-4.105-2.358-6.224
					c-0.535-3.023,1.105-5.495,2.734-7.869c-0.264,0.036-0.527,0.072-0.791,0.108c1.1,3.593,0.461,7.151-1.837,10.126
					c-0.213,0.275,0.604,0.206,0.761,0.004c2.346-3.035,3.021-6.68,1.897-10.35c-0.083-0.272-0.688-0.041-0.791,0.108
					c-1.341,1.953-2.817,4.082-2.925,6.539c-0.117,2.656,1.504,5.383,2.488,7.776C113.089,161.012,113.898,160.762,113.8,160.521
					L113.8,160.521z" style="stroke-dasharray: 249.763px; stroke-dashoffset: 0px; stroke: rgb(0, 112, 60);"></path>
				<path id="XMLID_1039_" d="M112.079,156.527c-2.159-2.291-5.078-3.423-8.215-3.227
					c-0.208,0.013-0.58,0.218-0.415,0.472c0.865,1.332,1.604,2.889,3.195,3.441c1.552,0.539,3.286,0.418,4.848,0.013
					c0.506-0.132,0.36-0.68-0.146-0.548c-1.467,0.382-3.463,0.557-4.842-0.277c-1.043-0.631-1.665-2.008-2.302-2.986
					c-0.138,0.157-0.276,0.314-0.415,0.472c2.883-0.18,5.561,0.899,7.539,2.998C111.574,157.148,112.354,156.819,112.079,156.527
					L112.079,156.527z" style="stroke-dasharray: 249.763px; stroke-dashoffset: 0px; stroke: rgb(0, 112, 60);"></path>
				<path id="XMLID_1043_" d="M112.088,156.077c-0.976-2.025-1.803-3.969-2.034-6.224
					c-0.197-1.922-0.857-3.225-2.252-4.546c-0.133-0.126-0.776,0.058-0.798,0.249c-0.246,2.22-1.145,3.868,0.042,5.99
					c0.951,1.702,2.53,3.06,3.864,4.445c0.142,0.146,0.895-0.153,0.775-0.277c-1.439-1.494-3.293-3.024-4.115-4.973
					c-0.779-1.842,0.049-3.546,0.255-5.405c-0.266,0.082-0.532,0.165-0.798,0.248c1.743,1.651,1.975,3.003,2.28,5.24
					c0.267,1.948,1.114,3.719,1.959,5.472C111.36,156.491,112.15,156.206,112.088,156.077L112.088,156.077z" style="stroke-dasharray: 249.763px; stroke-dashoffset: 0px; stroke: rgb(0, 112, 60);"></path>
				<path id="XMLID_1046_" d="M110.128,163.206" style="stroke-dasharray: 249.763px; stroke-dashoffset: 0px; stroke: rgb(0, 112, 60);"></path>
				<path id="XMLID_1049_" d="M113.59,164.155c-0.662-0.136-1.325-0.271-1.988-0.406
					c-0.108-0.022-0.245-0.08-0.233-0.19c0.006-0.056-0.938-0.385-0.896-0.42c0.367-0.31,1.885-0.457,2.326-0.649
					c0.292-0.128,0.874-0.256,1.192-0.226c0.065,0.006,0.269,0.231,0.296,0.292c0.021,0.046-0.142,0.603-0.157,0.65
					C113.988,163.638,113.852,163.784,113.59,164.155" style="stroke-dasharray: 249.763px; stroke-dashoffset: 0px; stroke: rgb(0, 112, 60);"></path>
				<path id="XMLID_1053_" d="M189.234,118.318c4.991,0.183,8.682,3.992,11.805,7.493
					c0.135,0.151,0.898-0.139,0.773-0.279c-3.212-3.601-6.937-7.361-12.045-7.549C189.592,117.978,188.835,118.304,189.234,118.318
					L189.234,118.318z" style="stroke-dasharray: 249.763px; stroke-dashoffset: 0px; stroke: rgb(0, 112, 60);"></path>
				<path id="XMLID_1059_" d="M214.781,129.457c-2.939-3.617-8.653-4.365-13.078-4.034
					c-4.624,0.348-7.727,3.417-10.978,6.434c-4.589,4.259-9.642,8.76-11.649,14.88c-2.061,6.279-1.202,13.117-0.055,19.475
					c0.051,0.279,0.817,0.091,0.822-0.159c0.146-8.232,2.732-16.164,7.727-22.752c6.527-8.612,20.64-17.101,29.052-6.271
					c0.151,0.194,0.878,0.01,0.792-0.272c-0.808-2.632-1.761-5.162-2.89-7.671c-0.132-0.291-0.938-0.038-0.821,0.22
					c0.335,0.746,2.306,6.48,2.842,6.318c0.023-0.007-3.444-3.166-4.216-3.457c-3.15-1.188-7.67-0.821-10.875-0.021
					c-8.034,2.002-14.716,9.921-18.296,16.977c-2.092,4.124-3.457,8.602-3.937,13.205c-0.056,0.531,0.138,3.162,0.33,2.052
					c0.206-1.182-0.557-3.701-0.671-4.92c-0.302-3.228-0.334-6.521,0.246-9.723c1.263-6.979,5.983-11.775,10.926-16.48
					c3.904-3.718,7.592-7.528,13.719-7.328c3.694,0.121,7.817,0.863,10.248,3.854C214.202,130.007,214.992,129.717,214.781,129.457
					L214.781,129.457z" style="stroke-dasharray: 249.763px; stroke-dashoffset: 0px; stroke: rgb(0, 112, 60);"></path>
				<path id="XMLID_1064_" d="M214.161,129.115c6.334,3.934,13.824,5.619,21.247,6.313
					c7.424,0.693,14.902,0.458,22.346,0.882c6.291,0.357,12.824,1.151,18.717-1.078c1.467-0.556,2.996-1.439,3.464-2.937
					c0.415-1.327-0.155-2.81-1.109-3.821c-0.955-1.013-2.239-1.64-3.513-2.201c-13.689-6.032-29.045-6.73-43.993-7.325
					c-3.659-0.146-7.319-0.29-10.979-0.436c-4.951-0.195-9.986-0.383-14.783,0.86c-1.158,0.3-2.458,0.844-2.775,1.998
					c-0.457,1.662,1.406,2.961,2.975,3.68c2.946,1.349,5.894,2.697,8.841,4.047" style="stroke-dasharray: 249.763px; stroke-dashoffset: 0px; stroke: rgb(0, 112, 60);"></path>
				<path id="XMLID_1068_" d="M216.464,136.423c4.933,4.602,13.503,3.931,19.729,4.49
					c9.239,0.83,18.501,1.513,27.78,1.582c5.213,0.039,11.816,0.53,15.938-3.386c3.81-3.62,4.968-7.712,1.391-11.617
					c-4.622-5.046-12.206-4.97-18.561-5.916c-9.028-1.343-18.099-2.413-27.192-3.201c-8.056-0.698-16.236-1.508-24.33-1.271
					c-4.045,0.117-12.245-0.087-14.271,4.403c-0.174,0.383,0.648,0.313,0.771,0.041c1.623-3.596,8.335-3.686,11.671-3.876
					c3.138-0.179,6.292-0.062,9.429,0.088c5.805,0.276,11.604,0.692,17.393,1.208c12.435,1.107,25.804,1.844,37.89,5.064
					c6.616,1.763,11.035,7.848,5.933,13.916c-4.991,5.935-16.737,4.126-23.696,3.841c-5.961-0.245-11.911-0.688-17.854-1.207
					c-6.496-0.566-16.271,0.161-21.259-4.493C216.995,135.876,216.219,136.194,216.464,136.423L216.464,136.423z" style="stroke-dasharray: 249.763px; stroke-dashoffset: 0px; stroke: rgb(0, 112, 60);"></path>
				<path id="XMLID_1072_" d="M178.82,165.507c-1.008,4.845-2.033,10.082-5.396,13.929
					c-3.964,4.531-10.297,3.167-15.585,3.445c-2.31,0.121-4.527,0.804-6.632,1.724c-2.1,0.918-3.867,2.296-5.867,3.363
					c-1.436,0.768-2.07,1.84-1.54-0.268c0.043-0.171-0.261-0.157-0.346-0.145c-3.903,0.578-7.803,1.222-11.715,1.731
					c-3.078,0.401-6.052,0.669-9.143,0.42c-0.769-0.062-2.457-0.49-3.348-0.34c-2.873,0.485-5.334,4.481-5.394,7.248
					c-0.046,2.105,1.881,3.483,3.27,4.898c2.615,2.665,5.396,5.759,8.582,7.737c1.497,0.929,2.813,1.28,4.549,1.382
					c4.567,0.269,8.833-0.399,13.427,0.552c5.813,1.202,11.561,3.062,17.566,2.466c7.395-0.733,14.725-3.915,21.767-6.143
					c4.059-1.283,9.54-1.835,11.783-5.921c3.431-6.248,4.9-13.962,7.639-20.579c1.826-4.411,3.87-8.743,6.321-12.846
					c2.058-3.443,4.875-6.455,6.8-9.955c3.458-6.288,1.839-15.172,1.741-22.036c-0.003-0.217-0.825-0.071-0.821,0.22
					c0.123,8.708,1.507,17.235-3.662,24.739c-3.598,5.223-6.882,10.305-9.514,16.098c-3.057,6.727-5.4,13.733-7.855,20.693
					c-1.041,2.949-1.461,4.978-4.885,6.787c-1.8,0.952-4.709,1.513-6.721,2.149c-3.999,1.265-7.998,2.534-11.999,3.796
					c-5.329,1.681-10.457,3.147-16.146,2.498c-3.338-0.381-6.59-1.286-9.86-2.014c-2.738-0.609-5.503-1.195-8.315-1.311
					c-1.203-0.049-2.218,0.074-3.417,0.067c-5.604-0.031-6.871-0.08-10.519-3.285c-2.291-2.014-6.772-5.176-8.098-7.932
					c-0.923-1.919-0.371-4.499,0.9-6.116c3.355-4.269,2.975-2.229,5.828-2.363c3.171-0.149,6.222-0.086,9.397-0.507
					c1.936-0.257,3.865-0.567,5.796-0.854c1.666-0.247,5.747-1.713,5.006,1.232c-0.078,0.31,0.647,0.052,0.733-0.009
					c2.251-1.608,4.539-3.332,7.047-4.531c4.561-2.184,8.734-1.939,13.564-1.6c2.079,0.147,4.02-0.11,5.92-1.005
					c6.719-3.16,8.583-10.923,9.958-17.536C179.693,165.12,178.873,165.253,178.82,165.507L178.82,165.507z" style="stroke-dasharray: 249.763px; stroke-dashoffset: 0px; stroke: rgb(0, 112, 60);"></path>
				<path id="XMLID_1076_" d="M116.041,191.527c-4.376-1.525-11.337-4.761-16.061-2.813
					c-2.58,1.065-5.168,3.821-7.29,5.575c-1.969,1.629-4.766,3.346-6.115,5.47c-0.044,0.069-0.028,0.14,0.01,0.204
					c1.373,2.331,4.825,0.205,6.383-0.697c1.331-0.771,3.123-1.36,3.518-3.013c0.506-2.114-0.671,0.158-0.883,1.024
					c-0.192,0.787-0.086,2.246,0.053,2.985c0.859,4.583,4.282,5.562,8.407,5.181c4.954-0.456,10.967,0.944,15.34-1.943
					c0.464-0.306-0.225-0.522-0.53-0.32c-3.773,2.491-8.048,0.918-12.172,1.335c-3.577,0.362-8.504,0.721-10.033-3.759
					c-0.708-2.074-0.154-4.387,0.295-6.452c0.084-0.388-0.729-0.209-0.828,0.08c-0.331,0.96-0.734,2.526-1.454,3.209
					c-0.948,0.898-4.951,1.62-5.699,0.626c-0.125-0.167,7.13-5.949,7.916-6.568c5.826-4.58,12.354-1.813,18.659,0.386
					C115.868,192.146,116.52,191.694,116.041,191.527L116.041,191.527z" style="stroke-dasharray: 249.763px; stroke-dashoffset: 0px; stroke: rgb(0, 112, 60);"></path>
				<path id="XMLID_1080_" d="M101.662,189.013c-0.256,3.67-0.424,7.309,0.951,10.795
					c0.073,0.187,0.879-0.073,0.821-0.221c-1.375-3.485-1.207-7.125-0.95-10.794C102.491,188.688,101.68,188.774,101.662,189.013
					L101.662,189.013z" style="stroke-dasharray: 249.763px; stroke-dashoffset: 0px; stroke: rgb(0, 112, 60);"></path>
				<path id="XMLID_1084_" d="M216.968,147.776c-0.048,11.02,0.586,22.442,3.251,33.176
					c2.629,10.587,8.891,19.855,11.769,30.392c1.353,4.954-1.87,5.902-6.354,7.119c-3.421,0.929-6.976,1.386-10.509,1.576
					c-5.631,0.303-11.275-0.096-16.88-0.638c-6.117-0.591-11.136-1.744-16.394-4.993c-3.189-1.972-6.093-3.679-9.922-3.746
					c-0.196-0.004-0.938,0.359-0.524,0.366c6.063,0.106,10.263,4.85,15.694,6.844c5.401,1.983,11.722,2.105,17.395,2.44
					c10.038,0.592,20.045-0.084,29.155-4.648c0.059-0.029,0.187-0.097,0.169-0.184c-2.316-11.405-8.676-21.062-12.033-32.063
					c-3.478-11.392-4.048-24.026-3.996-35.862C217.79,147.391,216.969,147.516,216.968,147.776L216.968,147.776z" style="stroke-dasharray: 249.763px; stroke-dashoffset: 0px; stroke: rgb(0, 112, 60);"></path>
				<path id="XMLID_1088_" d="M229.072,202.522c6.326,1.771,14.9,3.868,21.411,1.985
					c5.296-1.532,6.464-6.808,8.055-11.438c2.91-8.471,6.995-16.477,9.883-24.977c3.132-9.219,6.159-18.474,9.234-27.711
					c0.104-0.315-0.725-0.214-0.825,0.089c-4.632,13.912-8.715,28.188-14.571,41.646c-2.376,5.459-3.995,11.512-6.583,16.831
					c-4.258,8.752-18.58,5.197-26.111,3.089C229.27,201.955,228.596,202.39,229.072,202.522L229.072,202.522z" style="stroke-dasharray: 249.763px; stroke-dashoffset: 0px; stroke: rgb(0, 112, 60);"></path>
				<path id="XMLID_1092_" d="M267.139,135.665c1.403,1.936,2.682,4.753,0.869,6.707
					c-0.146,0.158-0.635-0.086-0.818,0.079c-0.717,0.647-0.819,0.696-1.293,1.565c-2.982,5.49-4.366,12.638-6.533,18.528
					c-5.176,14.063-10.746,27.979-16.312,41.892c-0.16,0.4,0.659,0.335,0.773,0.049c5.705-14.261,11.411-28.523,16.7-42.945
					c1.349-3.676,2.669-7.36,3.955-11.058c0.714-2.05,1.167-4.362,2.512-6.111c0.455-0.592,1.49-1.261,1.728-1.592
					c1.76-2.44,0.979-4.966-0.823-7.453C267.711,135.07,266.92,135.363,267.139,135.665L267.139,135.665z" style="stroke-dasharray: 249.763px; stroke-dashoffset: 0px; stroke: rgb(0, 112, 60);"></path>
				<path id="XMLID_1096_" d="M249.089,135.573c2.297,4.08-1.835,11.009-2.679,15.335
					c-1.154,5.922-1.959,11.906-3.009,17.847c-0.994,5.627-2.171,11.23-3.94,16.67c-1.953,6-4.548,11.684-5.428,17.982
					c-0.035,0.249,0.782,0.1,0.814-0.129c0.879-6.296,3.475-11.982,5.428-17.981c1.958-6.015,3.186-12.227,4.248-18.453
					c1.002-5.865,1.767-11.79,3.006-17.612c0.905-4.256,4.729-9.709,2.381-13.878C249.78,135.122,248.998,135.412,249.089,135.573
					L249.089,135.573z" style="stroke-dasharray: 249.763px; stroke-dashoffset: 0px; stroke: rgb(0, 112, 60);"></path>
				<path id="XMLID_1100_" d="M230.651,134.69c-0.231,1.479-1.06,4.063-0.426,5.588c0.27,0.646,0.943,0.492,1.067,0.706
					c2.188,3.792,0.113,10.757-0.52,15.129c-1.777,12.274-3.988,24.478-6.564,36.608c-0.04,0.186,0.767,0.063,0.811-0.144
					c1.916-9.021,3.636-18.078,5.115-27.181c1.257-7.731,3.818-17.1,2.686-24.914c-0.019-0.128-0.399-0.031-0.446-0.021
					c-2.579,0.615-1.024-5.196-0.912-5.915C231.493,134.35,230.683,134.489,230.651,134.69L230.651,134.69z" style="stroke-dasharray: 249.763px; stroke-dashoffset: 0px; stroke: rgb(0, 112, 60);"></path>
				<path id="XMLID_1104_" d="M205.002,123.186c-1.853-0.72-3.795-0.676-5.653-0.005
					c-0.546,0.197-0.036,0.348,0.296,0.228c1.561-0.563,3.156-0.478,4.688,0.117C204.53,123.602,205.273,123.291,205.002,123.186
					L205.002,123.186z" style="stroke-dasharray: 249.763px; stroke-dashoffset: 0px; stroke: rgb(0, 112, 60);"></path>
				<path id="XMLID_1108_" d="M208.772,119.214c-1.491-0.965-3.165-1.465-4.94-1.495
					c-0.335-0.005-0.863,0.494-0.309,0.504c1.668,0.028,3.201,0.505,4.602,1.411C208.371,119.793,209.122,119.44,208.772,119.214
					L208.772,119.214z" style="stroke-dasharray: 249.763px; stroke-dashoffset: 0px; stroke: rgb(0, 112, 60);"></path>
				<path id="XMLID_1112_" d="M274.222,127.172c2.976-0.811,6.021,0.48,7.679,3.032c0.166,0.255,0.961-0.025,0.76-0.334
					c-1.853-2.85-5.317-4.043-8.562-3.158C273.604,126.847,273.723,127.309,274.222,127.172L274.222,127.172z" style="stroke-dasharray: 249.763px; stroke-dashoffset: 0px; stroke: rgb(0, 112, 60);"></path>
				<path id="XMLID_1115_" d="M225.031,192.4c-2.225-4.572-3.038-9.724-3.115-14.808
					c-0.078-5.084,0.551-10.148,1.077-15.206c0.389-3.738,0.726-7.508,1.767-11.119s2.849-7.103,5.725-9.521
					c0.359-0.302,0.757-0.841,0.418-1.165c-0.105-0.103-0.257-0.139-0.4-0.172c-0.604-0.137-1.208-0.273-1.812-0.41
					c-0.194-1.608-0.389-3.216-0.583-4.824c-0.064-0.538-0.138-1.099-0.438-1.549c-0.425-0.636-1.211-0.919-1.958-1.079
					c-1.547-0.333-3.146-0.313-4.709-0.554c-1.563-0.24-3.168-0.796-4.182-2.01c-0.57-0.683-1.118-1.646-2.005-1.58
					c0.159,1.544,0.767,3,1.23,4.481c1.805,5.764,1.44,11.943,1.39,17.982c-0.114,13.903,1.604,28.043,7.224,40.76" style="stroke-dasharray: 249.763px; stroke-dashoffset: 0px; stroke: rgb(0, 112, 60);"></path>
				<path id="XMLID_1118_" d="M216.898,127.309c-2.025-1.006-3.742-2.62-4.871-4.579
					c2.993,0.295,5.92,1.245,8.516,2.766c-0.316-1.546-0.632-3.093-0.947-4.639c2.75,0.609,4.891,2.703,6.871,4.707
					c0.062-1.333,0.122-2.665,0.184-3.998c0.896,1.934,1.964,3.789,3.186,5.536c0.066-1.465,0.289-2.922,0.661-4.34
					c1.004,1.531,2.009,3.063,3.014,4.594c0.374,0.571,1.06,1.219,1.628,0.839c0.22-0.146,0.327-0.409,0.423-0.655
					c0.429-1.104,0.857-2.208,1.285-3.312c0.329,1.615,0.979,3.165,1.901,4.532c0.615-1.683,1.641-3.212,2.963-4.421
					c0.336,1.73,0.813,3.435,1.422,5.09c0.85-2.605,3.326-4.599,6.053-4.871c-0.455,1.899-0.659,3.859-0.606,5.812
					c0.947-1.256,2.092-2.362,3.379-3.266c0.375-0.264,0.894-0.51,1.261-0.235c0.271,0.201,0.309,0.585,0.323,0.922
					c0.037,0.873,0.074,1.746,0.111,2.62c0.584-0.92,1.223-1.806,1.911-2.65c0.348-0.426,0.805-0.882,1.35-0.812
					c0.508,0.065,0.831,0.555,1.126,0.973c0.766,1.088,1.784,1.997,2.953,2.633c0.071-1.383,0.144-2.766,0.215-4.148
					c1.841,1.42,3.241,3.402,3.965,5.611c0.203-0.758,0.646-1.45,1.248-1.954c0.315,0.813,0.331,1.738,0.044,2.562
					c0.817-1.077,2.008-1.865,3.318-2.196c0.176-0.045,0.389-0.072,0.517,0.058c0.098,0.1,0.105,0.254,0.107,0.394
					c0.012,0.866,0.023,1.732,0.035,2.598c0.917-1.058,1.901-2.058,2.946-2.99c1.028,1.187,0.258,3.188-1.104,3.97
					c-1.362,0.781-3.034,0.7-4.601,0.596c-12.665-0.846-25.33-1.691-37.995-2.537c-1.838-0.123-3.685-0.247-5.48-0.655
					c-3.742-0.852-7.186-2.967-9.636-5.92" style="stroke-dasharray: 249.763px; stroke-dashoffset: 0px; stroke: rgb(0, 112, 60);"></path>
				<path id="XMLID_1122_" d="M157.932,152.668c-0.499,5.809-0.319,11.609,0.769,17.347
					c0.662,3.497,1.645,11.106,4.431,13.549c0.15,0.131,0.722-0.033,0.792-0.213c0.018-0.045,0.035-0.09,0.054-0.136
					c0.021-0.057-0.027-0.077-0.07-0.095c-0.033-0.014-0.065-0.027-0.099-0.041c-0.187-0.076-0.929,0.224-0.672,0.329
					c0.116,0.048-0.709-3.275-0.799-3.56c-0.435-1.386-0.965-2.735-1.377-4.131c-0.741-2.506-1.325-5.059-1.739-7.64
					c-0.83-5.185-0.917-10.405-0.468-15.631C158.764,152.32,157.953,152.411,157.932,152.668L157.932,152.668z" style="stroke-dasharray: 249.763px; stroke-dashoffset: 0px; stroke: rgb(0, 112, 60);"></path>
				<path id="XMLID_1126_" d="M36.851,223.095c-0.422-0.416-5.623-6.15-4.566-7.515c0.613-0.792,5.385,2.79,6.31,3.36
					c0.13,0.08,0.901-0.105,0.797-0.253c-0.498-0.647-0.944-1.328-1.341-2.043c1.341-0.667,2.656-0.662,3.947,0.016
					c0.133,0.039,0.792-0.052,0.747-0.274c-0.667-3.32-0.932-4.305,2.001-2.099c0.136,0.103,0.828-0.029,0.797-0.253
					c-0.313-1.374-0.262-2.75,0.156-4.128c0.2-1.469,0.479-1.722,0.836-0.759c0.377,0.137,2.453,4.931,2.955,5.614
					c0.131,0.179,0.807,0.007,0.821-0.221c0.205-3.076,2.627-1.27,4.59-0.526c0.106,0.04,0.848-0.108,0.747-0.275
					c-2.091-3.466-0.222-2.633,2.41-1.564c0.119,0.049,0.815-0.074,0.747-0.274c-0.365-1.072-1.211-1.271-0.029-1.373
					c0.55-0.048,1.14,0.511,1.516,0.774c0.146,0.104,0.807-0.022,0.797-0.252c-0.188-4.376,0.328-3.576,1.703-1.106
					c0.112,0.201,0.796-0.011,0.821-0.221c0.616-5.155,1.684-4.606,4.995-2.116c0.123,0.093,0.879-0.063,0.797-0.253
					c-0.409-0.955-2.272-5.104-1.345-5.915c0.789-0.688,3.564,4.528,3.962,5.457c0.086,0.199,0.822-0.011,0.822-0.221
					c-0.003-5.547,1.868-1.863,3.007,0.738c0.09,0.207,0.749-0.02,0.816-0.18c2.035-4.843,2.73-1.065,2.992,1.37
					c0.021,0.204,0.646-0.04,0.728-0.091c-0.735,0.462,2.478-1.525,1.247-1.269c1.624-0.339,2.825,2.277,3.77,3.466
					c0.126,0.157,0.779-0.057,0.797-0.253c0.461-5.175,1.658,0.579,2.261,2.494c0.067,0.213,0.753-0.031,0.816-0.18
					c0.119-1.116,0.769-1.588,1.947-1.418c2.24-0.964,2.595,0.149,1.064,3.341c-0.035,0.249,0.695,0.009,0.779-0.095
					c0.873-1.563,2.319-2.198,4.341-1.905c0.44,1.02,1.023,1.949,1.748,2.79c0.133,0.18,0.804,0.007,0.821-0.22
					c1.667-1.367,2.496-1.371,2.487-0.012c0.096,0.712,0.269,1.405,0.521,2.081c0.059,0.198,0.631-0.019,0.728-0.091
					c4.271-1.746,5.705-1.744,4.307,0.005c-0.409,0.606-0.817,1.213-1.226,1.819c-0.102,0.15,0.428,0.072,0.442,0.067
					c1.335-0.411,2.604-0.848,3.852-1.488c-0.129,0.066,1.61-0.818,1.438-0.822c0.671-0.693,0.908-0.546,0.71,0.442
					c0.166,0.753,0.009,1.449-0.472,2.09c-0.091,0.216,0.655-0.002,0.723-0.05c4.506-2.071,6.053-2.122,4.643-0.154
					c-0.409,0.687-0.818,1.374-1.229,2.061c-0.068,0.114,0.686,0.072,0.812-0.14c0.819-1.373,1.639-2.746,2.457-4.12
					c0.066-0.109-0.198-0.106-0.23-0.104c-1.719,0.065-2.908,0.467-4.537,0.871c-2.039,0.507-0.998,0.901-1.35,0.492
					c0.122,0.143,0.476-2.851,0.479-2.888c0.016-0.185-0.661,0.04-0.728,0.091c-1.486,1.352-3.279,2.118-5.38,2.3
					c0.544-0.808,1.089-1.616,1.634-2.425c0.053-0.079-0.106-0.104-0.142-0.105c-1.716-0.108-2.861,0.409-4.476,0.568
					c-2.549,0.25-0.727,1.043-2.276-1.434c-0.434-0.693-0.353-1.209-1.211-1.575c-3.379-1.439-1.96,4.869-4.258-1.832
					c-0.063-0.184-0.551,0-0.649,0.047c-0.805,0.38-2.534,1.935-3.246,2.044c-1.741,0.268,0.265,0.647-0.434-0.309
					c-0.167-0.229,0.202-3.749,0.202-3.734c0.003-0.129-0.416-0.037-0.447-0.027c-1.202,0.339-1.994,0.724-2.993,1.465
					c-0.6,0.445-0.981,1.167-1.256,1.119c-0.277-0.048-1.341-4.352-1.483-4.803c-0.071-0.227-0.739,0.047-0.816,0.18
					c-1.722,2.965-0.285,2.641-2.786,0.523c-0.476-0.402-0.675-1.099-1.356-1.097c-0.199,0-0.838,0.368-1.034,0.301
					c-0.142-0.049-0.579,0.76-0.573,0.762c-1.127-0.37-0.589-3.237-0.58-3.984c0.002-0.178-0.592,0.018-0.649,0.046
					c-0.542,0.269-3.294,2.65-3.182,2.641c-0.406,0.035-2.1-3.543-2.396-4.035c-0.122-0.204-0.728,0.015-0.816,0.179
					c-0.142,0.262-1.481,3.138-1.176,3.022c0.07-0.026,3.001,1.99-0.39-1.061c-1.35-1.214-2.26-2.886-3.734-4.094
					c-0.146-0.119-0.797,0.031-0.797,0.253c-0.001,1.419,0.924,3.905,0.672,5.144c0.398,0.446,0.446,0.689,0.144,0.729
					c-0.997-0.707-2.029-1.356-3.098-1.948c-0.168-0.1-0.722,0.006-0.792,0.212c-0.833,2.446-0.353,5.352-2.331,1.797
					c-0.104-0.187-0.762,0-0.816,0.18c-1.266,4.127,0.025,2.438-2.825,2.226c-0.188-0.015-0.573,0.054-0.671,0.244
					c-0.283,0.559,0.128,1.938,0.09,1.999c0.413,0.469,0.279,0.549-0.403,0.242c-1.134-0.39-2.297-0.651-3.488-0.785
					c-0.091-0.016-0.857,0.09-0.747,0.274c2.128,3.527-0.03,1.978-2.417,1.074c-0.168-0.063-0.731,0.051-0.747,0.274
					c-0.264,3.963-2.521-3.936-2.69-4.635c-0.056-0.232-0.74,0.06-0.816,0.18c-0.812,1.285-0.917,2.651-1.58,3.904
					c-1.005,1.896,0.183,1.978-2.353,0.07c-0.148-0.111-0.797,0.027-0.797,0.253c0.004,1.201,0.581,3.177-0.474,4.045
					c0.03-0.025-3.778-0.344-3.61-0.339c-0.089-0.003-0.765,0.107-0.675,0.285c0.73,1.443,2.13,2.055,0.468,1.51
					c-1.752-0.574-3.613-2.229-5.185-3.199c-0.134-0.082-0.844,0.023-0.797,0.253c0.743,3.628,2.298,6.461,4.915,9.043
					C36.236,223.536,36.991,223.233,36.851,223.095L36.851,223.095z" style="stroke-dasharray: 249.763px; stroke-dashoffset: 0px; stroke: rgb(0, 112, 60);"></path>
				<path id="XMLID_1129_" d="M122.718,222.323c7.45-2.334,14.973-2.33,22.403-0.011
					c0.15,0.047,0.829-0.015,0.739-0.302c-0.183-0.584-1.677-3.806-0.821-4.478c0.41-0.321,5.236,3.543,5.749,3.933
					c0.171,0.13,0.843,0.032,0.793-0.267c-0.234-1.396-0.629-2.885,0.7-2.874c0.567,0.006,2.082,2.028,2.331,2.314
					c0.156,0.179,0.651,0.016,0.763-0.156c2.998-2.764,4.064-2.776,3.2-0.036c-0.045,0.33,0.629,0.081,0.736,0.002
					c3.963-2.933,4.319-5.169,8.661-1.543c0.188,0.156,0.802,0.023,0.793-0.267c-0.864-2.442-0.209-3.563,1.967-3.365
					c0.436,0.864,0.872,1.729,1.308,2.593c0.136,0.268,0.729,0.051,0.821-0.165c0.693,0.099,1.388,0.197,2.081,0.297
					c-0.052,0.322,0.633,0.09,0.736,0.002c1.83-0.475,3.162,0.005,3.997,1.438c0.171,0.194,0.711-0.001,0.792-0.213
					c0.78-2.054,0.285-0.448,0.459,1.051c0.024,0.205,0.486,0.074,0.569,0.045c2.162-0.492,2.746-0.066,1.751,1.277
					c-0.108,0.246,0.502,0.126,0.568,0.1c1.26,0.603,2.519,1.205,3.778,1.808c-0.073,0.215,0.387,0.158,0.46,0.136
					c3.696-1.149,7.187-1.421,11.021-0.848c0.244,0.036,0.962-0.358,0.508-0.426c-2.241-0.335-4.47-0.5-6.731-0.233
					c-0.688,0.082-1.838,0.521-2.533,0.453c-1.232-0.121-1.039-0.351-1.802-0.726c-0.373-0.183-0.868-0.98-1.421-1.245
					c-1.346-0.644-2.909,1.288-2.298-1.306c0.041-0.174-0.256-0.175-0.35-0.158c-2.146,0.367-2.771,0.285-3.078-2.353
					c-0.034-0.292-0.753-0.013-0.821,0.166c-0.627,1.649-2.096,0.698-3.502-0.008c-1.678-0.843-1.045,1.354-1.048-2.123
					c0-0.164-0.398-0.1-0.462-0.081c-0.832,0.249-2.066,1.438-2.676,1.552c-1.092,0.204,0.182,0.61-0.98-0.604
					c-0.644-0.672-0.838-1.787-1.472-2.536c-0.089-0.104-0.325-0.063-0.434-0.034c-4.001,1.038,0.489,6.903-5.105,2.23
					c-0.206-0.173-0.603-0.013-0.763,0.155c-0.881,0.93-2.438,3.101-3.693,3.478c-1.206,0.361-0.77-0.483-0.535-2.197
					c0.036-0.262-0.453-0.145-0.568-0.1c-1.066,0.415-2.965,2.314-3.833,2.489c-1.446,0.291-2.798-1.488-4.044-2.313
					c-0.173-0.114-0.762-0.062-0.792,0.212c-0.021,0.188-0.078,1.323-0.159,1.481c-0.82,1.586,0.937,1.329-1.047,1.011
					c-1.201-0.193-4.261-2.725-5.269-3.295c-0.159-0.09-0.809,0.036-0.739,0.302c0.272,1.059,1.464,3.446,0.837,4.295
					c-0.87,1.177,0.777-0.09-1.128,0.274c-1.834,0.351-5.069-0.969-7.133-1.069c-4.591-0.224-9.014,0.485-13.389,1.855
					C122.137,222.091,122.228,222.477,122.718,222.323L122.718,222.323z" style="stroke-dasharray: 249.763px; stroke-dashoffset: 0px; stroke: rgb(0, 112, 60);"></path>
				<path id="XMLID_1132_" d="M232.034,215.683c-1.379,4.178-0.012,8.369-2.135,12.459
					c-0.172,0.331,0.644,0.23,0.761,0.004c0.952-1.834,1.508-3.642,1.602-5.721c0.104-2.338-0.155-4.589,0.592-6.852
					C232.939,215.312,232.121,215.418,232.034,215.683L232.034,215.683z" style="stroke-dasharray: 249.763px; stroke-dashoffset: 0px; stroke: rgb(0, 112, 60);"></path>
				<path id="XMLID_1136_" d="M35.285,196.465c-1.751-3.372-1.854-3.028,2.303-1.309
					c0.177,0.073,0.797-0.012,0.738-0.307c-0.427-2.134-0.892-5.496,1.556-1.284c0.151,0.261,0.822,0.083,0.821-0.22
					c-0.003-2.803-0.07-8.254,2.861-2.845c0.145,0.266,0.824,0.078,0.822-0.221c-0.006-0.756-0.749-5.047-0.42-5.355
					c0.526-0.494,4.354,2.263,5.064,2.699c0.171,0.104,0.702-0.013,0.737-0.249c0.334-2.255,2.019,0.656,2.468,1.568
					c0.121,0.246,0.684,0.093,0.792-0.104c0.55-1.452,1.684-2.318,3.4-2.6c0.006,0.985,0.012,1.97,0.018,2.955
					c0.002,0.302,0.748,0.01,0.821-0.163c1.408-0.102,2.817-0.203,4.226-0.305c0.148,0.081,0.85-0.042,0.738-0.306
					c-1.509-3.595,0.209-1.125,1.669,0.191c0.162,0.146,0.771,0.05,0.792-0.213c0.196-2.4,0.897-2.888,2.329,0.516
					c0.104,0.248,0.599,0.082,0.739-0.047c1.597-0.581,2.194-0.083,1.794,1.492c0.019,0.28,0.712,0.039,0.792-0.104
					c0.729,0.741,1.46,1.483,2.189,2.226c-0.052,0.305,0.55,0.129,0.664,0.064c3.011-1.716,3.503-0.974,5.353,1.512
					c0.148,0.2,0.836,0.003,0.793-0.27c0.055,0.345-0.75-4.548-1.328-3.78c-0.162,0.215,2.229,2.661,2.385,2.771
					c0.185,0.13,0.453,0.059,0.635-0.042c2.179-1.203,2.851-3.16,2.793,1.508c-0.004,0.321,0.611,0.142,0.739,0.011
					c0.9-1.735,1.9-1.645,2.997,0.273c-0.122,0.302,0.65,0.091,0.738,0.011c3.402-2.102,4.665-2.043,3.791,0.176
					c-0.068,0.296,0.758,0.17,0.82-0.105c0.178-0.771,0.355-1.541,0.533-2.312c0.042-0.184-0.254-0.175-0.354-0.169
					c-0.368,0.022-4.242,1.348-4.358,1.307c0.357,0.124,0.183-1.705-0.745-1.998c-3.05-0.964-2.517,4.101-3.779-1.634
					c-0.058-0.263-0.626-0.063-0.739,0.046c-1.155,1.107-1.924,2.332-3.27,1.66c-0.722-0.36-1.931-2.472-2.371-3.036
					c-0.144-0.184-0.897,0.018-0.793,0.27c0.534,1.105,0.934,2.257,1.197,3.455c0.332,0.712,0.036,0.344-0.888-1.104
					c0.159,0.015-0.59-0.532-0.828-0.584c-1.291-0.284-1.813,1.418-2.984,0.74c1.22,0.706-1.666-2.627-0.81-1.99
					c-1.269-0.943-0.696-0.093-1.253-0.368c-2.193-1.085-0.585,2.768-1.5-1.748c-0.049-0.244-0.549-0.072-0.664-0.008
					c-2.556,1.446-2.044-1.582-4.37-1.903c-0.192-0.027-0.521,0.025-0.634,0.213c1.527-2.528-0.629,0.891-0.476,0.855
					c-0.134,0.293-0.267,0.586-0.399,0.879c-0.838-0.725-1.703-1.414-2.597-2.067c-0.152-0.117-0.913-0.02-0.792,0.27
					c1.215,2.894,0.253,1.954-2.109,2.06c-2.375,0.105,0.29,1.517-0.871-1.994c-0.032-0.097-0.163-0.119-0.25-0.118
					c-1.307,0.016-3.79,2.415-4.161,2.295c-1.491-0.482-0.814-2.979-3.015-2.399c-0.112,0.03-0.33,0.113-0.356,0.253
					c-0.4,2.167-4.828-1.347-6.139-2.075c-0.155-0.086-0.831,0.035-0.738,0.307c0.112,0.324,1.497,5.12,1.196,5.13
					c0.39-0.013-1.072-1.33-1.452-1.604c-0.15-0.109-0.382-0.077-0.542-0.005c-1.672,0.759-1.059,2.086-1.645,3.759
					c0.028-0.08-0.242,1.402,0.111,1.269c0.311-0.118-2.504-2.149-2.793-2.313c-0.174-0.1-0.794,0.028-0.738,0.306
					c0.205,1.023,1.018,2.81,0.258,3.483c-0.686,0.609-3.437-0.991-4.04-1.24c-0.164-0.068-0.923,0.07-0.709,0.355
					c0.962,1.175,1.767,2.453,2.414,3.834C34.606,196.959,35.403,196.692,35.285,196.465L35.285,196.465z" style="stroke-dasharray: 249.763px; stroke-dashoffset: 0px; stroke: rgb(0, 112, 60);"></path>
				<path id="XMLID_1140_" d="M73.074,190.224c-0.286-1.162-1.269-2.658-1.399-3.788
					c-0.314-2.696,2.173-0.858,4.312-0.323c0.237,0.059,0.679-0.057,0.653-0.365c-0.208-2.553,1.429-1.902,2.761-0.488
					c0.21,0.223,0.712,0.069,0.792-0.213c0.692-2.438,1.577-4.133,2.954-1.456c0.151,0.295,0.651,0.157,0.799-0.079
					c1.839-2.943,3.441-0.271,4.86,0.911c0.195,0.163,0.803-0.028,0.731-0.331c-0.653-2.759,0.086-1.879,2.495,0.279
					c0.189,0.169,0.771,0.11,0.792-0.213c0.279-4.28,1.214-5.219,2.913-1.317c0.128,0.293,0.679,0.162,0.799-0.079
					c0.505-1.005,1.301-3.674,2.633-3.151c0.961,0.377,0.41,2.201,0.329,3.404c-0.024,0.368,0.609,0.229,0.752,0.06
					c1.303-1.542,1.271-2.184,2.629-0.924c0.691,0.641,1.207,2.151,1.744,2.931c0.185,0.267,0.814,0.031,0.789-0.283
					c-0.228-2.798,1.066-0.215,2.045,0.787c0.172,0.177,0.569,0.113,0.716-0.073c1.039-1.325,2.495-4.51,2.435-0.026
					c-0.006,0.421,0.663,0.186,0.803-0.008c3.616-5.038,2.701-0.026,2.603,1.147c-0.031,0.367,0.612,0.229,0.751,0.06
					c0.805,0.205,1.607,0.41,2.412,0.615c-0.121,0.331,0.361,0.348,0.562,0.243c0.526-0.274,4.918-2.59,5.37-1.602
					c0.038,0.083-2.608,2.906-2.741,3.076c-0.281,0.36,0.284,0.4,0.512,0.312c2.47-0.965,4.849-3.562,4.886,0.543
					c0.004,0.396,0.831,0.248,0.828-0.079c-0.01-1.1-0.02-2.199-0.029-3.298c-0.004-0.347-0.496-0.225-0.68-0.121
					c1.123-0.633-4.114,2.417-3.995,1.758c0.17-0.938,2.307-2.348,2.937-2.892c0.245-0.212-0.094-0.396-0.293-0.369
					c-1.561,0.206-2.98,0.566-4.493,1.01c-4.744,1.393,0.394,0.25-2.134-0.392c0.203,0.052-3.775-0.822-2.889-0.126
					c-0.831-0.652,0.748-2.108-0.619-2.538c-3.336-1.05-2.237,4.276-3.293-1.166c-0.057-0.295-0.625-0.146-0.748,0.011
					c-2.243,2.859-2.691,3.007-5.188,0.45c-0.215-0.22-0.817-0.063-0.789,0.283c0.286,3.515-1.009-1.201-1.432-2.332
					c-0.11-0.294-0.586-0.146-0.749,0.011c-0.603,0.578-1.485,1.843-1.777,1.483c-0.259-0.317,0.238-3.561,0.25-3.739
					c0.022-0.334-0.518-0.239-0.679-0.12c-1.007,0.738-1.943,2.123-2.915,2.729c-0.535,0.334-0.3,1.065-0.92,0.976
					c-0.397-0.058-1.299-2.697-1.355-2.825c-0.14-0.321-0.649-0.129-0.799,0.079c-0.04,0.055-2.023,4.123-1.908,4.083
					c-1.146,0.399-2.395-1.146-3.348-1.726c-0.205-0.125-0.809,0.005-0.731,0.331c0.71,2.998-1.176,0.271-2.082-0.703
					c-0.176-0.188-0.561-0.1-0.716,0.074c-1.458,1.627-1.778,1.908-2.572-0.525c-0.092-0.28-0.609-0.164-0.749,0.011
					c-0.344,0.432-2.048,3.516-2.135,3.541c-0.933,0.271-1.416-1.172-2.089-1.473c-0.486-0.217-0.791-0.834-1.467-0.484
					c-0.578,0.299-0.347,0.8-0.626,1.212c-1.345,1.983,1.393,0.886-0.664,2.209c-0.42,0.271-4.441-0.782-4.837-0.836
					c-0.188-0.025-0.731,0.179-0.527,0.444c1.324,1.723,2.183,3.514,2.702,5.623C72.337,190.784,73.159,190.569,73.074,190.224
					L73.074,190.224z" style="stroke-dasharray: 249.763px; stroke-dashoffset: 0px; stroke: rgb(0, 112, 60);"></path>
				<path id="XMLID_1144_" d="M21.268,192.147c0.618-3.454,1.319-3.096,3.529-1.752
					c0.201,0.122,0.788-0.015,0.734-0.322c-0.67-3.795-1.889-3.524,1.729-2.521c0.154,0.043,0.778-0.079,0.657-0.352
					c-0.148-0.336-1.743-3.211-1.122-3.761c0.265-0.233,3.375,2.06,3.583,2.202c0.18,0.123,0.716,0.004,0.736-0.256
					c0.127-1.631,3.112-10.127,3.208-3.619c0.005,0.364,0.59,0.181,0.746,0.041c1.647-1.471,4.647-0.69,5.951,0.885
					c0.156,0.189,0.787,0.065,0.792-0.212c0.034-2.155,0.729-1.821,1.92-0.403c0.156,0.186,0.577,0.076,0.714-0.082
					c1.391-1.601,2.871-2.601,2.901,0.449c0.003,0.318,0.507,0.214,0.674,0.101c2.342-1.601,2.867,0.954,4.64,0.87
					c1.689-0.079,1.561-2.443,2.84,0.689c0.115,0.281,0.801,0.136,0.823-0.154c-0.006,0.076,0.263-2.716,0.044-2.643
					c0.14-0.047,2.846,3.151,3.041,3.361c0.172,0.185,0.562,0.074,0.714-0.082c2.093-0.713,2.526-0.173,1.301,1.619
					c-0.108,0.311,0.72,0.211,0.825-0.089c0.468-1.137,0.809-2.31,1.021-3.521c0.055-0.238-0.357-0.223-0.475-0.187
					c0.855-0.261-3.422,1.052-2.413,1.075c-1.787-0.041-3.157-2.318-4.263-3.508c-0.186-0.2-0.846-0.047-0.79,0.277
					c0.109,0.642,1.17,4.064-0.063,1.047c-0.071-0.174-0.325-0.164-0.473-0.122c-0.466,0.132-1.115,0.779-1.459,0.86
					c-0.177,0.602-0.491,0.766-0.943,0.492c-0.519-0.082-0.939-0.351-1.263-0.805c-0.111-0.012-0.805-0.237-0.655-0.205
					c-2.688-0.572-1.614,0.56-2.474-2.489c-0.02-0.068-0.099-0.12-0.164-0.132c-0.803-0.142-0.622,0.056-1.358,0.261
					c-0.682,0.189-1.273,1.66-1.891,1.729c-1.075,0.119-1.997-1.096-2.814-1.705c-0.167-0.124-0.732,0.001-0.736,0.257
					c-0.05,3.108-1.152,0.208-3.219,0.222c-0.573,0.004-1.194,0.394-1.729,0.449c-1.142,0.119-0.103,1.093-0.914,0.288
					c0.114,0.113-0.825-4.536-0.392-2.296c-0.059-0.305-0.615-0.087-0.745,0.024c-1.675,1.431-2.341,2.611-3.296,4.56
					c-1.258,2.562-1.963,0.973-4.563-0.285c-0.188-0.091-0.819,0.001-0.733,0.322c0.584,2.198,1.696,4.547-1.575,2.774
					c-0.215-0.117-0.885,0.047-0.702,0.379c2.034,2.777,1.94,3.524-0.281,2.241c-0.215-0.185-0.61-0.069-0.766,0.146
					c-0.989,1.375-1.389,2.351-1.678,3.971C20.381,192.586,21.213,192.458,21.268,192.147L21.268,192.147z" style="stroke-dasharray: 249.763px; stroke-dashoffset: 0px; stroke: rgb(0, 112, 60);"></path>
				<path id="XMLID_1148_" d="M40.152,180.494c-0.448-0.686-3.782-5.758-2.947-6.677
					c1.058-1.165,3.834,1.497,4.794,2.208c0.21,0.156,0.787-0.02,0.731-0.332c-0.695-3.872,1.67-2.107,4.058-0.801
					c0.195,0.106,0.832,0.001,0.731-0.332c-0.707-2.332-1.006-4.246,1.911-1.325c0.194,0.194,0.751,0.096,0.792-0.212
					c-0.077-1.398,0.566-2.45,1.93-3.157c0.353,0.924,0.706,1.848,1.059,2.771c0.114,0.297,0.821,0.164,0.825-0.149
					c0.013-1.074-0.619-2.892,0.437-3.542c0.384-0.237,4.941,3.063,5.502,3.41c0.22,0.137,0.783-0.006,0.73-0.332
					c-0.407-2.559,0.178,0.618,1.309,0.157c0.3-0.122,0.645-0.42,0.93-0.452c0.658-1.195,1.428-1.376,2.312-0.543
					c0.274,1.081,0.549,2.162,0.822,3.243c0.08,0.314,0.601,0.123,0.749-0.01c2.522-1.875,3.573-1.653,3.153,0.666
					c0.016,0.339,0.489,0.239,0.68,0.122c2.637-1.616,4.443-0.456,6.762,0.351c0.211,0.073,0.713-0.069,0.653-0.366
					c-0.499-2.47,1.187,0.146,2.08,0.914c0.196,0.168,0.546,0.118,0.717-0.072c0.996-2.05,1.77-1.956,2.321,0.28
					c0.012,0.323,0.497,0.261,0.68,0.122c2.34-1.779,3.8-2.2,3.46,0.73c-0.04,0.35,0.524,0.22,0.68,0.123
					c1.949-1.215,4.46-2.383,6.193,0.002c0.154,0.213,0.677,0.088,0.767-0.141c1.093-2.757,0.706-0.485,2.153-0.907
					c0.551-0.16,1.022-0.435,1.564-0.608c0.92-0.296,1.723-1.3,2.535-0.859c0.604,0.328-0.444,2.997-0.534,3.34
					c-0.1,0.383,0.632,0.179,0.752,0.062c3.215-1.206,4.241-0.771,3.077,1.306c-0.082,0.254,0.373,0.234,0.481,0.212
					c-0.117,0.023,4.56-1.284,3.505,0.152c-0.199,0.271,0.319,0.316,0.456,0.283c1.846-0.447,2.969-0.722,4.285,0.64
					c0.146,0.151,0.378,0.104,0.553,0.04c0.904,0.182,1.81,0.362,2.715,0.544c-0.231,0.477-0.436,0.963-0.611,1.461
					c0.026,0.753-0.554,2.371-0.655,3.055c-0.056,0.379,0.779,0.255,0.828-0.079c0.306-2.071,0.941-3.898,1.989-5.711
					c0.1-0.173-0.087-0.293-0.239-0.305c-1.242-0.095-4.161,0.695-4.878-0.889c-0.082-0.182-0.31-0.183-0.479-0.142
					c-1.211,0.926-1.923,0.837-2.135-0.266c0.202-0.276-0.323-0.311-0.456-0.284c-2.264,0.45-4.392,1.541-3.808-1.661
					c0.028-0.154-0.146-0.218-0.265-0.233c-1.199-0.158-2.414,0.484-3.398,0.397c0.965,0.085-0.84,0.247-0.731,0.397
					c-0.181-0.251,0.945-3.273,1.038-3.63c0.077-0.295-0.458-0.24-0.588-0.174c-0.913,0.462-2.036,1.3-3.029,1.533
					c-0.779,0.184-2.247-0.383-2.64-0.348c0.612-0.055-1.813-0.476-1.085-0.432c-0.174-0.01-0.547,0.08-0.563,0.313
					c-0.211,2.903-1.757-0.149-3.67,0.095c-0.945,0.121-3.547,2.811-2.172-0.481c0.122-0.292-0.262-0.329-0.456-0.284
					c-2.947,0.685-4.069,2.838-4.941-0.801c-0.072-0.3-0.612-0.143-0.748,0.011c-2.24,2.503-2.971,1.954-5.229,0.014
					c-0.204-0.176-0.863-0.088-0.788,0.283c0.469,2.318-1.661-0.475-3.069-0.459c-1.856,0.021-2.911,2.647-3.075-0.979
					c-0.013-0.287-0.395-0.268-0.588-0.175c-3.414,1.652-3.278,2.215-4.407-2.237c-0.065-0.262-0.531-0.17-0.676-0.052
					c-1.3,1.066-2.274,1.512-3.703,1.006c0.7,0.247-1.787-1.992-0.816-1.075c-0.181-0.17-0.789-0.111-0.792,0.212
					c-0.033,3.5-4.243-0.735-5.939-1.786c-0.231-0.144-0.764,0.009-0.73,0.332c0.566,5.682,0.225,2.342-0.563,0.28
					c-0.109-0.286-0.591-0.159-0.749,0.01c-0.689,0.735-1.256,2.329-1.901,2.881c-1.226,1.049-1.079,0.23-3.047-0.801
					c-0.181-0.095-0.745-0.036-0.735,0.261c0.012,0.325,0.331,3.02,0.146,3.141c-0.087,0.057-4.065-1.419-4.178-1.447
					c-0.218-0.055-0.709,0.057-0.654,0.365c0.618,3.439-2.514,0.421-4.465-0.428c-0.222-0.097-0.793-0.02-0.731,0.332
					c0.538,3.1,1.559,5.652,3.267,8.265C39.578,181.117,40.369,180.824,40.152,180.494L40.152,180.494z" style="stroke-dasharray: 249.763px; stroke-dashoffset: 0px; stroke: rgb(0, 112, 60);"></path>
				<path id="XMLID_1152_" d="M38.984,169.209c-0.266-1.715-1.351-6.159,0.149-7.288
					c0.457-0.344,3.178,2.571,3.75,3.057c0.177,0.149,0.914,0.063,0.79-0.279c-1.295-3.568-2.405-4.854,2.346-2.313
					c0.188,0.101,0.826-0.005,0.733-0.325c-0.29-1.001-2.07-5.252,0.169-2.496c0.154,0.19,0.799,0.071,0.792-0.212
					c-0.026-1.013-0.181-4.748,1.792-4.63c0.315,0.02,1.203,4.525,1.271,4.798c0.079,0.32,0.783,0.114,0.823-0.153
					c0.011-0.069,0.232-5.395,0.228-5.392c1.234-0.837,4.396,2.04,5.583,2.799c0.223,0.143,0.756-0.02,0.732-0.325
					c-0.359-4.797,0.843-1.868,1.645,1.16c0.093,0.354,0.741,0.076,0.823-0.152c1.849-5.137,3.043,1.165,3.507,2.475
					c0.117,0.331,0.746,0.102,0.823-0.153c0.928-3.028,2.345-1.172,4.357,0.099c0.205,0.13,0.789-0.014,0.733-0.324
					c-0.181-1.017-0.361-2.033-0.542-3.051c-0.243-0.231-0.074-0.067,0.505,0.493c0.886,0.224,2.381,1.917,3.146,2.413
					c0.191,0.124,0.705,0.009,0.735-0.258c0.066-0.577,0.796-4.253,1.164-4.159c-0.031-0.009,0.264,3.608-0.001,1.933
					c0.345,2.182,0.491,3.838,1.549,5.848c0.153,0.292,0.746,0.14,0.823-0.152c1.014-3.851,3.244-7.765,3.281-0.646
					c0.003,0.4,0.741,0.195,0.826-0.086c1.532-5.052,2.796-0.47,4.305,0.15c0.202,0.083,0.808,0.014,0.733-0.325
					c-0.27-1.239-0.569-1.782-1.576-2.644c-0.213-0.183-0.973-0.012-0.758,0.338c0.812,1.326,1.487,1.985,2.762,2.792
					c0.231,0.146,0.745-0.021,0.734-0.325c-0.643-2.364-0.106-3.636,1.607-3.814c-0.104,1.059-0.37,2.074-0.799,3.047
					c-0.115,0.329,0.688,0.202,0.799-0.018c1.135-2.252,0.901,0.369,1.609,1.91c0.132,0.286,0.672,0.14,0.798-0.085
					c0.381-0.681,1.054-2.625,1.694-2.358c0.718,0.299,0.994,2.957,1.095,3.445c0.06,0.287,0.624,0.125,0.746-0.02
					c3.576-4.245,1.225,2.657,1.163,2.864c-0.105,0.352,0.636,0.17,0.748,0.047c2.829-0.902,3.404-0.481,1.727,1.265
					c-0.203,0.313,0.416,0.294,0.558,0.225c0.333-0.163,2.601,1.078,3.4,0.8c0.378-0.131,0.78-0.641,1.093-0.63
					c0.225-0.282,0.428-0.579,0.611-0.891c-0.238,0.966-0.441,1.939-0.609,2.921c-0.055,0.289,0.448,0.222,0.583,0.156
					c1.136-0.546-0.452,3.649-0.049,2.261c-0.085,0.293,0.469,0.204,0.583,0.157c3.614-1.469,3.313,0.348,3.5,2.056
					c0.035,0.311,0.628,0.088,0.746-0.021c0.669-0.461,1.338-0.922,2.006-1.383c0.505-0.254,0.047-0.595-0.341-0.399
					c-1.526,0.766-1.754,1.418-1.744-1.317c0.001-0.2-0.207-0.22-0.365-0.216c-1.757,0.048-4.06,1.462-2.484-1.726
					c0.116-0.234-0.171-0.291-0.339-0.283c-1.9,0.089-0.934-1.561-1.088-3.283c-0.027-0.308-0.721-0.109-0.798,0.085
					c-0.296,0.745-3.445,1.998-4.055,0.901c-0.14-0.252,1.291-1.784,1.616-2.803c0.008-0.047-0.003-0.089-0.033-0.126
					c-0.813-0.762-1.78-0.233-2.754,0.076c-1.87,0.595-0.816,1.223-1.154,0.266c-0.363-1.033,0.963-1.96,0.294-3.115
					c-0.057-0.097-0.24-0.098-0.332-0.089c-0.106,0.01-1.692,0.539-1.615,0.544c-2.339-0.169,0.521,0.895-0.893,0.119
					c-0.509-0.279-1.204-3.118-1.35-3.481c-0.119-0.296-0.678-0.13-0.798,0.085c-1.607,2.873-2.071,3.121-2.554-0.455
					c-0.044-0.32-0.706-0.097-0.798,0.085c-0.918,1.206-0.875,1.491,0.131,0.854c0.269-1.029,0.37-2.074,0.304-3.136
					c0.007-0.378-0.593-0.178-0.748-0.047c-0.724,0.609-1.309,1.094-1.789,1.914c0.175-0.298-1.347,2.739-0.793,2.524
					c-1.666,0.647-2.162-2.117-2.749-2.951c-0.064-0.092-0.234-0.104-0.332-0.089c-3.609,0.513-1.612,5.522-2.688-1.363
					c-0.048-0.307-0.622-0.098-0.746,0.02c-0.227,0.212-3.628,4.905-3.363,4.854c-1.23,0.234-1.084-7.32-1.077-7.555
					c0.011-0.399-0.671-0.172-0.8,0.019c-2.404,3.555-1.745,6.137-5.907,1.199c-0.183-0.217-0.847-0.044-0.79,0.279
					c0.711,4.002,0.239,3.425-2.977,1.395c-0.186-0.117-0.715-0.013-0.735,0.258c-0.271,3.551-1.399-1.808-1.805-2.95
					c-0.101-0.286-0.593-0.125-0.746,0.021c-0.316,0.302-1.989,2.137-1.89,2.156c0.188,0.037-2.569-4.094-2.453-3.962
					c-0.199-0.226-0.814-0.042-0.79,0.279c0.116,1.545,0.685,2.478-0.602,2.894c-0.711,0.229-4.417-2.821-4.968-3.174
					c-0.205-0.131-0.787,0.016-0.733,0.325c0.11,0.627,0.274,5.176,0.503,5.256c-0.46-0.161-1.22-4.344-1.35-4.776
					c-0.082-0.273-0.615-0.143-0.746,0.021c-1.006,1.258-1.368,2.337-2.044,3.746c-0.034,0.071-0.291,1.666-0.119,1.634
					c0.208-0.04-1.897-1.688-1.798-1.606c-0.18-0.146-0.817,0.032-0.732,0.324c0.439,1.517,1.823,3.835,0.406,4.005
					c-0.81,0.098-2.574-0.825-3.368-0.994c-0.213-0.045-0.805,0.092-0.625,0.415c0.448,0.806,2.688,3.542,1.038,2.617
					c-0.974-0.545-2.018-2.076-2.707-2.868c-0.185-0.212-0.737-0.061-0.792,0.212c-0.627,3.111-0.686,5.876-0.202,9.007
					C38.212,169.749,39.037,169.552,38.984,169.209L38.984,169.209z" style="stroke-dasharray: 249.763px; stroke-dashoffset: 0px; stroke: rgb(0, 112, 60);"></path>
				<path id="XMLID_1156_" d="M103.872,145.774c0.779-0.833,4.075-5.421,5.104-5.456
					c2.029-0.068,3.14,3.455,4.041,4.987c0.143,0.243,0.805-0.005,0.791-0.272c-0.178-3.407,1.717,0.587,2.032,1.084
					c0.154,0.243,0.714-0.012,0.792-0.212c1.375-0.718,1.973-0.177,1.792,1.622c0.075,0.276,0.708,0.088,0.794-0.099
					c1.628-3.54,2.232-0.949,3.202,1.18c0.123,0.271,0.768,0.101,0.822-0.16c0.78-3.717,0.454-3.499,2.846,0.793
					c0.134,0.239,0.791,0.125,0.822-0.159c0.396-3.661,1.437,0.895,1.602,2.006c0.043,0.285,0.715,0.073,0.794-0.098
					c1.532-3.301,1.651-1.63,2.167,0.625c0.065,0.285,0.706,0.076,0.794-0.099c1.053-2.071,1.514-1.395,2.661,0.388
					c0.127,0.197,0.793,0.028,0.792-0.212c-0.002-2.133,0.833-2.218,1.573-0.111c0.095,0.271,0.699,0.097,0.794-0.098
					c1.057-0.357,1.085-0.097,0.083,0.782c-0.062,0.08-0.024,0.171,0.058,0.214c0.424,0.453,0.849,0.906,1.273,1.359
					c0.118,0.27,0.677,0.096,0.793-0.098c0.423-1.62,1.136-1.663,2.139-0.131c0.151,0.279,0.729,0.089,0.822-0.16
					c0.998-0.104,1.42,0.48,1.267,1.751c0.1,0.317,0.739,0.05,0.822-0.16c0.618-0.81,1.235-1.619,1.854-2.429
					c0.372-0.281-0.445-0.308-0.661-0.144c-2.017,1.528-1.236,2.375-2.227-0.798c-0.081-0.26-0.616-0.098-0.741,0.038
					c-1.127,1.225-0.716,0.787-1.799-0.596c-0.156-0.198-0.654-0.032-0.765,0.151c-2.07,3.438-0.895-0.841-0.622-2.11
					c0.059-0.271-0.461-0.181-0.575-0.126c-2.254,1.099-1.764,2.131-2.881-1.046c-0.104-0.296-0.673-0.064-0.795,0.098
					c-1.363,1.832-0.647,3.18-2.324,0.575c-0.139-0.217-0.657-0.015-0.764,0.15c-1.193,1.85-1.318,2.109-0.993-1.192
					c0.03-0.304-0.536-0.174-0.667-0.077c1.368-1.003-2.397,1.677-1.768,1.542c-0.377,0.746-0.557,0.769-0.539,0.068
					c-0.22-1.143-0.533-2.259-0.942-3.349c-0.097-0.295-0.678-0.064-0.794,0.099c-0.394,0.553-1.246,1.84-1.144,1.847
					c-0.239-0.017-2.329-3.245-2.617-3.591c-0.18-0.217-0.8-0.013-0.792,0.272c0.19,6.125-0.691,0.646-0.847-0.743
					c-0.031-0.286-0.633-0.058-0.741,0.038c-1.935,1.706-2.024,3.333-2.98-0.169c-0.074-0.274-0.611-0.078-0.741,0.038
					c-1.945,1.748-1.788,0.768-3.278-1.577c-0.15-0.238-0.72,0.006-0.792,0.212c-1.332,3.829-1.127-2.34-3.491-2.806
					c-2.197-0.433-5.675,5.109-6.707,6.212C102.881,145.982,103.68,145.98,103.872,145.774L103.872,145.774z" style="stroke-dasharray: 249.763px; stroke-dashoffset: 0px; stroke: rgb(0, 112, 60);"></path>
				<path id="XMLID_1182_" d="M22.014,158.512c2.056,0.86,3.911,1.349,6.12,1.616c0.145,0.018,0.722-0.065,0.668-0.309
					c-0.681-3.092-1.405-6.397,1.603-1.791c0.129,0.195,0.797-0.033,0.795-0.262c-0.017-2.877,0.951-10.898,2.801-3.596
					c0.063,0.247,0.703,0.014,0.789-0.118c1.505-2.325,2.408-0.902,4.039,0.55c0.167,0.148,0.803-0.001,0.795-0.262
					c-0.1-3.339-0.154-2.652,2.957-1.313c0.15,0.064,0.801-0.038,0.742-0.292c-0.48-2.064-0.57-2.409,1.18-0.906
					c0.157,0.136,0.75,0.016,0.792-0.212c0.281-1.511,0.35-2.835,1.871-3.628c0.947-1.099,1.319-1.04,1.114,0.174
					c0.051,0.912,0.07,1.825,0.061,2.738c0.003,0.239,0.759,0.008,0.819-0.17c1.844-1.318,3.425-1.268,4.743,0.153
					c0.164,0.114,0.829,0.017,0.795-0.261c-0.26-2.084-1.317-5.747,1.572-1.092c0.136,0.22,0.744,0.051,0.818-0.17
					c0.432-0.794,0.863-1.587,1.294-2.38c0.199-0.251-0.608-0.168-0.755,0.017c-1.627,2.051-1.489,0.565-3.52-0.938
					c-0.163-0.12-0.829-0.012-0.795,0.262c0.021,0.175,0.61,2.989,0.188,3.163c-0.687,0.283-0.745-0.644-1.595-0.827
					c-0.46-0.1-0.65-0.414-1.117-0.378c-0.453,0.034-0.89,0.321-1.297,0.388c-0.313,0.051-0.68,1.036-0.754,1.009
					c0.59,0.215,0.193-4.304,0.181-4.468c-0.019-0.236-0.646-0.009-0.733,0.067c-1.005,0.88-1.403,1.138-2.166,2.263
					c-1.398,2.061-0.742,3.67-3.451,2.026c-0.151-0.092-0.86-0.02-0.795,0.262c0.762,3.274-0.858,1.82-2.834,0.742
					c-0.141-0.077-0.814,0.053-0.742,0.291c0.947,3.132,0.449,2.593-1.691,0.687c-0.176-0.156-0.631-0.002-0.762,0.16
					c-1.771,2.194-1.813-0.767-2.66-2.51c-0.122-0.25-0.729-0.018-0.818,0.171c-0.285,0.608-1.919,6.802-1.896,6.792
					c-0.233,0.094-1.787-1.801-2.203-2.239c-0.161-0.17-0.792,0.015-0.795,0.262c-0.044,4.531,1.147,6.41-4.695,3.966
					C22.463,158.06,21.713,158.386,22.014,158.512L22.014,158.512z" style="stroke-dasharray: 249.763px; stroke-dashoffset: 0px; stroke: rgb(0, 112, 60);"></path>
				<path id="XMLID_1191_" d="M117.559,141.524c-0.865-3.841,1.285-1.413,3.191-0.174
					c0.146,0.095,0.823-0.015,0.797-0.254c-0.119-1.103-0.239-2.205-0.359-3.308c1.168,0.272,2.076,0.913,2.728,1.921
					c0.13,0.137,0.747-0.031,0.792-0.212c0.372-1.489,1.479-5.681,3.128-6.189c2.028-0.626,1.896,2.882,2.564,4.458
					c0.086,0.203,0.831-0.003,0.821-0.22c-0.07-1.604,3.021,1.095,3.04,1.108c0.154,0.103,0.804-0.016,0.797-0.254
					c-0.062-2.206,0.5-1.008,1.832,0.367c0.136,0.141,0.735-0.034,0.792-0.213c0.958-3.008,1.434-1.103,2.126,0.649
					c0.089,0.223,0.741-0.028,0.817-0.179c1.909-3.771,1.89-0.822,2.418,1.188c0.056,0.212,0.765-0.019,0.816-0.179
					c0.854-2.61,1.632-1.386,2.869,0.005c0.117,0.131,0.771-0.031,0.792-0.212c-0.224,1.871-0.136-2.827,0.678-1.375
					c0.121,0.216,0.9-0.079,0.821-0.22c-0.68-1.214-0.22-0.8-1.482-1.382c-0.152-0.069-0.821-0.003-0.797,0.255
					c-0.467,1.205-0.796,1.136-0.986-0.209c-0.087-0.221-0.684,0.031-0.785,0.134c-1.479,1.497-2.221,3.646-1.229-1.233
					c0.048-0.231-0.565-0.043-0.646,0.002c-2.387,1.317-3.031,3.914-3.265-0.481c-0.013-0.23-0.711,0.071-0.784,0.133
					c-1.978,1.658-1.745,2.657-4.087,0.24c-0.134-0.138-0.802,0.039-0.796,0.254c0.083,2.984,0.17,1.081-1.365,0.468
					c-0.736-0.295-0.865-0.078-1.326-0.234c-0.27-0.091-0.957,0.784-1.088,0.683c-0.24-0.186-0.379-4.917-0.371-5.485
					c0.003-0.197-0.657,0.033-0.729,0.088c-1.552,1.191-2.917,2.499-3.906,4.211c-0.65,1.126-0.563,2.392-1.869,2.506
					c-0.219,0.019-1.616-1.181-2.128-1.32c-0.224-0.061-0.604,0.039-0.741,0.235c-0.439,0.628,0.126,1.168-0.183,1.74
					c0.325,0.648,0.148,1.046-0.529,1.19c-1.063-0.691-2.127-1.383-3.19-2.074c-0.134-0.087-0.849,0.022-0.797,0.254
					c0.266,1.18,0.532,2.358,0.798,3.538C116.781,141.941,117.606,141.738,117.559,141.524L117.559,141.524z" style="stroke-dasharray: 249.763px; stroke-dashoffset: 0px; stroke: rgb(0, 112, 60);"></path>
				<path id="XMLID_1194_" d="M174.701,131.037c-2.499,2.172-5.02,4.366-6.992,7.026
					c-1.778,2.396-3.068,5.113-4.347,7.811c-1.724,3.636-3.447,7.272-5.171,10.908c-0.048-3.775-0.096-7.55-0.143-11.325
					c-0.041-3.255-0.079-6.54,0.587-9.727c0.442-2.111,1.19-4.162,1.427-6.307c0.098-0.892,0.117-1.83,0.561-2.61
					c0.443-0.779,1.504-1.303,2.259-0.818c1.014,0.649,0.551,2.192,0.732,3.383c0.253,1.657,1.907,2.726,3.507,3.229
					c1.732,0.545,3.59,0.688,5.386,0.414" style="stroke-dasharray: 249.763px; stroke-dashoffset: 0px; stroke: rgb(0, 112, 60);"></path>
			</g>
		</svg>