<svg version="1.1" id="Layer_1" xmlns="http://www.w3.org/2000/svg" xmlns:xlink="http://www.w3.org/1999/xlink" x="0px" y="0px" height="100px" viewBox="0 0 277.009 176.328" enable-background="new 0 0 277.009 176.328" xml:space="preserve" style="fill: rgb(0, 112, 60);">
    <g>
        <path id="XMLID_20_" d="M9.064,67.612c0,0,1.831-0.693,5.147-1.564c3.314-0.859,8.124-1.921,14.031-2.36
            c2.951-0.214,6.177-0.275,9.587,0.037c3.402,0.318,7.015,0.95,10.57,2.312c3.553,1.315,7.063,3.388,9.914,6.294
            c2.852,2.9,4.975,6.574,6.225,10.452c1.288,3.886,1.716,7.944,1.796,11.875c0.074,3.943-0.364,7.786-0.957,11.445
            c-0.596,3.663-1.421,7.148-2.355,10.397c-0.89,3.264-1.932,6.282-2.919,9.053c-1.007,2.764-2.001,5.267-2.939,7.461
            c-0.897,2.209-1.805,4.082-2.496,5.646c-0.723,1.55-1.333,2.749-1.729,3.574c-0.402,0.822-0.617,1.261-0.617,1.261
            s0.663-1.836,1.825-5.049c0.546-1.618,1.264-3.561,2.002-5.816c0.761-2.247,1.557-4.802,2.408-7.587
            c0.807-2.799,1.659-5.834,2.416-9.072c0.783-3.231,1.425-6.675,1.937-10.241c0.506-3.568,0.761-7.281,0.688-11.02
            c-0.105-3.729-0.552-7.521-1.752-11.048c-1.112-3.549-2.98-6.821-5.493-9.426c-2.526-2.587-5.586-4.593-8.861-5.883
            c-3.261-1.32-6.643-2.094-9.894-2.534c-3.259-0.417-6.39-0.548-9.284-0.513c-5.793,0.1-10.626,0.742-13.985,1.29
            C10.965,67.146,9.064,67.612,9.064,67.612z" style="stroke-dasharray: 249.763px; stroke-dashoffset: 0px; stroke: rgb(0, 112, 60);"></path>
        <path id="XMLID_23_" d="M4.92,58.339c0,0,0.586-0.2,1.698-0.522c1.115-0.308,2.75-0.787,4.875-1.198
            c2.122-0.425,4.717-0.877,7.726-1.221c3.006-0.36,6.433-0.602,10.183-0.495c3.749,0.087,7.825,0.443,12.096,1.257
            c2.132,0.421,4.309,0.957,6.508,1.628c2.203,0.667,4.382,1.585,6.56,2.604c2.177,1.025,4.3,2.274,6.366,3.663
            c2.08,1.376,4.034,3,5.861,4.775c3.681,3.533,6.763,7.773,9.187,12.31c2.347,4.582,4.056,9.432,5.231,14.284
            c1.181,4.855,1.746,9.727,2.034,14.414c0.303,4.693,0.145,9.225-0.112,13.49c-0.18,2.13-0.307,4.203-0.558,6.194
            c-0.111,0.995-0.221,1.975-0.328,2.936c-0.135,0.957-0.267,1.896-0.396,2.815c-0.491,3.679-1.154,7.016-1.814,9.951
            c-0.611,2.945-1.274,5.481-1.775,7.576c-0.508,2.093-1.039,3.707-1.341,4.819c-0.32,1.108-0.491,1.699-0.491,1.699l-0.277-0.062
            c0,0,0.125-0.6,0.36-1.725c0.227-1.127,0.597-2.771,1-4.879c0.38-2.111,0.896-4.665,1.337-7.62c0.241-1.475,0.49-3.044,0.695-4.707
            c0.223-1.66,0.464-3.405,0.637-5.235c0.096-0.914,0.194-1.847,0.294-2.798c0.073-0.953,0.147-1.924,0.223-2.912
            c0.178-1.974,0.231-4.021,0.336-6.124c0.11-4.207,0.078-8.65-0.272-13.228c-0.351-4.575-1.041-9.282-2.196-13.954
            c-1.167-4.668-2.84-9.291-5.096-13.62c-2.274-4.312-5.144-8.328-8.587-11.679c-3.41-3.385-7.354-6.094-11.437-8.155
            c-4.092-2.061-8.326-3.46-12.417-4.409c-4.1-0.929-8.059-1.416-11.723-1.629c-7.338-0.409-13.468,0.191-17.704,0.791
            c-4.244,0.613-6.613,1.238-6.613,1.238L4.92,58.339z" style="stroke-dasharray: 249.763px; stroke-dashoffset: 0px; stroke: rgb(0, 112, 60);"></path>
        <path id="XMLID_24_" d="M0,58.895c0,0,0.793-0.072,2.281-0.207c1.487-0.125,3.667-0.359,6.446-0.555
            c2.777-0.213,6.15-0.47,10.019-0.766c3.869-0.303,8.233-0.64,12.999-0.896c2.382-0.142,4.863-0.29,7.432-0.443
            c0.642-0.038,1.29-0.077,1.942-0.116l0.983-0.059l0.494-0.029l0.588-0.006c1.432,0.015,2.794,0.079,4.203,0.205
            c5.599,0.48,11.443,1.58,17.263,3.512c5.816,1.905,11.687,4.434,17.186,7.832c5.512,3.366,10.701,7.477,15.292,12.171
            c4.564,4.724,8.514,9.997,11.875,15.485c0.782,1.404,1.562,2.804,2.337,4.195c0.809,1.376,1.39,2.853,2.07,4.27
            c1.396,2.822,2.434,5.745,3.523,8.589c0.585,1.408,0.954,2.874,1.414,4.294c0.445,1.424,0.866,2.841,1.271,4.244
            c0.634,2.851,1.314,5.623,1.86,8.34c0.447,2.732,0.882,5.39,1.302,7.96c0.274,2.584,0.54,5.081,0.794,7.478
            c0.153,1.195,0.195,2.373,0.255,3.522c0.059,1.15,0.124,2.272,0.154,3.368c0.075,2.189,0.182,4.263,0.107,6.215
            c-0.031,1.949-0.06,3.772-0.087,5.459c-0.013,0.842-0.026,1.648-0.039,2.421c-0.047,0.771-0.092,1.505-0.135,2.203
            c-0.162,2.789-0.37,4.975-0.477,6.464c-0.117,1.489-0.179,2.283-0.179,2.283l-0.283-0.013c0,0,0.064-3.179,0.177-8.74
            c0.012-0.695,0.025-1.427,0.039-2.195c-0.021-0.768-0.043-1.571-0.067-2.409c-0.046-1.676-0.096-3.487-0.15-5.423
            c-0.01-1.938-0.205-3.991-0.374-6.156c-0.085-1.083-0.173-2.193-0.263-3.331c-0.089-1.137-0.163-2.302-0.347-3.479
            c-0.315-2.361-0.644-4.821-0.984-7.368c-0.483-2.522-0.982-5.13-1.495-7.811c-0.609-2.659-1.353-5.364-2.047-8.144
            c-0.44-1.363-0.886-2.74-1.335-4.132c-0.471-1.383-0.851-2.813-1.444-4.181c-1.105-2.763-2.157-5.602-3.557-8.329
            c-1.24-2.804-2.841-5.46-4.369-8.182c-3.292-5.305-7.142-10.383-11.573-14.918c-4.41-4.551-9.39-8.55-14.699-11.832
            c-5.306-3.29-10.924-5.871-16.552-7.787c-5.626-1.928-11.276-3.17-16.69-3.78c-1.352-0.158-2.696-0.256-4.011-0.304
            c-1.307-0.008-2.629,0.07-3.91,0.101c-2.57,0.083-5.054,0.163-7.438,0.24C12.726,58.769,0.01,59.178,0.01,59.178L0,58.895z" style="stroke-dasharray: 249.763px; stroke-dashoffset: 0px; stroke: rgb(0, 112, 60);"></path>
        <path id="XMLID_25_" d="M11.646,57.447c0,0,3.404-0.709,9.439-1.333c6.029-0.626,14.712-1.111,25.128-0.545
            c5.205,0.292,10.839,0.858,16.75,1.843c5.912,0.977,12.086,2.434,18.341,4.418c6.252,1.986,12.57,4.553,18.708,7.755
            c6.137,3.199,12.081,7.048,17.583,11.478c2.76,2.202,5.396,4.564,7.903,7.041c1.255,1.232,2.479,2.507,3.662,3.788
            c1.164,1.257,2.324,2.511,3.48,3.759c4.65,5.1,8.982,10.259,12.958,15.471c3.943,5.225,7.535,10.451,10.655,15.588
            c1.572,2.561,3.041,5.089,4.419,7.558c1.356,2.481,2.603,4.915,3.767,7.266c2.324,4.703,4.166,9.157,5.653,13.149
            c1.47,4.002,2.562,7.557,3.311,10.522c1.521,5.934,1.721,9.454,1.721,9.454l-0.562,0.081c0,0-0.198-0.829-0.695-2.36
            c-0.501-1.531-1.279-3.761-2.398-6.543c-1.126-2.778-2.591-6.11-4.428-9.85c-1.825-3.745-4.039-7.889-6.607-12.318
            c-1.288-2.213-2.664-4.496-4.145-6.825c-1.455-2.343-3.001-4.74-4.651-7.165c-3.303-4.847-6.884-9.891-10.751-14.995
            c-3.837-5.116-7.938-10.358-12.217-15.514c-1.1-1.295-2.204-2.595-3.311-3.899c-1.088-1.278-2.205-2.519-3.36-3.738
            c-2.303-2.442-4.736-4.786-7.3-6.984c-5.127-4.395-10.716-8.266-16.54-11.533c-5.823-3.271-11.871-5.949-17.898-8.07
            c-6.027-2.135-12.031-3.698-17.787-4.9c-5.76-1.195-11.285-1.972-16.41-2.461c-10.258-0.979-18.887-0.794-24.897-0.468
            c-6.017,0.344-9.418,0.891-9.418,0.891L11.646,57.447z" style="stroke-dasharray: 249.763px; stroke-dashoffset: 0px; stroke: rgb(0, 112, 60);"></path>
        <path id="XMLID_26_" d="M229.614,166.767c0,0-1.961-2.65-5.614-7.121c-3.661-4.462-9.022-10.732-15.778-17.956
            c-3.402-3.589-7.11-7.455-11.17-11.404c-4.026-3.982-8.397-8.053-12.981-12.188c-2.317-2.039-4.675-4.111-7.1-6.162
            c-2.457-2.013-4.887-4.118-7.457-6.092c-1.272-1.002-2.549-2.008-3.831-3.017c-1.306-0.976-2.615-1.954-3.927-2.936
            c-2.604-1.988-5.315-3.85-8.009-5.733c-1.338-0.956-2.712-1.856-4.094-2.743c-1.376-0.894-2.75-1.787-4.122-2.679
            c-2.781-1.723-5.576-3.397-8.358-5.038c-1.414-0.78-2.822-1.558-4.222-2.332c-1.405-0.767-2.779-1.571-4.203-2.261
            c-1.411-0.714-2.813-1.424-4.206-2.128c-0.697-0.351-1.391-0.7-2.083-1.048c-0.705-0.319-1.407-0.638-2.106-0.955
            c-2.791-1.278-5.497-2.627-8.256-3.686c-2.738-1.107-5.392-2.26-8.058-3.159c-2.651-0.936-5.204-1.94-7.759-2.634
            c-1.267-0.386-2.511-0.765-3.733-1.137c-0.611-0.187-1.217-0.371-1.817-0.555c-0.608-0.148-1.211-0.295-1.807-0.441
            c-2.388-0.582-4.676-1.141-6.853-1.672c-2.205-0.404-4.296-0.788-6.261-1.148c-1.961-0.417-3.828-0.563-5.547-0.773
            c-1.721-0.215-3.302-0.412-4.73-0.59c-5.755-0.345-9.044-0.541-9.044-0.541l-0.005-0.284c0,0,0.826-0.021,2.375-0.063
            c1.55-0.037,3.827-0.096,6.73-0.107c1.449,0.078,3.053,0.164,4.799,0.258c1.746,0.123,3.646,0.176,5.645,0.494
            c2.009,0.264,4.146,0.544,6.399,0.84c2.234,0.405,4.577,0.884,7.022,1.384c0.611,0.127,1.229,0.255,1.853,0.384
            c0.615,0.164,1.236,0.329,1.863,0.496c1.255,0.334,2.533,0.675,3.833,1.021c2.618,0.644,5.232,1.598,7.952,2.484
            c2.741,0.835,5.45,1.975,8.239,3.086c2.815,1.055,5.573,2.398,8.418,3.674c0.707,0.329,1.416,0.66,2.128,0.992
            c0.697,0.361,1.398,0.725,2.1,1.088c1.403,0.732,2.816,1.469,4.238,2.21c1.436,0.717,2.819,1.545,4.223,2.354
            c1.401,0.813,2.81,1.629,4.225,2.448c2.78,1.716,5.571,3.467,8.343,5.263c1.366,0.929,2.735,1.858,4.106,2.789
            c1.375,0.924,2.743,1.86,4.072,2.852c2.686,1.942,5.387,3.863,7.978,5.908c1.305,1.009,2.608,2.016,3.907,3.02
            c1.273,1.036,2.542,2.068,3.807,3.098c2.553,2.027,4.963,4.184,7.4,6.247c2.404,2.102,4.741,4.222,7.036,6.308
            c4.532,4.235,8.875,8.371,12.822,12.461c3.988,4.05,7.624,8.007,10.956,11.677c6.616,7.387,11.851,13.781,15.42,18.327
            c3.56,4.555,5.47,7.255,5.47,7.255L229.614,166.767z" style="stroke-dasharray: 249.763px; stroke-dashoffset: 0px; stroke: rgb(0, 112, 60);"></path>
        <path id="XMLID_27_" d="M77.164,59.939c0,0,0.839-0.07,2.418-0.131c1.578-0.042,3.898-0.127,6.849-0.071
            c2.95,0.053,6.539,0.126,10.642,0.428c2.056,0.116,4.234,0.323,6.538,0.503c2.296,0.231,4.714,0.473,7.226,0.801
            c5.035,0.59,10.467,1.423,16.184,2.467c5.709,1.079,11.73,2.271,17.875,3.85c3.089,0.728,6.187,1.623,9.349,2.445
            c3.136,0.908,6.323,1.795,9.489,2.832c3.165,1.042,6.374,2.039,9.543,3.191c1.591,0.56,3.185,1.121,4.78,1.682l4.749,1.793
            c3.169,1.195,6.287,2.515,9.395,3.823c3.125,1.269,6.167,2.696,9.211,4.05c6.077,2.737,11.908,5.747,17.507,8.723
            c2.819,1.453,5.521,3.013,8.167,4.534c1.317,0.77,2.639,1.497,3.91,2.276c1.271,0.78,2.525,1.551,3.763,2.312
            c4.997,2.962,9.51,6.104,13.722,8.909c4.115,2.957,7.939,5.58,11.159,8.144c3.243,2.529,6.106,4.675,8.336,6.61
            c4.515,3.797,7.045,6.012,7.045,6.012s-2.838-1.828-7.715-5.105c-0.609-0.409-1.251-0.841-1.924-1.294
            c-0.687-0.433-1.406-0.886-2.156-1.357c-1.49-0.952-3.103-1.983-4.825-3.084c-0.86-0.55-1.748-1.118-2.662-1.702
            c-0.931-0.559-1.887-1.134-2.87-1.724c-1.952-1.194-4.005-2.449-6.146-3.759c-2.176-1.25-4.442-2.553-6.789-3.9
            c-2.326-1.377-4.781-2.713-7.301-4.089c-1.259-0.69-2.534-1.39-3.826-2.098c-1.292-0.707-2.633-1.36-3.97-2.056
            c-2.697-1.345-5.375-2.859-8.209-4.191c-5.591-2.811-11.481-5.476-17.466-8.168c-3.012-1.305-6.021-2.682-9.111-3.899
            c-3.072-1.262-6.158-2.521-9.285-3.679l-4.659-1.813c-1.565-0.568-3.129-1.136-4.689-1.702c-3.11-1.166-6.26-2.178-9.368-3.235
            c-1.549-0.542-3.12-0.997-4.667-1.498c-1.549-0.498-3.09-0.993-4.622-1.486c-3.088-0.9-6.117-1.876-9.139-2.683
            c-1.508-0.416-3.003-0.828-4.484-1.236c-1.486-0.39-2.958-0.776-4.415-1.157c-2.906-0.797-5.778-1.455-8.566-2.143
            c-5.596-1.266-10.897-2.463-15.826-3.393c-4.926-0.943-9.46-1.737-13.495-2.359c-4.035-0.623-7.565-1.099-10.48-1.454
            C80.527,60.155,77.164,59.939,77.164,59.939z" style="stroke-dasharray: 249.763px; stroke-dashoffset: 0px; stroke: rgb(0, 112, 60);"></path>
        <path id="XMLID_28_" d="M3.925,58.904c0,0,20.836-28.688,68.309-7.932c27.18-19.244,77.163-30.377,122.897,5.293
            c0,0,13.258-20.322,38.352,1.375c16.224-8.162,36.108,1.121,36.108,1.121L3.925,58.904z" style="stroke-dasharray: 249.763px; stroke-dashoffset: 0px; stroke: rgb(0, 112, 60);"></path>
        <path id="XMLID_89_" d="M75.001,58.559c0,0,0.812-0.041,2.333-0.117c1.522-0.06,3.756-0.167,6.6-0.194
            c5.688-0.07,13.822-0.101,23.573,0.321c4.875,0.207,10.156,0.486,15.731,0.929c5.579,0.404,11.452,0.96,17.518,1.634
            c6.061,0.71,12.325,1.463,18.658,2.456c3.169,0.479,6.359,0.987,9.554,1.55c3.201,0.524,6.4,1.136,9.601,1.736
            c6.395,1.238,12.755,2.646,19,4.101c3.117,0.753,6.199,1.538,9.243,2.317c3.029,0.836,6.022,1.662,8.965,2.475
            c2.925,0.876,5.801,1.737,8.616,2.58c2.793,0.915,5.525,1.811,8.185,2.682c2.639,0.93,5.207,1.835,7.689,2.71
            c2.487,0.863,4.837,1.846,7.12,2.708c4.578,1.697,8.652,3.567,12.311,5.089c3.602,1.661,6.754,3.075,9.323,4.297
            c2.543,1.274,4.542,2.276,5.904,2.959c1.359,0.687,2.084,1.053,2.084,1.053s-0.748-0.317-2.15-0.913
            c-1.399-0.599-3.452-1.478-6.063-2.595c-2.622-1.093-5.835-2.348-9.5-3.825c-1.854-0.684-3.828-1.411-5.908-2.179
            c-1.038-0.387-2.103-0.783-3.193-1.189c-1.099-0.382-2.224-0.771-3.372-1.171c-4.579-1.634-9.598-3.229-14.898-4.931
            c-2.666-0.799-5.405-1.619-8.205-2.458c-2.814-0.788-5.689-1.594-8.613-2.412c-2.938-0.763-5.926-1.538-8.951-2.322
            c-3.038-0.729-6.113-1.466-9.213-2.209c-3.114-0.685-6.242-1.419-9.4-2.076c-3.164-0.63-6.325-1.335-9.513-1.908
            c-3.18-0.613-6.358-1.237-9.54-1.775c-3.175-0.576-6.346-1.098-9.497-1.59c-6.298-1-12.51-1.906-18.536-2.687
            c-6.03-0.737-11.861-1.466-17.406-2.005c-5.543-0.562-10.792-1.029-15.642-1.412c-9.701-0.738-17.803-1.218-23.481-1.39
            c-2.84-0.087-5.071-0.155-6.593-0.202C75.813,58.571,75.001,58.559,75.001,58.559z" style="stroke-dasharray: 249.763px; stroke-dashoffset: 0px; stroke: rgb(0, 112, 60);"></path>
        <rect id="XMLID_90_" x="233.065" y="42.17" width="2.835" height="40.458"></rect>
        <path id="XMLID_91_" d="M227.784,3.725c-3.257-0.018-6.374,2.387-7.183,5.542c-0.163,0.635-0.248,1.309-0.6,1.86
            c-0.291,0.457-0.739,0.787-1.185,1.094c-1.818,1.247-3.838,2.313-5.178,4.063s-1.741,4.495-0.176,6.049
            c0.673,0.667,1.711,1.191,1.737,2.139c0.009,0.353-0.136,0.688-0.283,1.008c-0.864,1.877-1.907,3.695-2.397,5.702
            c-0.49,2.008-0.337,4.308,0.997,5.886c1.428,1.689,3.825,2.161,6.036,2.259c0.336,0.016,0.69,0.029,0.978,0.205
            c0.407,0.248,0.57,0.744,0.771,1.177c1.375,2.97,5.19,3.696,8.444,4.042c0.875,0.093,1.774,0.185,2.624-0.046
            s1.65-0.858,1.82-1.722c3.341,2.978,8.361,3.002,12.771,2.236c2.157-0.375,4.655-1.232,5.223-3.347
            c0.163-0.605,0.139-1.256,0.353-1.845c0.412-1.136,1.576-1.776,2.47-2.59c2.081-1.894,2.768-5.039,2.057-7.762
            s-2.664-5.013-5.028-6.538c-0.851-0.549-1.851-1.138-2.024-2.135c-0.112-0.646,0.167-1.288,0.417-1.895
            c0.763-1.851,1.311-3.829,1.229-5.829s-0.853-4.031-2.373-5.333c-1.503-1.288-3.571-1.742-5.55-1.715
            c-0.309,0.004-0.643,0.012-0.896-0.166c-0.382-0.27-0.397-0.814-0.474-1.275c-0.342-2.063-2.47-3.312-4.468-3.933
            c-2.14-0.664-4.397-0.947-6.635-0.833c-1.287,0.066-2.606,0.276-3.707,0.946c-1.1,0.671-1.942,1.884-1.867,3.17" style="stroke-dasharray: 249.763px; stroke-dashoffset: 0px; stroke: rgb(0, 112, 60);"></path>

            <rect id="XMLID_92_" x="221.92" y="44.963" transform="matrix(0.5615 0.8275 -0.8275 0.5615 138.7729 -170.5146)" width="16.687" height="1.417"></rect>

            <rect id="XMLID_93_" x="170.908" y="54.394" transform="matrix(0.1884 0.9821 -0.9821 0.1884 201.6394 -116.667)" width="1" height="18.546"></rect>

            <rect id="XMLID_94_" x="175.294" y="59.458" transform="matrix(0.2089 0.9779 -0.9779 0.2089 203.0853 -120.1355)" width="1.001" height="11.987"></rect>

            <rect id="XMLID_95_" x="180.252" y="64.425" transform="matrix(0.2986 0.9544 -0.9544 0.2986 191.2068 -125.1554)" width="1.001" height="6.168"></rect>
        <path id="XMLID_96_" d="M64.209,114.1c2.523-1.512,5.187-2.234,8.127-2.203c1.682,0.019,2.199-2.171,0.238-2.191
            c-3.42-0.037-6.734,0.858-9.668,2.615C61.229,113.324,62.761,114.967,64.209,114.1L64.209,114.1z" style="stroke-dasharray: 249.763px; stroke-dashoffset: 0px; stroke: rgb(0, 112, 60);"></path>
        <path id="XMLID_97_" d="M62.804,117.553c2.172-0.953,4.386-1.526,6.747-1.76c1.289-0.127,2.508-1.506,0.476-1.306
            c-2.868,0.283-5.649,1.016-8.288,2.172C59.875,117.477,61.61,118.075,62.804,117.553L62.804,117.553z" style="stroke-dasharray: 249.763px; stroke-dashoffset: 0px; stroke: rgb(0, 112, 60);"></path>
        <path id="XMLID_98_" d="M61.564,122.047c2.863-1.223,5.815-2.015,8.906-2.389c1.521-0.184,2.307-2.137,0.317-1.896
            c-3.619,0.438-7.094,1.369-10.447,2.802C58.504,121.349,60.149,122.651,61.564,122.047L61.564,122.047z" style="stroke-dasharray: 249.763px; stroke-dashoffset: 0px; stroke: rgb(0, 112, 60);"></path>
        <path id="XMLID_99_" d="M81.868,95.891c2.105-3.098,7.932-3.559,11.319-3.593c0.909-0.009,3.13-1.384,1.202-1.364
            c-3.084,0.031-6.116,0.489-9.05,1.457c-2.199,0.726-4.769,1.605-6.126,3.602C78.588,96.913,81.422,96.546,81.868,95.891
            L81.868,95.891z" style="stroke-dasharray: 249.763px; stroke-dashoffset: 0px; stroke: rgb(0, 112, 60);"></path>
        <path id="XMLID_100_" d="M82.252,99.035c1.726-1.475,3.699-2.451,5.945-2.811c0.34-0.055,1.678-0.342,1.69-0.821
            c0.013-0.526-0.837-0.389-1.174-0.335c-3.383,0.541-6.488,1.912-9.097,4.141c-0.523,0.447,0.46,0.536,0.7,0.534
            C80.976,99.736,81.75,99.465,82.252,99.035L82.252,99.035z" style="stroke-dasharray: 249.763px; stroke-dashoffset: 0px; stroke: rgb(0, 112, 60);"></path>
        <path id="XMLID_101_" d="M82.441,102.407c3.198-1.69,6.58-2.835,10.149-3.427c1.34-0.223,2.429-1.846,0.42-1.513
            c-4.349,0.722-8.448,2.102-12.346,4.162c-0.506,0.268-0.736,0.689-0.271,1.065C80.872,103.083,82.002,102.64,82.441,102.407
            L82.441,102.407z" style="stroke-dasharray: 249.763px; stroke-dashoffset: 0px; stroke: rgb(0, 112, 60);"></path>
        <path id="XMLID_102_" d="M121.013,124.497c0.434-1.411,5.027-2.136,6.246-2.458
            c2.252-0.595,4.527-1.059,6.824-1.443c1.853-0.31,1.242-2.428-0.569-2.125c-3.534,0.592-7.019,1.398-10.43,2.499
            c-1.805,0.582-4.231,1.081-4.861,3.125C117.716,125.742,120.605,125.82,121.013,124.497L121.013,124.497z" style="stroke-dasharray: 249.763px; stroke-dashoffset: 0px; stroke: rgb(0, 112, 60);"></path>
        <path id="XMLID_103_" d="M120.989,126.919c2.713-1.151,5.5-2.054,8.389-2.649c0.386-0.079,1.64-0.322,1.679-0.861
            c0.04-0.55-0.845-0.479-1.193-0.406c-3.413,0.704-6.72,1.701-9.93,3.063C118.056,126.86,119.807,127.42,120.989,126.919
            L120.989,126.919z" style="stroke-dasharray: 249.763px; stroke-dashoffset: 0px; stroke: rgb(0, 112, 60);"></path>
        <path id="XMLID_104_" d="M122.456,131.412c2.624-2.755,7.724-3.211,11.313-3.421
            c1.468-0.087,2.376-1.809,0.373-1.691c-4.577,0.269-10.691,1.069-14.027,4.573C118.932,132.115,121.75,132.153,122.456,131.412
            L122.456,131.412z" style="stroke-dasharray: 249.763px; stroke-dashoffset: 0px; stroke: rgb(0, 112, 60);"></path>
        <path id="XMLID_105_" d="M98.012,81.377c1.917-1.159,3.932-1.94,6.123-2.4c0.407-0.085,1.417-0.509,1.264-1.078
            c-0.16-0.596-1.255-0.382-1.634-0.302c-2.67,0.56-5.201,1.569-7.536,2.979c-0.443,0.269-0.804,0.729-0.267,1.084
            C96.484,82.004,97.545,81.658,98.012,81.377L98.012,81.377z" style="stroke-dasharray: 249.763px; stroke-dashoffset: 0px; stroke: rgb(0, 112, 60);"></path>
        <path id="XMLID_106_" d="M99.752,82.598c0.653-0.574,1.339-1.012,2.187-1.225c0.346-0.086,1.415-0.425,1.3-0.945
            c-0.113-0.512-1.333-0.234-1.598-0.168c-1.516,0.38-2.969,1.064-4.148,2.1c-0.407,0.357-0.385,0.716,0.211,0.787
            C98.319,83.221,99.271,83.021,99.752,82.598L99.752,82.598z" style="stroke-dasharray: 249.763px; stroke-dashoffset: 0px; stroke: rgb(0, 112, 60);"></path>
        <path id="XMLID_107_" d="M101.386,84.33c1.166-0.584,2.358-1.046,3.619-1.38c0.485-0.128,1.386-0.563,1.23-1.204
            c-0.155-0.641-1.227-0.545-1.667-0.428c-1.51,0.399-2.977,0.944-4.374,1.645c-0.438,0.22-1.153,0.719-0.743,1.275
            C99.829,84.752,100.924,84.563,101.386,84.33L101.386,84.33z" style="stroke-dasharray: 249.763px; stroke-dashoffset: 0px; stroke: rgb(0, 112, 60);"></path>
        <path id="XMLID_108_" d="M134.477,99.619c4.187-2.282,8.556-4.059,13.15-5.335c1.706-0.474,1.395-1.736-0.336-1.256
            c-5.081,1.412-9.937,3.374-14.566,5.898C131.022,99.854,133.622,100.085,134.477,99.619L134.477,99.619z" style="stroke-dasharray: 249.763px; stroke-dashoffset: 0px; stroke: rgb(0, 112, 60);"></path>
        <path id="XMLID_109_" d="M136.111,101.87c0.928-1.063,2.625-1.372,3.929-1.724c1.52-0.409,3.055-0.645,4.62-0.78
            c1.627-0.14,2.232-2.298,0.256-2.128c-3.552,0.307-8.736,0.91-11.232,3.771C132.482,102.388,135.244,102.864,136.111,101.87
            L136.111,101.87z" style="stroke-dasharray: 249.763px; stroke-dashoffset: 0px; stroke: rgb(0, 112, 60);"></path>
        <path id="XMLID_110_" d="M141.222,107.326c1.871-0.817,3.788-1.438,5.78-1.885c0.461-0.104,1.402-0.561,1.238-1.175
            c-0.171-0.638-1.22-0.497-1.66-0.398c-2.246,0.504-4.426,1.226-6.535,2.147c-0.436,0.19-1.152,0.705-0.753,1.239
            C139.679,107.771,140.758,107.529,141.222,107.326L141.222,107.326z" style="stroke-dasharray: 249.763px; stroke-dashoffset: 0px; stroke: rgb(0, 112, 60);"></path>
        <path id="XMLID_111_" d="M159.708,137.071c5.182-3.198,10.879-4.902,16.95-5.197
            c1.634-0.079,2.239-2.201,0.261-2.105c-6.878,0.334-13.278,2.382-19.13,5.994C156.128,136.788,158.521,137.804,159.708,137.071
            L159.708,137.071z" style="stroke-dasharray: 249.763px; stroke-dashoffset: 0px; stroke: rgb(0, 112, 60);"></path>
        <path id="XMLID_112_" d="M158.049,133.372c2.747-1.53,5.583-2.848,8.523-3.961c0.539-0.204,1.073-0.826,0.712-1.39
            c-0.385-0.602-1.444-0.35-1.953-0.157c-2.94,1.113-5.776,2.432-8.523,3.961C155.084,132.786,156.655,134.148,158.049,133.372
            L158.049,133.372z" style="stroke-dasharray: 249.763px; stroke-dashoffset: 0px; stroke: rgb(0, 112, 60);"></path>
        <path id="XMLID_113_" d="M136.014,81.104c3.299-2.625,8.283-3.327,12.372-3.509c1.043-0.046,3.077-1.684,1.14-1.598
            c-5.37,0.238-11.503,1.229-15.825,4.668C132.425,81.68,135.303,81.669,136.014,81.104L136.014,81.104z" style="stroke-dasharray: 249.763px; stroke-dashoffset: 0px; stroke: rgb(0, 112, 60);"></path>
        <path id="XMLID_114_" d="M157.478,72.203c3.756-1.511,7.653-2.257,11.694-2.338
            c0.573-0.012,3.251-1.135,1.899-1.108c-5.281,0.105-10.342,1.187-15.239,3.155C154.082,72.616,156.829,72.464,157.478,72.203
            L157.478,72.203z" style="stroke-dasharray: 249.763px; stroke-dashoffset: 0px; stroke: rgb(0, 112, 60);"></path>
        <path id="XMLID_115_" d="M162.178,73.476c1.677-0.508,3.37-0.872,5.11-1.081c0.55-0.066,1.553-0.39,1.625-1.063
            c0.073-0.677-0.793-0.819-1.289-0.76c-2,0.24-3.968,0.644-5.896,1.228c-0.481,0.146-1.4,0.57-1.224,1.227
            C160.674,73.66,161.715,73.616,162.178,73.476L162.178,73.476z" style="stroke-dasharray: 249.763px; stroke-dashoffset: 0px; stroke: rgb(0, 112, 60);"></path>
        <path id="XMLID_116_" d="M187.066,83.397c5.909-1.637,11.859-2.071,17.948-1.411
            c0.661,0.071,3.323-1.07,1.867-1.229c-6.796-0.736-13.49-0.145-20.073,1.679C185.132,82.901,185.357,83.871,187.066,83.397
            L187.066,83.397z" style="stroke-dasharray: 249.763px; stroke-dashoffset: 0px; stroke: rgb(0, 112, 60);"></path>
        <path id="XMLID_117_" d="M193.324,85.757c1.564-0.53,3.129-1.06,4.693-1.589c0.503-0.171,1.383-0.573,1.216-1.258
            c-0.156-0.637-1.217-0.638-1.682-0.48c-1.564,0.53-3.129,1.06-4.693,1.589c-0.504,0.171-1.384,0.573-1.216,1.257
            C191.798,85.913,192.859,85.914,193.324,85.757L193.324,85.757z" style="stroke-dasharray: 249.763px; stroke-dashoffset: 0px; stroke: rgb(0, 112, 60);"></path>
        <path id="XMLID_118_" d="M186.814,81.592c-0.27,0.259-0.274,0.324-0.015,0.198c0.182-0.064,0.366-0.122,0.552-0.174
            c0.311-0.091,0.625-0.174,0.941-0.246c0.693-0.16,1.396-0.261,2.102-0.34c0.437-0.049,1.588-0.34,1.672-0.889
            c0.091-0.592-0.878-0.491-1.206-0.454c-1.62,0.183-3.21,0.531-4.757,1.045c-0.488,0.162-2.991,1.021-1.999,1.921
            C184.76,83.249,187.44,82.16,186.814,81.592L186.814,81.592z" style="stroke-dasharray: 249.763px; stroke-dashoffset: 0px; stroke: rgb(0, 112, 60);"></path>
    </g>
</svg>