<svg version="1.1" id="Layer_6" xmlns="http://www.w3.org/2000/svg" xmlns:xlink="http://www.w3.org/1999/xlink" x="0px" y="0px" height="110px" viewBox="0 0 457.795 231.348" enable-background="new 0 0 457.795 231.348" xml:space="preserve" style="fill: rgb(255, 255, 255);">
			<g>
				<path id="XMLID_1215_" d="M36.42,123.748c49.019-9.734,98.526-18.176,147.095-29.995
					c6.679-1.625,13.362-3.295,20.254-3.666c6.601-0.356,13.255,0.223,19.848,0.547c12.939,0.638,25.879,1.275,38.818,1.913
					c25.216,1.242,50.432,2.485,75.647,3.728c28.533,1.406,57.067,2.813,85.601,4.219c0.548,0.026,2.222-0.145,2.355-0.896
					c1.002-5.638-1.449-6.093-6.076-6.162c-7.265-0.109-14.528-0.245-21.792-0.408c-15.082-0.339-30.161-0.796-45.235-1.37
					c-29.04-1.106-58.063-2.648-87.058-4.622c-14.477-0.984-28.938-2.141-43.403-3.279c-5.947-0.468-11.936-0.842-17.877-0.076
					c-6.441,0.831-12.611,2.959-18.817,4.78c-26.865,7.886-54.57,12.275-82.128,16.943c-14.913,2.527-29.818,5.142-44.59,8.413
					c-7.311,1.619-14.586,3.4-21.797,5.416c-1.893,0.529-8.442,2.074-4.449,5.238c0.687,0.544,3.301-0.582,2.714-1.047
					c-3.005-2.381,6.291-4.232,7.457-4.539c3.017-0.794,6.044-1.549,9.078-2.271c6.549-1.562,13.134-2.967,19.737-4.273
					c12.264-2.427,24.593-4.507,36.919-6.586c23.521-3.967,47.1-7.918,70.15-14.144c6.082-1.644,12.063-3.688,18.169-5.231
					c7.891-1.994,15.549-1.911,23.598-1.281c13.147,1.03,26.292,2.094,39.448,3.008c25.697,1.785,51.418,3.229,77.153,4.332
					c13.963,0.599,27.931,1.097,41.9,1.495c7.593,0.217,15.186,0.404,22.779,0.562c3.632,0.075,7.265,0.145,10.896,0.206
					c4.239,0.072,11.521-1.247,10.349,5.348c0.785-0.299,1.57-0.597,2.355-0.896c-51.759-2.551-103.518-5.102-155.275-7.652
					c-12.94-0.637-25.88-1.275-38.819-1.912c-11.346-0.56-22.928-1.84-34.215-0.018c-12.004,1.938-23.801,5.464-35.692,8.003
					c-12.761,2.724-25.57,5.219-38.368,7.76c-28.75,5.71-57.499,11.419-86.249,17.129C35.672,122.704,34.403,124.148,36.42,123.748
					L36.42,123.748z" style="stroke-dasharray: 319.38px; stroke-dashoffset: 319.38px; stroke: rgb(255, 255, 255);"></path>
				<path id="XMLID_1219_" d="M37.818,122.759c0.858,28.815,0.578,57.645-0.848,86.438
					c-0.024,0.484,0.477,0.543,0.863,0.56c72.034,2.909,144.549,8.284,216.64,4.886c0.653-0.031,2.017-0.287,2.029-1.148
					c0.168-11.158,0.336-22.317,0.504-33.476c-0.555,0.374-1.11,0.747-1.665,1.121c8.642-0.787,17.313-0.642,25.906,0.62
					c2.176,0.32,4.234,0.189,5.078,2.592c0.545,1.551-0.004,4.17-0.006,5.883c-0.003,2.703-0.783,5.804,1.898,7.321
					c2.112,1.197,6.063,1.008,8.383,1.323c3.773,0.512,7.547,1.024,11.32,1.536c1.997,0.271,4.102,0.071,5.558,1.517
					c1.419,1.409,1.345,3.574,1.701,5.487c0.745,3.996,1.49,7.992,2.235,11.988c0.064,0.345,0.622,0.359,0.869,0.371
					c34.223,1.663,68.498,0.845,102.605-2.413c0.564-0.054,1.66-0.409,1.666-1.121c0.178-23.984,0.185-47.971,0.195-71.957
					c0.006-14.782-0.477-30.36,0.004-44.805c-0.964,0.196-1.928,0.393-2.893,0.589c0.001,0.001,0.001,0.002,0.001,0.004
					c0.253,0.915,3.151,0.14,2.898-0.776c-0.001-0.002-0.001-0.003-0.001-0.004c-0.238-0.865-2.866-0.198-2.893,0.589
					c-0.487,14.617-0.009,29.326-0.015,43.949c-0.01,24.396-0.015,48.793-0.196,73.188c0.556-0.373,1.11-0.747,1.666-1.12
					c-20.132,1.922-40.332,3.013-60.555,3.199c-9.842,0.092-19.687-0.025-29.523-0.351c-1.968-0.064-3.935-0.138-5.901-0.22
					c-3.668-0.152-4.52-0.011-5.719-3.587c-1.537-4.583-1.864-9.996-2.751-14.755c-0.041-0.216-0.378-0.324-0.548-0.348
					c-6.604-0.896-13.207-1.793-19.811-2.689c-3.521-0.479-7.222-0.486-7.302-4.751c-0.067-3.591,0.008-7.193,0.011-10.785
					c0.001-0.216-0.419-0.323-0.548-0.348c-10.897-2.094-21.854-2.599-32.903-1.593c-0.568,0.052-1.654,0.411-1.665,1.121
					c-0.168,11.158-0.336,22.317-0.504,33.477c0.676-0.383,1.353-0.766,2.029-1.148c-39.521,1.863-79.08,0.637-118.588-0.929
					c-19.625-0.777-39.248-1.582-58.872-2.375c-9.795-0.396-19.59-0.791-29.386-1.187c-2.016-0.082-4.953,0.4-6.855-0.277
					c-2.605-0.928-1.905-2.984-1.795-5.461c0.236-5.246,0.433-10.495,0.591-15.744c0.655-21.718,0.634-43.449-0.013-65.168
					C40.692,121.178,37.787,121.715,37.818,122.759L37.818,122.759z" style="stroke-dasharray: 319.38px; stroke-dashoffset: 319.38px; stroke: rgb(255, 255, 255);"></path>
				<path id="XMLID_1222_" d="M253.938,212.144c0.031,2.773,0.063,5.548,0.096,8.322
					c0.011,0.956-0.396,3.193,0.396,4.063c1.501,1.646,6.312,0.576,8.205,0.564c0.622-0.004,1.533-0.491,1.594-1.183
					c0.589-6.725,0.667-14.255,2.435-20.786c1.318-4.878,5.595-5.064,9.901-5.288c4.335-0.226,8.635,0.037,12.933,0.604
					c1.443,0.191,2.943-1.876,0.995-2.134c-4.861-0.643-9.73-0.889-14.629-0.559c-2.529,0.17-8.579-0.059-10.629,1.95
					c-1.984,1.944-1.701,6.866-2.052,9.405c-0.779,5.656-1.394,11.331-1.893,17.02c0.531-0.395,1.063-0.788,1.594-1.183
					c-2.971,0.019-5.207,0.854-5.911-2.688c-0.507-2.545-0.066-5.729-0.097-8.322C256.857,210.399,253.922,210.821,253.938,212.144
					L253.938,212.144z" style="stroke-dasharray: 319.38px; stroke-dashoffset: 319.38px; stroke: rgb(255, 255, 255);"></path>
				<path id="XMLID_1225_" d="M261.551,224.433c0.776,1.938,0.612,4.529,2.363,5.963c1.505,1.231,3.88,0.906,5.65,0.924
					c8.031,0.077,16.09,0.021,24.108-0.466c7.23-0.439,15.567-0.687,22.489-3.044c4.687-1.596,3.872-6.689,4.261-10.909
					c0.128-1.38-2.813-0.92-2.922,0.271c-0.183,1.982-0.03,4.41-0.582,6.317c-1.002,3.464-4.729,3.309-7.881,3.825
					c-5.295,0.866-10.651,1.358-16.005,1.659c-5.568,0.313-11.146,0.396-16.723,0.41c-2.431,0.006-5.871,0.693-8.154-0.032
					c-2.884-0.917-2.752-3.311-3.707-5.695C263.97,222.46,261.096,223.296,261.551,224.433L261.551,224.433z" style="stroke-dasharray: 319.38px; stroke-dashoffset: 319.38px; stroke: rgb(255, 255, 255);"></path>
				<path id="XMLID_1229_" d="M154.288,211.815c-0.413-19.624-0.717-39.251-0.866-58.879
					c-0.022-2.945-0.196-5.935,0.098-8.872c0.09-1.137,0.271-2.259,0.545-3.366c0.296-2.039,1.32-2.809,3.072-2.31
					c3.506-0.579,7.094-0.724,10.619-1.368c9.865-1.808,19.761-3.252,29.763-4.061c10.265-0.83,20.571-1.064,30.863-0.717
					c2.048,0.069,4.884-0.298,6.83,0.315c4.518,1.424,3.663,3.785,3.739,7.44c0.112,5.425,0.005,10.852-0.179,16.273
					c-0.649,19.119-2.249,38.231-0.026,57.311c0.115,0.992,3.028,0.344,2.897-0.776c-2.13-18.287-0.726-36.618-0.04-54.944
					c0.169-4.525,0.293-9.053,0.292-13.581c-0.001-3.236,0.858-7.9-0.507-10.839c-2.088-4.494-11.958-2.912-15.796-2.986
					c-17.37-0.338-34.787,0.959-51.91,3.906c-3.835,0.66-7.646,1.514-11.509,2.003c-2.653,0.336-6.261-0.521-8.71,0.883
					c-3.908,2.239-2.986,9.831-2.963,13.521c0.133,20.609,0.455,41.219,0.889,61.823C151.41,213.532,154.312,212.962,154.288,211.815
					L154.288,211.815z" style="stroke-dasharray: 319.38px; stroke-dashoffset: 319.38px; stroke: rgb(255, 255, 255);"></path>
				<path id="XMLID_1233_" d="M153.567,137.08c-4.217-0.021-4.805-1.082-4.394-5.468c-0.551,0.32-1.102,0.64-1.653,0.96
					c16.683-2.348,33.403-4.419,50.159-6.175c8.377-0.878,16.762-1.697,25.154-2.408c4.33-0.367,8.682-0.732,13.029-0.497
					c1.867,0.101,6.1-0.054,7.286,2.169c0.411,0.771,0.7,8.882-2.439,6.287c-0.761-0.629-3.446,0.496-2.695,1.116
					c1.92,1.587,3.663,1.743,6.037,1.213c0.408-0.091,1.151-0.401,1.262-0.881c0.548-2.405,2.063-7.521,0.114-9.736
					c-1.706-1.939-6.076-1.629-8.421-1.752c-9.376-0.493-18.962,0.973-28.276,1.878c-20.316,1.974-40.584,4.404-60.796,7.248
					c-0.45,0.063-1.597,0.36-1.653,0.96c-0.206,2.198-0.057,4.101,0.548,6.243c0.098,0.344,0.589,0.402,0.878,0.404
					c1.572,0.007,3.145,0.015,4.717,0.022C153.478,138.669,155.514,137.09,153.567,137.08L153.567,137.08z" style="stroke-dasharray: 319.38px; stroke-dashoffset: 319.38px; stroke: rgb(255, 255, 255);"></path>
				<path id="XMLID_1237_" d="M134.022,219.81c-0.805-22.708-0.912-45.437-0.258-68.149
					c0.321-11.191,0.823-22.377,1.505-33.552c0.08-1.315,0.154-2.63,0.247-3.944c0.159-2.244-0.144-3.171,1.587-4.482
					c1.983-1.502,6.081-1.49,8.54-1.881c2.425-0.385,4.854-0.743,7.286-1.076c2.188-0.299,8.313-1.93,8.229,1.251
					c0.567-0.328,1.135-0.656,1.701-0.984c-2.24,0.386-12.732,3.893-7.966,6.725c4.511,2.68,12.261-0.489,16.03-3.071
					c0.152-0.104,0.507-0.403,0.239-0.597c-2.964-2.149-5.942-2.984-9.565-2.977c-0.854,0.002-3.145,1.278-1.226,1.273
					c1.37,0.182,2.74,0.362,4.11,0.543c3.83,0.981,3.569,1.887-0.782,2.716c-2.23,2.282-3.739,2.222-4.527-0.183
					c-2.142-2.138-1.081-3.217,3.181-3.238c0.444-0.076,1.685-0.347,1.702-0.983c0.143-0.887,0.047-1.747-0.287-2.581
					c-0.072-0.284-0.637-0.271-0.836-0.248c-5.609,0.627-11.207,1.354-16.782,2.239c-3.404,0.542-8.518,0.48-11.549,2.354
					c-3.146,1.946-2.1,7.725-2.29,10.906c-0.414,6.902-0.76,13.81-1.037,20.719c-1.069,26.654-1.095,53.339-0.15,79.997
					C131.146,221.176,134.054,220.694,134.022,219.81L134.022,219.81z" style="stroke-dasharray: 319.38px; stroke-dashoffset: 319.38px; stroke: rgb(255, 255, 255);"></path>
				<path id="XMLID_1241_" d="M39.163,196.734c18.031,0.35,36.083,0.681,54.088-0.583
					c19.088-1.339,38.157-3.951,57.257-1.297c1.401,0.194,2.962-1.795,1.015-2.066c-18.028-2.505-36.064-0.419-54.089,0.995
					c-19.065,1.495-38.152,1.256-57.256,0.885C38.807,194.642,37.21,196.696,39.163,196.734L39.163,196.734z" style="stroke-dasharray: 319.38px; stroke-dashoffset: 319.38px; stroke: rgb(255, 255, 255);"></path>
				<path id="XMLID_1244_" d="M239.869,198.077c4.888-0.247,9.775-0.494,14.663-0.742
					c1.624-0.082,2.248-2.178,0.269-2.078c-4.888,0.248-9.775,0.495-14.662,0.742C238.515,196.081,237.89,198.177,239.869,198.077
					L239.869,198.077z" style="stroke-dasharray: 319.38px; stroke-dashoffset: 319.38px; stroke: rgb(255, 255, 255);"></path>
				<path id="XMLID_1247_" d="M288.465,197.233c21.204,2.633,42.515,6.314,63.944,5.563
					c22.49-0.788,44.852-4.721,67.382-2.482c1.346,0.134,2.99-1.795,1.035-1.989c-21.498-2.137-42.853,1.242-64.302,2.316
					c-22.501,1.128-44.761-2.633-67.024-5.397C288.15,195.077,286.514,196.991,288.465,197.233L288.465,197.233z" style="stroke-dasharray: 319.38px; stroke-dashoffset: 319.38px; stroke: rgb(255, 255, 255);"></path>
				<path id="XMLID_1250_" d="M421.987,99.839c3.474,12.888,3.709,25.066,8.949,37.343
					c1.124,2.636,2.337,5.262,2.942,8.063c0.79,3.649,0.519,7.434,0.273,11.159c-1.291,19.616-1.226,39.427-0.823,59.081
					c-4.746,0-7.735,0.721-11.442,1.181c-0.284-36.564-0.567-73.13-0.852-109.694c-0.018-2.308-0.035-4.629,0.355-6.903" style="stroke-dasharray: 319.38px; stroke-dashoffset: 319.38px; stroke: rgb(255, 255, 255);"></path>
				<path id="XMLID_1254_" d="M39.246,166.665c-7.117-0.242-13.85,0.932-20.491,3.508
					c0.675,0.07,1.349,0.141,2.022,0.211c-0.724-12.43-1.253-24.869-1.553-37.315c-0.15-6.224-0.246-12.448-0.288-18.673
					c-0.021-3.117-0.681-6.869,0.009-9.887c0.824-3.606,4.313-4.636,7.412-5.965c11.206-4.804,23.296-7.387,35.476-7.73
					c5.88-0.167,12.264-0.093,18.013,1.216c5.013,1.142,5.589,2.786,5.789,7.119c0.148,3.222,0.272,6.445,0.408,9.668
					c0.039,0.925,2.945,0.346,2.897-0.776c-0.168-3.996,0.086-8.322-0.537-12.264c-0.354-2.24-0.79-3.466-2.869-4.411
					c-5.061-2.302-12.727-2.115-18.193-2.22c-12.957-0.248-25.937,2.006-38.063,6.568c-3.646,1.372-10.48,3.066-12.59,6.809
					c-1.209,2.146-0.676,5.349-0.671,7.734c0.009,3.932,0.038,7.863,0.09,11.795c0.215,16.382,0.821,32.754,1.773,49.108
					c0.044,0.762,1.731,0.324,2.022,0.212c5.899-2.288,11.893-3.271,18.219-3.057C39.227,168.354,41.198,166.731,39.246,166.665
					L39.246,166.665z" style="stroke-dasharray: 319.38px; stroke-dashoffset: 319.38px; stroke: rgb(255, 255, 255);"></path>
				<path id="XMLID_1258_" d="M17.031,108.896c-5.53,1.216-5.49-6.672-4.242-10.183c1.604-4.518,5.623-7.427,9.68-9.594
					c8.915-4.762,19.25-7.209,29.123-9.011c9.39-1.714,19.473-3.042,28.729,0.047c3.718,1.241,7.416,3.197,10.081,6.129
					c1.537,1.689,2.827,3.729,3.319,5.986c0.344,1.572,0.539,8.895-4.072,6.366c-0.776-0.426-3.222,0.759-2.717,1.035
					c2.76,1.514,6.445,0.989,8.553-1.523c3.257-3.886,0.539-9.734-2.365-12.9c-8.996-9.81-24.87-8.963-36.806-7.106
					c-13.074,2.033-27.927,4.999-39.086,12.519c-4.371,2.945-7.991,7.221-8.063,12.734c-0.027,2.11,0.729,6.31,2.96,7.37
					c1.423,0.677,3.867-0.498,5.197-0.79C19.046,109.595,18.755,108.517,17.031,108.896L17.031,108.896z" style="stroke-dasharray: 319.38px; stroke-dashoffset: 319.38px; stroke: rgb(255, 255, 255);"></path>
				<path id="XMLID_1262_" d="M20.021,90.145c0.037-10.454-0.545-21.128,0.174-31.557
					c0.878-12.743,13.591-16.547,24.494-18.108c5.542-0.794,11.15-0.81,16.701-0.102c5.13,0.654,12.3,1.382,14.352,6.834
					c1.7,4.52,1.818,10.251,2.421,15.021c0.701,5.552,1.22,11.12,1.611,16.702c0.061,0.874,2.972,0.287,2.897-0.777
					c-0.506-7.223-1.236-14.425-2.271-21.593c-0.695-4.815-0.476-11.632-5.12-14.517c-4.171-2.589-10.262-3.092-15.021-3.508
					c-6.207-0.543-12.479-0.207-18.59,1.005c-7.986,1.583-18.91,4.473-22.811,12.517c-2.479,5.113-1.64,11.735-1.659,17.234
					c-0.025,7.208-0.051,14.417-0.077,21.625C17.119,91.747,20.016,91.228,20.021,90.145L20.021,90.145z" style="stroke-dasharray: 319.38px; stroke-dashoffset: 319.38px; stroke: rgb(255, 255, 255);"></path>
				<path id="XMLID_1266_" d="M17.382,170.986c-3.537,2.704-6.861,3.203-7.461,8.102
					c-0.839,6.852-0.061,14.419,0.901,21.205c0.598,4.219,0.23,10.561,5.356,11.348c7.039,1.081,15.508-0.737,22.438-1.907
					c1.464-0.247,2.318-2.164,0.336-1.829c-5.125,0.865-10.273,1.496-15.465,1.772c-4.386,0.233-6.979,0.685-8.685-3.856
					c-0.807-2.148-0.909-4.941-1.211-7.209c-0.713-5.358-1.018-10.768-0.899-16.172c0.065-3.005-0.337-5.759,2.431-7.889
					c1.256-0.967,2.83-1.524,4.11-2.503C20.793,170.855,18.389,170.217,17.382,170.986L17.382,170.986z" style="stroke-dasharray: 319.38px; stroke-dashoffset: 319.38px; stroke: rgb(255, 255, 255);"></path>
				<path id="XMLID_1269_" d="M19.325,210.151c-1.036-6.408-1.607-12.892-1.707-19.382
					c1.438-0.278,2.905-0.558,4.359-0.381s2.921,0.886,3.643,2.16c0.457,0.808,0.578,1.756,0.689,2.677
					c0.553,4.545,1.104,9.09,1.657,13.635c0.031,0.26,0.051,0.558-0.13,0.746c-0.155,0.163-0.405,0.184-0.63,0.194
					c-2.514,0.116-5.028,0.231-7.542,0.348" style="stroke-dasharray: 319.38px; stroke-dashoffset: 319.38px; stroke: rgb(255, 255, 255);"></path>
				<path id="XMLID_1273_" d="M12.816,179.7c7.479-4.978,16.043-7.365,25.019-6.949
					c1.478,0.068,2.925-2.127,0.974-2.218c-10.09-0.468-19.532,2.135-27.943,7.733C9.237,179.35,11.578,180.525,12.816,179.7
					L12.816,179.7z" style="stroke-dasharray: 319.38px; stroke-dashoffset: 319.38px; stroke: rgb(255, 255, 255);"></path>
				<path id="XMLID_1276_" d="M17.671,124.408c4.136-11.132,14.325-18.97,25.06-24.052
					c9.302-4.403,19.361-7.201,29.602-8.232c4.629-0.466,9.371-0.564,13.861,0.651c-21.264-4.568-43.954-2.23-63.84,6.579
					c-1.318,0.584-2.697,1.258-3.46,2.482c-0.636,1.021-0.744,2.271-0.836,3.471c-0.415,5.407-0.83,10.815-1.245,16.223" style="stroke-dasharray: 319.38px; stroke-dashoffset: 319.38px; stroke: rgb(255, 255, 255);"></path>
				<path id="XMLID_1280_" d="M17.034,140.034c-4.562,1.143-9.248,2.311-13.633,4.033
					c-3.488,1.371-3.209,3.637-3.229,7.051c-0.013,2.253-0.071,4.537,2.907,3.908c1.979-0.418,3.876-1.635,5.8-2.266
					c2.71-0.888,5.479-1.479,8.305-1.854c1.612-0.213,2.215-2.419,0.247-2.158c-2.717,0.359-5.4,0.869-8.029,1.654
					c-1.196,0.358-2.378,0.767-3.543,1.215c-1.838,0.706-2.318,1.357-2.748-0.711c-0.228-1.099-0.201-3.958,0.671-4.747
					c0.924-0.837,3.578-1.216,4.791-1.593c2.976-0.927,5.979-1.751,9.003-2.509C19.378,141.607,18.834,139.583,17.034,140.034
					L17.034,140.034z" style="stroke-dasharray: 319.38px; stroke-dashoffset: 319.38px; stroke: rgb(255, 255, 255);"></path>
				<path id="XMLID_1284_" d="M4.204,154.322c-0.007,7.73-0.014,15.461-0.021,23.191
					c-0.002,2.197-0.818,5.98,0.383,8.024c0.269,0.456,2.887,2.699,3.283,0.993c0.402-0.362,0.805-0.726,1.206-1.088
					c-0.092,0.021-0.185,0.041-0.276,0.062c-1.813,0.398-1.275,2.339,0.521,1.943c0.093-0.02,0.185-0.041,0.277-0.061
					c0.551-0.121,1.075-0.528,1.206-1.088c0.021-0.093,0.042-0.185,0.063-0.276c0.088-0.375-0.283-0.771-0.626-0.847
					c-3.013-0.663-3.09-1.952-3.106-4.996c-0.016-2.898,0.005-5.799,0.008-8.697c0.005-5.798,0.01-11.596,0.015-17.394
					C7.139,152.599,4.205,153.047,4.204,154.322L4.204,154.322z" style="stroke-dasharray: 319.38px; stroke-dashoffset: 319.38px; stroke: rgb(255, 255, 255);"></path>
				<path id="XMLID_1288_" d="M5.435,184.006c-2.985,0.123-6.18,2.925-5.279,6.146c1.138,4.068,6.322,4.14,9.679,3.953
					c1.564-0.087,2.298-2.039,0.31-1.929c-2.26,0.126-5.068,0.265-6.576-1.789c-1.079-1.47-0.617-4.363,1.559-4.452
					C6.696,185.87,7.422,183.924,5.435,184.006L5.435,184.006z" style="stroke-dasharray: 319.38px; stroke-dashoffset: 319.38px; stroke: rgb(255, 255, 255);"></path>
				<path id="XMLID_1292_" d="M1.834,192.262c0.085,2.919,0.228,5.832,0.47,8.742c0.165,1.978-0.097,6.78,1.131,8.352
					c1.857,2.375,7.077,2.056,9.69,1.864c1.39-0.102,2.436-1.664,0.419-1.517c-2.412,0.177-6.33,0.394-7.559-2.222
					c-0.612-1.304-0.442-3.632-0.584-5.074c-0.356-3.633-0.563-7.273-0.67-10.922C4.707,190.641,1.803,191.189,1.834,192.262
					L1.834,192.262z" style="stroke-dasharray: 319.38px; stroke-dashoffset: 319.38px; stroke: rgb(255, 255, 255);"></path>
				<path id="XMLID_1295_" d="M177.423,134.595c-2.254,25.15-2.766,50.455-1.53,75.676
					c0.03,0.621,0.067,1.264,0.346,1.82c0.775,1.551,2.58,2.408,4.313,2.341c15.695-0.613,47.323,0.006,47.137,0.003
					c-3.321-26.395-1.505-53.804-3.822-80.306c-0.049-0.558-0.113-1.15-0.466-1.585c-0.544-0.672-2.374-1.088-3.238-1.064
					C205.744,131.859,191.733,132.791,177.423,134.595" style="stroke-dasharray: 319.38px; stroke-dashoffset: 319.38px; stroke: rgb(255, 255, 255);"></path>
				<path id="XMLID_1298_" d="M266.604,199.944c6.777,3.315,13.785,3.222,20.85,5.271
					c1.514,0.09,2.812,0.703,3.892,1.839c0.042,0.64,0.083,1.28,0.125,1.92c0.66,2.247,0.347,5.331,0.499,7.678
					c0.292,4.479,0.583,8.957,0.874,13.436c0.048,0.731,2.96,0.184,2.897-0.776c-0.332-5.119-0.665-10.237-0.998-15.355
					c-0.16-2.464,0.635-7.655-1.527-9.162c-2.444-1.702-7.564-1.573-10.455-2.073c-4.812-0.833-9.412-1.888-13.813-4.041
					C268.228,198.327,265.561,199.435,266.604,199.944L266.604,199.944z" style="stroke-dasharray: 319.38px; stroke-dashoffset: 319.38px; stroke: rgb(255, 255, 255);"></path>
				<path id="XMLID_1301_" d="M292.573,206.286c7.19-1.814,14.464-2.83,21.878-3.018c1.17-0.03,3.035-1.834,1.089-1.785
					c-7.932,0.201-15.706,1.249-23.399,3.19C290.38,205.118,290.809,206.731,292.573,206.286L292.573,206.286z" style="stroke-dasharray: 319.38px; stroke-dashoffset: 319.38px; stroke: rgb(255, 255, 255);"></path>
				<path id="XMLID_1304_" d="M294.063,214.891c7.079-2.771,14.322-4.685,21.846-5.775
					c1.23-0.178,2.534-1.514,0.499-1.219c-8.037,1.165-15.824,3.227-23.387,6.188C291.115,214.83,292.896,215.348,294.063,214.891
					L294.063,214.891z" style="stroke-dasharray: 319.38px; stroke-dashoffset: 319.38px; stroke: rgb(255, 255, 255);"></path>
				<path id="XMLID_1307_" d="M294.302,224.208c7.951-1.866,15.874-3.844,23.769-5.935
					c1.787-0.474,1.266-2.442-0.527-1.968c-7.895,2.091-15.817,4.068-23.768,5.934C291.969,222.663,292.505,224.629,294.302,224.208
					L294.302,224.208z" style="stroke-dasharray: 319.38px; stroke-dashoffset: 319.38px; stroke: rgb(255, 255, 255);"></path>
				<path id="XMLID_1310_" d="M264.303,207.944c9.396,2.025,18.595,4.671,27.639,7.92
					c1.28,0.46,3.395-1.379,1.659-2.002c-9.258-3.326-18.695-6.012-28.312-8.085C263.825,205.462,262.387,207.531,264.303,207.944
					L264.303,207.944z" style="stroke-dasharray: 319.38px; stroke-dashoffset: 319.38px; stroke: rgb(255, 255, 255);"></path>
				<path id="XMLID_1313_" d="M262.061,221.181c10.115,0.661,20.229,1.322,30.345,1.983
					c0.657,0.043,3.313-1.134,1.867-1.229c-10.115-0.661-20.23-1.322-30.345-1.983C263.271,219.909,260.613,221.086,262.061,221.181
					L262.061,221.181z" style="stroke-dasharray: 319.38px; stroke-dashoffset: 319.38px; stroke: rgb(255, 255, 255);"></path>
				<path id="XMLID_1317_" d="M272.213,181.094c0,5.277,0,10.556,0,15.833c0,0.444,2.898,0.043,2.898-0.776
					c0-5.277,0-10.556,0-15.833C275.111,179.873,272.213,180.274,272.213,181.094L272.213,181.094z" style="stroke-dasharray: 319.38px; stroke-dashoffset: 319.38px; stroke: rgb(255, 255, 255);"></path>
				<path id="XMLID_1321_" d="M256.084,186.981c10.367-1.84,20.606-0.619,30.32,3.387
					c1.203,0.496,3.372-1.232,1.679-1.931c-10.435-4.303-21.427-5.379-32.522-3.41C253.726,185.354,254.288,187.3,256.084,186.981
					L256.084,186.981z" style="stroke-dasharray: 319.38px; stroke-dashoffset: 319.38px; stroke: rgb(255, 255, 255);"></path>
				<path id="XMLID_1325_" d="M255.898,193.441c10.137-1.737,20.192-1.371,30.199,0.979
					c0.667,0.156,3.178-0.925,2.384-1.111c-10.601-2.488-21.313-2.754-32.039-0.916C255.295,192.59,253.855,193.791,255.898,193.441
					L255.898,193.441z" style="stroke-dasharray: 319.38px; stroke-dashoffset: 319.38px; stroke: rgb(255, 255, 255);"></path>
				<path id="XMLID_1328_" d="M257.285,211.787c-0.138,0.073-0.275,0.146-0.413,0.219
					c0.298-0.034,0.597-0.062,0.896-0.082c0.419-0.032,0.839-0.056,1.26-0.07c0.905-0.031,1.808-0.012,2.712,0.039
					c0.641,0.036,1.556-0.095,2.049-0.549c0.37-0.341,0.446-0.733-0.206-0.771c-1.996-0.112-3.982-0.074-5.971,0.148
					c-1.012,0.114-3.321,0.422-3.226,1.842C254.432,213.229,257.346,212.695,257.285,211.787L257.285,211.787z" style="stroke-dasharray: 319.38px; stroke-dashoffset: 319.38px; stroke: rgb(255, 255, 255);"></path>
				<path id="XMLID_1332_" d="M55.344,37.972c-0.566-10.98-1.134-21.962-1.7-32.943
					c-0.544,0.414-1.089,0.828-1.633,1.243c5.563-0.857,11.128-1.716,16.692-2.573c2.618-0.403,5.236-0.807,7.854-1.211
					c2.101-0.323,4.834-1.289,6.3,1.368c0.426,0.771,0.38,2.182,0.517,3.024c1.781,11.035,3.352,22.109,4.839,33.188
					c2.977,22.161,5.437,44.389,7.422,66.66c0.092,1.023,3.002,0.389,2.898-0.776c-2.249-25.22-5.11-50.382-8.631-75.456
					c-0.868-6.187-1.775-12.367-2.723-18.543c-0.48-3.139-0.045-9.535-3.29-11.304c-3.102-1.69-8.729,0.401-11.874,0.887
					c-6.545,1.009-13.092,2.018-19.638,3.026c-0.634,0.098-1.674,0.436-1.632,1.243c0.566,10.981,1.133,21.962,1.7,32.943
					C52.498,39.753,55.404,39.146,55.344,37.972L55.344,37.972z" style="stroke-dasharray: 319.38px; stroke-dashoffset: 319.38px; stroke: rgb(255, 255, 255);"></path>
				<path id="XMLID_1336_" d="M93.75,66.173c7.277,0.428,14.472,0.067,21.671-1.077c1.368-0.218,2.411-1.89,0.405-1.57
					c-6.956,1.105-13.91,1.446-20.94,1.034C93.798,64.495,91.801,66.058,93.75,66.173L93.75,66.173z" style="stroke-dasharray: 319.38px; stroke-dashoffset: 319.38px; stroke: rgb(255, 255, 255);"></path>
				<path id="XMLID_1340_" d="M93.08,70.604c4.301-0.006,8.602-0.012,12.902-0.018
					c3.167-0.004,7.453,0.796,10.501-0.156c1.083-0.338,1.709-0.673,2.129-1.663c1.108-2.611-0.144-7.971-0.233-10.812
					c-0.682,0.365-1.362,0.73-2.043,1.095c1.275-0.078,4.689-0.95,5.911-0.361c1.998,0.964,1.708,3.599,1.976,5.424
					c0.62,4.234,1.241,8.469,1.862,12.703c1.193,8.143,2.388,16.285,3.581,24.428c0.115,0.783,3.033,0.145,2.897-0.776
					c-2.101-14.331-4.202-28.662-6.303-42.993c-0.046-0.313-0.646-0.331-0.854-0.318c-2.627,0.16-5.255,0.321-7.882,0.481
					c-0.566,0.034-2.069,0.287-2.044,1.095c0.071,2.223,0.381,4.579,0.217,6.795c-0.303,4.084-2.034,3.638-5.762,3.643
					c-5.222,0.007-10.444,0.015-15.666,0.021C93.327,69.191,91.146,70.606,93.08,70.604L93.08,70.604z" style="stroke-dasharray: 319.38px; stroke-dashoffset: 319.38px; stroke: rgb(255, 255, 255);"></path>
				<path id="XMLID_1344_" d="M115.313,67.995c-0.496,11.896-0.179,23.773,0.933,35.628
					c0.12,1.286,3.026,0.594,2.898-0.776c-1.095-11.677-1.388-23.37-0.898-35.086C118.307,66.282,115.366,66.718,115.313,67.995
					L115.313,67.995z" style="stroke-dasharray: 319.38px; stroke-dashoffset: 319.38px; stroke: rgb(255, 255, 255);"></path>
				<path id="XMLID_1348_" d="M94.219,74.044c7.108,0.221,14.218,0.392,21.329,0.512
					c1.697,0.029,2.184-2.201,0.227-2.234c-7.11-0.121-14.22-0.291-21.329-0.512C92.746,71.757,92.267,73.983,94.219,74.044
					L94.219,74.044z" style="stroke-dasharray: 319.38px; stroke-dashoffset: 319.38px; stroke: rgb(255, 255, 255);"></path>
				<path id="XMLID_1352_" d="M127.802,75.202c6.042-0.675,12.085-1.35,18.127-2.023
					c-0.418-0.142-0.836-0.282-1.254-0.423c0.035,1.437,0.413,3.382,0.047,4.777c0.417-0.305,0.835-0.608,1.253-0.913
					c-2.43,0.812-5.571,0.633-8.125,0.919c-2.776,0.312-5.553,0.622-8.328,0.933c-1.416,0.159-2.401,1.847-0.392,1.622
					c2.776-0.312,5.552-0.622,8.328-0.933c2.712-0.305,5.907-0.242,8.523-0.972c2.775-0.774,1.648-3.848,1.591-6.21
					c-0.011-0.474-0.99-0.452-1.253-0.423c-6.042,0.675-12.084,1.35-18.126,2.024C126.777,73.739,125.792,75.427,127.802,75.202
					L127.802,75.202z" style="stroke-dasharray: 319.38px; stroke-dashoffset: 319.38px; stroke: rgb(255, 255, 255);"></path>
				<path id="XMLID_1356_" d="M139.354,79.081c0.568,6.564,1.136,13.129,1.703,19.692
					c0.1,1.145,3.007,0.485,2.898-0.776c-0.568-6.563-1.136-13.128-1.703-19.692C142.152,77.16,139.245,77.82,139.354,79.081
					L139.354,79.081z" style="stroke-dasharray: 319.38px; stroke-dashoffset: 319.38px; stroke: rgb(255, 255, 255);"></path>
				<path id="XMLID_1360_" d="M130.354,93.128c4.543-0.978,9.099-1.892,13.671-2.724c1.045-0.19,2.091-0.377,3.138-0.56
					c1.47-0.374,2.162,0.16,2.076,1.604c0.812,1.502,0.699,4.147,0.804,5.813c0.049,0.774,2.961,0.218,2.898-0.776
					c-0.112-1.771-0.079-6.632-1.547-7.894c-0.815-0.701-1.999-0.377-2.996-0.279c-6.136,0.602-12.351,2.284-18.375,3.58
					C128.277,92.267,128.618,93.501,130.354,93.128L130.354,93.128z" style="stroke-dasharray: 319.38px; stroke-dashoffset: 319.38px; stroke: rgb(255, 255, 255);"></path>
				<path id="XMLID_1364_" d="M398.881,93.267c0.266-4.573,0.531-9.146,0.796-13.719
					c0.113-1.938,0.05-3.966,0.342-5.879c0.452-2.96,0.45-3.55,3.09-4.827c7.249-3.51,18.645-3.447,26.316-1.847
					c7.481,1.561,6.149,8.184,6.402,14.146c0.183,4.302,0.364,8.603,0.547,12.904c0.365,8.602,0.73,17.204,1.095,25.807
					c0.729,17.204,1.46,34.409,2.189,51.613c0.365,8.603,0.729,17.205,1.095,25.807c0.168,3.971,0.337,7.941,0.505,11.911
					c0.1,2.339,0.959,4.262-1.841,4.83c-2.012,0.408-4.96-0.347-7.019-0.491c-1.457-0.102-2.939,2.037-0.985,2.174
					c3.085,0.216,10.646,2.498,12.638-1.072c1.273-2.284,0.086-7.115-0.02-9.61c-0.183-4.302-0.365-8.603-0.548-12.903
					c-0.758-17.866-1.516-35.732-2.273-53.6c-0.743-17.535-1.487-35.07-2.231-52.605c-0.182-4.301-0.317-8.605-0.547-12.904
					c-0.133-2.475-0.23-4.545-2.322-6.147c-4.477-3.429-12.496-3.109-17.841-2.837c-4.097,0.21-8.177,0.869-12.164,1.823
					c-2.334,0.559-5.87,0.863-7.679,2.687c-2.073,2.089-1.422,6.604-1.576,9.262c-0.304,5.227-0.606,10.452-0.91,15.678
					C395.85,95.009,398.802,94.629,398.881,93.267L398.881,93.267z" style="stroke-dasharray: 319.38px; stroke-dashoffset: 319.38px; stroke: rgb(255, 255, 255);"></path>
				<path id="XMLID_1368_" d="M439.574,129.343c3.572-0.063,7.132,0.053,10.687,0.438
					c1.189,0.129,3.784-0.061,4.466,1.175c0.477,0.864-0.022,3.284-0.039,4.273c0.785-0.366,1.57-0.733,2.355-1.101
					c-5.341-0.494-10.68-0.646-16.04-0.434c-0.959,0.038-3.107,1.537-1.177,1.461c5.147-0.203,10.272-0.078,15.402,0.397
					c0.682,0.063,2.341-0.175,2.356-1.101c0.022-1.327,0.596-3.82-0.256-4.938c-0.673-0.885-2.557-0.823-3.431-0.938
					c-4.361-0.57-8.751-0.772-13.147-0.694C439.784,127.898,437.639,129.377,439.574,129.343L439.574,129.343z" style="stroke-dasharray: 319.38px; stroke-dashoffset: 319.38px; stroke: rgb(255, 255, 255);"></path>
				<path id="XMLID_1372_" d="M451.745,135.761c-0.39,14.505-0.789,29.01-1.201,43.514
					c-0.206,7.252-0.415,14.504-0.628,21.756c-0.096,3.286-0.327,6.602-0.29,9.889c0.03,2.764,0.849,2.452-1.462,2.848
					c-1.639,0.281-3.475,0.127-5.129,0.188c-0.819,0.029-3.148,1.299-1.238,1.229c2.705-0.099,8.901,1.024,10.571-2.145
					c1.306-2.479,0.308-8.075,0.389-10.808c0.125-4.285,0.25-8.57,0.373-12.855c0.522-18.13,1.026-36.261,1.513-54.392
					C454.656,134.485,451.769,134.877,451.745,135.761L451.745,135.761z" style="stroke-dasharray: 319.38px; stroke-dashoffset: 319.38px; stroke: rgb(255, 255, 255);"></path>
				<path id="XMLID_1376_" d="M379.99,92.49c0.043-1.642-0.194-3.607,0.135-5.213c-0.276-1.833,0.686-3.07,2.887-3.713
					c0.812-0.257,1.637-0.456,2.477-0.599c3.91-0.795,7.917-0.775,11.892-0.75c1.3,0.009,2.994-1.951,1.041-1.965
					c-5.779-0.037-11.691-0.053-17.2,1.931c-1.603,0.577-3.167,1.147-3.814,2.834c-0.818,2.131-0.281,5.466-0.34,7.739
					C377.03,94.174,379.96,93.689,379.99,92.49L379.99,92.49z" style="stroke-dasharray: 319.38px; stroke-dashoffset: 319.38px; stroke: rgb(255, 255, 255);"></path>
				<path id="XMLID_1380_" d="M386.383,80.724c0.077-6.809,0.291-13.612,0.686-20.41
					c0.204-3.533,0.457-7.063,0.752-10.591c0.137-1.638-0.123-4.18,0.516-5.733c-0.144-1.586,0.703-2.517,2.54-2.793
					c1.177-1.118,2.554-1.676,4.132-1.671c3.746-0.81,8.118-0.647,11.919-0.428c1.471,0.085,3.058,0.077,4.487,0.42
					c3.008,0.721,3.521,1.485,4.148,3.944c1.699,6.657,1.024,14.968,0.957,21.792c-0.006,0.601,2.889,0.159,2.898-0.776
					c0.052-5.294-0.066-10.58-0.441-15.862c-0.226-3.182,0.708-8.649-2.785-9.974c-3.278-1.242-7.849-0.964-11.34-0.974
					c-4.287-0.011-8.709,0.296-12.914,1.18c-6.693,1.405-6.48,5.192-7.013,11.572c-0.863,10.341-1.321,20.704-1.44,31.08
					C383.478,82.099,386.372,81.659,386.383,80.724L386.383,80.724z" style="stroke-dasharray: 319.38px; stroke-dashoffset: 319.38px; stroke: rgb(255, 255, 255);"></path>
				<path id="XMLID_1384_" d="M384.82,59.837c-7.203,0.5-14.406,1.001-21.61,1.502
					c-7.003,0.487-14.738,0.115-21.61,1.503c-3.769,0.761-3.496,3.081-3.917,6.764c-0.822,7.199-1.476,14.415-2.004,21.642
					c-0.104,1.422,2.837,0.972,2.927-0.256c0.408-5.584,0.887-11.162,1.468-16.73c0.165-1.579,0.003-8.256,1.235-9.425
					c1.004-0.953,7.539-0.524,8.84-0.614c11.461-0.797,22.921-1.594,34.381-2.391C386.114,61.721,386.807,59.698,384.82,59.837
					L384.82,59.837z" style="stroke-dasharray: 319.38px; stroke-dashoffset: 319.38px; stroke: rgb(255, 255, 255);"></path>
				<path id="XMLID_1388_" d="M343.264,91.271c0.418-4.951,0.925-9.892,1.568-14.818
					c0.281-2.153,0.166-5.664,1.221-7.582c1.419-2.578,5.991-1.95,8.354-2.008c9.803-0.238,19.605-0.478,29.408-0.716
					c1.701-0.042,2.182-2.319,0.217-2.271c-6.641,0.161-13.281,0.323-19.922,0.485c-5.225,0.127-12.297-0.951-17.291,0.736
					c-2.847,0.962-3.65,3.259-4.159,6c-1.239,6.683-1.771,13.588-2.342,20.354C340.185,93.025,343.145,92.683,343.264,91.271
					L343.264,91.271z" style="stroke-dasharray: 319.38px; stroke-dashoffset: 319.38px; stroke: rgb(255, 255, 255);"></path>
				<path id="XMLID_1392_" d="M319.055,90.835c1.11-3.329,1.857-6.654,2.283-10.135
					c-0.697,0.305-1.394,0.61-2.091,0.915c5.808-0.694,11.615-0.993,17.462-0.903c0.568,0.009,3.26-1.071,1.904-1.092
					c-6.054-0.094-12.07,0.222-18.081,0.94c-0.471,0.057-2.014,0.276-2.092,0.915c-0.415,3.393-1.154,6.664-2.234,9.904
					C316.064,91.803,318.822,91.533,319.055,90.835L319.055,90.835z" style="stroke-dasharray: 319.38px; stroke-dashoffset: 319.38px; stroke: rgb(255, 255, 255);"></path>
				<path id="XMLID_1396_" d="M343.794,81.026c2.207-0.075,4.414-0.105,6.623-0.054
					c1.986,0.046,5.007-0.265,6.717,0.817c1.256,0.796,1.121,0.875,1.365,2.27c0.168,0.962,0.323,1.926,0.459,2.894
					c0.271,1.935,0.469,3.877,0.626,5.824c0.047,0.583,2.965,0.053,2.897-0.776c-0.22-2.728-0.528-5.442-0.983-8.141
					c-0.269-1.591-0.221-3.016-1.778-3.666c-1.731-0.724-4.935-0.387-6.807-0.44c-2.628-0.076-5.254-0.045-7.881,0.046
					C344.214,79.827,341.883,81.093,343.794,81.026L343.794,81.026z" style="stroke-dasharray: 319.38px; stroke-dashoffset: 319.38px; stroke: rgb(255, 255, 255);"></path>
				<path id="XMLID_1400_" d="M393.466,39.253c0.398-6.568,0.525-13.136,0.382-19.714
					c-0.535,0.378-1.071,0.755-1.606,1.133c1.413-0.025,4.676-0.661,5.729,0.61c0.605,0.732,0.001,5.039,0.028,6.087
					c0.094,3.64,0.342,7.268,0.688,10.892c0.119,1.247,3.025,0.562,2.897-0.777c-0.329-3.447-0.568-6.9-0.658-10.364
					c-0.05-1.928,0.663-5.242-0.07-6.959c-1.166-2.731-6.09-1.546-8.33-1.505c-0.526,0.01-1.621,0.47-1.606,1.133
					c0.144,6.579,0.017,13.146-0.382,19.714C390.45,40.942,393.391,40.494,393.466,39.253L393.466,39.253z" style="stroke-dasharray: 319.38px; stroke-dashoffset: 319.38px; stroke: rgb(255, 255, 255);"></path>
				<path id="XMLID_1403_" d="M414.77,40.639c-3.989,0.219-8.792,0.982-10.316,4.676
					c-0.512,1.241-0.537,2.62-0.55,3.963c-0.058,5.905-0.016,11.813,0.126,17.718c-2.664-0.325-4.698,2.469-5.249,5.094
					c-0.551,2.626-0.424,6.363-1.581,8.783c-3.832,0.271-7.81,0.525-11.643,0.796c0.286-8.857,0.845-18.604,1.131-27.46
					c0.159-4.914-1.448-9.937,2.537-12.816c2.036-1.471,6.752-2.519,9.249-2.793c3.543-0.391,7.114-0.53,10.677-0.42
					c1.992,0.063,5.081,0.057,5.3,2.037" style="stroke-dasharray: 319.38px; stroke-dashoffset: 319.38px; stroke: rgb(255, 255, 255);"></path>
				<path id="XMLID_1406_" d="M64.812,3.472L52.194,5.417L53.853,38.9c0,0,14.646-0.457,21.77,5.008
					C69.745,29.872,64.71,20.738,64.812,3.472z" style="stroke-dasharray: 319.38px; stroke-dashoffset: 319.38px; stroke: rgb(255, 255, 255);"></path>
				<path id="XMLID_1410_" d="M169.797,136.252c-2.623,26.176-2.814,52.492-0.576,78.704
					c0.047,0.54,2.966,0.015,2.898-0.777c-2.239-26.211-2.047-52.527,0.575-78.703C172.732,135.091,169.885,135.374,169.797,136.252
					L169.797,136.252z" style="stroke-dasharray: 319.38px; stroke-dashoffset: 319.38px; stroke: rgb(255, 255, 255);"></path>
				<path id="XMLID_1413_" d="M127.697,221.484c3.442-0.353,6.885-0.705,10.327-1.058
					c0.715-0.073,3.155-1.271,1.278-1.079c-3.442,0.353-6.885,0.705-10.327,1.058C128.261,220.479,125.82,221.677,127.697,221.484
					L127.697,221.484z" style="stroke-dasharray: 319.38px; stroke-dashoffset: 319.38px; stroke: rgb(255, 255, 255);"></path>
				<path id="XMLID_1417_" d="M50.625,120.658c-1.668,24.802-2.158,49.655-1.469,74.504
					c0.01,0.375,0.833,0.212,0.824-0.089c-0.688-24.849-0.198-49.702,1.47-74.504C51.475,120.202,50.646,120.35,50.625,120.658
					L50.625,120.658z" style="stroke-dasharray: 319.38px; stroke-dashoffset: 319.38px; stroke: rgb(255, 255, 255);"></path>
				<path id="XMLID_1421_" d="M65.354,117.663c-2.555,26.375-4.52,52.8-5.894,79.263
					c-0.017,0.313,0.806,0.145,0.818-0.111c1.375-26.463,3.34-52.888,5.895-79.263C66.203,117.246,65.38,117.403,65.354,117.663
					L65.354,117.663z" style="stroke-dasharray: 319.38px; stroke-dashoffset: 319.38px; stroke: rgb(255, 255, 255);"></path>
				<path id="XMLID_1425_" d="M76.641,115.937c-2.133,26.544-3.715,53.126-4.745,79.735
					c-0.013,0.324,0.81,0.155,0.82-0.107c1.03-26.609,2.612-53.191,4.745-79.735C77.486,115.511,76.662,115.67,76.641,115.937
					L76.641,115.937z" style="stroke-dasharray: 319.38px; stroke-dashoffset: 319.38px; stroke: rgb(255, 255, 255);"></path>
				<path id="XMLID_1429_" d="M90.385,113.188c-0.123,15.021-0.51,30.039-1.191,45.047
					c-0.327,7.177-0.719,14.351-1.178,21.521c-0.249,3.896-0.335,7.854-0.807,11.728c-0.142,1.163-1.088,2.922-0.184,3.918
					c0.148,0.164,0.488,0.115,0.644-0.012c0.107-0.088,0.215-0.176,0.323-0.264c0.107-0.087,0.197-0.199,0.112-0.334
					c-0.061-0.095-0.12-0.19-0.181-0.286c-0.177-0.278-0.968,0.013-0.757,0.346c0.742,1.172,0.984-4.891,0.869-3.446
					c0.13-1.628,0.237-3.258,0.351-4.886c0.25-3.584,0.483-7.168,0.7-10.754c0.415-6.845,0.769-13.694,1.063-20.546
					c0.604-14.029,0.947-28.068,1.063-42.11C91.216,112.714,90.388,112.858,90.385,113.188L90.385,113.188z" style="stroke-dasharray: 319.38px; stroke-dashoffset: 319.38px; stroke: rgb(255, 255, 255);"></path>
				<path id="XMLID_1433_" d="M105.471,110.238c-3.443,28.272-5.867,56.653-7.269,85.1
					c-0.015,0.317,0.731,0.079,0.817-0.118c0.389-0.896,0.369-0.493,0.066-1.422c-0.081-0.25-0.898-0.018-0.82,0.22
					c0.792-0.36,1.093-0.952,0.902-1.774c0.05-0.992,0.102-1.984,0.155-2.977c0.088-1.653,0.181-3.306,0.276-4.959
					c0.211-3.636,0.438-7.271,0.682-10.905c0.467-6.938,0.997-13.872,1.589-20.8c1.212-14.188,2.696-28.349,4.418-42.483
					C106.322,109.839,105.501,109.993,105.471,110.238L105.471,110.238z" style="stroke-dasharray: 319.38px; stroke-dashoffset: 319.38px; stroke: rgb(255, 255, 255);"></path>
				<path id="XMLID_1437_" d="M117.57,107.495c1.961,1.845,0.527,8.217,0.423,10.634
					c-0.157,3.637-0.319,7.272-0.489,10.909c-0.322,6.941-0.669,13.882-1.037,20.82c-0.755,14.209-1.607,28.413-2.546,42.61
					c-0.011,0.167,0.803,0.057,0.821-0.22c0.982-14.858,1.87-29.723,2.65-44.593c0.381-7.271,0.738-14.541,1.07-21.813
					c0.166-3.636,0.325-7.272,0.479-10.909c0.095-2.253,1.183-6.056-0.604-7.735C118.162,107.032,117.402,107.337,117.57,107.495
					L117.57,107.495z" style="stroke-dasharray: 319.38px; stroke-dashoffset: 319.38px; stroke: rgb(255, 255, 255);"></path>
				<path id="XMLID_1441_" d="M132.748,104.441c-2.157,29.537-3.576,59.119-4.254,88.727
					c-0.008,0.338,0.815,0.169,0.821-0.104c0.679-29.606,2.097-59.189,4.254-88.726C133.594,104.007,132.768,104.165,132.748,104.441
					L132.748,104.441z" style="stroke-dasharray: 319.38px; stroke-dashoffset: 319.38px; stroke: rgb(255, 255, 255);"></path>
				<path id="XMLID_1445_" d="M149.25,101.494c-1.467,30.393-2.274,60.811-2.422,91.238
					c-0.001,0.102,0.82-0.003,0.821-0.22c0.147-30.428,0.955-60.846,2.422-91.238C150.076,101.184,149.261,101.271,149.25,101.494
					L149.25,101.494z" style="stroke-dasharray: 319.38px; stroke-dashoffset: 319.38px; stroke: rgb(255, 255, 255);"></path>
				<path id="XMLID_1449_" d="M167.176,97.434c-0.325,10.578-0.651,21.156-0.978,31.735
					c-0.009,0.314,0.812,0.141,0.819-0.112c0.326-10.578,0.651-21.156,0.978-31.735C168.005,97.007,167.184,97.181,167.176,97.434
					L167.176,97.434z" style="stroke-dasharray: 319.38px; stroke-dashoffset: 319.38px; stroke: rgb(255, 255, 255);"></path>
				<path id="XMLID_1453_" d="M240.242,91.232c0.607,10.561,0.729,21.115,0.366,31.687
					c-0.013,0.378,0.815,0.229,0.826-0.086c0.363-10.613,0.239-21.219-0.37-31.82C241.046,90.702,240.223,90.882,240.242,91.232
					L240.242,91.232z" style="stroke-dasharray: 319.38px; stroke-dashoffset: 319.38px; stroke: rgb(255, 255, 255);"></path>
				<path id="XMLID_1457_" d="M256.629,92.148c0.133,30.174-0.571,60.342-2.112,90.476
					c-0.023,0.442,0.813,0.338,0.834-0.054c1.542-30.135,2.246-60.303,2.112-90.477C257.461,91.649,256.627,91.759,256.629,92.148
					L256.629,92.148z" style="stroke-dasharray: 319.38px; stroke-dashoffset: 319.38px; stroke: rgb(255, 255, 255);"></path>
				<path id="XMLID_1461_" d="M275.978,92.962c2.521,28.995,3.131,58.101,1.832,87.176
					c-0.019,0.408,0.814,0.279,0.83-0.071c1.301-29.124,0.685-58.281-1.841-87.324C276.769,92.391,275.945,92.583,275.978,92.962
					L275.978,92.962z" style="stroke-dasharray: 319.38px; stroke-dashoffset: 319.38px; stroke: rgb(255, 255, 255);"></path>
				<path id="XMLID_1465_" d="M296.254,93.714c1.956,34.446-2.123,68.894-0.314,103.342
					c0.009,0.161,0.834,0.021,0.822-0.22c-1.81-34.448,2.27-68.896,0.313-103.342C297.066,93.332,296.24,93.474,296.254,93.714
					L296.254,93.714z" style="stroke-dasharray: 319.38px; stroke-dashoffset: 319.38px; stroke: rgb(255, 255, 255);"></path>
				<path id="XMLID_1469_" d="M319.655,95.476c1.492,34.743,2.641,69.5,3.444,104.266
					c0.006,0.269,0.829,0.106,0.821-0.22c-0.804-34.767-1.952-69.522-3.444-104.267C320.465,94.983,319.642,95.15,319.655,95.476
					L319.655,95.476z" style="stroke-dasharray: 319.38px; stroke-dashoffset: 319.38px; stroke: rgb(255, 255, 255);"></path>
				<path id="XMLID_1473_" d="M340.559,96.407c-0.006,34.961-3.747,69.881-1.626,104.839
					c0.018,0.284,0.842,0.11,0.821-0.221c-2.118-34.917,1.622-69.794,1.628-104.714C341.382,95.954,340.559,96.12,340.559,96.407
					L340.559,96.407z" style="stroke-dasharray: 319.38px; stroke-dashoffset: 319.38px; stroke: rgb(255, 255, 255);"></path>
				<path id="XMLID_1477_" d="M358.593,97.232c-0.002,34.815-0.005,69.63-0.007,104.445
					c0,0.136,0.777-0.019,0.815-0.185c0.071-0.313,0.143-0.626,0.214-0.939c0.037-0.162-0.764-0.05-0.809,0.149
					c1.753-7.677,0.602-16.87,0.603-24.864c0.001-8.868,0.001-17.736,0.002-26.604c0.001-17.407,0.002-34.814,0.003-52.222
					C359.414,96.894,358.593,97.005,358.593,97.232L358.593,97.232z" style="stroke-dasharray: 319.38px; stroke-dashoffset: 319.38px; stroke: rgb(255, 255, 255);"></path>
				<path id="XMLID_1481_" d="M377.515,98.019c-1.29,33.97-2.942,67.964-2.357,101.968
					c0.004,0.196,0.826,0.056,0.821-0.22c-0.585-34.004,1.067-67.999,2.357-101.969C378.343,97.614,377.525,97.737,377.515,98.019
					L377.515,98.019z" style="stroke-dasharray: 319.38px; stroke-dashoffset: 319.38px; stroke: rgb(255, 255, 255);"></path>
				<path id="XMLID_1485_" d="M395.609,98.241c1.465,17.563-0.355,35.054-1.533,52.572
					c-1.072,15.938-0.78,31.788-0.171,47.738c0.01,0.262,0.806,0.09,0.821-0.162c0.032-0.522,0.064-1.046,0.097-1.568
					c0.021-0.336-0.805-0.176-0.822,0.102c0.953-0.424,1.147-1.214,0.582-2.369c-0.036-0.945-0.07-1.89-0.104-2.835
					c-0.078-2.204-0.152-4.408-0.214-6.613c-0.121-4.389-0.202-8.779-0.189-13.171c0.025-8.391,0.49-16.76,1.096-25.127
					c1.178-16.252,2.617-32.498,1.259-48.787C396.408,97.752,395.583,97.926,395.609,98.241L395.609,98.241z" style="stroke-dasharray: 319.38px; stroke-dashoffset: 319.38px; stroke: rgb(255, 255, 255);"></path>
				<path id="XMLID_1489_" d="M411.813,99.673c-0.733,32.758-1.972,65.501-3.713,98.222
					c-0.021,0.373,0.809,0.226,0.825-0.087c1.741-32.721,2.979-65.464,3.714-98.222C412.646,99.209,411.819,99.362,411.813,99.673
					L411.813,99.673z" style="stroke-dasharray: 319.38px; stroke-dashoffset: 319.38px; stroke: rgb(255, 255, 255);"></path>
				<path id="XMLID_5287_" d="M212.004,91.003c0.037,0.563,0.069,1.035,0.106,1.579
					c2.013,0.267,4.027,0.466,6.017,0.813c2.49,0.435,4.887,1.187,7.027,2.596c3.48,2.29,4.071,5.585,1.556,8.914
					c-1.927,2.551-4.564,4.216-7.364,5.623c-5.996,3.015-12.398,4.574-19.053,5.187c-5.081,0.468-10.151,0.455-15.08-1.015
					c-1.808-0.539-3.613-1.34-5.179-2.383c-3.108-2.069-3.657-5.379-1.291-8.284c1.387-1.701,3.114-3.255,4.98-4.402
					c2.426-1.491,5.129-2.542,7.741-3.718c0.604-0.271,1.092-0.457,0.948-1.238c-0.136-0.74,0.294-0.958,0.939-1.055
					c5.785-0.863,11.567-1.746,17.352-2.61C211.091,90.952,211.493,91.003,212.004,91.003z M208.494,93.876
					c-4.28,0.638-8.522,1.271-12.844,1.914c0,4.941,0,9.769,0,14.693c-1.088,0.135-2.088,0.259-3.223,0.399c0-4.785,0-9.401,0-14.238
					c-3.343,1.555-6.453,3.073-8.414,6.148c-1.446,2.268-1.118,4.591,1.086,6.111c1.414,0.976,3.07,1.834,4.734,2.175
					c9.759,2.002,18.965,0.425,27.465-4.816c1.196-0.737,2.258-1.807,3.14-2.916c2.047-2.575,1.565-5.249-1.151-7.095
					c-2.129-1.446-4.556-2.013-7.233-2.361c0,2.103,0,4.117,0,6.179c-3.454,0.477-6.759,0.934-10.092,1.395c0-0.912,0-1.683,0-2.465
					c1.157-0.175,2.226-0.312,3.284-0.504c1.113-0.201,2.724-0.103,3.193-0.777c0.565-0.813,0.159-2.302,0.168-3.498
					C208.608,94.146,208.562,94.072,208.494,93.876z M186.145,98.979c-2.155,0.917-5.164,3.334-6.478,5.43
					c-1.573,2.511-1.231,4.915,1.003,6.855c1.673,1.452,3.688,2.23,5.8,2.732c7.733,1.836,15.397,1.121,22.993-0.808
					c4.867-1.236,9.557-2.975,13.476-6.229c1.26-1.047,2.33-2.417,3.194-3.819c0.912-1.48,0.778-3.146-0.188-4.662
					c-1.313-2.063-5.863-4.354-8.43-4.229c0.472,0.229,0.907,0.423,1.328,0.646c4.442,2.357,5.134,6.163,1.553,9.715
					c-1.535,1.521-3.38,2.85-5.305,3.836c-6.926,3.547-14.344,4.795-22.071,4.069c-2.794-0.263-5.524-0.929-7.917-2.516
					c-3.181-2.109-3.699-5.208-1.366-8.216C184.617,100.648,185.607,99.6,186.145,98.979z" style="stroke-dasharray: 319.38px; stroke-dashoffset: 319.38px; stroke: rgb(255, 255, 255);"></path>
				<path id="XMLID_5292_" d="M227.936,114.532c0.503-0.076,0.965-0.145,1.43-0.215c0,1.783,0,3.516,0,5.34
					c-1.06,0.122-2.037,0.294-3.018,0.314c-0.349,0.007-0.799-0.277-1.04-0.564c-0.755-0.9-1.434-1.864-2.336-3.063
					c0,1.537,0,2.747,0,4.019c-0.475,0.054-0.858,0.098-1.34,0.152c0-1.759,0-3.449,0-5.278c0.993-0.109,2.047-0.272,3.104-0.313
					c0.317-0.013,0.74,0.235,0.955,0.495c0.732,0.89,1.394,1.837,2.244,2.98C227.936,116.964,227.936,115.773,227.936,114.532z" style="stroke-dasharray: 319.38px; stroke-dashoffset: 319.38px; stroke: rgb(255, 255, 255);"></path>
				<path id="XMLID_5294_" d="M236.193,117.979c0-0.435,0-0.819,0-1.271c-0.486,0-0.938,0-1.392,0
					c0.038-0.887,1.759-1.33,4.405-1.203c-0.066,0.957-0.134,1.917-0.218,3.106c-1.943,0.198-4.085,0.481-6.237,0.604
					c-0.884,0.051-1.409-0.53-1.452-1.533c-0.14-3.256,0.109-3.576,3.383-3.975c1.108-0.136,2.214-0.322,3.326-0.385
					c0.34-0.019,0.698,0.296,1.049,0.457c-0.047,0.116-0.093,0.231-0.14,0.348c-1.182,0.127-2.36,0.289-3.545,0.368
					c-0.942,0.063-1.401,0.459-1.27,1.434c0.021,0.156,0.002,0.318,0.002,0.479C234.105,118.315,234.105,118.315,236.193,117.979z" style="stroke-dasharray: 319.38px; stroke-dashoffset: 319.38px; stroke: rgb(255, 255, 255);"></path>
				<path id="XMLID_5296_" d="M212.114,118.893c0.001-2.149,0.315-2.527,2.476-2.82
					c1.221-0.166,2.448-0.316,3.678-0.387c1.049-0.06,1.598,0.465,1.637,1.577c0.107,3.107-0.085,3.373-3.137,3.819
					c-0.629,0.093-1.268,0.117-1.898,0.202C212.524,121.601,212.113,121.248,212.114,118.893z M217.473,118.622
					c-0.087-0.047-0.174-0.095-0.261-0.142c0-0.239-0.024-0.48,0.005-0.716c0.119-0.979-0.367-1.066-1.214-1.023
					c-1.55,0.081-1.196,1.151-1.223,2.058c-0.052,1.795-0.025,1.692,1.751,1.38C216.924,120.109,217.163,119.164,217.473,118.622z" style="stroke-dasharray: 319.38px; stroke-dashoffset: 319.38px; stroke: rgb(255, 255, 255);"></path>
				<path id="XMLID_5300_" d="M180.377,125.101c0-0.685,0-1.259,0-1.821c-1.753-0.309-1.759-0.302-1.83,2.005
					c-0.763,0.095-1.54,0.191-2.434,0.303c0-1.697,0-3.303,0-4.989c0.779-0.093,1.601-0.19,2.496-0.296c0,0.647,0,1.262,0,2.02
					c0.609-0.067,1.137-0.125,1.73-0.19c0-0.694,0-1.314,0-2.024c0.833-0.101,1.685-0.205,2.576-0.313c0,1.677,0,3.288,0,5.006
					C182.066,124.9,181.257,124.996,180.377,125.101z" style="stroke-dasharray: 319.38px; stroke-dashoffset: 319.38px; stroke: rgb(255, 255, 255);"></path>
				<path id="XMLID_5302_" d="M170.78,126.169c-0.865,0.093-1.644,0.176-2.472,0.264c0-1.644,0-3.222,0-4.923
					c1.877-0.21,3.758-0.467,5.648-0.587c0.315-0.021,0.92,0.521,0.954,0.85c0.09,0.85,0.388,1.928-0.878,2.275
					c-0.532,0.146-1.096,0.197-1.649,0.251C170.7,124.462,170.699,124.454,170.78,126.169z M172.406,122.052
					c-1.629-0.24-1.812-0.074-1.524,1.386C172.564,123.478,172.642,123.408,172.406,122.052z" style="stroke-dasharray: 319.38px; stroke-dashoffset: 319.38px; stroke: rgb(255, 255, 255);"></path>
				<path id="XMLID_5306_" d="M187.339,123.354c0.911-0.089,1.674-0.096,2.397-0.268c0.261-0.063,0.587-0.51,0.606-0.8
					c0.073-1.07,0.029-2.149,0.029-3.356c0.419-0.051,0.872-0.106,1.355-0.166c0,1.268-0.02,2.451,0.006,3.635
					c0.021,0.921-0.479,1.475-1.292,1.615c-1.449,0.249-2.919,0.408-4.386,0.523c-0.854,0.066-1.322-0.359-1.282-1.306
					c0.049-1.186,0.012-2.375,0.012-3.645c0.771-0.098,1.63-0.206,2.554-0.323C187.339,120.615,187.339,121.896,187.339,123.354z" style="stroke-dasharray: 319.38px; stroke-dashoffset: 319.38px; stroke: rgb(255, 255, 255);"></path>
				<path id="XMLID_5308_" d="M199.146,118.76c-0.196,0.016-0.394,0.03-0.59,0.048c-2.936,0.256-3.034,0.39-2.551,3.592
					c0.518,0,1.061,0.032,1.598-0.009c0.552-0.042,1.099-0.154,1.858,0.004c-0.281,0.238-0.537,0.635-0.85,0.688
					c-1.141,0.19-2.298,0.298-3.452,0.376c-1.318,0.09-1.814-0.403-1.834-1.728c-0.007-0.439,0.025-0.881-0.006-1.318
					c-0.083-1.188,0.587-1.815,1.629-2.016c1.174-0.227,2.374-0.337,3.568-0.423c0.255-0.019,0.533,0.282,0.801,0.437
					C199.261,118.526,199.204,118.644,199.146,118.76z" style="stroke-dasharray: 319.38px; stroke-dashoffset: 319.38px; stroke: rgb(255, 255, 255);"></path>
				<path id="XMLID_5422_" d="M205.082,122.376c0-1.788,0-3.446,0-5.179c0.871-0.11,1.773-0.224,2.749-0.347
					c0,1.396,0,2.729,0,4.256c1.276-0.138,2.48-0.269,3.757-0.406c0.171,0.674-0.072,0.96-0.794,1.029
					C208.93,121.91,207.071,122.147,205.082,122.376z" style="stroke-dasharray: 319.38px; stroke-dashoffset: 319.38px; stroke: rgb(255, 255, 255);"></path>
				<path id="XMLID_5424_" d="M211.932,105.875c0.348,2.447,0.351,2.472-1.817,2.761
					c-3.918,0.521-7.841,1.014-11.762,1.512c-0.312,0.04-0.63,0.034-1.027,0.054c0-3.421,0-6.798,0-10.338
					c1.007-0.152,2.042-0.309,3.205-0.484c0,2.681,0,5.225,0,7.97C204.391,106.85,208.122,106.367,211.932,105.875z" style="stroke-dasharray: 319.38px; stroke-dashoffset: 319.38px; stroke: rgb(255, 255, 255);"></path>
			</g>
		</svg>